<svg width="130" height="97" viewBox="0 0 130 97" fill="none" xmlns="http://www.w3.org/2000/svg">
<g clip-path="url(#clip0_769_3221)">
<mask id="mask0_769_3221" style="mask-type:luminance" maskUnits="userSpaceOnUse" x="0" y="0" width="130" height="97">
<path d="M130 0H0V97H130V0Z" fill="white"/>
</mask>
<g mask="url(#mask0_769_3221)">
<path d="M38.3909 100.9H94.8009C92.9509 97.22 89.6809 93.96 86.0009 91.14C82.0209 88.09 77.5609 85.56 72.7309 84.3C71.2309 83.91 69.6909 83.65 68.1409 83.48C67.1109 83.37 66.0709 83.37 65.0409 83.48C63.4909 83.64 61.9609 83.91 60.4509 84.3C55.6209 85.55 51.1609 88.09 47.1809 91.14C43.5009 93.96 40.2309 97.23 38.3809 100.9H38.3909Z" fill="#2E2E2E" stroke="#101010" stroke-width="2" stroke-miterlimit="10"/>
<path d="M104.78 63.6C104.57 62.64 104.31 61.64 103.59 61.21C103.2 60.98 102.68 60.93 102.17 60.89C100.35 60.78 98.6898 60.99 96.9997 61.21C93.2797 61.69 89.4197 62.24 85.8997 63.63C84.2497 64.28 82.6897 65.12 81.1997 66.07C79.6197 65.25 77.9697 64.56 76.2697 63.98C73.3897 63 70.3797 62.32 67.3597 62.09C67.1097 62.07 66.8497 62.06 66.5997 62.06C66.3497 62.06 66.0897 62.08 65.8397 62.09C62.8197 62.32 59.7997 62.99 56.9297 63.98C56.1497 64.25 55.3897 64.54 54.6297 64.85C53.0097 63.64 50.7597 63.21 48.5297 63.12C46.2997 63.03 44.0897 63.27 41.8897 63.63C39.6897 63.99 37.5197 64.47 35.3597 64.99C33.2097 65.51 31.0797 66.06 29.0997 67.19C27.1097 68.32 25.2597 70.03 24.8497 72.01C24.4397 73.99 25.4697 76.23 26.5797 78.25C27.6897 80.26 28.8797 82.04 30.3597 83.63C31.8397 85.23 33.6197 86.64 35.6297 87.84C34.6797 89.28 33.8697 90.81 33.2197 92.41C32.1197 95.11 31.4997 98 31.2997 100.89H101.88C101.68 98 101.06 95.11 99.9597 92.41C99.1898 90.52 98.1897 88.73 97.0197 87.05C99.9597 84.78 101.29 83.2 102.35 81.42C104.32 78.13 105.37 74.2 105.51 70.53C105.6 68.27 105.34 66.11 104.78 63.6Z" fill="white"/>
<path d="M38.3909 100.9H94.8009C92.9509 97.22 89.6809 93.96 86.0009 91.14C82.0209 88.09 77.5609 85.56 72.7309 84.3C71.2309 83.91 69.6909 83.65 68.1409 83.48C67.1109 83.37 66.0709 83.37 65.0409 83.48C63.4909 83.64 61.9609 83.91 60.4509 84.3C55.6209 85.55 51.1609 88.09 47.1809 91.14C43.5009 93.96 40.2309 97.23 38.3809 100.9H38.3909Z" fill="#2E2E2E" stroke="#101010" stroke-width="2" stroke-miterlimit="10"/>
<path d="M35.6297 87.85C33.6197 86.65 31.8397 85.24 30.3597 83.64C28.8797 82.04 27.6897 80.27 26.5797 78.26C25.4697 76.25 24.4397 74 24.8497 72.02C25.2597 70.04 27.1197 68.33 29.0997 67.2C31.0897 66.07 33.2097 65.52 35.3597 65C37.5097 64.48 39.6897 64 41.8897 63.64C44.0897 63.28 46.2997 63.03 48.5297 63.13C50.7597 63.22 53.0097 63.65 54.6297 64.86" stroke="#101010" stroke-width="2" stroke-linecap="round" stroke-linejoin="round"/>
<path d="M67.2809 91.35C70.5409 91.29 84.0309 91.64 92.7409 100.89H94.8009C92.9509 97.21 89.6809 93.95 86.0009 91.13C82.0209 88.08 77.5609 85.55 72.7309 84.29C71.2309 83.9 69.6909 83.64 68.1409 83.47C67.1109 83.36 66.0709 83.36 65.0409 83.47C63.4909 83.63 61.9609 83.9 60.4509 84.29C55.6209 85.54 51.1609 88.08 47.1809 91.13C43.5009 93.95 40.2309 97.22 38.3809 100.89H40.4709C49.1909 91.64 62.6709 91.29 65.9309 91.35C66.3809 91.35 66.8209 91.35 67.2709 91.35H67.2809Z" fill="#101010"/>
<path d="M72.2109 100.9H82.5009C82.5709 97.96 81.7809 92.03 77.3609 92.03C72.9409 92.03 72.1509 97.96 72.2209 100.9H72.2109Z" fill="white" stroke="#101010" stroke-width="2" stroke-miterlimit="10"/>
<path d="M50.8301 100.9H61.1201C61.1901 97.96 60.4001 92.03 55.9801 92.03C51.5601 92.03 50.7701 97.96 50.8401 100.9H50.8301Z" fill="white" stroke="#101010" stroke-width="2" stroke-miterlimit="10"/>
<path d="M107.79 3.73V55.71H22.2305V3.73C22.2305 2.24 23.4205 1.05 24.8805 1.05H105.15C106.6 1.05 107.8 2.24 107.8 3.73H107.79Z" fill="white" stroke="#101010" stroke-width="2" stroke-linecap="round" stroke-linejoin="round"/>
<path d="M113.03 64.45H16.9702C15.2802 64.45 13.9102 63.08 13.9102 61.39V55.71H116.09V61.39C116.09 63.08 114.72 64.45 113.03 64.45Z" fill="white" stroke="#101010" stroke-width="2" stroke-linecap="round" stroke-linejoin="round"/>
<path d="M75.0808 60.46H54.9308C54.8508 60.46 54.7208 60.42 54.5708 60.25C54.4208 60.07 54.3008 59.78 54.3008 59.41V55.71H75.6908V59.41C75.6908 59.77 75.5708 60.07 75.4208 60.25C75.2808 60.43 75.1408 60.46 75.0608 60.46H75.0808Z" fill="#B2B2B2" stroke="#101010" stroke-width="2" stroke-linecap="round" stroke-linejoin="round"/>
<path d="M29.2799 6.99001H100.74C101.33 6.99001 101.85 7.49001 101.85 8.14001V49.81C101.85 50.47 101.33 50.96 100.74 50.96H29.2799C28.6899 50.96 28.1699 50.46 28.1699 49.81V8.14001C28.1699 7.48001 28.6899 6.99001 29.2799 6.99001Z" fill="#2E2E2E" stroke="#101010" stroke-width="2" stroke-miterlimit="10"/>
<path d="M65.2995 13.77L75.6295 30.87L75.6595 30.92C75.6895 30.97 75.6995 31.03 75.6995 31.09C75.6995 31.15 75.6795 31.2 75.6595 31.26C75.6295 31.31 75.5895 31.35 75.5295 31.38C75.4795 31.41 75.4095 31.42 75.3495 31.42H69.1395C68.9695 31.42 68.8095 31.38 68.6695 31.3C68.5295 31.22 68.4095 31.11 68.3195 30.97L61.5595 19.78C61.4795 19.64 61.4395 19.49 61.4395 19.33C61.4395 19.17 61.4795 19.02 61.5595 18.88L64.6795 13.75C64.7095 13.7 64.7495 13.66 64.8095 13.63C64.8595 13.6 64.9295 13.59 64.9895 13.59C65.0495 13.59 65.1095 13.61 65.1695 13.63C65.2195 13.66 65.2695 13.71 65.2995 13.76V13.77Z" fill="#5167FF" stroke="#101010" stroke-width="1.5" stroke-linejoin="round"/>
<path d="M59.1108 23.27C59.1308 23.22 59.1808 23.18 59.2208 23.15C59.2708 23.12 59.3308 23.11 59.3808 23.11C59.4308 23.11 59.4908 23.13 59.5408 23.15C59.5908 23.18 59.6308 23.22 59.6508 23.28L62.5008 28.41C62.5708 28.55 62.6108 28.7 62.6108 28.86C62.6108 29.02 62.5708 29.17 62.5008 29.31L56.3008 40.49C56.2308 40.63 56.1208 40.74 55.9908 40.82C55.8608 40.9 55.7108 40.94 55.5608 40.94H49.8808C49.8208 40.94 49.7708 40.92 49.7108 40.9C49.6608 40.87 49.6208 40.82 49.5908 40.78C49.5608 40.73 49.5508 40.67 49.5508 40.61C49.5508 40.55 49.5708 40.49 49.6008 40.44L49.6808 40.29L59.1008 23.28L59.1108 23.27Z" fill="#5167FF" stroke="#101010" stroke-width="1.5" stroke-linejoin="round"/>
<path d="M80.2803 40.89C80.2303 40.92 80.1603 40.93 80.1003 40.93H59.4203C59.3603 40.93 59.3003 40.91 59.2403 40.89C59.1903 40.86 59.1403 40.81 59.1103 40.76C59.0803 40.71 59.0703 40.65 59.0703 40.59C59.0703 40.53 59.0903 40.48 59.1103 40.42L62.2003 35.42C62.2803 35.29 62.4003 35.18 62.5503 35.1C62.6903 35.02 62.8503 34.98 63.0203 34.98H76.5003C76.6703 34.98 76.8303 35.02 76.9703 35.1C77.1103 35.18 77.2303 35.28 77.3203 35.42L80.4103 40.42C80.4503 40.47 80.4503 40.53 80.4503 40.59C80.4503 40.65 80.4303 40.7 80.4103 40.76C80.3803 40.81 80.3403 40.85 80.2803 40.89Z" fill="#5167FF" stroke="#101010" stroke-width="1.5" stroke-linejoin="round"/>
<path d="M81.1992 66.08C82.6892 65.13 84.2592 64.29 85.8992 63.64C89.4192 62.25 93.2892 61.7 96.9992 61.22C98.6992 61 100.359 60.79 102.169 60.9C102.679 60.93 103.199 60.99 103.589 61.22C104.309 61.64 104.569 62.65 104.779 63.61C105.339 66.12 105.599 68.28 105.509 70.54C105.369 74.21 104.319 78.15 102.349 81.43C101.289 83.2 99.9592 84.79 97.0192 87.06" fill="white"/>
<path d="M81.1992 66.08C82.6892 65.13 84.2592 64.29 85.8992 63.64C89.4192 62.25 93.2892 61.7 96.9992 61.22C98.6992 61 100.359 60.79 102.169 60.9C102.679 60.93 103.199 60.99 103.589 61.22C104.309 61.64 104.569 62.65 104.779 63.61C105.339 66.12 105.599 68.28 105.509 70.54C105.369 74.21 104.319 78.15 102.349 81.43C101.289 83.2 99.9592 84.79 97.0192 87.06" stroke="#101010" stroke-width="2" stroke-linecap="round" stroke-linejoin="round"/>
<path d="M38.0305 84.67C36.0305 86.97 34.3705 89.59 33.2305 92.41C32.1305 95.11 31.5105 98 31.3105 100.89H101.891C101.691 98 101.071 95.11 99.9706 92.41C98.8206 89.59 97.1605 86.96 95.1705 84.67" stroke="#101010" stroke-width="2" stroke-linecap="round" stroke-linejoin="round"/>
<path d="M54.0811 65.09C52.8911 65.6 51.7411 66.18 50.6211 66.83" stroke="#101010" stroke-width="2" stroke-linecap="round" stroke-linejoin="round"/>
<path d="M82.5698 66.83C81.1898 66.03 79.7498 65.34 78.2598 64.74" stroke="#101010" stroke-width="2" stroke-linecap="round" stroke-linejoin="round"/>
<path d="M13.8298 24.09L6.33984 16.59" stroke="#101010" stroke-width="2" stroke-linecap="round" stroke-linejoin="round"/>
<path d="M13.8305 33.17H1.06055" stroke="#101010" stroke-width="2" stroke-linecap="round" stroke-linejoin="round"/>
<path d="M123.67 16.58L116.18 24.08" stroke="#101010" stroke-width="2" stroke-linecap="round" stroke-linejoin="round"/>
<path d="M128.95 33.17H116.18" stroke="#101010" stroke-width="2" stroke-linecap="round" stroke-linejoin="round"/>
</g>
</g>
<defs>
<clipPath id="clip0_769_3221">
<rect width="130" height="97" fill="white"/>
</clipPath>
</defs>
</svg>
