<svg width="153" height="102" viewBox="0 0 153 102" fill="none" xmlns="http://www.w3.org/2000/svg">
<path d="M47.6559 106H108.259C106.272 102.05 102.759 98.5416 98.8072 95.5117C94.5314 92.2326 89.7405 89.5117 84.5474 88.1662C82.9351 87.7476 81.2805 87.4652 79.6189 87.2891C78.5146 87.1728 77.3963 87.1728 76.292 87.2891C74.6304 87.4619 72.9793 87.7476 71.3635 88.1662C66.1739 89.5084 61.383 92.2326 57.1037 95.5117C53.1524 98.5416 49.6386 102.05 47.6523 106H47.6559Z" fill="#2E2E2E" stroke="#101010" stroke-width="2" stroke-miterlimit="10"/>
<path d="M118.981 65.937C118.752 64.9071 118.477 63.8274 117.704 63.3722C117.288 63.1297 116.727 63.0666 116.18 63.0334C114.229 62.9138 112.444 63.1364 110.627 63.3722C106.633 63.8905 102.481 64.4786 98.6991 65.9769C96.9316 66.6779 95.2452 67.5749 93.6471 68.5948C91.9466 67.7177 90.1756 66.9769 88.3481 66.349C85.2577 65.2925 82.0155 64.5649 78.7733 64.3224C78.5017 64.3025 78.23 64.2859 77.9584 64.2859C77.6867 64.2859 77.4151 64.3025 77.1434 64.3224C73.9013 64.5682 70.6556 65.2925 67.5687 66.349C66.7325 66.6347 65.9105 66.947 65.0991 67.2825C63.3563 65.9802 60.9362 65.5217 58.5407 65.4221C56.1452 65.3224 53.7674 65.5849 51.4108 65.9736C49.0506 66.3623 46.7116 66.8805 44.3972 67.4353C42.0865 67.9902 39.8039 68.5815 37.6695 69.7975C35.5351 71.0134 33.5418 72.8506 33.1008 74.9768C32.6598 77.1031 33.7676 79.515 34.9636 81.6778C36.156 83.8373 37.4331 85.7476 39.0277 87.4585C40.6224 89.1728 42.5345 90.6911 44.6901 91.9768H44.6971C43.6811 93.5283 42.8062 95.1728 42.1076 96.8837C40.9293 99.7874 40.2555 102.89 40.0438 105.997H115.869C115.658 102.89 114.984 99.7874 113.806 96.8837C112.98 94.8571 111.908 92.9269 110.645 91.1296H110.652C113.809 88.6944 115.238 86.9901 116.377 85.0831C118.491 81.5516 119.62 77.3257 119.768 73.3788C119.86 70.9503 119.581 68.628 118.981 65.9304V65.937Z" fill="white"/>
<path d="M47.2662 88.5681C45.1212 91.0365 43.3361 93.8538 42.1049 96.887C40.9265 99.7907 40.2527 102.894 40.041 106H115.867C115.655 102.894 114.981 99.7907 113.803 96.887C112.572 93.8538 110.786 91.0365 108.642 88.5681" stroke="#101010" stroke-width="2" stroke-linecap="round" stroke-linejoin="round"/>
<path d="M47.6559 106H108.259C106.272 102.05 102.759 98.5416 98.8072 95.5117C94.5314 92.2326 89.7405 89.5117 84.5474 88.1662C82.9351 87.7476 81.2805 87.4652 79.6189 87.2891C78.5146 87.1728 77.3963 87.1728 76.292 87.2891C74.6304 87.4619 72.9793 87.7476 71.3635 88.1662C66.1739 89.5084 61.383 92.2326 57.1037 95.5117C53.1524 98.5416 49.6386 102.05 47.6523 106H47.6559Z" fill="#2E2E2E" stroke="#101010" stroke-width="2" stroke-miterlimit="10"/>
<path d="M44.6879 91.98C42.5323 90.6943 40.6202 89.176 39.0256 87.4617C37.431 85.7475 36.1539 83.8405 34.9614 81.681C33.769 79.5183 32.6577 77.1063 33.0987 74.9801C33.5397 72.8538 35.5329 71.0166 37.6673 69.8007C39.8017 68.5847 42.0843 67.9934 44.3951 67.4386C46.7059 66.8838 49.0484 66.3655 51.4086 65.9768C53.7688 65.5881 56.1431 65.3256 58.5385 65.4253C60.934 65.525 63.3542 65.9834 65.0969 67.2857" stroke="#101010" stroke-width="2" stroke-linecap="round" stroke-linejoin="round"/>
<path d="M93.6484 68.5948C95.2501 67.5749 96.9365 66.6746 98.7004 65.9769C102.482 64.4786 106.635 63.8905 110.628 63.3722C112.449 63.1364 114.234 62.9138 116.181 63.0334C116.728 63.0666 117.289 63.1297 117.705 63.3722C118.478 63.8241 118.753 64.9071 118.982 65.937C119.582 68.6347 119.861 70.9569 119.769 73.3855C119.617 77.3323 118.492 81.5582 116.379 85.0898C115.239 86.9967 113.811 88.701 110.653 91.1362" stroke="#101010" stroke-width="2" stroke-linecap="round" stroke-linejoin="round"/>
<path d="M95.1146 69.3987C92.9767 68.1628 90.7047 67.1595 88.3445 66.3522C85.254 65.2957 82.0119 64.5681 78.7697 64.3256C78.498 64.3057 78.2264 64.2891 77.9547 64.2891C77.6831 64.2891 77.4114 64.3057 77.1398 64.3256C73.8976 64.5715 70.6519 65.2957 67.565 66.3522C65.2048 67.1595 62.9328 68.1628 60.7949 69.3987" stroke="#101010" stroke-width="2" stroke-linecap="round" stroke-linejoin="round"/>
<path d="M78.6875 95.7475C82.1942 95.6844 96.6799 96.0598 106.043 106H108.259C106.272 102.05 102.759 98.5416 98.8072 95.5117C94.5314 92.2326 89.7405 89.5117 84.5474 88.1662C82.9351 87.7476 81.2805 87.4652 79.6189 87.2891C78.5146 87.1728 77.3963 87.1728 76.292 87.2891C74.6304 87.4619 72.9793 87.7476 71.3635 88.1662C66.1739 89.5084 61.383 92.2326 57.1037 95.5117C53.1524 98.5416 49.6386 102.05 47.6523 106H49.8926C59.2557 96.0598 73.7413 95.6844 77.2481 95.7475C77.7279 95.7575 78.2042 95.7575 78.684 95.7475H78.6875Z" fill="#101010"/>
<path d="M83.9871 106H95.0365C95.1142 102.844 94.2639 96.4751 89.5118 96.4751C84.7597 96.4751 83.9095 102.844 83.9871 106Z" fill="white" stroke="#101010" stroke-width="2" stroke-miterlimit="10"/>
<path d="M61.0164 106H72.0659C72.1435 102.844 71.2932 96.4751 66.5411 96.4751C61.789 96.4751 60.9388 102.844 61.0164 106Z" fill="white" stroke="#101010" stroke-width="2" stroke-miterlimit="10"/>
<path d="M112 3.68792V47.4326H40V3.68792C40 2.4339 41.0051 1.43262 42.2268 1.43262H109.773C110.995 1.43262 112 2.4339 112 3.68792Z" fill="white" stroke="#101010" stroke-width="2" stroke-linecap="round" stroke-linejoin="round"/>
<path d="M116.41 54.7854H35.5788C34.1529 54.7854 33 53.6323 33 52.2096V47.4326H118.988V52.2096C118.988 53.6323 117.835 54.7854 116.41 54.7854Z" fill="white" stroke="#101010" stroke-width="2" stroke-linecap="round" stroke-linejoin="round"/>
<path d="M84.4769 51.4326H67.5231C67.457 51.4326 67.3453 51.402 67.2241 51.2522C67.1014 51.1007 67 50.8553 67 50.548V47.4326H85V50.548C85 50.8538 84.899 51.0997 84.7762 51.2518C84.6552 51.4019 84.5436 51.4326 84.4769 51.4326Z" fill="#B2B2B2" stroke="#101010" stroke-width="2" stroke-linecap="round" stroke-linejoin="round"/>
<path d="M45.9335 6.43262H106.066C106.565 6.43262 107 6.84926 107 7.40107V42.4642C107 43.016 106.565 43.4326 106.066 43.4326H45.9335C45.4348 43.4326 45 43.016 45 42.4642V7.40107C45 6.84926 45.4348 6.43262 45.9335 6.43262Z" fill="#2E2E2E" stroke="#101010" stroke-width="2" stroke-miterlimit="10"/>
<path d="M76.2503 12.1375L84.9402 26.5297L84.9626 26.5731C84.9851 26.6165 85 26.6671 85 26.7178C85 26.7685 84.9851 26.8119 84.9626 26.8625C84.9402 26.9059 84.9029 26.9421 84.8506 26.9638C84.8057 26.9928 84.7534 27 84.7011 27H79.4782C79.3362 27 79.2017 26.9638 79.0822 26.8987C78.9626 26.8336 78.8655 26.7395 78.7908 26.6237L73.1046 17.2098C73.0374 17.0941 73 16.9638 73 16.8336C73 16.7033 73.0374 16.5731 73.1046 16.4573L75.7273 12.1375C75.7497 12.0941 75.787 12.0579 75.8394 12.0362C75.8842 12.0145 75.9365 12 75.9888 12C76.0411 12 76.0934 12.0145 76.1382 12.0362C76.1831 12.0651 76.2204 12.1013 76.2503 12.1447V12.1375Z" fill="#5167FF" stroke="#101010" stroke-width="1.5" stroke-linejoin="round"/>
<path d="M71.0393 20.1374C71.0598 20.094 71.0941 20.0579 71.1352 20.0362C71.1763 20.0072 71.2243 20 71.2723 20C71.3202 20 71.3682 20.0145 71.4093 20.0362C71.4505 20.0579 71.4847 20.094 71.5053 20.1446L73.9041 24.4624C73.9657 24.5781 74 24.7083 74 24.8385C74 24.9687 73.9657 25.0988 73.9041 25.2146L68.6885 34.6239C68.6268 34.7396 68.5377 34.8337 68.428 34.8987C68.3184 34.9638 68.195 35 68.0648 35H63.281C63.233 35 63.185 34.9855 63.1371 34.9638C63.096 34.9349 63.0617 34.8987 63.0343 34.8626C63.0069 34.8192 63 34.7686 63 34.7179C63 34.6673 63.0137 34.6167 63.0411 34.5733L63.1097 34.4503L71.0393 20.1374Z" fill="#5167FF" stroke="#101010" stroke-width="1.5" stroke-linejoin="round"/>
<path d="M88.8508 34.9647C88.806 34.9859 88.7538 35 88.7016 35H71.2984C71.2462 35 71.1939 34.9859 71.1492 34.9647C71.1044 34.9365 71.0671 34.9013 71.0373 34.859C71.0149 34.8166 71 34.7673 71 34.7179C71 34.6685 71.0149 34.6262 71.0373 34.5769L73.6407 30.3667C73.7078 30.2539 73.8048 30.1622 73.9316 30.0987C74.051 30.0353 74.1852 30 74.327 30H85.673C85.8148 30 85.949 30.0353 86.0684 30.0987C86.1877 30.1622 86.2847 30.2539 86.3593 30.3667L88.9627 34.5769C88.9925 34.6192 89 34.6685 89 34.7179C89 34.7673 88.9851 34.8096 88.9627 34.859C88.9403 34.9013 88.903 34.9365 88.8508 34.9647Z" fill="#5167FF" stroke="#101010" stroke-width="1.5" stroke-linejoin="round"/>
<path d="M10.4766 12.7626L23.9242 20.8236" stroke="#101010" stroke-width="2" stroke-linecap="round" stroke-linejoin="round"/>
<path d="M1 30.5824H23.9257" stroke="#101010" stroke-width="2" stroke-linecap="round" stroke-linejoin="round"/>
<path d="M142.004 12.7626L128.557 20.8236" stroke="#101010" stroke-width="2" stroke-linecap="round" stroke-linejoin="round"/>
<path d="M151.482 30.5824H128.557" stroke="#101010" stroke-width="2" stroke-linecap="round" stroke-linejoin="round"/>
</svg>
