<svg width="130" height="97" viewBox="0 0 130 97" fill="none" xmlns="http://www.w3.org/2000/svg">
<g clip-path="url(#clip0_775_5397)">
<mask id="mask0_775_5397" style="mask-type:luminance" maskUnits="userSpaceOnUse" x="0" y="0" width="130" height="97">
<path d="M130 0H0V97H130V0Z" fill="white"/>
</mask>
<g mask="url(#mask0_775_5397)">
<mask id="mask1_775_5397" style="mask-type:luminance" maskUnits="userSpaceOnUse" x="-5" y="-29" width="193" height="144">
<path d="M187.16 -28.52H-4.83984V114.48H187.16V-28.52Z" fill="white"/>
</mask>
<g mask="url(#mask1_775_5397)">
<path d="M96.2508 117.91C98.3708 113.13 101.531 108.28 103.501 103.67C105.081 99.9699 106.911 96.3699 109.011 92.9199C109.981 91.3299 116.001 84.8699 117.121 83.3799C118.241 81.8899 119.491 80.5199 119.811 78.6099C120.241 75.9499 118.781 71.6899 116.201 69.8999C117.441 68.2499 117.371 65.9199 115.911 64.3499C114.271 62.5999 111.511 62.4899 109.751 64.1099L104.461 68.1799C103.531 65.9699 100.971 64.9399 98.7508 65.8599C96.5208 66.7799 95.4908 69.3199 96.4108 71.5399C96.4108 71.5399 98.3808 74.7799 92.8908 82.4699C87.4008 90.1599 76.0508 107.23 76.0508 107.23" fill="#2E2E2E"/>
<path d="M66.2305 32.84L113.81 81.53L118.94 86.79" stroke="#101010" stroke-width="2" stroke-linecap="round" stroke-linejoin="round"/>
<path d="M92.5518 59.77C95.1918 58.74 98.8418 56.9699 101.692 54.2099C105.662 50.3499 107.202 46.1199 108.682 42.0299C110.062 38.25 111.352 34.6899 114.552 31.58C118.512 27.7299 124.962 26.08 125.022 26.0499L128.652 25.1299L105.272 1.19995L104.232 1.45995C103.922 1.53995 96.5618 3.41995 91.6718 8.14995C87.7018 12.01 86.1618 16.24 84.6818 20.33C83.3118 24.11 82.0118 27.67 78.8118 30.78C75.6118 33.88 71.3118 35.3799 69.3418 36.0099L92.5518 59.7599V59.77Z" fill="white"/>
<path d="M92.5518 59.77C95.1918 58.74 98.8418 56.9699 101.692 54.2099C105.662 50.3499 107.202 46.1199 108.682 42.0299C110.062 38.25 111.352 34.6899 114.552 31.58C118.512 27.7299 124.962 26.08 125.022 26.0499L128.652 25.1299L105.272 1.19995L104.232 1.45995C103.922 1.53995 96.5618 3.41995 91.6718 8.14995C87.7018 12.01 86.1618 16.24 84.6818 20.33C83.3118 24.11 82.0118 27.67 78.8118 30.78C75.6118 33.88 71.3118 35.3799 69.3418 36.0099L92.5518 59.7599V59.77Z" fill="#BAF0F7"/>
<path d="M92.5518 59.77C95.1918 58.74 98.8418 56.9699 101.692 54.2099C105.662 50.3499 107.202 46.1199 108.682 42.0299C110.062 38.2499 111.352 34.69 114.552 31.58C118.512 27.73 124.962 26.0799 125.022 26.0499L128.652 25.1299L105.272 1.19995L104.232 1.45995C103.922 1.53995 96.5618 3.41995 91.6718 8.14995C87.7018 12.01 86.1618 16.24 84.6818 20.33C83.3118 24.11 82.0118 27.67 78.8118 30.78C75.6118 33.88 71.3118 35.3799 69.3418 36.0099L92.5518 59.7599V59.77Z" stroke="#101010" stroke-width="2" stroke-linecap="round" stroke-linejoin="round"/>
<path d="M124.731 21.14L121.101 22.06C121.041 22.08 114.591 23.74 110.631 27.59C107.431 30.69 106.141 34.26 104.761 38.04C103.281 42.13 101.741 46.36 97.7709 50.22C94.9309 52.98 91.2709 54.75 88.6309 55.78L92.5409 59.79C95.1809 58.76 98.8309 56.99 101.681 54.23C105.651 50.37 107.191 46.14 108.671 42.05C110.051 38.27 111.341 34.71 114.541 31.6C118.501 27.75 124.951 26.1 125.011 26.07L128.641 25.15L124.731 21.14Z" fill="white"/>
<path d="M124.731 21.14L121.101 22.06C121.041 22.08 114.591 23.74 110.631 27.59C107.431 30.69 106.141 34.26 104.761 38.04C103.281 42.13 101.741 46.36 97.7709 50.22C94.9309 52.98 91.2709 54.75 88.6309 55.78L92.5409 59.79C95.1809 58.76 98.8309 56.99 101.681 54.23C105.651 50.37 107.191 46.14 108.671 42.05C110.051 38.27 111.341 34.71 114.541 31.6C118.501 27.75 124.951 26.1 125.011 26.07L128.641 25.15L124.731 21.14Z" fill="#FB5732"/>
<path d="M124.731 21.14L121.101 22.06C121.041 22.08 114.591 23.74 110.631 27.59C107.431 30.69 106.141 34.26 104.761 38.04C103.281 42.13 101.741 46.36 97.7709 50.22C94.9309 52.98 91.2709 54.75 88.6309 55.78L92.5409 59.79C95.1809 58.76 98.8309 56.99 101.681 54.23C105.651 50.37 107.191 46.14 108.671 42.05C110.051 38.27 111.341 34.71 114.541 31.6C118.501 27.75 124.951 26.1 125.011 26.07L128.641 25.15L124.731 21.14Z" stroke="#101010" stroke-width="2" stroke-linecap="round" stroke-linejoin="round"/>
<path d="M120.821 17.1299L117.191 18.0499C117.131 18.0699 110.681 19.7299 106.721 23.5799C103.521 26.6799 102.231 30.2499 100.851 34.0299C99.3707 38.1199 97.8307 42.3499 93.8607 46.2099C91.0207 48.9699 87.3607 50.7399 84.7207 51.7699L88.6307 55.7799C91.2707 54.7499 94.9207 52.9799 97.7707 50.2199C101.741 46.3599 103.281 42.1299 104.761 38.0399C106.141 34.2599 107.431 30.6999 110.631 27.5899C114.591 23.7399 121.041 22.0899 121.101 22.0599L124.731 21.1399L120.821 17.1299Z" fill="white" stroke="#101010" stroke-width="2" stroke-linecap="round" stroke-linejoin="round"/>
<path d="M108.87 4.90997L107.83 5.16997C107.52 5.24997 100.16 7.12997 95.2701 11.86C91.3001 15.72 89.7601 19.95 88.2801 24.04C86.9101 27.82 85.6101 31.38 82.4101 34.49C79.2101 37.59 74.9101 39.09 72.9401 39.72L69.3301 36.03C71.3001 35.4 75.6001 33.91 78.8001 30.8C82.0001 27.7 83.2901 24.13 84.6701 20.35C86.1501 16.26 87.6901 12.03 91.6601 8.16997C96.5401 3.42997 103.9 1.54997 104.22 1.47997L105.26 1.21997L108.87 4.90997Z" fill="white"/>
<path d="M108.87 4.90997L107.83 5.16997C107.52 5.24997 100.16 7.12997 95.2701 11.86C91.3001 15.72 89.7601 19.95 88.2801 24.04C86.9101 27.82 85.6101 31.38 82.4101 34.49C79.2101 37.59 74.9101 39.09 72.9401 39.72L69.3301 36.03C71.3001 35.4 75.6001 33.91 78.8001 30.8C82.0001 27.7 83.2901 24.13 84.6701 20.35C86.1501 16.26 87.6901 12.03 91.6601 8.16997C96.5401 3.42997 103.9 1.54997 104.22 1.47997L105.26 1.21997L108.87 4.90997Z" fill="#FB5732"/>
<path d="M108.87 4.90997L107.83 5.16997C107.52 5.24997 100.16 7.12997 95.2701 11.86C91.3001 15.72 89.7601 19.95 88.2801 24.04C86.9101 27.82 85.6101 31.38 82.4101 34.49C79.2101 37.59 74.9101 39.09 72.9401 39.72L69.3301 36.03C71.3001 35.4 75.6001 33.91 78.8001 30.8C82.0001 27.7 83.2901 24.13 84.6701 20.35C86.1501 16.26 87.6901 12.03 91.6601 8.16997C96.5401 3.42997 103.9 1.54997 104.22 1.47997L105.26 1.21997L108.87 4.90997Z" stroke="#101010" stroke-width="2" stroke-linecap="round" stroke-linejoin="round"/>
<path d="M112.481 8.59997L111.441 8.85997C111.131 8.93997 103.771 10.82 98.8814 15.55C94.9114 19.41 93.3714 23.64 91.8914 27.73C90.5214 31.51 89.2214 35.07 86.0214 38.18C82.8214 41.28 78.5214 42.78 76.5514 43.41L72.9414 39.72C74.9114 39.09 79.2114 37.6 82.4114 34.49C85.6114 31.39 86.9014 27.82 88.2814 24.04C89.7614 19.95 91.3014 15.72 95.2714 11.86C100.151 7.11997 107.511 5.23997 107.831 5.16997L108.871 4.90997L112.481 8.59997Z" fill="white" stroke="#101010" stroke-width="2" stroke-linecap="round" stroke-linejoin="round"/>
<path d="M116.021 69.9C117.241 68.25 117.151 65.92 115.711 64.36C114.081 62.6 111.341 62.49 109.581 64.12L104.321 68.2C103.391 65.98 100.851 64.95 98.6408 65.87C96.4208 66.8 95.3908 69.34 96.3108 71.56C96.3108 71.56 98.2708 74.81 92.8108 82.53C87.3508 90.25 76.0508 107.37 76.0508 107.37" stroke="#101010" stroke-width="2" stroke-linecap="round" stroke-linejoin="round"/>
<path d="M111.781 75.5499C111.231 73.5799 109.261 72.3999 107.291 72.8499C107.291 72.8499 104.121 73.5899 103.071 73.8199C100.691 74.3399 100.201 77.7299 102.361 78.8899C103.511 79.5399 104.781 79.5099 105.991 80.2699C107.271 81.0199 107.911 82.0999 109.001 82.8999C111.031 84.1799 113.671 82.1199 112.961 79.7899L111.771 75.5599H111.781V75.5499Z" fill="#FF9CA8" stroke="#101010" stroke-width="2" stroke-linecap="round" stroke-linejoin="round"/>
<path d="M116.651 79.16C115.381 79.73 112.111 81.2 111.001 78.32C110.501 77.02 111.001 75.56 112.281 74.99C111.011 75.56 109.241 74.76 108.691 73.49C108.131 72.22 108.691 70.73 109.971 70.16C110.911 69.67 111.941 69.26 112.981 69.07C117.451 68.22 120.411 74.9 119.821 78.55C119.511 80.46 118.261 81.84 117.161 83.33C116.061 84.82 110.081 91.29 109.121 92.89C109.121 92.89 103.621 101.24 96.4707 117.92" fill="#2E2E2E"/>
<path d="M116.651 79.16C115.381 79.73 112.111 81.2 111.001 78.32C110.501 77.02 111.001 75.56 112.281 74.99C111.011 75.56 109.241 74.76 108.691 73.49C108.131 72.22 108.691 70.73 109.971 70.16C110.911 69.67 111.941 69.26 112.981 69.07C117.451 68.22 120.411 74.9 119.821 78.55C119.511 80.46 118.261 81.84 117.161 83.33C116.061 84.82 110.081 91.29 109.121 92.89C109.121 92.89 103.621 101.24 96.4707 117.92" stroke="#101010" stroke-width="2" stroke-linecap="round" stroke-linejoin="round"/>
<path d="M113.811 81.5L118.941 86.75" stroke="#101010" stroke-width="2" stroke-linecap="round" stroke-linejoin="round"/>
<path d="M49.581 107.75C62.731 106.89 72.681 102.57 72.681 93.3099C72.681 85.6399 60.911 70.0599 51.441 70.0599C41.971 70.0599 16.041 86.0799 16.041 96.5299C16.041 105.79 26.001 106.89 39.141 107.75H49.581Z" fill="#2E2E2E"/>
<path d="M51.451 76.8199C60.181 76.8199 70.861 88.4499 72.481 95.5399C72.621 94.8199 72.691 94.0799 72.691 93.2899C72.691 85.6199 60.921 70.0399 51.441 70.0399C41.961 70.0399 16.041 86.0599 16.041 96.5099C16.041 97.2699 16.111 97.9799 16.241 98.6399C18.601 89.4999 42.331 76.7999 51.431 76.7999L51.451 76.8199Z" fill="#101010" stroke="#101010" stroke-width="2" stroke-linecap="round" stroke-linejoin="round"/>
<path d="M59.3517 102.85C62.1617 102.85 64.4417 99.27 64.4417 94.84C64.4417 90.41 62.1617 86.84 59.3517 86.84C56.5417 86.84 54.2617 90.42 54.2617 94.84C54.2617 99.26 56.5417 102.85 59.3517 102.85Z" fill="white" stroke="#101010" stroke-width="2" stroke-miterlimit="10" stroke-linecap="round"/>
<path d="M37.5119 102.85C40.3219 102.85 42.6019 99.27 42.6019 94.84C42.6019 90.41 40.3219 86.84 37.5119 86.84C34.7019 86.84 32.4219 90.42 32.4219 94.84C32.4219 99.26 34.7019 102.85 37.5119 102.85Z" fill="white" stroke="#101010" stroke-width="2" stroke-miterlimit="10" stroke-linecap="round"/>
<path d="M41.4905 115.9C38.4205 109.19 32.4305 107.22 32.4305 107.22H32.3905C22.7305 106.23 16.0505 104.12 16.0505 96.5299C16.0505 86.0799 41.8705 70.0599 51.4505 70.0599C61.0305 70.0599 72.7005 85.6299 72.7005 93.3099C72.7005 97.0299 71.0905 99.9499 68.3205 102.17C72.7705 98.7599 75.3305 93.9899 75.3305 87.5899C75.3305 83.8599 72.6805 75.8999 68.8005 68.9999C73.0505 62.8399 77.7605 54.0199 71.4505 51.1199C68.2705 49.6599 56.8605 46.7299 49.2505 52.5999V52.6199C47.1905 52.0699 45.0205 51.7699 42.7305 51.7699C39.2305 51.7699 35.7805 52.3399 32.4505 53.3499C22.3405 53.0199 15.7405 44.2799 9.55047 45.7299C3.93047 47.0299 -1.45953 61.4099 6.40047 73.5599C2.85047 79.6899 1.23047 85.1499 1.23047 89.2099C1.23047 99.3099 10.9505 107.29 21.8605 110.48C20.1905 111.69 17.1205 114.86 16.3505 121.57" fill="white"/>
<path d="M26.2409 111.48C13.7009 109.38 1.21094 100.65 1.21094 89.1999C1.21094 83.9399 3.92094 76.3199 10.0609 67.9199" stroke="#101010" stroke-width="2" stroke-linecap="round" stroke-linejoin="round"/>
<path d="M67.2402 66.3999C71.9302 73.7699 75.3102 83.3699 75.3102 87.5799C75.3102 94.0299 72.7302 98.8199 68.2202 102.23" stroke="#101010" stroke-width="2" stroke-linecap="round" stroke-linejoin="round"/>
<path d="M27.0918 55.4C32.0118 53.12 37.3118 51.76 42.7118 51.76C46.9418 51.76 50.7718 52.79 54.1818 54.51" stroke="#101010" stroke-width="2" stroke-linecap="round" stroke-linejoin="round"/>
<path d="M32.4302 53.3499C22.3202 53.0199 15.7202 44.2799 9.53021 45.7299C3.91021 47.0299 -1.47979 61.4099 6.38021 73.5599" stroke="#101010" stroke-width="2" stroke-linecap="round" stroke-linejoin="round"/>
<path d="M49.2305 52.59C56.8405 46.72 68.2505 49.65 71.4305 51.11C77.7505 54.01 73.0405 62.8299 68.7805 68.9899" stroke="#101010" stroke-width="2" stroke-linecap="round" stroke-linejoin="round"/>
<path d="M49.581 107.75C62.731 106.89 72.681 102.57 72.681 93.3099C72.681 85.6399 60.911 70.0599 51.441 70.0599C41.971 70.0599 16.041 86.0799 16.041 96.5299C16.041 105.79 26.001 106.89 39.141 107.75H49.581Z" stroke="#101010" stroke-width="2" stroke-linecap="round" stroke-linejoin="round"/>
</g>
</g>
</g>
<defs>
<clipPath id="clip0_775_5397">
<rect width="130" height="97" fill="white"/>
</clipPath>
</defs>
</svg>
