<svg width="130" height="97" viewBox="0 0 130 97" fill="none" xmlns="http://www.w3.org/2000/svg">
<g clip-path="url(#clip0_769_2728)">
<mask id="mask0_769_2728" style="mask-type:luminance" maskUnits="userSpaceOnUse" x="0" y="0" width="130" height="97">
<path d="M130 0H0V97H130V0Z" fill="white"/>
</mask>
<g mask="url(#mask0_769_2728)">
<path d="M96.3191 117.89C98.4391 113.11 101.599 108.26 103.569 103.65C105.149 99.95 106.979 96.35 109.079 92.9C110.049 91.31 116.069 84.85 117.189 83.36C118.309 81.87 119.559 80.5 119.879 78.59C120.309 75.93 118.849 71.67 116.269 69.88C117.509 68.23 117.439 65.9 115.979 64.33C114.339 62.58 111.579 62.47 109.819 64.09L104.529 68.16C103.599 65.95 101.039 64.92 98.8191 65.84C96.5891 66.76 95.5591 69.3 96.4791 71.52C96.4791 71.52 98.4491 74.76 92.9591 82.45C87.4691 90.14 76.1191 107.21 76.1191 107.21" fill="#2E2E2E"/>
<path d="M66.2988 32.82L113.879 81.51L119.009 86.77" stroke="#101010" stroke-width="2" stroke-linecap="round" stroke-linejoin="round"/>
<path d="M92.6202 59.75C95.2602 58.72 98.9102 56.95 101.76 54.19C105.73 50.33 107.27 46.1 108.75 42.01C110.13 38.23 111.42 34.67 114.62 31.56C118.58 27.71 125.03 26.06 125.09 26.03L128.72 25.11L105.34 1.17999L104.3 1.43999C103.99 1.51999 96.6301 3.39999 91.7402 8.12999C87.7702 11.99 86.2302 16.22 84.7502 20.31C83.3802 24.09 82.0801 27.65 78.8801 30.76C75.6802 33.86 71.3802 35.36 69.4102 35.99L92.6202 59.74V59.75Z" fill="white" stroke="#101010" stroke-width="2" stroke-linecap="round" stroke-linejoin="round"/>
<path d="M89.2991 56.35C91.8391 55.38 95.5891 53.65 98.4791 50.84C102.339 47.09 103.839 42.96 105.309 38.91C106.699 35.09 108.029 31.43 111.339 28.22C115.429 24.24 122.009 22.56 122.109 22.53L125.369 21.71L128.709 25.13L125.079 26.05C125.019 26.07 118.569 27.73 114.609 31.58C111.409 34.68 110.119 38.25 108.739 42.03C107.259 46.12 105.719 50.35 101.749 54.21C98.9091 56.97 95.2491 58.74 92.6091 59.77L89.2891 56.38V56.35H89.2991Z" fill="#FB5732" stroke="#101010" stroke-width="2" stroke-linecap="round" stroke-linejoin="round"/>
<path d="M118.69 14.87L116.17 15.5C116 15.54 109.16 17.3 104.8 21.53C101.27 24.96 99.8701 28.81 98.4501 32.72C97.0101 36.68 95.5802 40.62 91.9402 44.16C88.9402 47.07 85.0102 48.72 82.6602 49.57L85.9802 52.96C88.4302 52.05 92.2702 50.36 95.2102 47.5C98.9602 43.86 100.43 39.82 101.88 35.82C103.29 31.95 104.65 28.2 108.07 24.88C112.29 20.78 119.01 19.06 119.14 19.02L122.03 18.29L118.69 14.87Z" fill="#FB5732" stroke="#101010" stroke-width="2" stroke-linecap="round" stroke-linejoin="round"/>
<path d="M76.0393 42.78C78.1993 42.04 82.3193 40.46 85.4093 37.46C88.8293 34.14 90.1893 30.39 91.5993 26.52C93.0493 22.52 94.5193 18.48 98.2693 14.84C102.889 10.36 109.989 8.54 110.229 8.48L112.009 8.03L115.349 11.45L113.199 11.99C112.999 12.04 106.019 13.83 101.539 18.18C97.8993 21.72 96.4693 25.66 95.0293 29.62C93.6093 33.53 92.2093 37.38 88.6793 40.81C85.6293 43.77 81.6093 45.38 79.3493 46.18L76.0293 42.79H76.0393V42.78Z" fill="#FB5732" stroke="#101010" stroke-width="2" stroke-linecap="round" stroke-linejoin="round"/>
<path d="M105.328 1.19L104.288 1.45C103.978 1.53 96.6184 3.41 91.7284 8.14C87.7584 12 86.2184 16.23 84.7384 20.32C83.3684 24.1 82.0684 27.66 78.8684 30.77C75.6684 33.87 71.3684 35.37 69.3984 36L72.7184 39.39C74.7784 38.71 78.9884 37.17 82.1384 34.12C85.4484 30.91 86.7784 27.25 88.1684 23.43C89.6384 19.38 91.1384 15.25 94.9984 11.5C99.7484 6.89 106.978 5.04 107.258 4.97L108.668 4.62L105.328 1.2V1.19Z" fill="#FB5732" stroke="#101010" stroke-width="2" stroke-linecap="round" stroke-linejoin="round"/>
<path d="M116.089 69.88C117.309 68.23 117.219 65.9 115.779 64.34C114.149 62.58 111.409 62.47 109.649 64.1L104.389 68.18C103.459 65.96 100.919 64.93 98.7091 65.85C96.4891 66.78 95.4591 69.32 96.3791 71.54C96.3791 71.54 98.3391 74.79 92.8791 82.51C87.4191 90.23 76.1191 107.35 76.1191 107.35" stroke="#101010" stroke-width="2" stroke-linecap="round" stroke-linejoin="round"/>
<path d="M111.85 75.53C111.3 73.56 109.33 72.38 107.36 72.83C107.36 72.83 104.19 73.57 103.14 73.8C100.76 74.32 100.27 77.71 102.43 78.87C103.58 79.52 104.85 79.49 106.06 80.25C107.34 81 107.98 82.08 109.07 82.88C111.1 84.16 113.74 82.1 113.03 79.77L111.84 75.54H111.85V75.53Z" fill="#FF9CA8" stroke="#101010" stroke-width="2" stroke-linecap="round" stroke-linejoin="round"/>
<path d="M116.719 79.14C115.449 79.71 112.179 81.18 111.069 78.3C110.569 77 111.069 75.54 112.349 74.97C111.079 75.54 109.309 74.74 108.759 73.47C108.199 72.2 108.759 70.71 110.039 70.14C110.979 69.65 112.009 69.24 113.049 69.05C117.519 68.2 120.479 74.88 119.889 78.53C119.579 80.44 118.329 81.82 117.229 83.31C116.129 84.8 110.149 91.27 109.189 92.87C109.189 92.87 103.689 101.22 96.5391 117.9" fill="#2E2E2E"/>
<path d="M116.719 79.14C115.449 79.71 112.179 81.18 111.069 78.3C110.569 77 111.069 75.54 112.349 74.97C111.079 75.54 109.309 74.74 108.759 73.47C108.199 72.2 108.759 70.71 110.039 70.14C110.979 69.65 112.009 69.24 113.049 69.05C117.519 68.2 120.479 74.88 119.889 78.53C119.579 80.44 118.329 81.82 117.229 83.31C116.129 84.8 110.149 91.27 109.189 92.87C109.189 92.87 103.689 101.22 96.5391 117.9" stroke="#101010" stroke-width="2" stroke-linecap="round" stroke-linejoin="round"/>
<path d="M113.879 81.48L119.009 86.73" stroke="#101010" stroke-width="2" stroke-linecap="round" stroke-linejoin="round"/>
<path d="M49.6494 107.73C62.7994 106.87 72.7494 102.55 72.7494 93.29C72.7494 85.62 60.9794 70.04 51.5094 70.04C42.0394 70.04 16.1094 86.06 16.1094 96.51C16.1094 105.77 26.0694 106.87 39.2094 107.73H49.6494Z" fill="#2E2E2E"/>
<path d="M51.5194 76.8C60.2494 76.8 70.9294 88.43 72.5494 95.52C72.6894 94.8 72.7594 94.06 72.7594 93.27C72.7594 85.6 60.9894 70.02 51.5094 70.02C42.0294 70.02 16.1094 86.04 16.1094 96.49C16.1094 97.25 16.1794 97.96 16.3094 98.62C18.6694 89.48 42.3994 76.78 51.4994 76.78L51.5194 76.8Z" fill="#101010" stroke="#101010" stroke-width="2" stroke-linecap="round" stroke-linejoin="round"/>
<path d="M59.4201 102.83C62.2301 102.83 64.5101 99.25 64.5101 94.82C64.5101 90.39 62.2301 86.82 59.4201 86.82C56.6101 86.82 54.3301 90.4 54.3301 94.82C54.3301 99.24 56.6101 102.83 59.4201 102.83Z" fill="white" stroke="#101010" stroke-width="2" stroke-miterlimit="10" stroke-linecap="round"/>
<path d="M37.5802 102.83C40.3902 102.83 42.6702 99.25 42.6702 94.82C42.6702 90.39 40.3902 86.82 37.5802 86.82C34.7702 86.82 32.4902 90.4 32.4902 94.82C32.4902 99.24 34.7702 102.83 37.5802 102.83Z" fill="white" stroke="#101010" stroke-width="2" stroke-miterlimit="10" stroke-linecap="round"/>
<path d="M41.5588 115.88C38.4888 109.17 32.4988 107.2 32.4988 107.2H32.4588C22.7988 106.21 16.1188 104.1 16.1188 96.51C16.1188 86.06 41.9388 70.04 51.5188 70.04C61.0988 70.04 72.7688 85.61 72.7688 93.29C72.7688 97.01 71.1588 99.93 68.3888 102.15C72.8388 98.74 75.3988 93.97 75.3988 87.57C75.3988 83.84 72.7488 75.88 68.8688 68.98C73.1188 62.82 77.8288 54 71.5188 51.1C68.3388 49.64 56.9288 46.71 49.3188 52.58V52.6C47.2588 52.05 45.0888 51.75 42.7988 51.75C39.2988 51.75 35.8488 52.32 32.5188 53.33C22.4088 53 15.8088 44.26 9.61883 45.71C3.99883 47.01 -1.39117 61.39 6.46883 73.54C2.91883 79.67 1.29883 85.13 1.29883 89.19C1.29883 99.29 11.0188 107.27 21.9288 110.46C20.2588 111.67 17.1888 114.84 16.4188 121.55" fill="white"/>
<path d="M26.3093 111.46C13.7693 109.36 1.2793 100.63 1.2793 89.18C1.2793 83.92 3.9893 76.3 10.1293 67.9" stroke="#101010" stroke-width="2" stroke-linecap="round" stroke-linejoin="round"/>
<path d="M67.3086 66.38C71.9986 73.75 75.3786 83.35 75.3786 87.56C75.3786 94.01 72.7986 98.8 68.2886 102.21" stroke="#101010" stroke-width="2" stroke-linecap="round" stroke-linejoin="round"/>
<path d="M27.1602 55.38C32.0802 53.1 37.3802 51.74 42.7802 51.74C47.0102 51.74 50.8402 52.77 54.2502 54.49" stroke="#101010" stroke-width="2" stroke-linecap="round" stroke-linejoin="round"/>
<path d="M32.4986 53.33C22.3886 53 15.7886 44.26 9.59857 45.71C3.97857 47.01 -1.41143 61.39 6.44857 73.54" stroke="#101010" stroke-width="2" stroke-linecap="round" stroke-linejoin="round"/>
<path d="M49.2988 52.57C56.9088 46.7 68.3188 49.63 71.4988 51.09C77.8188 53.99 73.1088 62.81 68.8488 68.97" stroke="#101010" stroke-width="2" stroke-linecap="round" stroke-linejoin="round"/>
<path d="M49.6494 107.73C62.7994 106.87 72.7494 102.55 72.7494 93.29C72.7494 85.62 60.9794 70.04 51.5094 70.04C42.0394 70.04 16.1094 86.06 16.1094 96.51C16.1094 105.77 26.0694 106.87 39.2094 107.73H49.6494Z" stroke="#101010" stroke-width="2" stroke-linecap="round" stroke-linejoin="round"/>
<path d="M69.4102 36C71.3802 35.37 75.6802 33.88 78.8801 30.77C82.0801 27.67 83.3702 24.1 84.7502 20.32C85.1202 19.3 85.4902 18.26 85.9102 17.23L99.6802 29.5C99.2502 30.56 98.8602 31.63 98.4702 32.71C97.0302 36.67 95.6002 40.61 91.9602 44.15C88.9602 47.06 85.0302 48.71 82.6802 49.56L69.4202 35.99L69.4102 36Z" fill="black"/>
<path d="M69.4102 36C71.3802 35.37 75.6802 33.88 78.8801 30.77C82.0801 27.67 83.3702 24.1 84.7502 20.32C85.1202 19.3 85.4902 18.26 85.9102 17.23L99.6802 29.5C99.2502 30.56 98.8602 31.63 98.4702 32.71C97.0302 36.67 95.6002 40.61 91.9602 44.15C88.9602 47.06 85.0302 48.71 82.6802 49.56L69.4202 35.99L69.4102 36Z" fill="#5B88DF"/>
<path d="M69.4102 36C71.3802 35.37 75.6801 33.88 78.8801 30.77C82.0801 27.67 83.3702 24.1 84.7502 20.32C85.1202 19.3 85.4902 18.26 85.9102 17.23L99.6802 29.5C99.2502 30.56 98.8602 31.63 98.4702 32.71C97.0302 36.67 95.6002 40.61 91.9602 44.15C88.9602 47.06 85.0302 48.71 82.6802 49.56L69.4202 35.99L69.4102 36Z" stroke="#101010" stroke-width="2" stroke-linecap="round" stroke-linejoin="round"/>
<path fill-rule="evenodd" clip-rule="evenodd" d="M85.0293 37.98C86.8793 39.44 89.5693 39.13 91.0293 37.28C91.4893 36.7 91.7693 36.04 91.8893 35.37C92.0393 36.74 91.6393 38.11 90.7893 39.18C88.9893 41.46 85.6793 41.84 83.4093 40.04C81.1293 38.24 80.7493 34.93 82.5493 32.66C83.3993 31.58 84.6393 30.88 86.0093 30.71C85.3593 30.99 84.7893 31.43 84.3493 31.99C82.8893 33.84 83.1993 36.53 85.0493 37.99H85.0293V37.98ZM87.7893 32.2L86.0693 31.82L86.8493 33.39L85.4793 34.49L87.1993 34.87V36.63L88.5693 35.52L89.9493 36.61V34.85L91.6493 34.46L90.2693 33.37L91.0293 31.78L89.3193 32.18L88.5593 30.6L87.8093 32.19H87.7893V32.2Z" fill="#E8F628"/>
</g>
</g>
<defs>
<clipPath id="clip0_769_2728">
<rect width="130" height="97" fill="white"/>
</clipPath>
</defs>
</svg>
