<svg width="130" height="97" viewBox="0 0 130 97" fill="none" xmlns="http://www.w3.org/2000/svg">
<g clip-path="url(#clip0_769_2859)">
<mask id="mask0_769_2859" style="mask-type:luminance" maskUnits="userSpaceOnUse" x="0" y="0" width="130" height="97">
<path d="M130 0H0V97H130V0Z" fill="white"/>
</mask>
<g mask="url(#mask0_769_2859)">
<path d="M96.3191 117.89C98.4391 113.11 101.599 108.26 103.569 103.65C105.149 99.95 106.979 96.35 109.079 92.9C110.049 91.31 116.069 84.85 117.189 83.36C118.309 81.87 119.559 80.5 119.879 78.59C120.309 75.93 118.849 71.67 116.269 69.88C117.509 68.23 117.439 65.9 115.979 64.33C114.339 62.58 111.579 62.47 109.819 64.09L104.529 68.16C103.599 65.95 101.039 64.92 98.8191 65.84C96.5891 66.76 95.5591 69.3 96.4791 71.52C96.4791 71.52 98.4491 74.76 92.9591 82.45C87.4691 90.14 76.1191 107.21 76.1191 107.21" fill="#2E2E2E"/>
<path d="M66.2988 32.82L113.879 81.51L119.009 86.77" stroke="#101010" stroke-width="2" stroke-linecap="round" stroke-linejoin="round"/>
<path d="M116.089 69.88C117.309 68.23 117.219 65.9 115.779 64.34C114.149 62.58 111.409 62.47 109.649 64.1L104.389 68.18C103.459 65.96 100.919 64.93 98.7091 65.85C96.4891 66.78 95.4591 69.32 96.3791 71.54C96.3791 71.54 98.3391 74.79 92.8791 82.51C87.4191 90.23 76.1191 107.35 76.1191 107.35" stroke="#101010" stroke-width="2" stroke-linecap="round" stroke-linejoin="round"/>
<path d="M111.85 75.53C111.3 73.56 109.33 72.38 107.36 72.83C107.36 72.83 104.19 73.57 103.14 73.8C100.76 74.32 100.27 77.71 102.43 78.87C103.58 79.52 104.85 79.49 106.06 80.25C107.34 81 107.98 82.08 109.07 82.88C111.1 84.16 113.74 82.1 113.03 79.77L111.84 75.54H111.85V75.53Z" fill="#FF9CA8" stroke="#101010" stroke-width="2" stroke-linecap="round" stroke-linejoin="round"/>
<path d="M116.719 79.14C115.449 79.71 112.179 81.18 111.069 78.3C110.569 77 111.069 75.54 112.349 74.97C111.079 75.54 109.309 74.74 108.759 73.47C108.199 72.2 108.759 70.71 110.039 70.14C110.979 69.65 112.009 69.24 113.049 69.05C117.519 68.2 120.479 74.88 119.889 78.53C119.579 80.44 118.329 81.82 117.229 83.31C116.129 84.8 110.149 91.27 109.189 92.87C109.189 92.87 103.689 101.22 96.5391 117.9" fill="#2E2E2E"/>
<path d="M116.719 79.14C115.449 79.71 112.179 81.18 111.069 78.3C110.569 77 111.069 75.54 112.349 74.97C111.079 75.54 109.309 74.74 108.759 73.47C108.199 72.2 108.759 70.71 110.039 70.14C110.979 69.65 112.009 69.24 113.049 69.05C117.519 68.2 120.479 74.88 119.889 78.53C119.579 80.44 118.329 81.82 117.229 83.31C116.129 84.8 110.149 91.27 109.189 92.87C109.189 92.87 103.689 101.22 96.5391 117.9" stroke="#101010" stroke-width="2" stroke-linecap="round" stroke-linejoin="round"/>
<path d="M113.879 81.48L119.009 86.73" stroke="#101010" stroke-width="2" stroke-linecap="round" stroke-linejoin="round"/>
<path d="M49.6494 107.73C62.7994 106.87 72.7494 102.55 72.7494 93.29C72.7494 85.62 60.9794 70.04 51.5094 70.04C42.0394 70.04 16.1094 86.06 16.1094 96.51C16.1094 105.77 26.0694 106.87 39.2094 107.73H49.6494Z" fill="#2E2E2E"/>
<path d="M51.5194 76.8C60.2494 76.8 70.9294 88.43 72.5494 95.52C72.6894 94.8 72.7594 94.06 72.7594 93.27C72.7594 85.6 60.9894 70.02 51.5094 70.02C42.0294 70.02 16.1094 86.04 16.1094 96.49C16.1094 97.25 16.1794 97.96 16.3094 98.62C18.6694 89.48 42.3994 76.78 51.4994 76.78L51.5194 76.8Z" fill="#101010" stroke="#101010" stroke-width="2" stroke-linecap="round" stroke-linejoin="round"/>
<path d="M59.4201 102.83C62.2301 102.83 64.5101 99.25 64.5101 94.82C64.5101 90.39 62.2301 86.82 59.4201 86.82C56.6101 86.82 54.3301 90.4 54.3301 94.82C54.3301 99.24 56.6101 102.83 59.4201 102.83Z" fill="white" stroke="#101010" stroke-width="2" stroke-miterlimit="10" stroke-linecap="round"/>
<path d="M37.5802 102.83C40.3902 102.83 42.6702 99.25 42.6702 94.82C42.6702 90.39 40.3902 86.82 37.5802 86.82C34.7702 86.82 32.4902 90.4 32.4902 94.82C32.4902 99.24 34.7702 102.83 37.5802 102.83Z" fill="white" stroke="#101010" stroke-width="2" stroke-miterlimit="10" stroke-linecap="round"/>
<path d="M41.5588 115.88C38.4888 109.17 32.4988 107.2 32.4988 107.2H32.4588C22.7988 106.21 16.1188 104.1 16.1188 96.51C16.1188 86.06 41.9388 70.04 51.5188 70.04C61.0988 70.04 72.7688 85.61 72.7688 93.29C72.7688 97.01 71.1588 99.93 68.3888 102.15C72.8388 98.74 75.3988 93.97 75.3988 87.57C75.3988 83.84 72.7488 75.88 68.8688 68.98C73.1188 62.82 77.8288 54 71.5188 51.1C68.3388 49.64 56.9288 46.71 49.3188 52.58V52.6C47.2588 52.05 45.0888 51.75 42.7988 51.75C39.2988 51.75 35.8488 52.32 32.5188 53.33C22.4088 53 15.8088 44.26 9.61883 45.71C3.99883 47.01 -1.39117 61.39 6.46883 73.54C2.91883 79.67 1.29883 85.13 1.29883 89.19C1.29883 99.29 11.0188 107.27 21.9288 110.46C20.2588 111.67 17.1888 114.84 16.4188 121.55" fill="white"/>
<path d="M26.3093 111.46C13.7693 109.36 1.2793 100.63 1.2793 89.18C1.2793 83.92 3.9893 76.3 10.1293 67.9" stroke="#101010" stroke-width="2" stroke-linecap="round" stroke-linejoin="round"/>
<path d="M67.3086 66.38C71.9986 73.75 75.3786 83.35 75.3786 87.56C75.3786 94.01 72.7986 98.8 68.2886 102.21" stroke="#101010" stroke-width="2" stroke-linecap="round" stroke-linejoin="round"/>
<path d="M27.1602 55.38C32.0802 53.1 37.3802 51.74 42.7802 51.74C47.0102 51.74 50.8402 52.77 54.2502 54.49" stroke="#101010" stroke-width="2" stroke-linecap="round" stroke-linejoin="round"/>
<path d="M32.4986 53.33C22.3886 53 15.7886 44.26 9.59857 45.71C3.97857 47.01 -1.41143 61.39 6.44857 73.54" stroke="#101010" stroke-width="2" stroke-linecap="round" stroke-linejoin="round"/>
<path d="M49.2988 52.57C56.9088 46.7 68.3188 49.63 71.4988 51.09C77.8188 53.99 73.1088 62.81 68.8488 68.97" stroke="#101010" stroke-width="2" stroke-linecap="round" stroke-linejoin="round"/>
<path d="M49.6494 107.73C62.7994 106.87 72.7494 102.55 72.7494 93.29C72.7494 85.62 60.9794 70.04 51.5094 70.04C42.0394 70.04 16.1094 86.06 16.1094 96.51C16.1094 105.77 26.0694 106.87 39.2094 107.73H49.6494Z" stroke="#101010" stroke-width="2" stroke-linecap="round" stroke-linejoin="round"/>
<path d="M92.6002 59.83C95.2402 58.8 98.8902 57.02 101.74 54.25C105.71 50.38 107.25 46.14 108.74 42.03C110.12 38.24 111.41 34.66 114.61 31.55C118.57 27.69 125.02 26.02 125.09 26L128.72 25.08L105.35 1.09L104.31 1.35C104 1.43 96.6402 3.32 91.7502 8.07C87.7802 11.94 86.2402 16.18 84.7502 20.29C83.3702 24.08 82.0801 27.66 78.8801 30.77C75.6802 33.89 71.3802 35.39 69.4102 36.02L92.6002 59.83Z" fill="#BAF0F7" stroke="#101010" stroke-width="2" stroke-linecap="round" stroke-linejoin="round"/>
<path d="M77.1999 43.9C79.1699 43.27 83.6299 41.61 86.6699 38.65C89.8699 35.53 91.1599 31.96 92.5399 28.17C94.0299 24.06 95.5699 19.81 99.5399 15.95C104.43 11.2 111.79 9.29999 112.1 9.22999L112.87 9.03999L113.06 8.99999L105.36 1.09999L104.32 1.35999C104.01 1.43999 96.6499 3.32999 91.7599 8.07999C87.7899 11.95 86.2499 16.19 84.7599 20.3C83.3799 24.09 82.0899 27.67 78.8899 30.78C75.6899 33.9 71.3899 35.4 69.4199 36.03L77.1299 43.95" fill="#BAF0F7"/>
<path d="M77.1999 43.9C79.1699 43.27 83.6299 41.61 86.6699 38.65C89.8699 35.53 91.1599 31.96 92.5399 28.17C94.0299 24.06 95.5699 19.81 99.5399 15.95C104.43 11.2 111.79 9.29999 112.1 9.22999L112.87 9.03999L113.06 8.99999L105.36 1.09999L104.32 1.35999C104.01 1.43999 96.6499 3.32999 91.7599 8.07999C87.7899 11.95 86.2499 16.19 84.7599 20.3C83.3799 24.09 82.0899 27.67 78.8899 30.78C75.6899 33.9 71.3899 35.4 69.4199 36.03L77.1299 43.95" stroke="#101010" stroke-width="2" stroke-linecap="round" stroke-linejoin="round"/>
<path d="M84.8991 51.8C86.8691 51.17 91.3291 49.51 94.3691 46.55C97.5691 43.43 98.8591 39.86 100.239 36.07C101.719 31.96 103.269 27.71 107.239 23.85C112.129 19.1 119.489 17.2 119.799 17.13L120.569 16.94L120.759 16.9L113.059 9L112.019 9.26C111.709 9.34 104.349 11.23 99.4591 15.98C95.4891 19.85 93.9491 24.09 92.4591 28.2C91.0791 31.99 89.7891 35.57 86.5891 38.68C83.3891 41.8 79.0891 43.3 77.1191 43.93L84.8291 51.85" fill="white"/>
<path d="M84.8991 51.8C86.8691 51.17 91.3291 49.51 94.3691 46.55C97.5691 43.43 98.8591 39.86 100.239 36.07C101.719 31.96 103.269 27.71 107.239 23.85C112.129 19.1 119.489 17.2 119.799 17.13L120.569 16.94L120.759 16.9L113.059 9L112.019 9.26C111.709 9.34 104.349 11.23 99.4591 15.98C95.4891 19.85 93.9491 24.09 92.4591 28.2C91.0791 31.99 89.7891 35.57 86.5891 38.68C83.3891 41.8 79.0891 43.3 77.1191 43.93L84.8291 51.85" stroke="#101010" stroke-width="2" stroke-linecap="round" stroke-linejoin="round"/>
<path d="M113.049 8.98999L112.009 9.24999C111.699 9.32999 104.339 11.22 99.4494 15.97C95.4794 19.84 93.9394 24.08 92.4494 28.19C91.0694 31.98 89.7794 35.56 86.5794 38.67C83.3794 41.79 79.0794 43.29 77.1094 43.92" stroke="#101010" stroke-width="2" stroke-linecap="round" stroke-linejoin="round"/>
<path d="M120.749 16.91L119.709 17.17C119.399 17.25 112.039 19.14 107.149 23.89C103.179 27.76 101.639 32 100.149 36.11C98.7686 39.9 97.4786 43.48 94.2786 46.59C91.0786 49.71 86.7786 51.21 84.8086 51.84" stroke="#101010" stroke-width="2" stroke-linecap="round" stroke-linejoin="round"/>
<path d="M101.059 24.75L100.429 26.2L101.919 26.75L100.549 27.56L101.439 28.88L99.8487 28.72L99.7887 30.31L98.5987 29.26L97.6187 30.52L97.2787 28.96L95.7487 29.4L96.3887 27.95L94.8887 27.4L96.2687 26.59L95.3787 25.27L96.9587 25.43L97.0187 23.84L98.2087 24.89L99.1887 23.64L99.5287 25.2L101.059 24.76V24.75Z" fill="#E8F628"/>
</g>
</g>
<defs>
<clipPath id="clip0_769_2859">
<rect width="130" height="97" fill="white"/>
</clipPath>
</defs>
</svg>
