<svg width="192" height="118" viewBox="0 0 192 118" fill="none" xmlns="http://www.w3.org/2000/svg">
<g clip-path="url(#clip0_288_2257)">
<mask id="mask0_288_2257" style="mask-type:luminance" maskUnits="userSpaceOnUse" x="0" y="-7" width="192" height="143">
<path d="M192 -7H0V136H192V-7Z" fill="white"/>
</mask>
<g mask="url(#mask0_288_2257)">
<path d="M101.091 139.43C103.211 134.65 106.371 129.8 108.341 125.19C109.921 121.49 111.751 117.89 113.851 114.44C114.821 112.85 120.841 106.39 121.961 104.9C123.081 103.41 124.331 102.04 124.651 100.13C125.081 97.4699 123.621 93.2099 121.041 91.4199C122.281 89.7699 122.211 87.4399 120.751 85.8699C119.111 84.1199 116.351 84.0099 114.591 85.6299L109.301 89.6999C108.371 87.4899 105.811 86.4599 103.591 87.3799C101.361 88.2999 100.331 90.8399 101.251 93.0599C101.251 93.0599 103.221 96.2999 97.7306 103.99C92.2406 111.68 80.8906 128.75 80.8906 128.75" fill="#2E2E2E"/>
<path d="M71.0703 54.36L118.65 103.05L123.78 108.31" stroke="#101010" stroke-width="2" stroke-linecap="round" stroke-linejoin="round"/>
<path d="M97.3916 81.29C100.032 80.26 103.682 78.49 106.532 75.73C110.502 71.87 112.042 67.64 113.522 63.55C114.902 59.77 116.192 56.21 119.392 53.1C123.352 49.25 129.802 47.6 129.862 47.57L133.492 46.65L110.112 22.72L109.072 22.98C108.762 23.06 101.402 24.94 96.5116 29.67C92.5416 33.53 91.0016 37.76 89.5216 41.85C88.1516 45.63 86.8516 49.19 83.6516 52.3C80.4516 55.4 76.1516 56.9 74.1816 57.53L97.3916 81.28V81.29Z" fill="white" stroke="#101010" stroke-width="2" stroke-linecap="round" stroke-linejoin="round"/>
<path d="M94.0705 77.89C96.6105 76.92 100.361 75.19 103.251 72.38C107.111 68.63 108.611 64.5 110.081 60.45C111.471 56.63 112.801 52.97 116.111 49.76C120.201 45.78 126.781 44.1 126.881 44.07L130.141 43.25L133.481 46.67L129.851 47.59C129.791 47.61 123.341 49.27 119.381 53.12C116.181 56.22 114.891 59.79 113.511 63.57C112.031 67.66 110.491 71.89 106.521 75.75C103.681 78.51 100.021 80.28 97.3805 81.31L94.0605 77.92L94.0705 77.89Z" fill="#FB5732" stroke="#101010" stroke-width="2" stroke-linecap="round" stroke-linejoin="round"/>
<path d="M123.46 36.41L120.94 37.04C120.77 37.08 113.93 38.84 109.57 43.07C106.04 46.5 104.64 50.35 103.22 54.26C101.78 58.22 100.35 62.16 96.7097 65.7C93.7097 68.61 89.7797 70.26 87.4297 71.11L90.7497 74.5C93.1997 73.59 97.0397 71.9 99.9797 69.04C103.73 65.4 105.2 61.36 106.65 57.36C108.06 53.49 109.42 49.74 112.84 46.42C117.06 42.32 123.78 40.6 123.91 40.56L126.8 39.83L123.46 36.41Z" fill="#FB5732" stroke="#101010" stroke-width="2" stroke-linecap="round" stroke-linejoin="round"/>
<path d="M80.8108 64.3199C82.9708 63.5799 87.0908 61.9999 90.1808 58.9999C93.6008 55.6799 94.9608 51.9299 96.3708 48.0599C97.8208 44.0599 99.2908 40.0199 103.041 36.3799C107.661 31.8999 114.761 30.0799 115.001 30.0199L116.781 29.5699L120.121 32.9899L117.971 33.5299C117.771 33.5799 110.791 35.3699 106.311 39.7199C102.671 43.2599 101.241 47.1999 99.8008 51.1599C98.3808 55.0699 96.9808 58.9199 93.4508 62.3499C90.4008 65.3099 86.3808 66.9199 84.1208 67.7199L80.8008 64.3299L80.8108 64.3199Z" fill="#FB5732" stroke="#101010" stroke-width="2" stroke-linecap="round" stroke-linejoin="round"/>
<path d="M110.1 22.73L109.06 22.99C108.75 23.07 101.39 24.95 96.4999 29.68C92.5299 33.54 90.9899 37.77 89.5099 41.86C88.1399 45.64 86.8399 49.2 83.6399 52.31C80.4399 55.41 76.1399 56.91 74.1699 57.54L77.4899 60.93C79.5499 60.25 83.7599 58.71 86.9099 55.66C90.2199 52.45 91.5499 48.79 92.9399 44.97C94.4099 40.92 95.9099 36.79 99.7699 33.04C104.52 28.43 111.75 26.58 112.03 26.51L113.44 26.16L110.1 22.74V22.73Z" fill="#FB5732" stroke="#101010" stroke-width="2" stroke-linecap="round" stroke-linejoin="round"/>
<path d="M120.861 91.42C122.081 89.77 121.991 87.44 120.551 85.88C118.921 84.12 116.181 84.01 114.421 85.64L109.161 89.72C108.231 87.5 105.691 86.47 103.481 87.39C101.261 88.32 100.231 90.86 101.151 93.08C101.151 93.08 103.111 96.33 97.6506 104.05C92.1906 111.77 80.8906 128.89 80.8906 128.89" stroke="#101010" stroke-width="2" stroke-linecap="round" stroke-linejoin="round"/>
<path d="M116.621 97.0699C116.071 95.0999 114.101 93.9199 112.131 94.3699C112.131 94.3699 108.961 95.1099 107.911 95.3399C105.531 95.8599 105.041 99.2499 107.201 100.41C108.351 101.06 109.621 101.03 110.831 101.79C112.111 102.54 112.751 103.62 113.841 104.42C115.871 105.7 118.511 103.64 117.801 101.31L116.611 97.0799H116.621V97.0699Z" fill="#FF9CA8" stroke="#101010" stroke-width="2" stroke-linecap="round" stroke-linejoin="round"/>
<path d="M121.491 100.68C120.221 101.25 116.951 102.72 115.841 99.84C115.341 98.54 115.841 97.08 117.121 96.51C115.851 97.08 114.081 96.28 113.531 95.01C112.971 93.74 113.531 92.25 114.811 91.68C115.751 91.19 116.781 90.78 117.821 90.59C122.291 89.74 125.251 96.42 124.661 100.07C124.351 101.98 123.101 103.36 122.001 104.85C120.901 106.34 114.921 112.81 113.961 114.41C113.961 114.41 108.461 122.76 101.311 139.44" fill="#2E2E2E"/>
<path d="M121.491 100.68C120.221 101.25 116.951 102.72 115.841 99.84C115.341 98.54 115.841 97.08 117.121 96.51C115.851 97.08 114.081 96.28 113.531 95.01C112.971 93.74 113.531 92.25 114.811 91.68C115.751 91.19 116.781 90.78 117.821 90.59C122.291 89.74 125.251 96.42 124.661 100.07C124.351 101.98 123.101 103.36 122.001 104.85C120.901 106.34 114.921 112.81 113.961 114.41C113.961 114.41 108.461 122.76 101.311 139.44" stroke="#101010" stroke-width="2" stroke-linecap="round" stroke-linejoin="round"/>
<path d="M118.65 103.02L123.78 108.27" stroke="#101010" stroke-width="2" stroke-linecap="round" stroke-linejoin="round"/>
<path d="M54.4209 129.27C67.5709 128.41 77.5209 124.09 77.5209 114.83C77.5209 107.16 65.7509 91.58 56.2809 91.58C46.8109 91.58 20.8809 107.6 20.8809 118.05C20.8809 127.31 30.8409 128.41 43.9809 129.27H54.4109H54.4209Z" fill="#2E2E2E"/>
<path d="M56.2909 98.3399C65.0209 98.3399 75.7009 109.97 77.3209 117.06C77.4609 116.34 77.5309 115.6 77.5309 114.81C77.5309 107.14 65.7609 91.5599 56.2809 91.5599C46.8009 91.5599 20.8809 107.58 20.8809 118.03C20.8809 118.79 20.9509 119.5 21.0809 120.16C23.4409 111.02 47.1709 98.3199 56.2709 98.3199L56.2909 98.3399Z" fill="#101010" stroke="#101010" stroke-width="2" stroke-linecap="round" stroke-linejoin="round"/>
<path d="M64.1916 124.37C67.0016 124.37 69.2816 120.79 69.2816 116.36C69.2816 111.93 67.0016 108.36 64.1916 108.36C61.3816 108.36 59.1016 111.94 59.1016 116.36C59.1016 120.78 61.3816 124.37 64.1916 124.37Z" fill="white" stroke="#101010" stroke-width="2" stroke-miterlimit="10" stroke-linecap="round"/>
<path d="M42.3517 124.37C45.1617 124.37 47.4417 120.79 47.4417 116.36C47.4417 111.93 45.1617 108.36 42.3517 108.36C39.5417 108.36 37.2617 111.94 37.2617 116.36C37.2617 120.78 39.5417 124.37 42.3517 124.37Z" fill="white" stroke="#101010" stroke-width="2" stroke-miterlimit="10" stroke-linecap="round"/>
<path d="M46.3303 137.42C43.2603 130.71 37.2703 128.74 37.2703 128.74H37.2303C27.5703 127.75 20.8903 125.64 20.8903 118.05C20.8903 107.6 46.7103 91.58 56.2903 91.58C65.8703 91.58 77.5403 107.15 77.5403 114.83C77.5403 118.55 75.9303 121.47 73.1603 123.69C77.6103 120.28 80.1703 115.51 80.1703 109.11C80.1703 105.38 77.5203 97.42 73.6403 90.52C77.8903 84.36 82.6003 75.54 76.2903 72.64C73.1103 71.18 61.7003 68.25 54.0903 74.12V74.14C52.0303 73.59 49.8603 73.29 47.5703 73.29C44.0703 73.29 40.6203 73.86 37.2903 74.87C27.1803 74.54 20.5803 65.8 14.3903 67.25C8.77031 68.55 3.38031 82.93 11.2403 95.08C7.69031 101.21 6.07031 106.67 6.07031 110.73C6.07031 120.83 15.7903 128.81 26.7003 132C25.0303 133.21 21.9603 136.38 21.1903 143.09" fill="white"/>
<path d="M31.0808 133C18.5408 130.9 6.05078 122.17 6.05078 110.72C6.05078 105.46 8.76078 97.8399 14.9008 89.4399" stroke="#101010" stroke-width="2" stroke-linecap="round" stroke-linejoin="round"/>
<path d="M72.0801 87.9199C76.7701 95.2899 80.1501 104.89 80.1501 109.1C80.1501 115.55 77.5701 120.34 73.0601 123.75" stroke="#101010" stroke-width="2" stroke-linecap="round" stroke-linejoin="round"/>
<path d="M31.9316 76.92C36.8516 74.64 42.1516 73.28 47.5516 73.28C51.7816 73.28 55.6116 74.31 59.0216 76.03" stroke="#101010" stroke-width="2" stroke-linecap="round" stroke-linejoin="round"/>
<path d="M37.2701 74.87C27.1601 74.54 20.5601 65.8 14.3701 67.25C8.75006 68.55 3.36006 82.93 11.2201 95.08" stroke="#101010" stroke-width="2" stroke-linecap="round" stroke-linejoin="round"/>
<path d="M54.0703 74.11C61.6803 68.24 73.0903 71.17 76.2703 72.63C82.5903 75.53 77.8803 84.35 73.6203 90.51" stroke="#101010" stroke-width="2" stroke-linecap="round" stroke-linejoin="round"/>
<path d="M54.4209 129.27C67.5709 128.41 77.5209 124.09 77.5209 114.83C77.5209 107.16 65.7509 91.58 56.2809 91.58C46.8109 91.58 20.8809 107.6 20.8809 118.05C20.8809 127.31 30.8409 128.41 43.9809 129.27H54.4109H54.4209Z" stroke="#101010" stroke-width="2" stroke-linecap="round" stroke-linejoin="round"/>
<path d="M74.1816 57.54C76.1516 56.91 80.4516 55.42 83.6516 52.31C86.8516 49.21 88.1416 45.64 89.5216 41.86C89.8916 40.84 90.2616 39.8 90.6816 38.77L104.452 51.04C104.022 52.1 103.632 53.17 103.242 54.25C101.802 58.21 100.372 62.15 96.7316 65.69C93.7316 68.6 89.8016 70.25 87.4516 71.1L74.1916 57.53L74.1816 57.54Z" fill="black"/>
<path d="M74.1816 57.54C76.1516 56.91 80.4516 55.42 83.6516 52.31C86.8516 49.21 88.1416 45.64 89.5216 41.86C89.8916 40.84 90.2616 39.8 90.6816 38.77L104.452 51.04C104.022 52.1 103.632 53.17 103.242 54.25C101.802 58.21 100.372 62.15 96.7316 65.69C93.7316 68.6 89.8016 70.25 87.4516 71.1L74.1916 57.53L74.1816 57.54Z" fill="#5B88DF"/>
<path d="M74.1816 57.54C76.1516 56.91 80.4516 55.42 83.6516 52.31C86.8516 49.21 88.1416 45.64 89.5216 41.86C89.8916 40.84 90.2616 39.8 90.6816 38.77L104.452 51.04C104.022 52.1 103.632 53.17 103.242 54.25C101.802 58.21 100.372 62.15 96.7316 65.69C93.7316 68.6 89.8016 70.25 87.4516 71.1L74.1916 57.53L74.1816 57.54Z" stroke="#101010" stroke-width="2" stroke-linecap="round" stroke-linejoin="round"/>
</g>
<path fill-rule="evenodd" clip-rule="evenodd" d="M89.8008 59.52C91.6508 60.98 94.3408 60.67 95.8008 58.82C96.2608 58.24 96.5408 57.58 96.6608 56.91C96.8108 58.28 96.4108 59.65 95.5608 60.72C93.7608 63 90.4508 63.38 88.1808 61.58C85.9008 59.78 85.5208 56.47 87.3208 54.2C88.1708 53.12 89.4108 52.42 90.7808 52.25C90.1308 52.53 89.5608 52.97 89.1208 53.53C87.6608 55.38 87.9708 58.07 89.8208 59.53L89.8008 59.52ZM92.5608 53.74L90.8408 53.36L91.6208 54.93L90.2508 56.03L91.9708 56.41V58.17L93.3408 57.06L94.7208 58.15V56.39L96.4208 56L95.0408 54.91L95.8008 53.32L94.0908 53.72L93.3308 52.14L92.5808 53.73L92.5608 53.74Z" fill="#E8F628"/>
</g>
<defs>
<clipPath id="clip0_288_2257">
<rect width="192" height="151" fill="white" transform="translate(0 -7)"/>
</clipPath>
</defs>
</svg>
