<svg width="192" height="118" viewBox="0 0 192 118" fill="none" xmlns="http://www.w3.org/2000/svg">
<g clip-path="url(#clip0_73_209)">
<path d="M101.821 141.406C103.905 136.622 107 131.764 108.93 127.153C110.482 123.448 112.278 119.844 114.335 116.395C115.282 114.803 121.191 108.336 122.292 106.844C123.393 105.353 124.62 103.981 124.926 102.069C125.35 99.4069 123.916 95.1438 121.39 93.3508C122.608 91.7041 122.535 89.3622 121.101 87.7978C119.495 86.0414 116.788 85.9316 115.056 87.56L109.869 91.6309C108.957 89.4171 106.449 88.3833 104.266 89.3073C102.083 90.2312 101.063 92.7744 101.975 94.9883C101.975 94.9883 103.905 98.2268 98.5191 105.93C93.133 113.632 82 130.712 82 130.712" fill="#2E2E2E"/>
<path d="M97.7608 82.5047C100.414 81.4642 104.089 79.6794 106.949 76.8948C110.941 72.9987 112.494 68.735 113.987 64.6042C115.372 60.7936 116.674 57.1952 119.891 54.0627C123.876 50.1774 130.363 48.5029 130.425 48.4819L134.074 47.5548L110.584 23.4335L109.537 23.6952C109.223 23.7726 101.823 25.6744 96.9099 30.4552C92.9181 34.3513 91.3654 38.615 89.8721 42.7457C88.4874 46.5563 87.1848 50.1548 83.9681 53.2872C80.7514 56.4197 76.4256 57.9328 74.4457 58.5661L97.7608 82.5047Z" fill="#BAF0F7" stroke="#101010" stroke-width="2" stroke-linecap="round" stroke-linejoin="round"/>
<path d="M82.2804 66.4779C84.2603 65.8446 88.745 64.1799 91.8028 61.199C95.0195 58.0665 96.3221 54.4681 97.7067 50.6575C99.2 46.5267 100.751 42.254 104.744 38.3669C109.657 33.5862 117.058 31.6844 117.371 31.607L118.15 31.4142L118.34 31.3786L110.594 23.4319L109.547 23.6936C109.233 23.7711 101.832 25.6728 96.9196 30.4536C92.9279 34.3497 91.3752 38.6134 89.8819 42.7441C88.4972 46.5547 87.1946 50.1532 83.9779 53.2856C80.7612 56.4181 76.4354 57.9313 74.4555 58.5645L82.2057 66.5293" fill="#BAF0F7"/>
<path d="M82.2804 66.4779C84.2603 65.8446 88.745 64.1799 91.8028 61.199C95.0195 58.0665 96.3221 54.4681 97.7067 50.6575C99.2 46.5267 100.751 42.254 104.744 38.3669C109.657 33.5862 117.058 31.6844 117.371 31.607L118.15 31.4142L118.34 31.3786L110.594 23.4319L109.547 23.6936C109.233 23.7711 101.832 25.6728 96.9196 30.4536C92.9279 34.3497 91.3752 38.6134 89.8819 42.7441C88.4972 46.5547 87.1946 50.1532 83.9779 53.2856C80.7612 56.4181 76.4354 57.9313 74.4555 58.5645L82.2057 66.5293" stroke="#101010" stroke-width="2" stroke-linecap="round" stroke-linejoin="round"/>
<path d="M90.0167 74.4262C91.9966 73.793 96.4813 72.1282 99.5391 69.1474C102.756 66.0149 104.058 62.4164 105.443 58.6059C106.936 54.4751 108.487 50.2023 112.481 46.3153C117.394 41.5346 124.794 39.6328 125.108 39.5553L125.887 39.3625L126.077 39.3269L118.33 31.3802L117.283 31.642C116.969 31.7194 109.569 33.6212 104.656 38.402C100.664 42.298 99.1115 46.5617 97.6182 50.6925C96.2335 54.5031 94.9309 58.1015 91.7142 61.234C88.4975 64.3665 84.1717 65.8796 82.1918 66.5129L89.942 74.4777" fill="white"/>
<path d="M90.0167 74.4262C91.9966 73.793 96.4813 72.1282 99.5391 69.1474C102.756 66.0149 104.058 62.4164 105.443 58.6059C106.936 54.4751 108.487 50.2023 112.481 46.3153C117.394 41.5346 124.794 39.6328 125.108 39.5553L125.887 39.3625L126.077 39.3269L118.33 31.3802L117.283 31.642C116.969 31.7194 109.569 33.6212 104.656 38.402C100.664 42.298 99.1115 46.5617 97.6182 50.6925C96.2335 54.5031 94.9309 58.1015 91.7142 61.234C88.4975 64.3665 84.1717 65.8796 82.1918 66.5129L89.942 74.4777" stroke="#101010" stroke-width="2" stroke-linecap="round" stroke-linejoin="round"/>
<path d="M71.334 55.3635L119.147 104.453L124.3 109.756" stroke="#101010" stroke-width="2" stroke-linecap="round" stroke-linejoin="round"/>
<path d="M118.33 31.3802L117.283 31.642C116.969 31.7194 109.569 33.6212 104.656 38.402C100.664 42.298 99.1115 46.5617 97.6182 50.6925C96.2335 54.5031 94.9309 58.1015 91.7142 61.234C88.4975 64.3665 84.1717 65.8796 82.1918 66.5129" stroke="#101010" stroke-width="2" stroke-linecap="round" stroke-linejoin="round"/>
<path d="M126.072 39.3467L125.025 39.6084C124.712 39.6859 117.311 41.5876 112.398 46.3684C108.406 50.2645 106.854 54.5282 105.36 58.6589C103.976 62.4695 102.673 66.068 99.4564 69.2004C96.2397 72.3329 91.9139 73.846 89.934 74.4793" stroke="#101010" stroke-width="2" stroke-linecap="round" stroke-linejoin="round"/>
<path d="M121.172 93.2756C122.364 91.6403 122.275 89.3327 120.867 87.7882C119.27 86.0439 116.58 85.9349 114.858 87.552L109.702 91.5949C108.796 89.3963 106.303 88.3697 104.133 89.2873C101.962 90.2049 100.949 92.7305 101.855 94.9291C101.855 94.9291 103.774 98.1452 98.4201 105.795C93.0663 113.444 82 130.406 82 130.406" stroke="#101010" stroke-width="2" stroke-linecap="round" stroke-linejoin="round"/>
<path d="M117.605 99.3282C117.017 97.2668 114.899 96.0359 112.782 96.5062C112.782 96.5062 109.377 97.2768 108.242 97.5169C105.679 98.0573 105.162 101.6 107.483 102.811C108.719 103.491 110.087 103.461 111.384 104.252C112.762 105.032 113.451 106.163 114.616 106.994C116.794 108.335 119.641 106.183 118.871 103.751L117.595 99.3382L117.605 99.3282Z" fill="#FF9CA8" stroke="#101010" stroke-width="2" stroke-linecap="round" stroke-linejoin="round"/>
<path d="M121.691 102.594C120.392 103.162 117.039 104.639 115.899 101.75C115.385 100.448 115.909 98.9814 117.207 98.4129C115.909 98.9814 114.096 98.1837 113.527 96.9092C112.957 95.6347 113.536 94.1401 114.834 93.5717C115.796 93.0765 116.852 92.6731 117.917 92.4806C122.494 91.6278 125.53 98.3212 124.923 101.98C124.605 103.896 123.325 105.271 122.195 106.766C121.065 108.26 114.946 114.743 113.956 116.338C113.956 116.338 108.324 124.7 101 141.406" fill="#2E2E2E"/>
<path d="M121.691 102.594C120.392 103.162 117.039 104.639 115.899 101.75C115.385 100.448 115.909 98.9814 117.207 98.4129C115.909 98.9814 114.096 98.1837 113.527 96.9092C112.957 95.6347 113.536 94.1401 114.834 93.5717C115.796 93.0765 116.852 92.6731 117.917 92.4806C122.494 91.6278 125.53 98.3212 124.923 101.98C124.605 103.896 123.325 105.271 122.195 106.766C121.065 108.26 114.946 114.743 113.956 116.338C113.956 116.338 108.324 124.7 101 141.406" stroke="#101010" stroke-width="2" stroke-linecap="round" stroke-linejoin="round"/>
<path d="M119.148 104.452L124.301 109.755" stroke="#101010" stroke-width="2" stroke-linecap="round" stroke-linejoin="round"/>
<path d="M106.271 47.2255L105.636 48.6845L107.135 49.2375L105.76 50.0479L106.654 51.3702L105.06 51.2098L105.004 52.8131L103.812 51.7527L102.822 53.0158L102.482 51.4492L100.943 51.8874L101.587 50.4268L100.079 49.8755L101.463 49.0633L100.569 47.741L102.154 47.9031L102.21 46.2998L103.411 47.3585L104.392 46.0971L104.733 47.6637L106.271 47.2255Z" fill="#E8F628"/>
<path d="M54.6118 130.942C67.8266 130.068 77.8242 125.71 77.8242 116.364C77.8242 108.622 65.9938 92.9038 56.4839 92.9038C46.9739 92.9038 20.9141 109.071 20.9141 119.621C20.9141 128.967 30.9195 130.076 44.1265 130.942H54.6118Z" fill="#2E2E2E"/>
<path d="M56.4839 99.7246C65.2545 99.7246 75.9915 111.462 77.6119 118.622C77.7534 117.898 77.8242 117.15 77.8242 116.356C77.8242 108.615 65.9939 92.8959 56.4761 92.8959C46.9583 92.8959 20.9062 109.063 20.9062 119.613C20.9062 120.384 20.977 121.092 21.1108 121.761C23.4784 112.532 47.328 99.7167 56.4761 99.7167L56.4839 99.7246Z" fill="#101010" stroke="#101010" stroke-width="2" stroke-linecap="round" stroke-linejoin="round"/>
<path d="M64.4195 125.993C67.2433 125.993 69.5324 122.376 69.5324 117.914C69.5324 113.452 67.2433 109.834 64.4195 109.834C61.5957 109.834 59.3066 113.452 59.3066 117.914C59.3066 122.376 61.5957 125.993 64.4195 125.993Z" fill="white" stroke="#101010" stroke-width="2" stroke-miterlimit="10" stroke-linecap="round"/>
<path d="M42.4742 125.993C45.298 125.993 47.5871 122.376 47.5871 117.914C47.5871 113.452 45.298 109.834 42.4742 109.834C39.6504 109.834 37.3613 113.452 37.3613 117.914C37.3613 122.376 39.6504 125.993 42.4742 125.993Z" fill="white" stroke="#101010" stroke-width="2" stroke-miterlimit="10" stroke-linecap="round"/>
<path d="M46.4782 139.163C43.3947 132.389 37.3773 130.407 37.3773 130.407H37.3379C27.6314 129.408 20.9138 127.284 20.9138 119.621C20.9138 109.071 46.8557 92.9039 56.4836 92.9039C66.1116 92.9039 77.8318 108.623 77.8318 116.364C77.8318 120.117 76.2114 123.067 73.4269 125.309C77.9026 121.871 80.4669 117.056 80.4669 110.597C80.4669 106.829 77.8004 98.7965 73.9067 91.834C78.1779 85.6189 82.9132 76.7132 76.5654 73.7866C73.3718 72.3155 61.9033 69.3574 54.2576 75.2814V75.305C52.1888 74.7464 50.01 74.4475 47.7052 74.4475C44.1892 74.4475 40.7203 75.0218 37.3773 76.0445C27.2145 75.7141 20.5913 66.895 14.3615 68.3504C8.71375 69.6642 3.29411 84.1792 11.1915 96.4363C7.62038 102.628 6 108.135 6 112.234C6 122.43 15.7695 130.478 26.7268 133.695C25.0513 134.915 21.9679 138.117 21.1891 144.883" fill="white"/>
<path d="M31.1553 134.702C18.554 132.578 6 123.775 6 112.218C6 106.908 8.72162 99.2213 14.8964 90.7405" stroke="#101010" stroke-width="2" stroke-linecap="round" stroke-linejoin="round"/>
<path d="M72.3496 89.2141C77.0613 96.6565 80.4594 106.341 80.4594 110.589C80.4594 117.095 77.8636 121.934 73.3329 125.372" stroke="#101010" stroke-width="2" stroke-linecap="round" stroke-linejoin="round"/>
<path d="M32.0059 78.1057C36.9457 75.8007 42.2788 74.4318 47.7063 74.4318C51.9539 74.4318 55.8003 75.4702 59.2299 77.2089" stroke="#101010" stroke-width="2" stroke-linecap="round" stroke-linejoin="round"/>
<path d="M37.3784 76.0366C27.2156 75.7062 20.5925 66.887 14.3627 68.3425C8.71491 69.6563 3.29527 84.1713 11.1927 96.4284" stroke="#101010" stroke-width="2" stroke-linecap="round" stroke-linejoin="round"/>
<path d="M54.2578 75.2734C61.9035 69.3494 73.3721 72.3074 76.5656 73.7786C82.9135 76.7052 78.186 85.6109 73.907 91.826" stroke="#101010" stroke-width="2" stroke-linecap="round" stroke-linejoin="round"/>
<path d="M54.6118 130.942C67.8266 130.068 77.8242 125.71 77.8242 116.364C77.8242 108.622 65.9938 92.9038 56.4839 92.9038C46.9739 92.9038 20.9141 109.071 20.9141 119.621C20.9141 128.967 30.9195 130.076 44.1265 130.942H54.6118Z" stroke="#101010" stroke-width="2" stroke-linecap="round" stroke-linejoin="round"/>
</g>
<defs>
<clipPath id="clip0_73_209">
<rect width="192" height="143" fill="white" transform="translate(0 -7)"/>
</clipPath>
</defs>
</svg>
