<svg width="192" height="118" viewBox="0 0 192 118" fill="none" xmlns="http://www.w3.org/2000/svg">
<g clip-path="url(#clip0_288_2224)">
<path d="M101.092 139.428C103.217 134.649 106.372 129.796 108.341 125.19C109.923 121.489 111.754 117.888 113.851 114.443C114.817 112.853 120.842 106.392 121.964 104.903C123.086 103.413 124.337 102.042 124.65 100.132C125.082 97.4729 123.62 93.2144 121.044 91.4232C122.286 89.7782 122.212 87.4388 120.75 85.8761C119.113 84.1215 116.353 84.0118 114.587 85.6385L109.298 89.7051C108.368 87.4936 105.811 86.4609 103.585 87.3839C101.359 88.3069 100.32 90.8475 101.249 93.059C101.249 93.059 103.217 96.294 97.7256 103.989C92.234 111.683 80.8828 128.745 80.8828 128.745" fill="#2E2E2E"/>
<path d="M71.0664 54.3553L118.649 103.046L123.777 108.306" stroke="#101010" stroke-width="2" stroke-linecap="round" stroke-linejoin="round"/>
<path d="M97.3904 81.2877C100.029 80.2581 103.683 78.4913 106.527 75.7326C110.494 71.8729 112.036 67.6469 113.518 63.5527C114.893 59.7758 116.186 56.2092 119.383 53.106C123.344 49.2569 129.796 47.6014 129.858 47.5807L133.486 46.6642L110.103 22.7329L109.061 22.9916C108.75 23.0682 101.389 24.9483 96.506 29.6844C92.5382 33.5442 90.9967 37.7701 89.5143 41.8644C88.1398 45.6412 86.8467 49.2078 83.6492 52.3111C80.4517 55.4143 76.1498 56.9113 74.1809 57.5377L97.3904 81.2877Z" fill="white" stroke="#101010" stroke-width="2" stroke-linecap="round" stroke-linejoin="round"/>
<path d="M120.856 91.4186C122.073 89.7682 121.982 87.4394 120.545 85.8807C118.916 84.1203 116.171 84.0102 114.414 85.6423L109.152 89.7224C108.227 87.5035 105.683 86.4675 103.469 87.3935C101.254 88.3196 100.22 90.8685 101.144 93.0873C101.144 93.0873 103.103 96.333 97.6391 104.053C92.1757 111.773 80.8828 128.891 80.8828 128.891" stroke="#101010" stroke-width="2" stroke-linecap="round" stroke-linejoin="round"/>
<path d="M116.623 97.0691C116.076 95.0944 114.106 93.9154 112.136 94.3659C112.136 94.3659 108.968 95.104 107.912 95.3341C105.528 95.8517 105.047 99.2451 107.205 100.405C108.355 101.057 109.628 101.028 110.835 101.785C112.117 102.533 112.758 103.616 113.842 104.412C115.868 105.696 118.517 103.635 117.801 101.306L116.613 97.0787L116.623 97.0691Z" fill="#FF9CA8" stroke="#101010" stroke-width="2" stroke-linecap="round" stroke-linejoin="round"/>
<path d="M121.493 100.678C120.225 101.246 116.951 102.72 115.838 99.836C115.337 98.5361 115.847 97.0715 117.115 96.5039C115.847 97.0715 114.078 96.2751 113.522 95.0026C112.965 93.7302 113.531 92.238 114.799 91.6705C115.738 91.1762 116.769 90.7734 117.808 90.5811C122.277 89.7298 125.242 96.4124 124.649 100.065C124.339 101.978 123.089 103.351 121.986 104.843C120.882 106.336 114.908 112.808 113.941 114.4C113.941 114.4 108.442 122.749 101.291 139.428" fill="#2E2E2E"/>
<path d="M121.493 100.678C120.225 101.246 116.951 102.72 115.838 99.836C115.337 98.5361 115.847 97.0715 117.115 96.5039C115.847 97.0715 114.078 96.2751 113.522 95.0026C112.965 93.7302 113.531 92.238 114.799 91.6705C115.738 91.1762 116.769 90.7734 117.808 90.5811C122.277 89.7298 125.242 96.4124 124.649 100.065C124.339 101.978 123.089 103.351 121.986 104.843C120.882 106.336 114.908 112.808 113.941 114.4C113.941 114.4 108.442 122.749 101.291 139.428" stroke="#101010" stroke-width="2" stroke-linecap="round" stroke-linejoin="round"/>
<path d="M118.65 103.024L123.779 108.279" stroke="#101010" stroke-width="2" stroke-linecap="round" stroke-linejoin="round"/>
<ellipse cx="102.803" cy="50.6175" rx="7.55906" ry="7.52632" fill="#FB5732"/>
<path d="M54.4241 129.271C67.5752 128.406 77.5247 124.087 77.5247 114.826C77.5247 107.156 65.7513 91.5806 56.2871 91.5806C46.823 91.5806 20.8887 107.6 20.8887 118.054C20.8887 127.315 30.846 128.414 43.9893 129.271H54.4241Z" fill="#2E2E2E"/>
<path d="M56.2872 98.3392C65.0154 98.3392 75.7007 109.97 77.3133 117.064C77.4542 116.347 77.5247 115.606 77.5247 114.819C77.5247 107.148 65.7513 91.5728 56.2793 91.5728C46.8074 91.5728 20.8809 107.592 20.8809 118.046C20.8809 118.81 20.9513 119.511 21.0844 120.174C23.4406 111.03 47.1753 98.3314 56.2793 98.3314L56.2872 98.3392Z" fill="#101010" stroke="#101010" stroke-width="2" stroke-linecap="round" stroke-linejoin="round"/>
<path d="M64.1859 124.368C66.996 124.368 69.2741 120.784 69.2741 116.362C69.2741 111.941 66.996 108.356 64.1859 108.356C61.3757 108.356 59.0977 111.941 59.0977 116.362C59.0977 120.784 61.3757 124.368 64.1859 124.368Z" fill="white" stroke="#101010" stroke-width="2" stroke-miterlimit="10" stroke-linecap="round"/>
<path d="M42.346 124.368C45.1562 124.368 47.4343 120.784 47.4343 116.362C47.4343 111.941 45.1562 108.356 42.346 108.356C39.5359 108.356 37.2578 111.941 37.2578 116.362C37.2578 120.784 39.5359 124.368 42.346 124.368Z" fill="white" stroke="#101010" stroke-width="2" stroke-miterlimit="10" stroke-linecap="round"/>
<path d="M46.33 137.418C43.2615 130.706 37.273 128.742 37.273 128.742H37.2338C27.574 127.752 20.8889 125.647 20.8889 118.054C20.8889 107.601 46.7058 91.5812 56.2873 91.5812C65.8689 91.5812 77.5327 107.156 77.5327 114.827C77.5327 118.545 75.9201 121.469 73.149 123.69C77.6031 120.284 80.1551 115.513 80.1551 109.113C80.1551 105.379 77.5014 97.4199 73.6265 90.521C77.8771 84.3626 82.5896 75.5383 76.2724 72.6384C73.0942 71.1806 61.6809 68.2496 54.072 74.1195V74.1429C52.0132 73.5894 49.8448 73.2932 47.5512 73.2932C44.0521 73.2932 40.5999 73.8622 37.273 74.8756C27.1591 74.5482 20.5679 65.8096 14.3681 67.2517C8.74755 68.5536 3.35402 82.9361 11.2134 95.0813C7.65945 101.216 6.04688 106.673 6.04688 110.734C6.04688 120.837 15.7693 128.812 26.6738 132C25.0064 133.209 21.9378 136.381 21.1629 143.085" fill="white"/>
<path d="M31.081 132.998C18.5404 130.893 6.04688 122.17 6.04688 110.718C6.04688 105.457 8.75538 97.8405 14.9004 89.437" stroke="#101010" stroke-width="2" stroke-linecap="round" stroke-linejoin="round"/>
<path d="M72.0762 87.9246C76.7652 95.299 80.1469 104.895 80.1469 109.105C80.1469 115.551 77.5636 120.346 73.0547 123.752" stroke="#101010" stroke-width="2" stroke-linecap="round" stroke-linejoin="round"/>
<path d="M31.9258 76.9176C36.8418 74.6335 42.1492 73.2771 47.5506 73.2771C51.7777 73.2771 55.6056 74.3061 59.0187 76.0289" stroke="#101010" stroke-width="2" stroke-linecap="round" stroke-linejoin="round"/>
<path d="M37.2723 74.8673C27.1584 74.5399 20.5672 65.8013 14.3674 67.2434C8.74682 68.5453 3.35329 82.9278 11.2127 95.073" stroke="#101010" stroke-width="2" stroke-linecap="round" stroke-linejoin="round"/>
<path d="M54.0723 74.1111C61.6811 68.2412 73.0944 71.1723 76.2726 72.63C82.5899 75.5299 77.8852 84.3543 73.6268 90.5127" stroke="#101010" stroke-width="2" stroke-linecap="round" stroke-linejoin="round"/>
<path d="M54.4241 129.271C67.5752 128.406 77.5247 124.087 77.5247 114.826C77.5247 107.156 65.7513 91.5806 56.2871 91.5806C46.823 91.5806 20.8887 107.6 20.8887 118.054C20.8887 127.315 30.846 128.414 43.9893 129.271H54.4241Z" stroke="#101010" stroke-width="2" stroke-linecap="round" stroke-linejoin="round"/>
</g>
<defs>
<clipPath id="clip0_288_2224">
<rect width="192" height="143" fill="white" transform="translate(0 -7)"/>
</clipPath>
</defs>
</svg>
