<svg width="130" height="97" viewBox="0 0 130 97" fill="none" xmlns="http://www.w3.org/2000/svg">
<g clip-path="url(#clip0_769_2833)">
<mask id="mask0_769_2833" style="mask-type:luminance" maskUnits="userSpaceOnUse" x="0" y="0" width="130" height="97">
<path d="M130 0H0V97H130V0Z" fill="white"/>
</mask>
<g mask="url(#mask0_769_2833)">
<path d="M96.3289 117.88C98.4489 113.1 101.609 108.25 103.579 103.64C105.159 99.94 106.989 96.34 109.089 92.89C110.059 91.3 116.079 84.84 117.199 83.35C118.319 81.86 119.569 80.49 119.889 78.58C120.319 75.92 118.859 71.66 116.279 69.87C117.519 68.22 117.449 65.89 115.989 64.32C114.349 62.57 111.589 62.46 109.829 64.08L104.539 68.15C103.609 65.94 101.049 64.91 98.8289 65.83C96.5989 66.75 95.5689 69.29 96.4889 71.51C96.4889 71.51 98.4589 74.75 92.9689 82.44C87.4789 90.13 76.1289 107.2 76.1289 107.2" fill="#2E2E2E"/>
<path d="M66.2988 32.81L113.879 81.5L119.009 86.76" stroke="#101010" stroke-width="2" stroke-linecap="round" stroke-linejoin="round"/>
<path d="M92.6202 59.74C95.2602 58.71 98.9102 56.94 101.76 54.18C105.73 50.32 107.27 46.09 108.75 42C110.13 38.22 111.42 34.66 114.62 31.55C118.58 27.7 125.03 26.05 125.09 26.02L128.72 25.1L105.34 1.19L104.3 1.45C103.99 1.53 96.6301 3.41 91.7402 8.14C87.7702 12 86.2302 16.23 84.7502 20.32C83.3802 24.1 82.0801 27.66 78.8801 30.77C75.6802 33.87 71.3802 35.37 69.4102 36L92.6202 59.75V59.74Z" fill="white" stroke="#101010" stroke-width="2" stroke-linecap="round" stroke-linejoin="round"/>
<path d="M116.089 69.87C117.309 68.22 117.219 65.89 115.779 64.33C114.149 62.57 111.409 62.46 109.649 64.09L104.389 68.17C103.459 65.95 100.919 64.92 98.7091 65.84C96.4891 66.77 95.4591 69.31 96.3791 71.53C96.3791 71.53 98.3391 74.78 92.8791 82.5C87.4191 90.22 76.1191 107.34 76.1191 107.34" stroke="#101010" stroke-width="2" stroke-linecap="round" stroke-linejoin="round"/>
<path d="M111.86 75.52C111.31 73.55 109.34 72.37 107.37 72.82C107.37 72.82 104.2 73.56 103.15 73.79C100.77 74.31 100.28 77.7 102.44 78.86C103.59 79.51 104.86 79.48 106.07 80.24C107.35 80.99 107.99 82.07 109.08 82.87C111.11 84.15 113.75 82.09 113.04 79.76L111.85 75.53H111.86V75.52Z" fill="#FF9CA8" stroke="#101010" stroke-width="2" stroke-linecap="round" stroke-linejoin="round"/>
<path d="M116.729 79.13C115.459 79.7 112.189 81.17 111.079 78.29C110.579 76.99 111.079 75.53 112.359 74.96C111.089 75.53 109.319 74.73 108.769 73.46C108.209 72.19 108.769 70.7 110.049 70.13C110.989 69.64 112.019 69.23 113.059 69.04C117.529 68.19 120.489 74.87 119.899 78.52C119.589 80.43 118.339 81.81 117.239 83.3C116.139 84.79 110.159 91.26 109.199 92.86C109.199 92.86 103.699 101.21 96.5488 117.89" fill="#2E2E2E"/>
<path d="M116.729 79.13C115.459 79.7 112.189 81.17 111.079 78.29C110.579 76.99 111.079 75.53 112.359 74.96C111.089 75.53 109.319 74.73 108.769 73.46C108.209 72.19 108.769 70.7 110.049 70.13C110.989 69.64 112.019 69.23 113.059 69.04C117.529 68.19 120.489 74.87 119.899 78.52C119.589 80.43 118.339 81.81 117.239 83.3C116.139 84.79 110.159 91.26 109.199 92.86C109.199 92.86 103.699 101.21 96.5488 117.89" stroke="#101010" stroke-width="2" stroke-linecap="round" stroke-linejoin="round"/>
<path d="M113.879 81.48L119.009 86.73" stroke="#101010" stroke-width="2" stroke-linecap="round" stroke-linejoin="round"/>
<path d="M98.0385 36.6C102.214 36.6 105.599 33.2287 105.599 29.07C105.599 24.9113 102.214 21.54 98.0385 21.54C93.8632 21.54 90.4785 24.9113 90.4785 29.07C90.4785 33.2287 93.8632 36.6 98.0385 36.6Z" fill="#FB5732"/>
<path d="M49.6591 107.72C62.8091 106.86 72.7591 102.54 72.7591 93.28C72.7591 85.61 60.9891 70.03 51.5191 70.03C42.0491 70.03 16.1191 86.05 16.1191 96.5C16.1191 105.76 26.0791 106.86 39.2191 107.72H49.6491H49.6591Z" fill="#2E2E2E"/>
<path d="M51.5194 76.79C60.2494 76.79 70.9294 88.42 72.5494 95.51C72.6894 94.79 72.7594 94.05 72.7594 93.26C72.7594 85.59 60.9894 70.01 51.5094 70.01C42.0294 70.01 16.1094 86.03 16.1094 96.48C16.1094 97.24 16.1794 97.95 16.3094 98.61C18.6694 89.47 42.3994 76.77 51.4994 76.77L51.5194 76.79Z" fill="#101010" stroke="#101010" stroke-width="2" stroke-linecap="round" stroke-linejoin="round"/>
<path d="M59.4201 102.82C62.2301 102.82 64.5101 99.24 64.5101 94.81C64.5101 90.38 62.2301 86.8 59.4201 86.8C56.6101 86.8 54.3301 90.38 54.3301 94.81C54.3301 99.24 56.6101 102.82 59.4201 102.82Z" fill="white" stroke="#101010" stroke-width="2" stroke-miterlimit="10" stroke-linecap="round"/>
<path d="M37.5802 102.82C40.3902 102.82 42.6702 99.24 42.6702 94.81C42.6702 90.38 40.3902 86.8 37.5802 86.8C34.7702 86.8 32.4902 90.38 32.4902 94.81C32.4902 99.24 34.7702 102.82 37.5802 102.82Z" fill="white" stroke="#101010" stroke-width="2" stroke-miterlimit="10" stroke-linecap="round"/>
<path d="M41.5588 115.87C38.4888 109.16 32.4988 107.19 32.4988 107.19H32.4588C22.7988 106.2 16.1188 104.09 16.1188 96.5C16.1188 86.05 41.9388 70.03 51.5188 70.03C61.0988 70.03 72.7688 85.6 72.7688 93.28C72.7688 97 71.1588 99.92 68.3888 102.14C72.8388 98.73 75.3988 93.96 75.3988 87.56C75.3988 83.83 72.7488 75.87 68.8688 68.97C73.1188 62.81 77.8288 53.99 71.5188 51.09C68.3388 49.63 56.9288 46.7 49.3188 52.57V52.59C47.2588 52.04 45.0888 51.74 42.7988 51.74C39.2988 51.74 35.8488 52.31 32.5188 53.32C22.4088 52.99 15.8088 44.25 9.61883 45.7C3.99883 47 -1.39117 61.38 6.46883 73.53C2.91883 79.66 1.29883 85.12 1.29883 89.18C1.29883 99.28 11.0188 107.26 21.9288 110.45C20.2588 111.66 17.1888 114.83 16.4188 121.54" fill="white"/>
<path d="M26.3093 111.45C13.7693 109.35 1.2793 100.62 1.2793 89.17C1.2793 83.91 3.9893 76.29 10.1293 67.89" stroke="#101010" stroke-width="2" stroke-linecap="round" stroke-linejoin="round"/>
<path d="M67.3086 66.38C71.9986 73.75 75.3786 83.35 75.3786 87.56C75.3786 94.01 72.7986 98.8 68.2886 102.21" stroke="#101010" stroke-width="2" stroke-linecap="round" stroke-linejoin="round"/>
<path d="M27.1602 55.37C32.0802 53.09 37.3802 51.73 42.7802 51.73C47.0102 51.73 50.8402 52.76 54.2502 54.48" stroke="#101010" stroke-width="2" stroke-linecap="round" stroke-linejoin="round"/>
<path d="M32.5083 53.32C22.3983 52.99 15.7983 44.25 9.60834 45.7C3.98834 47 -1.40166 61.38 6.45834 73.53" stroke="#101010" stroke-width="2" stroke-linecap="round" stroke-linejoin="round"/>
<path d="M49.3086 52.56C56.9186 46.69 68.3286 49.62 71.5086 51.08C77.8286 53.98 73.1186 62.8 68.8586 68.96" stroke="#101010" stroke-width="2" stroke-linecap="round" stroke-linejoin="round"/>
<path d="M49.6591 107.72C62.8091 106.86 72.7591 102.54 72.7591 93.28C72.7591 85.61 60.9891 70.03 51.5191 70.03C42.0491 70.03 16.1191 86.05 16.1191 96.5C16.1191 105.76 26.0791 106.86 39.2191 107.72H49.6491H49.6591Z" stroke="#101010" stroke-width="2" stroke-linecap="round" stroke-linejoin="round"/>
</g>
</g>
<defs>
<clipPath id="clip0_769_2833">
<rect width="130" height="97" fill="white"/>
</clipPath>
</defs>
</svg>
