<svg width="140" height="99" viewBox="0 0 140 99" fill="none" xmlns="http://www.w3.org/2000/svg">
<g clip-path="url(#clip0_304_2359)">
<path d="M96.0923 120.428C98.2172 115.649 101.372 110.796 103.341 106.19C104.923 102.489 106.754 98.8885 108.851 95.4432C109.817 93.8531 115.842 87.3922 116.964 85.9026C118.086 84.413 119.337 83.0422 119.65 81.1322C120.082 78.4729 118.62 74.2144 116.044 72.4232C117.286 70.7782 117.212 68.4388 115.75 66.8761C114.113 65.1215 111.353 65.0118 109.587 66.6385L104.298 70.7051C103.368 68.4936 100.811 67.4609 98.5852 68.3839C96.3591 69.3069 95.3196 71.8475 96.2487 74.059C96.2487 74.059 98.2172 77.294 92.7256 84.9887C87.234 92.6834 75.8828 109.745 75.8828 109.745" fill="#2E2E2E"/>
<path d="M66.0664 35.3553L113.649 84.0463L118.777 89.3063" stroke="#101010" stroke-width="2" stroke-linecap="round" stroke-linejoin="round"/>
<path d="M92.3904 62.2876C95.0288 61.258 98.6834 59.4912 101.527 56.7325C105.494 52.8728 107.036 48.6468 108.518 44.5526C109.893 40.7757 111.186 37.2091 114.383 34.1058C118.344 30.2567 124.796 28.6013 124.858 28.5806L128.486 27.6641L105.103 3.73276L104.061 3.9915C103.75 4.06806 96.3894 5.94815 91.506 10.6843C87.5382 14.544 85.9967 18.77 84.5143 22.8642C83.1398 26.6411 81.8467 30.2077 78.6492 33.311C75.4517 36.4142 71.1498 37.9112 69.1809 38.5376L92.3904 62.2876Z" fill="white" stroke="#101010" stroke-width="2" stroke-linecap="round" stroke-linejoin="round"/>
<path d="M82.8945 35.3216L86.0963 41.8733L82.8945 35.3216ZM87.7343 41.0729L84.5325 34.5211L87.7343 41.0729ZM86.1704 33.7207L89.3722 40.2724L86.1704 33.7207ZM110.119 30.1334L108.652 27.1305L110.119 30.1334ZM108.385 26.5846L106.918 23.5817L108.385 26.5846ZM108.555 22.7812L110.023 25.7841L108.555 22.7812ZM110.29 26.3301L111.757 29.333L110.29 26.3301ZM113.395 28.5325L111.928 25.5296L113.395 28.5325ZM111.661 24.9837L110.193 21.9808L111.661 24.9837Z" fill="black"/>
<path d="M82.8945 35.3216L86.0963 41.8733M87.7343 41.0729L84.5325 34.5211M86.1704 33.7207L89.3722 40.2724M110.119 30.1334L108.652 27.1305M108.385 26.5846L106.918 23.5817M108.555 22.7812L110.023 25.7841M110.29 26.3301L111.757 29.333M113.395 28.5325L111.928 25.5296M111.661 24.9837L110.193 21.9808" stroke="black" stroke-width="1.5"/>
<path d="M95.4121 47.3102L102.691 46.8746L95.4121 47.3102ZM102.582 45.0548L99.2461 45.2544L102.582 45.0548ZM98.6395 45.2907L95.3032 45.4904L98.6395 45.2907ZM95.1943 43.6706L102.474 43.235L95.1943 43.6706ZM101.094 20.1841L97.7578 20.3838L101.094 20.1841ZM97.1512 20.4201L93.8149 20.6197L97.1512 20.4201ZM93.706 18.7999L100.985 18.3643L93.706 18.7999ZM100.876 16.5445L97.54 16.7442L100.876 16.5445ZM96.9334 16.7805L93.5971 16.9801L96.9334 16.7805Z" fill="black"/>
<path d="M95.4121 47.3102L102.691 46.8746M102.582 45.0548L99.2461 45.2544M98.6395 45.2907L95.3032 45.4904M95.1943 43.6706L102.474 43.235M101.094 20.1841L97.7578 20.3838M97.1512 20.4201L93.8149 20.6197M93.706 18.7999L100.985 18.3643M100.876 16.5445L97.54 16.7442M96.9334 16.7805L93.5971 16.9801" stroke="black" stroke-width="1.5"/>
<path d="M101.42 30.3263C102.057 31.6295 102.15 33.1323 101.679 34.5042C101.208 35.876 100.211 37.0045 98.9076 37.6414C97.6043 38.2783 96.1015 38.3714 94.7296 37.9002C93.3578 37.429 92.2293 36.4322 91.5924 35.1289C90.7433 33.3913 90.6191 31.3875 91.2474 29.5584C91.8756 27.7292 93.2047 26.2246 94.9424 25.3754C96.68 24.5262 98.6838 24.4021 100.513 25.0304C102.342 25.6586 103.847 26.9877 104.696 28.7254" fill="#FB5732"/>
<path d="M98.1448 31.9272C97.7202 31.0584 97.6582 30.0565 97.9723 29.1419C98.2864 28.2274 98.951 27.475 99.8198 27.0505C100.689 26.6259 101.691 26.5638 102.605 26.8779C103.52 27.192 104.272 27.8566 104.697 28.7254C105.546 30.4631 105.67 32.4668 105.042 34.296C104.413 36.1251 103.084 37.6298 101.347 38.479C99.609 39.3281 97.6052 39.4522 95.7761 38.824C93.9469 38.1958 92.4423 36.8666 91.5931 35.129C92.0177 35.9978 92.77 36.6624 93.6846 36.9765C94.5991 37.2906 95.601 37.2286 96.4699 36.804C97.3387 36.3794 98.0032 35.6271 98.3173 34.7125C98.6315 33.7979 98.5694 32.796 98.1448 31.9272Z" fill="#5B88DF"/>
<path d="M115.856 72.4186C117.073 70.7682 116.982 68.4394 115.545 66.8807C113.916 65.1203 111.171 65.0102 109.414 66.6423L104.152 70.7224C103.227 68.5035 100.683 67.4675 98.4686 68.3935C96.2539 69.3196 95.2198 71.8685 96.1441 74.0873C96.1441 74.0873 98.1025 77.333 92.6391 85.0531C87.1757 92.7732 75.8828 109.891 75.8828 109.891" stroke="#101010" stroke-width="2" stroke-linecap="round" stroke-linejoin="round"/>
<path d="M111.623 78.0691C111.076 76.0944 109.106 74.9154 107.136 75.3659C107.136 75.3659 103.968 76.104 102.912 76.3341C100.528 76.8517 100.047 80.2451 102.205 81.4049C103.355 82.0568 104.628 82.028 105.835 82.7853C107.117 83.533 107.758 84.6162 108.842 85.4118C110.868 86.6963 113.517 84.6353 112.801 82.306L111.613 78.0787L111.623 78.0691Z" fill="#FF9CA8" stroke="#101010" stroke-width="2" stroke-linecap="round" stroke-linejoin="round"/>
<path d="M116.493 81.6782C115.225 82.2458 111.951 83.7196 110.838 80.836C110.337 79.5361 110.847 78.0715 112.115 77.5039C110.847 78.0715 109.078 77.2751 108.522 76.0026C107.965 74.7302 108.531 73.238 109.799 72.6705C110.738 72.1762 111.769 71.7734 112.808 71.5811C117.277 70.7298 120.242 77.4124 119.649 81.0649C119.339 82.9781 118.089 84.3513 116.986 85.8434C115.882 87.3355 109.908 93.8076 108.941 95.4004C108.941 95.4004 103.442 103.749 96.291 120.428" fill="#2E2E2E"/>
<path d="M116.493 81.6782C115.225 82.2458 111.951 83.7196 110.838 80.836C110.337 79.5361 110.847 78.0715 112.115 77.5039C110.847 78.0715 109.078 77.2751 108.522 76.0026C107.965 74.7302 108.531 73.238 109.799 72.6705C110.738 72.1762 111.769 71.7734 112.808 71.5811C117.277 70.7298 120.242 77.4124 119.649 81.0649C119.339 82.9781 118.089 84.3513 116.986 85.8434C115.882 87.3355 109.908 93.8076 108.941 95.4004C108.941 95.4004 103.442 103.749 96.291 120.428" stroke="#101010" stroke-width="2" stroke-linecap="round" stroke-linejoin="round"/>
<path d="M113.65 84.0239L118.779 89.2786" stroke="#101010" stroke-width="2" stroke-linecap="round" stroke-linejoin="round"/>
<path d="M49.4241 110.271C62.5752 109.406 72.5247 105.087 72.5247 95.8264C72.5247 88.1558 60.7513 72.5806 51.2871 72.5806C41.823 72.5806 15.8887 88.6001 15.8887 99.0537C15.8887 108.315 25.846 109.414 38.9893 110.271H49.4241Z" fill="#2E2E2E"/>
<path d="M51.2872 79.3392C60.0154 79.3392 70.7007 90.9699 72.3133 98.0637C72.4542 97.3465 72.5247 96.606 72.5247 95.8186C72.5247 88.148 60.7513 72.5728 51.2793 72.5728C41.8074 72.5728 15.8809 88.5923 15.8809 99.0459C15.8809 99.8099 15.9513 100.511 16.0844 101.174C18.4406 92.0301 42.1753 79.3314 51.2793 79.3314L51.2872 79.3392Z" fill="#101010" stroke="#101010" stroke-width="2" stroke-linecap="round" stroke-linejoin="round"/>
<path d="M59.1859 105.368C61.996 105.368 64.2741 101.784 64.2741 97.3623C64.2741 92.9408 61.996 89.3564 59.1859 89.3564C56.3757 89.3564 54.0977 92.9408 54.0977 97.3623C54.0977 101.784 56.3757 105.368 59.1859 105.368Z" fill="white" stroke="#101010" stroke-width="2" stroke-miterlimit="10" stroke-linecap="round"/>
<path d="M37.346 105.368C40.1562 105.368 42.4343 101.784 42.4343 97.3623C42.4343 92.9408 40.1562 89.3564 37.346 89.3564C34.5359 89.3564 32.2578 92.9408 32.2578 97.3623C32.2578 101.784 34.5359 105.368 37.346 105.368Z" fill="white" stroke="#101010" stroke-width="2" stroke-miterlimit="10" stroke-linecap="round"/>
<path d="M41.33 118.418C38.2615 111.706 32.273 109.742 32.273 109.742H32.2338C22.574 108.752 15.8889 106.647 15.8889 99.0544C15.8889 88.6007 41.7058 72.5812 51.2873 72.5812C60.8689 72.5812 72.5327 88.1564 72.5327 95.8271C72.5327 99.5455 70.9201 102.469 68.149 104.69C72.6031 101.284 75.1551 96.5131 75.1551 90.113C75.1551 86.3791 72.5014 78.4199 68.6265 71.521C72.8771 65.3626 77.5896 56.5383 71.2724 53.6384C68.0942 52.1806 56.6809 49.2496 49.072 55.1195V55.1429C47.0132 54.5894 44.8448 54.2932 42.5512 54.2932C39.0521 54.2932 35.5999 54.8622 32.273 55.8756C22.1591 55.5482 15.5679 46.8096 9.3681 48.2517C3.74755 49.5536 -1.64598 63.9361 6.21339 76.0813C2.65945 82.2163 1.04688 87.6731 1.04688 91.7345C1.04688 101.837 10.7693 109.812 21.6738 113C20.0064 114.209 16.9378 117.381 16.1629 124.085" fill="white"/>
<path d="M26.081 113.998C13.5404 111.893 1.04688 103.17 1.04688 91.7185C1.04688 86.4566 3.75538 78.8405 9.9004 70.437" stroke="#101010" stroke-width="2" stroke-linecap="round" stroke-linejoin="round"/>
<path d="M67.0762 68.9246C71.7652 76.299 75.1469 85.8951 75.1469 90.1047C75.1469 96.5515 72.5636 101.346 68.0547 104.752" stroke="#101010" stroke-width="2" stroke-linecap="round" stroke-linejoin="round"/>
<path d="M26.9258 57.9176C31.8418 55.6335 37.1492 54.2771 42.5506 54.2771C46.7777 54.2771 50.6056 55.3061 54.0187 57.0289" stroke="#101010" stroke-width="2" stroke-linecap="round" stroke-linejoin="round"/>
<path d="M32.2723 55.8673C22.1584 55.5399 15.5672 46.8013 9.36737 48.2434C3.74682 49.5453 -1.64671 63.9278 6.21266 76.073" stroke="#101010" stroke-width="2" stroke-linecap="round" stroke-linejoin="round"/>
<path d="M49.0723 55.1111C56.6811 49.2412 68.0944 52.1723 71.2726 53.63C77.5899 56.5299 72.8852 65.3543 68.6268 71.5127" stroke="#101010" stroke-width="2" stroke-linecap="round" stroke-linejoin="round"/>
<path d="M49.4241 110.271C62.5752 109.406 72.5247 105.087 72.5247 95.8264C72.5247 88.1558 60.7513 72.5806 51.2871 72.5806C41.823 72.5806 15.8887 88.6001 15.8887 99.0537C15.8887 108.315 25.846 109.414 38.9893 110.271H49.4241Z" stroke="#101010" stroke-width="2" stroke-linecap="round" stroke-linejoin="round"/>
</g>
<defs>
<clipPath id="clip0_304_2359">
<rect width="139.376" height="124.693" fill="white" transform="translate(0 0.307434)"/>
</clipPath>
</defs>
</svg>
