<svg width="130" height="97" viewBox="0 0 130 97" fill="none" xmlns="http://www.w3.org/2000/svg">
<g clip-path="url(#clip0_769_2697)">
<mask id="mask0_769_2697" style="mask-type:luminance" maskUnits="userSpaceOnUse" x="0" y="0" width="130" height="97">
<path d="M130 0H0V97H130V0Z" fill="white"/>
</mask>
<g mask="url(#mask0_769_2697)">
<path d="M96.3289 117.9C98.4489 113.12 101.609 108.27 103.579 103.66C105.159 99.96 106.989 96.36 109.089 92.91C110.059 91.32 116.079 84.86 117.199 83.37C118.319 81.88 119.569 80.51 119.889 78.6C120.319 75.94 118.859 71.68 116.279 69.89C117.519 68.24 117.449 65.91 115.989 64.34C114.349 62.59 111.589 62.48 109.829 64.1L104.539 68.17C103.609 65.96 101.049 64.93 98.8289 65.85C96.5989 66.77 95.5589 69.31 96.4889 71.53C96.4889 71.53 98.4589 74.77 92.9689 82.46C87.4789 90.15 76.1289 107.22 76.1289 107.22" fill="#2E2E2E"/>
<path d="M66.2988 32.83L113.879 81.52L119.009 86.78" stroke="#101010" stroke-width="2" stroke-linecap="round" stroke-linejoin="round"/>
<path d="M92.6202 59.76C95.2602 58.73 98.9102 56.96 101.76 54.2C105.73 50.34 107.27 46.11 108.75 42.02C110.13 38.24 111.42 34.68 114.62 31.57C118.58 27.72 125.03 26.07 125.09 26.04L128.72 25.12L105.34 1.20999L104.3 1.46999C103.99 1.54999 96.6301 3.42999 91.7402 8.15999C87.7702 12.02 86.2302 16.25 84.7502 20.34C83.3802 24.12 82.0801 27.68 78.8801 30.79C75.6802 33.89 71.3802 35.39 69.4102 36.02L92.6202 59.77V59.76Z" fill="white" stroke="#101010" stroke-width="2" stroke-linecap="round" stroke-linejoin="round"/>
<path d="M83.1289 32.8L86.3289 39.35M87.9689 38.55L84.7689 32M86.3989 31.2L89.5989 37.75M110.349 27.61L108.879 24.61M108.619 24.06L107.149 21.06M108.789 20.26L110.259 23.26M110.519 23.81L111.989 26.81M113.629 26.01L112.159 23.01M111.889 22.46L110.419 19.46" stroke="black" stroke-width="1.5"/>
<path d="M95.6501 44.79L102.93 44.35M102.82 42.53L99.4801 42.73M98.8701 42.77L95.5301 42.97M95.4301 41.15L102.71 40.71M101.33 17.66L97.9901 17.86M97.3801 17.9L94.0401 18.1M93.9401 16.28L101.22 15.84M101.11 14.02L97.7701 14.22M97.1701 14.26L93.8301 14.46" stroke="black" stroke-width="1.5"/>
<path d="M101.648 27.8C102.288 29.1 102.378 30.61 101.908 31.98C101.438 33.35 100.438 34.48 99.1385 35.12C97.8385 35.76 96.3285 35.85 94.9585 35.38C93.5885 34.91 92.4585 33.91 91.8185 32.61C90.9685 30.87 90.8485 28.87 91.4685 27.04C92.0985 25.21 93.4285 23.71 95.1585 22.86C96.8985 22.01 98.8985 21.89 100.728 22.51C102.558 23.14 104.058 24.47 104.908 26.21" fill="#FB5732"/>
<path d="M98.3796 29.4C97.9596 28.53 97.8896 27.53 98.2096 26.61C98.5196 25.7 99.1896 24.94 100.06 24.52C100.93 24.1 101.93 24.03 102.85 24.35C103.76 24.66 104.52 25.33 104.94 26.2C105.79 27.94 105.91 29.94 105.29 31.77C104.66 33.6 103.33 35.1 101.6 35.95C99.8596 36.8 97.8596 36.92 96.0296 36.3C94.1996 35.67 92.6996 34.34 91.8496 32.61C92.2696 33.48 93.0296 34.14 93.9396 34.46C94.8496 34.77 95.8596 34.71 96.7296 34.29C97.5996 33.87 98.2596 33.11 98.5796 32.2C98.8896 31.29 98.8296 30.28 98.4096 29.41L98.3796 29.4Z" fill="#5B88DF"/>
<path d="M116.089 69.9C117.309 68.25 117.219 65.92 115.779 64.36C114.149 62.6 111.409 62.49 109.649 64.12L104.389 68.2C103.459 65.98 100.919 64.95 98.7089 65.87C96.4989 66.8 95.4589 69.34 96.3889 71.56C96.3889 71.56 98.3489 74.81 92.8889 82.53C87.4289 90.25 76.1289 107.37 76.1289 107.37" stroke="#101010" stroke-width="2" stroke-linecap="round" stroke-linejoin="round"/>
<path d="M111.86 75.55C111.31 73.58 109.34 72.4 107.37 72.85C107.37 72.85 104.2 73.59 103.15 73.82C100.77 74.34 100.28 77.73 102.44 78.89C103.59 79.54 104.86 79.51 106.07 80.27C107.35 81.02 107.99 82.1 109.08 82.9C111.11 84.18 113.75 82.12 113.04 79.79L111.85 75.56H111.86V75.55Z" fill="#FF9CA8" stroke="#101010" stroke-width="2" stroke-linecap="round" stroke-linejoin="round"/>
<path d="M116.729 79.15C115.459 79.72 112.189 81.19 111.079 78.31C110.579 77.01 111.079 75.55 112.359 74.98C111.089 75.55 109.319 74.75 108.769 73.48C108.209 72.21 108.769 70.72 110.049 70.15C110.989 69.66 112.019 69.25 113.059 69.06C117.529 68.21 120.489 74.89 119.899 78.54C119.589 80.45 118.339 81.83 117.239 83.32C116.139 84.81 110.159 91.28 109.199 92.88C109.199 92.88 103.699 101.23 96.5488 117.91" fill="#2E2E2E"/>
<path d="M116.729 79.15C115.459 79.72 112.189 81.19 111.079 78.31C110.579 77.01 111.079 75.55 112.359 74.98C111.089 75.55 109.319 74.75 108.769 73.48C108.209 72.21 108.769 70.72 110.049 70.15C110.989 69.66 112.019 69.25 113.059 69.06C117.529 68.21 120.489 74.89 119.899 78.54C119.589 80.45 118.339 81.83 117.239 83.32C116.139 84.81 110.159 91.28 109.199 92.88C109.199 92.88 103.699 101.23 96.5488 117.91" stroke="#101010" stroke-width="2" stroke-linecap="round" stroke-linejoin="round"/>
<path d="M113.879 81.5L119.009 86.75" stroke="#101010" stroke-width="2" stroke-linecap="round" stroke-linejoin="round"/>
<path d="M49.6591 107.75C62.8091 106.88 72.7591 102.57 72.7591 93.31C72.7591 85.64 60.9891 70.06 51.5191 70.06C42.0491 70.06 16.1191 86.08 16.1191 96.53C16.1191 105.79 26.0791 106.89 39.2191 107.75H49.6491H49.6591Z" fill="#2E2E2E"/>
<path d="M51.5194 76.82C60.2494 76.82 70.9294 88.45 72.5494 95.54C72.6894 94.82 72.7594 94.08 72.7594 93.29C72.7594 85.62 60.9894 70.04 51.5094 70.04C42.0294 70.04 16.1094 86.06 16.1094 96.51C16.1094 97.27 16.1794 97.98 16.3094 98.64C18.6694 89.5 42.3994 76.8 51.4994 76.8L51.5194 76.82Z" fill="#101010" stroke="#101010" stroke-width="2" stroke-linecap="round" stroke-linejoin="round"/>
<path d="M59.4201 102.84C62.2301 102.84 64.5101 99.26 64.5101 94.83C64.5101 90.4 62.2301 86.82 59.4201 86.82C56.6101 86.82 54.3301 90.4 54.3301 94.83C54.3301 99.26 56.6101 102.84 59.4201 102.84Z" fill="white" stroke="#101010" stroke-width="2" stroke-miterlimit="10" stroke-linecap="round"/>
<path d="M37.5802 102.84C40.3902 102.84 42.6702 99.26 42.6702 94.83C42.6702 90.4 40.3902 86.82 37.5802 86.82C34.7702 86.82 32.4902 90.4 32.4902 94.83C32.4902 99.26 34.7702 102.84 37.5802 102.84Z" fill="white" stroke="#101010" stroke-width="2" stroke-miterlimit="10" stroke-linecap="round"/>
<path d="M41.5588 115.89C38.4888 109.18 32.4988 107.21 32.4988 107.21H32.4588C22.7988 106.22 16.1188 104.12 16.1188 96.52C16.1188 86.07 41.9388 70.05 51.5188 70.05C61.0988 70.05 72.7688 85.63 72.7688 93.3C72.7688 97.02 71.1588 99.94 68.3888 102.16C72.8388 98.75 75.3988 93.98 75.3988 87.58C75.3988 83.85 72.7488 75.89 68.8688 68.99C73.1188 62.83 77.8288 54.01 71.5188 51.11C68.3388 49.65 56.9288 46.72 49.3188 52.59V52.61C47.2588 52.06 45.0888 51.76 42.7988 51.76C39.2988 51.76 35.8488 52.33 32.5188 53.34C22.4088 53.01 15.8088 44.27 9.61883 45.72C3.99883 47.02 -1.39117 61.4 6.46883 73.55C2.91883 79.69 1.29883 85.14 1.29883 89.2C1.29883 99.3 11.0188 107.28 21.9288 110.47C20.2588 111.68 17.1888 114.85 16.4188 121.55" fill="white"/>
<path d="M26.3093 111.47C13.7693 109.36 1.2793 100.64 1.2793 89.19C1.2793 83.93 3.9893 76.31 10.1293 67.91" stroke="#101010" stroke-width="2" stroke-linecap="round" stroke-linejoin="round"/>
<path d="M67.3086 66.4C71.9986 73.77 75.3786 83.37 75.3786 87.58C75.3786 94.03 72.7986 98.82 68.2886 102.23" stroke="#101010" stroke-width="2" stroke-linecap="round" stroke-linejoin="round"/>
<path d="M27.1602 55.39C32.0802 53.11 37.3802 51.75 42.7802 51.75C47.0102 51.75 50.8402 52.78 54.2502 54.5" stroke="#101010" stroke-width="2" stroke-linecap="round" stroke-linejoin="round"/>
<path d="M32.5083 53.34C22.3983 53.01 15.7983 44.27 9.60834 45.72C3.98834 47.02 -1.40166 61.4 6.45834 73.55" stroke="#101010" stroke-width="2" stroke-linecap="round" stroke-linejoin="round"/>
<path d="M49.3086 52.59C56.9186 46.72 68.3286 49.65 71.5086 51.11C77.8286 54.01 73.1186 62.83 68.8586 68.99" stroke="#101010" stroke-width="2" stroke-linecap="round" stroke-linejoin="round"/>
<path d="M49.6591 107.75C62.8091 106.88 72.7591 102.57 72.7591 93.31C72.7591 85.64 60.9891 70.06 51.5191 70.06C42.0491 70.06 16.1191 86.08 16.1191 96.53C16.1191 105.79 26.0791 106.89 39.2191 107.75H49.6491H49.6591Z" stroke="#101010" stroke-width="2" stroke-linecap="round" stroke-linejoin="round"/>
</g>
</g>
<defs>
<clipPath id="clip0_769_2697">
<rect width="130" height="97" fill="white"/>
</clipPath>
</defs>
</svg>
