<svg width="357" height="310" viewBox="0 0 357 310" fill="none" xmlns="http://www.w3.org/2000/svg">
<g clip-path="url(#clip0_9542_9172)">
<path d="M241.891 166.166C243.819 167.06 245.482 168.306 246.632 170.132C247.211 171.065 247.762 171.854 248.703 172.606C253.833 176.724 258.536 181.224 262.82 186.094C262.82 186.094 262.963 186.522 262.725 187.331C261.994 188.967 260.702 189.889 259.153 190.46C258.65 190.641 258.678 190.926 258.697 191.307C258.783 192.971 258.688 194.617 258.279 196.234C257.861 197.918 257.101 198.603 255.372 198.84C255.04 198.888 254.773 198.888 254.631 199.335C252.617 205.737 249.719 211.787 247.031 217.922C246.755 218.55 246.736 219.073 246.936 219.729C249.225 227.149 250.033 234.787 249.957 242.511C249.833 255.362 248.047 267.985 244.532 280.351C243.962 282.368 243.088 284.261 241.938 286.03C241.824 286.201 241.72 286.372 241.587 286.525C239.867 288.427 239.487 288.36 237.578 287.257C235.981 286.334 234.604 285.05 232.77 284.518C227.497 282.996 223.042 284.698 218.947 287.923C218.633 288.17 218.586 288.418 218.662 288.789C220.192 296.979 221.322 305.235 222.177 313.52C223.403 325.354 224.02 337.215 224.087 349.106C224.087 350.019 223.631 349.943 223.032 349.943C212.61 349.943 202.188 349.943 191.766 349.943H180.498C178.18 349.848 175.843 349.943 173.516 349.943H171.074C168.68 349.943 166.286 349.971 163.892 349.924L162.286 350.009C160.737 350.009 159.198 350.009 157.669 350.009C157.08 350.009 156.481 349.943 155.892 349.943C137.851 349.943 119.809 349.943 101.768 349.962C100.78 349.962 101.179 349.315 101.264 348.925C101.825 346.214 102.613 343.57 103.582 340.982C106.394 333.477 110.546 326.714 115.078 320.169C119.353 313.987 123.961 308.032 128.056 301.735C130.744 297.606 133.205 293.354 134.478 288.532C134.896 286.934 135.162 285.307 135.266 283.652C135.304 283.043 135.143 282.815 134.563 282.748C131.723 282.406 128.882 282.006 126.041 281.692C120.455 281.065 114.802 280.912 109.33 279.457C103.772 277.973 98.927 275.386 95.6683 270.42C93.3121 266.825 92.1531 262.791 91.526 258.597C90.348 250.73 90.595 242.844 91.2315 234.959C91.6116 230.25 92.2101 225.57 93.0841 220.918C93.1506 220.557 93.1886 220.243 92.7896 219.958C86.7663 215.744 82.7096 209.913 79.4604 203.454C77.0188 198.603 74.9571 193.59 73.4656 188.367C72.0405 183.383 73.7031 179.921 78.4058 177.704C81.712 176.154 85.2557 175.516 88.8469 175.117C97.7964 174.128 106.518 175.554 115.173 177.628C118.118 178.332 121.035 179.131 123.951 179.94C124.626 180.13 125.034 179.978 125.519 179.502C129.975 175.098 134.696 171.055 140.33 168.201C146.791 164.929 153.536 163.645 160.68 165.405C161.516 165.614 161.383 165.043 161.45 164.672C162.932 156.796 166.086 149.652 170.76 143.156C171.625 141.948 172.527 140.768 173.687 139.817C176.128 137.829 178.313 137.886 180.479 140.15C183.966 143.802 186.864 147.893 189.267 152.335C194.426 161.866 197.01 172.035 196.82 182.888C196.811 183.45 197.001 183.83 197.362 184.22C202.112 189.338 206.862 194.465 211.594 199.601C214.767 203.054 217.189 206.935 218.092 211.625C218.329 212.881 218.634 214.127 218.567 215.42C218.329 215.848 218.215 216.257 218.672 216.628C218.824 217.161 218.786 217.713 218.767 218.265C218.443 218.826 218.615 219.568 218.054 220.138C217.854 219.406 218.177 218.683 217.826 218.055C217.826 217.922 217.826 217.779 217.826 217.646C217.949 216.819 218.329 215.972 217.617 215.221C217.607 215.087 217.588 214.945 217.579 214.812C217.883 214.498 217.759 214.155 217.75 213.661C217.569 213.936 217.484 214.07 217.398 214.203C216.562 211.882 215.052 210.055 213.199 208.476C212.012 207.468 210.729 206.602 209.399 205.803C198.141 199.002 185.999 194.284 173.411 190.631C169.886 189.604 166.552 189.927 163.407 191.877C162.229 192.6 161.013 193.276 159.901 194.084C148.073 202.731 138.079 213.147 129.965 225.351C123.41 235.196 118.299 245.745 114.888 257.094C113.995 260.061 113.558 263.096 114.023 266.187C114.698 270.668 117.538 273.379 121.472 275.186C128.54 278.43 136.055 279.59 143.731 280.056C149.422 280.399 155.123 280.38 160.813 280.598C164.927 280.751 169.031 280.941 173.088 281.673C176.527 282.301 179.102 284.004 179.862 287.685C180.232 289.464 180.118 291.243 179.833 293.021C178.988 298.263 177.563 303.352 175.701 308.317C175.587 308.631 175.292 308.945 175.501 309.326C175.729 309.364 175.824 309.221 175.929 309.088C177.943 306.548 179.957 304.018 181.952 301.468C182.133 301.24 182.228 300.936 182.304 300.641C183.634 295.732 183.928 290.739 183.558 285.688C183.282 281.911 181.809 279.895 178.513 278.782C177.553 278.458 176.584 278.154 175.615 277.878C169.639 276.232 163.521 275.376 157.393 274.587C151.74 273.854 146.135 272.922 140.71 271.115C137.613 270.078 134.497 269.098 131.818 267.12C128.882 264.951 127.41 262.04 127.286 258.397C127.172 254.934 128.056 251.672 129.215 248.485C131.742 241.532 134.715 234.778 138.288 228.29C141.299 222.821 144.719 217.637 148.672 212.804C153.146 207.335 158.201 202.493 163.977 198.422C167.188 196.158 170.656 195.549 174.418 196.7C180.888 198.669 187.101 201.304 193.201 204.205C198.625 206.783 203.917 209.589 208.591 213.451C212.639 216.8 214.7 220.956 214.548 226.236C214.482 228.471 214.092 230.649 213.807 232.856C213.047 238.773 210.843 244.09 207.67 249.075C206.169 251.434 204.459 253.631 203.319 256.247C202.112 259.015 200.203 261.441 198.559 263.99C196.459 267.243 194.341 270.477 193.001 274.149C191.614 277.935 190.939 281.787 191.842 285.802C191.899 286.077 191.795 286.487 192.203 286.544C192.536 286.591 192.593 286.211 192.726 286.001C196.44 280.18 200.069 274.311 202.996 268.042C205.276 263.162 207.47 258.245 209.713 253.346C210.131 253.26 210.197 252.509 210.796 252.775C210.805 252.908 210.815 253.032 210.824 253.165C210.767 253.194 210.71 253.213 210.653 253.241C210.72 253.241 210.777 253.26 210.843 253.27C210.938 253.974 211.033 254.677 211.128 255.381C211.109 258.872 210.558 262.297 209.76 265.693C207.556 275.11 204.164 284.108 200.212 292.907C200.06 293.24 199.746 293.64 199.822 293.925C200.279 295.609 199.281 296.845 198.625 298.177C198.34 298.748 198.245 299.281 198.274 299.918C198.445 303.39 198.625 306.862 198.692 310.343C198.929 322.814 198.321 335.246 196.744 347.631C196.564 349.011 196.944 349.344 198.264 349.344C199.784 349.344 201.305 349.344 202.815 349.344C209.294 349.344 215.764 349.344 222.244 349.344C222.652 349.344 223.241 349.591 223.213 348.754C223.137 346.461 223.26 344.169 223.042 341.877C223.051 339.527 223.032 337.177 222.804 334.837C222.804 331.974 222.567 329.121 222.358 326.267C222.301 325.259 222.263 324.26 222.177 323.251C221.93 320.55 221.816 317.829 221.398 315.147C221.218 312.208 220.876 309.297 220.429 306.386C220.23 304.027 219.878 301.687 219.498 299.347C219.052 295.951 218.462 292.584 217.835 289.112C217.113 289.607 216.743 290.253 216.306 290.824C216.135 291.033 215.926 291.129 215.698 290.967C215.46 290.805 215.479 290.567 215.641 290.349C215.774 290.158 215.907 289.959 216.049 289.778C218.244 287.01 221.056 285.126 224.362 283.937C227.174 282.929 230.015 282.948 232.913 283.709C233.027 281.635 232.865 279.657 232.637 277.678C231.934 271.619 230.186 265.826 228.182 260.099C225.854 253.431 223.184 246.887 221.294 240.067C220.952 238.821 220.828 237.498 220.22 236.319C220.201 235.957 220.22 235.577 220.144 235.225C219.66 232.923 219.337 230.592 219.137 228.243C218.938 225.884 218.976 223.534 219.156 221.185C219.166 221.014 219.574 220.538 218.928 220.528C218.567 219.805 218.862 219.111 218.995 218.407C219.935 215.791 220.809 213.147 221.826 210.56C222.652 208.438 223.811 206.498 225.607 205.023C226.538 204.262 227.564 203.692 228.809 203.692C229.265 203.692 229.455 203.473 229.635 203.111C231.944 198.584 234.385 194.122 236.979 189.747C237.207 189.366 237.226 189.033 237.093 188.615C236.437 186.598 236.941 184.914 238.547 183.526C239.259 182.907 239.858 182.232 240.209 181.29C240.447 180.653 240.19 180.529 239.791 180.292C237.967 179.188 236.219 177.971 234.936 176.23C233.635 174.46 232.865 172.51 233.274 170.275C233.768 167.536 235.563 165.918 238.366 165.614C238.366 165.614 240.494 165.5 241.853 166.223L241.891 166.166ZM164.766 343.037C162.77 345.139 160.785 347.241 158.837 349.287C159.806 349.287 160.88 349.268 161.953 349.296C162.457 349.315 162.761 349.172 162.932 348.668C163.568 346.823 164.243 344.997 164.908 343.161C164.908 343.075 164.965 342.942 164.927 342.923C164.823 342.847 164.794 342.961 164.766 343.037ZM180.413 278.61C182.408 279.514 183.577 281.093 184.023 283.186C185.049 287.999 184.812 292.822 183.919 297.625C183.871 297.882 183.7 298.244 183.938 298.377C184.289 298.577 184.441 298.158 184.603 297.93C186.36 295.58 187.985 293.155 189.229 290.491C189.657 289.578 190.255 288.741 190.521 287.752C191.481 287.495 191.139 286.705 191.044 286.163C190.73 284.28 190.455 282.434 190.645 280.484C190.987 276.86 192.156 273.521 193.761 270.335C195.614 266.672 197.97 263.305 200.222 259.871C200.877 258.863 201.561 257.864 202.036 256.751C202.084 256.685 202.131 256.608 202.179 256.542C202.15 256.523 202.131 256.513 202.103 256.494L202.027 256.751C201.561 256.761 201.333 257.141 201.067 257.427C199.832 258.72 198.54 259.957 197.162 261.079C193.02 264.437 188.536 267.243 183.643 269.422C177.867 271.99 171.843 273.683 165.497 274.691C166.59 275.119 167.663 275.176 168.699 275.386C172.689 276.175 176.66 277.003 180.413 278.629V278.61ZM189.286 349.172C189.828 349.448 189.837 349.02 189.875 348.697C189.97 347.964 190.037 347.232 190.132 346.499C190.588 342.875 191.101 339.251 191.481 335.617C191.833 332.317 192.032 328.997 192.327 325.687C192.726 321.33 193.039 316.983 193.125 312.607C193.125 312.274 193.229 311.941 193.229 311.608C193.239 310.058 193.229 308.517 193.229 306.966C192.792 307.585 192.241 308.07 192.099 308.783C191.975 308.897 191.833 308.993 191.747 309.135C187.994 315.261 183.805 321.064 179.292 326.647C178.893 327.132 178.484 327.618 178.351 328.293C176.964 335.018 175.197 341.648 173.145 348.202C172.898 348.992 173.069 349.22 173.924 349.21C179.045 349.172 184.166 349.191 189.286 349.182V349.172ZM249.985 175.345C249.558 174.67 248.921 174.242 248.218 173.89C247.43 173.49 246.879 172.9 246.584 172.054C245.643 169.267 243.496 167.678 240.922 166.679C239.107 165.976 237.226 166.156 235.696 167.497C234.186 168.829 233.72 170.57 234.176 172.549C234.784 175.174 236.494 176.981 238.613 178.456C239.772 179.255 240.969 179.987 242.157 180.748C242.09 181.138 241.929 181.404 241.482 181.195C241.197 181.062 241.045 181.11 240.988 181.423C240.798 182.527 239.962 183.202 239.297 184.001C237.91 184.991 237.426 186.294 237.815 187.958C238.119 189.271 238.642 190.479 239.525 191.449C243.8 196.12 249.32 197.813 255.448 197.956C256.36 197.975 257.006 197.404 257.291 196.491C257.519 195.787 257.719 195.074 257.681 194.322C258.023 193.276 257.823 192.21 257.842 191.155C257.842 190.907 257.804 190.698 257.472 190.688C256.227 190.631 255.22 189.946 254.156 189.404C253.966 189.166 253.519 188.995 253.814 188.596C254.108 188.196 254.403 188.539 254.678 188.681C254.859 188.776 255.03 188.872 255.201 188.967C257.766 190.574 260.388 189.823 261.889 187.074C262.07 186.741 262.117 186.56 261.842 186.256C258.45 182.489 254.878 178.912 251.068 175.573C250.698 175.25 250.375 175.26 249.976 175.336L249.985 175.345ZM102.338 349.239C108.028 349.239 113.71 349.258 119.401 349.258C125.5 349.268 131.599 349.277 137.699 349.306C138.212 349.306 138.487 349.011 138.801 348.697C141.613 345.881 144.425 343.066 147.228 340.231C155.959 331.403 164.604 322.5 172.66 313.045C172.898 312.769 173.145 312.503 173.307 312.151C175.805 306.348 177.705 300.365 178.855 294.144C179.244 292.032 179.634 289.892 178.978 287.742C178.674 285.269 176.888 283.443 173.991 282.701C171.264 282.006 168.471 281.883 165.678 281.683C159.426 281.236 153.156 281.293 146.895 281.046C141.271 280.827 135.675 280.332 130.174 279.029C126.26 278.106 122.469 276.86 119.002 274.767C115.895 272.894 113.881 270.249 113.244 266.625C112.94 264.884 112.959 263.134 113.149 261.384C113.453 259.377 113.9 257.408 114.527 255.486C121.5 233.979 133.499 215.753 150.334 200.714C154.163 197.299 158.144 194.075 162.514 191.364C166.029 189.185 169.753 188.634 173.753 189.813C184.717 193.038 195.414 196.928 205.428 202.531C209.77 204.957 214.282 207.173 217.142 211.568C217.18 211.321 217.161 211.13 217.113 210.94C216.144 207.059 214.197 203.701 211.527 200.771C206.957 195.758 202.359 190.774 197.723 185.828C196.602 184.639 195.975 183.497 195.975 181.709C196.013 170.351 192.935 159.821 187.044 150.119C184.954 146.675 182.56 143.47 179.757 140.578C178.066 138.828 176.394 138.751 174.475 140.235C173.639 140.882 172.946 141.653 172.309 142.49C167.54 148.711 164.329 155.655 162.59 163.293C162.419 164.045 162.01 164.91 162.229 165.547C162.476 166.27 163.568 166.251 164.272 166.594C165.82 167.345 167.302 168.211 168.632 169.314C168.822 169.476 169.126 169.638 168.889 169.961C168.642 170.313 168.376 170.17 168.11 169.961C168.005 169.876 167.901 169.79 167.796 169.704C164.585 167.231 160.908 165.937 156.909 165.547C150.942 164.958 145.423 166.423 140.188 169.181C134.886 171.978 130.374 175.821 126.174 180.035C125.405 180.805 124.721 180.986 123.685 180.691C116.455 178.636 109.178 176.801 101.692 175.992C95.4498 175.317 89.2364 175.402 83.1181 176.943C80.6005 177.571 78.1113 178.313 76.1542 180.168C74.8526 181.205 74.1306 182.555 73.9121 184.201C73.7126 185.704 73.9786 187.169 74.4251 188.586C75.8787 193.219 77.6458 197.737 79.7739 202.094C83.7831 210.312 88.9419 217.504 97.4354 221.67C97.7109 221.803 97.9389 221.955 97.7964 222.269C97.6159 222.659 97.3119 222.516 97.0269 222.364C96.2573 221.955 95.4403 221.603 94.7182 221.128C94.0532 220.69 93.8822 220.937 93.7777 221.575C92.3336 230.202 91.469 238.887 91.5831 247.648C91.6496 253.251 92.0011 258.834 93.7397 264.237C95.6588 270.23 99.345 274.596 105.178 277.088C109.834 279.076 114.755 279.78 119.724 280.208C126.972 280.836 134.212 281.588 141.337 283.1C144.491 283.766 147.665 284.422 150.705 285.516C150.8 286.068 150.505 286.201 150.03 286.163C149.422 285.973 148.814 285.783 148.197 285.611C144.529 284.584 140.805 283.842 137.072 283.1C136.35 282.957 136.036 283.119 136.064 283.937C136.102 284.917 135.884 285.878 135.722 286.838C135.314 289.236 134.43 291.48 133.509 293.792C136.064 294.249 138.402 295.181 140.701 296.227C145.356 298.691 149.384 302.001 153.308 305.464C153.583 305.701 154.182 305.939 153.802 306.396C153.374 306.919 153.032 306.32 152.747 306.072C150.496 304.141 148.254 302.191 145.841 300.46C143.893 299.071 141.926 297.711 139.703 296.788C137.756 295.666 135.599 295.171 133.461 294.572C133.015 294.448 133.043 294.762 132.939 294.962C129.614 301.554 125.186 307.423 120.911 313.387C116.455 319.599 111.952 325.782 108.342 332.554C105.558 337.777 103.278 343.189 102.129 349.03C102.129 349.106 102.119 349.182 102.11 349.258C102.186 349.249 102.252 349.229 102.328 349.22L102.338 349.239ZM237.426 237.479C237.901 236.471 238.385 235.482 238.832 234.464C241.682 227.986 244.532 221.499 247.373 215.021C249.548 210.055 251.819 205.128 253.519 199.963C253.795 199.126 253.681 198.907 252.778 198.783C248.627 198.203 244.76 196.805 241.273 194.417C239.763 193.38 238.68 191.935 237.711 190.355C237.587 190.498 237.511 190.565 237.464 190.65C233.692 197.119 230.205 203.749 226.946 210.493C226.224 211.977 225.331 213.432 224.942 215.002C224.334 217.399 224.524 219.91 224.761 222.355C225.122 226.027 226.167 229.546 227.459 232.999C228.676 236.252 229.863 239.505 231.326 242.654C231.877 244.195 232.419 245.736 233.055 247.515C233.673 246.107 234.205 244.927 234.718 243.748C235.62 241.655 236.513 239.562 237.416 237.479H237.426ZM130.355 264.256C130.953 265.541 132.103 266.282 133.233 266.996C136.53 269.06 140.254 270.059 143.94 271.143C148.016 272.342 152.215 272.97 156.405 273.54C158.961 273.892 161.488 274.387 164.12 273.978C170.532 272.97 176.774 271.41 182.731 268.794C192.393 264.551 200.459 258.34 206.349 249.493C210.834 242.749 213.779 235.52 212.962 227.197C212.677 224.267 212.078 221.404 210.91 218.693C210.33 217.066 209.684 215.487 208.316 214.326C205.656 212.082 202.777 210.179 199.737 208.495C196.374 206.641 192.906 204.985 189.41 203.406C184.47 201.18 179.453 199.154 174.276 197.537C171.14 196.557 168.214 196.938 165.393 198.66C161.83 200.829 158.733 203.559 155.731 206.403C153.289 208.714 151.104 211.282 148.985 213.898C144.71 219.178 141.119 224.895 137.955 230.887C134.886 236.709 132.293 242.749 130.089 248.942C128.835 252.461 127.676 256.047 128.398 259.871C128.702 261.469 128.996 263.115 130.374 264.256H130.355ZM139.504 348.982L139.722 349.249C139.789 349.258 139.855 349.287 139.922 349.287C145.47 349.287 151.018 349.287 156.557 349.306C157.08 349.306 157.431 349.087 157.792 348.735C165.203 341.496 172.318 333.981 178.798 325.896C184.498 318.79 189.685 311.342 194.141 303.39C194.464 302.81 194.531 302.42 194.037 301.839C192.232 299.747 190.464 297.616 188.764 295.438C188.137 294.629 187.804 294.696 187.377 295.514C187.329 295.599 187.272 295.685 187.206 295.771C181.458 303.942 175.15 311.666 168.499 319.114C160.68 327.874 152.434 336.226 144.149 344.53C142.629 346.052 141.052 347.508 139.504 348.992V348.982ZM246.166 220.1C245.976 220.452 245.853 220.633 245.767 220.833C241.853 229.822 237.958 238.811 234.024 247.791C233.654 248.637 233.692 249.332 233.986 250.178C238.015 261.812 241.226 273.597 240.836 286.058C241.254 285.688 241.568 285.098 241.891 284.527C243.154 282.311 243.867 279.885 244.522 277.44C246.831 268.708 248.085 259.805 248.807 250.816C249.434 243.015 249.244 235.234 247.952 227.51C247.544 225.066 247.021 222.64 246.176 220.1H246.166ZM228.999 204.472C227.669 204.51 226.766 205.08 225.939 205.794C224.904 206.688 224.144 207.811 223.507 209C221.113 213.527 220.078 218.417 219.907 223.487C219.688 229.831 220.98 235.957 222.795 241.988C224.856 248.866 227.64 255.496 229.892 262.297C232.048 268.813 233.777 275.424 233.796 282.358C233.796 283.424 233.967 284.118 235.079 284.594C236.399 285.164 237.435 286.268 238.756 286.896C239.221 287.114 239.459 287.067 239.601 286.515C239.962 285.136 240.143 283.737 240.095 282.311C239.877 276.118 238.784 270.049 237.34 264.038C235.231 255.248 231.963 246.868 228.638 238.488C226.424 232.904 224.248 227.311 223.792 221.232C223.412 216.058 224.201 211.14 227.013 206.679C227.193 206.393 227.412 205.927 227.63 205.927C228.581 205.899 228.514 205.071 228.999 204.453V204.472ZM197.523 300.631C196.887 301.478 196.763 302.496 195.956 302.838C194.645 303.39 194.379 304.417 194.331 305.644C194.179 309.497 194.094 313.359 193.856 317.202C193.543 322.205 193.153 327.209 192.688 332.212C192.317 336.255 191.785 340.288 191.32 344.331C191.158 345.691 190.949 347.051 190.844 348.411C190.825 348.697 190.531 349.325 191.32 349.306C192.45 349.277 193.59 349.22 194.721 349.325C195.633 349.41 195.832 349.03 195.927 348.231C196.972 339.346 197.647 330.443 197.875 321.492C198.046 314.614 197.875 307.737 197.523 300.631ZM199.338 292.898C199.689 292.108 199.993 291.433 200.288 290.758C204.402 281.198 208.04 271.495 209.817 261.184C210.178 259.082 210.444 256.96 210.264 254.82C210.007 254.811 209.96 254.934 209.912 255.058C208.743 257.921 207.233 260.623 206.007 263.457C204.231 267.605 202.255 271.638 200.06 275.576C197.998 279.286 195.718 282.853 193.486 286.458C193.277 286.791 193.02 287 193.514 287.324C195.756 288.798 197.628 290.662 199.338 292.898ZM177.088 329.472C173.687 333.363 170.257 337.196 166.694 340.916C166.523 341.087 166.457 341.306 166.371 341.534C165.545 343.874 164.709 346.224 163.844 348.554C163.635 349.115 163.692 349.315 164.348 349.306C166.637 349.277 168.927 349.268 171.216 349.306C171.834 349.315 172.005 349.03 172.147 348.516C173.117 345.054 174.143 341.601 175.102 338.138C175.891 335.294 176.584 332.421 177.078 329.472H177.088ZM199.148 294.905C199.015 294.334 198.901 293.859 198.597 293.421C197.162 291.347 195.357 289.645 193.305 288.218C192.336 287.542 191.871 287.609 191.263 288.646C190.407 290.101 189.657 291.604 188.84 293.079C188.574 293.564 188.659 294.001 188.982 294.391C190.968 296.807 192.963 299.223 194.949 301.63C195.329 302.087 195.614 302.248 195.956 301.563C196.858 299.756 197.818 297.968 198.72 296.161C198.929 295.742 199.024 295.276 199.148 294.895V294.905ZM212.496 220.157L213.408 223.962C213.522 222.593 213.256 221.318 212.496 220.157ZM175.245 309.887C175.368 309.773 175.463 309.725 175.492 309.649C175.52 309.582 175.473 309.487 175.463 309.411C175.397 309.468 175.311 309.516 175.264 309.592C175.226 309.658 175.245 309.754 175.235 309.896L175.245 309.887ZM183.786 298.872C183.786 298.872 183.748 298.824 183.729 298.795C183.71 298.814 183.662 298.852 183.662 298.862C183.681 298.9 183.719 298.929 183.748 298.957C183.757 298.929 183.767 298.9 183.786 298.872Z" fill="#0E0E0E"/>
<path d="M217.854 218.046C218.196 218.683 217.883 219.396 218.082 220.129C218.634 219.568 218.472 218.816 218.795 218.255C218.852 218.369 218.938 218.398 219.052 218.35C218.909 219.054 218.624 219.748 218.985 220.471C218.729 220.814 218.729 221.223 218.691 221.622C218.539 223.03 218.443 224.438 218.234 225.836C216.828 235.082 214.282 244.024 210.853 252.718C210.254 252.452 210.188 253.213 209.77 253.289C209.808 253.165 209.846 253.032 209.893 252.908C214.035 241.627 217.816 230.25 217.864 218.027L217.854 218.046Z" fill="#121111"/>
<path d="M218.7 216.628C218.244 216.257 218.358 215.848 218.596 215.42C218.672 215.82 218.795 216.21 218.7 216.628Z" fill="#121111"/>
<path d="M76.1542 180.177C78.1208 178.322 80.6099 177.59 83.1181 176.953C89.2459 175.421 95.4497 175.326 101.692 176.001C109.187 176.81 116.465 178.655 123.685 180.701C124.73 180.995 125.405 180.815 126.174 180.044C130.374 175.83 134.886 171.987 140.188 169.191C145.422 166.432 150.952 164.967 156.909 165.557C160.918 165.947 164.585 167.241 167.796 169.714C167.901 169.799 168.005 169.885 168.11 169.971C168.366 170.18 168.642 170.313 168.889 169.971C169.117 169.638 168.822 169.476 168.632 169.324C167.302 168.22 165.82 167.355 164.272 166.603C163.568 166.261 162.476 166.28 162.229 165.557C162.01 164.92 162.419 164.054 162.59 163.303C164.329 155.664 167.54 148.72 172.309 142.499C172.945 141.662 173.649 140.892 174.475 140.245C176.394 138.761 178.066 138.847 179.757 140.587C182.56 143.479 184.954 146.694 187.044 150.128C192.935 159.831 196.013 170.361 195.975 181.718C195.975 183.507 196.602 184.639 197.723 185.837C202.359 190.784 206.957 195.768 211.527 200.781C214.197 203.711 216.144 207.069 217.113 210.95C217.161 211.14 217.17 211.34 217.142 211.577C214.282 207.183 209.769 204.966 205.428 202.541C195.414 196.948 184.717 193.057 173.753 189.823C169.763 188.643 166.029 189.205 162.514 191.373C158.144 194.084 154.153 197.299 150.334 200.724C133.499 215.763 121.5 233.988 114.527 255.496C113.9 257.427 113.453 259.396 113.149 261.393C113.045 261.327 112.874 261.279 112.836 261.184C111.24 257.018 110.366 252.68 110.185 248.238C110.033 244.718 110.109 241.189 109.957 237.66C109.862 235.453 109.748 233.237 109.853 231.039C109.919 229.66 109.786 228.271 110.005 226.911C110.299 225.056 109.482 223.477 107.848 222.697C105.729 221.679 103.725 220.443 101.796 219.102C99.554 217.542 97.6919 215.525 95.6207 213.765C92.7991 211.359 90.2815 208.667 88.0108 205.746C86.4622 203.749 85.2937 201.523 84.0491 199.335C81.693 195.216 79.5649 191.002 77.8738 186.57C77.0852 184.505 76.3917 182.384 76.1542 180.168V180.177Z" fill="#E7CFAD"/>
<path d="M210.91 218.683C212.088 221.404 212.677 224.267 212.962 227.187C213.779 235.51 210.834 242.749 206.349 249.484C200.459 258.33 192.393 264.542 182.731 268.784C176.765 271.4 170.532 272.96 164.119 273.968C161.488 274.377 158.961 273.883 156.405 273.531C152.206 272.951 148.016 272.323 143.94 271.134C140.254 270.049 136.53 269.06 133.233 266.986C132.103 266.273 130.963 265.541 130.355 264.247C130.621 263.771 130.659 263.22 130.782 262.706C131.058 261.564 131.219 260.413 131.609 259.291C132.198 257.569 132.967 255.943 133.689 254.278C134.791 251.757 135.646 249.132 136.815 246.621C138.943 242.045 141.043 237.451 143.864 233.246C146.61 229.147 149.09 224.828 152.899 221.565C153.849 220.747 154.628 219.672 155.892 219.254C155.759 220.291 155.54 221.318 155.502 222.355C155.246 228.376 156.605 234.074 159.16 239.477C160.158 241.579 161.345 243.596 163.321 244.994C164.87 246.088 166.476 245.793 167.502 244.214C168.594 242.53 168.756 240.58 168.784 238.678C168.851 233.341 167.673 228.233 165.478 223.392C164.157 220.481 162.742 217.551 159.455 216.257C159.597 216.115 159.73 215.953 159.892 215.848C162.637 214.041 165.402 212.281 168.376 210.845C172.29 208.971 176.413 208.143 180.698 207.896C179.092 210.151 178.75 212.776 178.826 215.411C178.95 219.958 179.919 224.362 181.638 228.576C182.74 231.277 184.061 233.846 186.294 235.824C188.184 237.489 190.113 237.118 191.205 234.844C191.709 233.798 192.013 232.685 192.08 231.544C192.488 224.818 191.025 218.483 187.88 212.548C186.911 210.712 185.809 208.904 183.833 207.906C184.08 207.639 184.403 207.706 184.688 207.744C186.151 207.896 187.614 208.096 189.077 208.229C191.528 208.457 193.885 209.114 196.26 209.722C198.739 210.36 201.105 211.321 203.376 212.481C206.064 213.851 208.373 215.734 210.169 218.188C210.349 218.426 210.568 218.645 210.9 218.693L210.91 218.683Z" fill="#534842"/>
<path d="M139.713 296.807C141.936 297.73 143.902 299.081 145.85 300.479C148.263 302.21 150.505 304.16 152.757 306.091C153.042 306.339 153.384 306.947 153.811 306.415C154.191 305.958 153.593 305.73 153.317 305.482C149.394 302.02 145.365 298.71 140.71 296.246C141.062 295.009 142.135 294.315 142.943 293.459C144.548 291.766 145.812 289.768 147.674 288.284C148.482 287.637 149.612 287.295 150.03 286.182C150.496 286.22 150.8 286.087 150.705 285.535C152.168 285.345 153.574 284.898 154.961 284.413C157.707 283.462 160.547 283.091 163.416 282.9C165.725 282.758 168.034 283.034 170.304 283.49C172.575 283.956 174.741 284.622 176.689 286.011C177.468 286.563 178 287.466 178.988 287.733C179.643 289.882 179.254 292.023 178.864 294.134C177.715 300.346 175.815 306.339 173.316 312.141C173.164 312.493 172.907 312.759 172.67 313.035C164.614 322.49 155.968 331.394 147.237 340.221C144.434 343.046 141.622 345.862 138.81 348.687C138.506 348.992 138.221 349.296 137.708 349.296C131.609 349.267 125.509 349.267 119.41 349.248C119.714 348.183 119.933 347.099 120.275 346.043C120.674 344.806 121.101 343.56 121.291 342.266C121.795 338.88 122.403 335.522 123.305 332.222C123.723 330.7 124.217 329.197 124.645 327.684C125.604 324.355 126.839 321.13 128.17 317.934C129.652 314.367 131.286 310.866 133.015 307.413C134.506 304.436 135.969 301.449 138.126 298.862C138.677 298.206 139.447 297.682 139.713 296.798V296.807ZM159.075 313.577C159.027 313.454 158.98 313.321 158.932 313.197C158.248 311.409 157.213 309.849 155.864 308.498C155.617 308.251 155.341 307.984 155.008 308.336C154.704 308.669 155.046 308.888 155.256 309.088C156.367 310.191 157.251 311.456 157.897 312.874C158.039 313.178 158.153 313.501 158.315 313.787C158.419 313.967 158.6 314.072 158.828 313.958C158.989 313.882 159.094 313.758 159.075 313.558V313.577Z" fill="#E7CFAD"/>
<path d="M217.854 218.046C217.807 230.269 214.035 241.636 209.884 252.927C209.836 253.051 209.798 253.184 209.76 253.308C207.527 258.207 205.323 263.124 203.043 268.004C200.117 274.273 196.488 280.142 192.773 285.963C192.64 286.173 192.583 286.544 192.251 286.506C191.842 286.449 191.947 286.039 191.89 285.764C190.987 281.749 191.662 277.897 193.049 274.111C194.388 270.439 196.516 267.205 198.606 263.952C200.25 261.403 202.16 258.977 203.366 256.209C204.506 253.593 206.216 251.396 207.717 249.037C210.891 244.062 213.095 238.735 213.855 232.818C214.14 230.611 214.529 228.433 214.596 226.198C214.748 220.928 212.686 216.762 208.639 213.413C203.965 209.551 198.673 206.745 193.248 204.167C187.149 201.266 180.935 198.631 174.466 196.662C170.703 195.521 167.236 196.129 164.025 198.384C158.248 202.455 153.194 207.297 148.719 212.766C144.767 217.599 141.337 222.783 138.335 228.252C134.763 234.74 131.789 241.493 129.262 248.447C128.103 251.634 127.22 254.906 127.334 258.359C127.457 262.002 128.93 264.913 131.865 267.081C134.544 269.06 137.661 270.04 140.758 271.077C146.183 272.884 151.788 273.826 157.441 274.549C163.569 275.338 169.687 276.194 175.663 277.84C176.641 278.106 177.601 278.42 178.56 278.744C181.857 279.856 183.33 281.873 183.605 285.649C183.976 290.7 183.681 295.694 182.351 300.603C182.275 300.888 182.171 301.202 182 301.43C180.004 303.98 177.99 306.51 175.976 309.05C175.872 309.183 175.777 309.326 175.549 309.287C175.33 308.907 175.625 308.593 175.748 308.279C177.61 303.314 179.035 298.225 179.881 292.983C180.166 291.205 180.28 289.426 179.909 287.647C179.149 283.956 176.575 282.254 173.136 281.635C169.079 280.903 164.975 280.713 160.861 280.56C155.17 280.351 149.47 280.361 143.779 280.018C136.102 279.552 128.588 278.392 121.519 275.148C117.586 273.341 114.745 270.63 114.071 266.149C113.605 263.058 114.042 260.014 114.935 257.056C118.346 245.707 123.457 235.168 130.013 225.313C138.136 213.109 148.121 202.693 159.949 194.046C161.06 193.238 162.276 192.562 163.454 191.839C166.599 189.889 169.934 189.575 173.459 190.593C186.047 194.246 198.188 198.964 209.447 205.765C210.777 206.564 212.059 207.43 213.247 208.438C215.099 210.008 216.61 211.834 217.446 214.165C217.503 214.364 217.569 214.574 217.626 214.774C217.636 214.907 217.655 215.049 217.664 215.183C217.731 215.991 217.807 216.8 217.873 217.608C217.873 217.741 217.873 217.884 217.873 218.017L217.854 218.046Z" fill="#8CD1C8"/>
<path d="M220.268 236.271C220.876 237.451 220.99 238.763 221.341 240.019C223.222 246.839 225.892 253.384 228.229 260.052C230.234 265.778 231.982 271.571 232.685 277.631C232.913 279.609 233.074 281.588 232.96 283.661C230.072 282.891 227.222 282.881 224.41 283.89C221.104 285.079 218.292 286.962 216.097 289.73C215.954 289.911 215.821 290.111 215.688 290.301C215.536 290.529 215.517 290.758 215.745 290.919C215.973 291.081 216.192 290.986 216.353 290.777C216.8 290.206 217.161 289.559 217.883 289.064C218.51 292.536 219.099 295.904 219.546 299.3C219.289 299.366 219.023 299.452 218.767 299.49C215.527 299.946 212.629 301.164 210.188 303.38C206.036 307.166 203.594 311.97 202.283 317.316C201.162 321.901 201.4 326.514 203.081 331.004C204.62 335.113 207.47 337.957 211.394 339.736C215.099 341.41 219.014 342.114 223.089 341.829C223.308 344.121 223.184 346.414 223.26 348.706C223.289 349.543 222.69 349.296 222.291 349.296C215.812 349.306 209.342 349.296 202.863 349.296C201.343 349.296 199.822 349.296 198.312 349.296C196.991 349.296 196.621 348.963 196.792 347.584C198.369 335.208 198.977 322.776 198.739 310.296C198.673 306.824 198.492 303.342 198.321 299.87C198.293 299.242 198.397 298.7 198.673 298.13C199.328 296.798 200.336 295.561 199.87 293.878C199.794 293.592 200.108 293.193 200.26 292.86C204.212 284.061 207.613 275.062 209.808 265.645C210.596 262.259 211.147 258.825 211.176 255.334C211.708 255.134 211.869 254.63 212.097 254.192C213.57 251.396 215.185 248.685 216.524 245.822C217.636 243.444 218.672 241.056 219.489 238.554C219.736 237.793 219.517 236.842 220.268 236.252V236.271Z" fill="#E7CFAD"/>
<path d="M178.969 287.752C177.981 287.485 177.458 286.582 176.67 286.03C174.722 284.651 172.556 283.975 170.285 283.509C168.015 283.043 165.706 282.767 163.397 282.919C160.538 283.1 157.688 283.481 154.942 284.432C153.564 284.907 152.149 285.355 150.686 285.554C147.636 284.46 144.472 283.804 141.318 283.138C134.183 281.626 126.953 280.874 119.705 280.246C114.736 279.818 109.815 279.115 105.159 277.126C99.326 274.625 95.6398 270.268 93.7207 264.275C91.9821 258.872 91.6401 253.289 91.5641 247.686C91.45 238.925 92.3146 230.25 93.7587 221.613C93.8632 220.966 94.0342 220.728 94.6992 221.166C95.4308 221.641 96.2383 221.993 97.0079 222.402C97.2929 222.555 97.5969 222.697 97.7774 222.307C97.9199 221.993 97.6824 221.841 97.4164 221.708C88.9324 217.532 83.7641 210.35 79.7549 202.132C77.6268 197.766 75.8597 193.257 74.4061 188.624C73.9596 187.207 73.7031 185.742 73.8931 184.239C74.1021 182.593 74.8336 181.243 76.1352 180.206C76.3727 182.432 77.0663 184.544 77.8548 186.608C79.5459 191.04 81.674 195.254 84.0301 199.373C85.2842 201.561 86.4433 203.787 87.9919 205.784C90.2625 208.705 92.7801 211.397 95.6018 213.803C97.6729 215.563 99.5255 217.58 101.777 219.14C103.706 220.481 105.71 221.717 107.829 222.735C109.463 223.525 110.28 225.094 109.986 226.949C109.767 228.309 109.9 229.708 109.834 231.078C109.729 233.275 109.843 235.491 109.938 237.698C110.09 241.227 110.014 244.756 110.166 248.276C110.356 252.718 111.221 257.056 112.817 261.222C112.855 261.317 113.026 261.365 113.13 261.431C112.94 263.181 112.921 264.932 113.225 266.672C113.862 270.297 115.885 272.941 118.983 274.815C122.45 276.908 126.241 278.144 130.155 279.076C135.656 280.37 141.252 280.865 146.876 281.093C153.137 281.34 159.407 281.283 165.659 281.73C168.442 281.93 171.245 282.054 173.972 282.748C176.869 283.49 178.646 285.317 178.959 287.79L178.969 287.752Z" fill="#CEB28C"/>
<path d="M231.336 242.663C229.873 239.515 228.675 236.252 227.469 233.009C226.177 229.556 225.132 226.036 224.771 222.364C224.533 219.92 224.343 217.408 224.951 215.011C225.35 213.442 226.243 211.986 226.956 210.502C230.215 203.758 233.692 197.128 237.473 190.66C237.52 190.574 237.596 190.508 237.72 190.365C238.689 191.944 239.763 193.38 241.283 194.427C244.76 196.814 248.627 198.213 252.788 198.793C253.69 198.917 253.804 199.145 253.529 199.972C251.828 205.138 249.558 210.065 247.382 215.03C244.541 221.518 241.691 227.996 238.841 234.473C238.395 235.491 237.901 236.481 237.435 237.489C237.216 237.527 237.112 237.689 236.969 237.841C235.297 239.686 233.454 241.341 231.345 242.673L231.336 242.663Z" fill="#534842"/>
<path d="M139.504 348.982C141.052 347.498 142.629 346.043 144.149 344.521C152.443 336.217 160.68 327.855 168.499 319.104C175.15 311.656 181.458 303.932 187.206 295.761C187.263 295.675 187.329 295.599 187.377 295.504C187.795 294.686 188.137 294.62 188.764 295.428C190.455 297.606 192.222 299.737 194.037 301.83C194.531 302.41 194.474 302.8 194.141 303.38C189.695 311.333 184.498 318.781 178.798 325.886C172.309 333.981 165.203 341.496 157.792 348.725C157.441 349.068 157.08 349.296 156.557 349.296C151.009 349.287 145.46 349.287 139.922 349.277C139.855 349.277 139.789 349.249 139.722 349.239L139.504 348.973V348.982Z" fill="white"/>
<path d="M180.698 207.896C176.413 208.143 172.29 208.971 168.376 210.845C165.393 212.272 162.637 214.041 159.892 215.848C159.73 215.953 159.597 216.124 159.455 216.257C157.593 216.134 156.785 217.399 156.101 218.826C155.939 218.93 155.873 219.073 155.892 219.263C154.628 219.682 153.849 220.757 152.899 221.565C149.09 224.828 146.61 229.147 143.864 233.246C141.043 237.451 138.943 242.045 136.815 246.621C135.646 249.122 134.791 251.748 133.689 254.278C132.967 255.943 132.207 257.569 131.609 259.291C131.219 260.413 131.058 261.564 130.782 262.706C130.659 263.229 130.63 263.771 130.355 264.247C128.977 263.115 128.673 261.469 128.378 259.862C127.666 256.038 128.825 252.442 130.07 248.932C132.274 242.74 134.867 236.699 137.936 230.878C141.1 224.885 144.7 219.168 148.966 213.889C151.085 211.273 153.27 208.705 155.711 206.393C158.714 203.549 161.82 200.819 165.374 198.65C168.195 196.928 171.121 196.557 174.257 197.528C179.434 199.135 184.451 201.161 189.391 203.397C192.897 204.976 196.355 206.631 199.718 208.486C202.758 210.16 205.646 212.072 208.297 214.317C209.665 215.468 210.311 217.056 210.891 218.683C210.558 218.645 210.339 218.426 210.159 218.179C208.363 215.725 206.055 213.841 203.366 212.472C201.095 211.311 198.73 210.35 196.25 209.713C193.885 209.104 191.519 208.448 189.068 208.22C187.605 208.086 186.142 207.877 184.679 207.734C184.394 207.706 184.061 207.63 183.824 207.906C182.778 207.297 181.733 207.478 180.688 207.906L180.698 207.896Z" fill="#30201B"/>
<path d="M139.713 296.807C139.456 297.702 138.677 298.215 138.126 298.872C135.969 301.459 134.506 304.455 133.015 307.423C131.286 310.876 129.652 314.377 128.17 317.944C126.839 321.13 125.604 324.355 124.645 327.694C124.208 329.206 123.714 330.709 123.305 332.231C122.403 335.532 121.795 338.89 121.291 342.276C121.101 343.579 120.674 344.816 120.275 346.052C119.933 347.108 119.714 348.193 119.41 349.258C113.719 349.258 108.038 349.239 102.347 349.239C102.281 349.172 102.214 349.115 102.148 349.049C103.297 343.208 105.577 337.796 108.361 332.574C111.971 325.801 116.474 319.627 120.93 313.406C125.205 307.442 129.642 301.573 132.958 294.981C133.053 294.791 133.034 294.467 133.48 294.591C135.608 295.19 137.775 295.685 139.722 296.807H139.713Z" fill="#CEB28C"/>
<path d="M246.166 220.1C247.012 222.64 247.534 225.066 247.943 227.51C249.235 235.244 249.415 243.015 248.798 250.816C248.076 259.805 246.822 268.708 244.513 277.44C243.867 279.885 243.154 282.311 241.881 284.527C241.558 285.098 241.235 285.688 240.827 286.058C241.216 273.588 238.015 261.802 233.977 250.178C233.682 249.332 233.644 248.637 234.015 247.791C237.948 238.821 241.843 229.822 245.757 220.833C245.843 220.633 245.967 220.452 246.157 220.1H246.166Z" fill="#CEB18B"/>
<path d="M228.999 204.472C228.514 205.1 228.571 205.927 227.63 205.946C227.421 205.946 227.193 206.422 227.013 206.698C224.201 211.159 223.403 216.077 223.792 221.251C224.248 227.33 226.424 232.923 228.637 238.507C231.953 246.877 235.231 255.267 237.34 264.057C238.784 270.068 239.877 276.137 240.095 282.33C240.143 283.757 239.962 285.155 239.601 286.534C239.459 287.076 239.231 287.133 238.756 286.915C237.435 286.296 236.399 285.193 235.079 284.613C233.977 284.127 233.806 283.443 233.796 282.377C233.787 275.443 232.048 268.832 229.892 262.316C227.64 255.505 224.856 248.885 222.795 242.007C220.99 235.967 219.688 229.85 219.907 223.506C220.078 218.426 221.113 213.546 223.507 209.019C224.144 207.82 224.904 206.707 225.939 205.813C226.766 205.1 227.659 204.529 228.999 204.491V204.472Z" fill="#8CD1C8"/>
<path d="M257.7 194.341C257.747 195.093 257.538 195.797 257.31 196.51C257.016 197.423 256.379 197.994 255.467 197.975C249.339 197.832 243.819 196.139 239.544 191.468C238.651 190.498 238.138 189.281 237.834 187.977C237.444 186.303 237.929 185 239.316 184.02C239.763 184.182 240.228 184.296 240.618 183.925C241.264 183.307 241.948 182.717 242.508 182.023C242.86 181.585 242.907 181.014 242.166 180.767C240.988 180.006 239.782 179.274 238.623 178.475C236.504 177 234.794 175.193 234.186 172.568C233.73 170.599 234.186 168.848 235.706 167.517C237.235 166.175 239.117 165.995 240.931 166.698C243.506 167.697 245.653 169.286 246.593 172.073C246.878 172.92 247.439 173.509 248.228 173.909C248.921 174.261 249.558 174.689 249.995 175.364C249.985 175.963 250.356 176.306 250.84 176.496C252.37 177.095 253.377 178.218 254.089 179.654C254.507 180.501 254.906 181.357 255.514 182.089C256.199 182.926 256.503 183.944 256.645 184.972C256.797 186.104 256.864 187.283 255.647 188.015C255.296 188.225 255.239 188.615 255.239 189.005C255.068 188.91 254.887 188.805 254.716 188.719C254.441 188.577 254.146 188.234 253.852 188.634C253.557 189.033 254.013 189.205 254.194 189.442C253.709 189.642 253.586 189.813 254.061 190.26C255.267 191.392 256.569 192.458 257.244 194.046C257.329 194.256 257.491 194.351 257.709 194.36L257.7 194.341Z" fill="white"/>
<path d="M189.286 349.172C184.166 349.172 179.045 349.153 173.924 349.201C173.069 349.201 172.898 348.982 173.145 348.193C175.197 341.639 176.974 335.018 178.351 328.283C178.484 327.618 178.893 327.132 179.292 326.638C183.805 321.064 187.994 315.252 191.747 309.126C191.832 308.993 191.984 308.888 192.098 308.774C191.699 322.272 190.958 335.751 189.277 349.163L189.286 349.172Z" fill="#534842"/>
<path d="M223.089 341.819C219.014 342.095 215.099 341.401 211.394 339.727C207.48 337.948 204.62 335.104 203.081 330.994C201.4 326.505 201.162 321.891 202.283 317.306C203.594 311.96 206.045 307.157 210.188 303.371C212.629 301.145 215.517 299.927 218.767 299.48C219.033 299.442 219.289 299.357 219.546 299.29C219.926 301.63 220.277 303.97 220.477 306.329C217.218 306.472 214.805 308.146 212.962 310.667C209.931 314.824 208.259 319.447 208.724 324.669C209.095 328.759 210.729 332.069 214.871 333.582C217.446 334.524 220.068 335.199 222.852 334.771C223.07 337.111 223.099 339.46 223.089 341.81V341.819Z" fill="#8FD2C9"/>
<path d="M222.861 334.78C220.078 335.208 217.455 334.524 214.881 333.591C210.739 332.079 209.104 328.769 208.734 324.678C208.268 319.466 209.941 314.833 212.971 310.676C214.814 308.155 217.227 306.472 220.486 306.339C220.933 309.24 221.275 312.16 221.455 315.099C220.714 315.071 219.983 315.08 219.28 315.413C217.199 316.403 215.907 317.934 215.527 320.284C215.346 321.406 215.546 322.357 216.154 323.242C217.664 325.411 219.831 326.257 222.405 326.219C222.614 329.073 222.852 331.927 222.852 334.79L222.861 334.78Z" fill="#E7CDAB"/>
<path d="M202.027 256.751C201.552 257.864 200.867 258.863 200.212 259.871C197.97 263.305 195.604 266.672 193.752 270.335C192.146 273.521 190.977 276.86 190.635 280.484C190.455 282.444 190.721 284.28 191.034 286.163C191.129 286.705 191.471 287.495 190.512 287.752C190.027 286.087 189.514 284.422 189.077 282.748C188.916 282.111 188.669 281.55 188.298 281.017C186.417 278.401 183.254 278.163 180.403 278.601C176.651 276.974 172.67 276.147 168.689 275.357C167.654 275.148 166.58 275.1 165.488 274.663C171.834 273.654 177.857 271.961 183.634 269.393C188.526 267.224 193.011 264.418 197.153 261.051C198.54 259.928 199.832 258.692 201.057 257.398C201.324 257.113 201.552 256.732 202.017 256.723L202.027 256.751Z" fill="#30201B"/>
<path d="M197.523 300.631C197.884 307.737 198.055 314.605 197.875 321.492C197.647 330.433 196.982 339.346 195.927 348.231C195.832 349.039 195.633 349.41 194.721 349.325C193.6 349.22 192.46 349.277 191.319 349.306C190.531 349.325 190.816 348.697 190.844 348.411C190.958 347.042 191.167 345.691 191.319 344.331C191.785 340.288 192.308 336.264 192.688 332.212C193.153 327.218 193.533 322.215 193.856 317.202C194.103 313.349 194.179 309.497 194.331 305.644C194.379 304.417 194.645 303.39 195.956 302.838C196.763 302.496 196.887 301.487 197.523 300.631Z" fill="#8AD0C6"/>
<path d="M199.338 292.898C197.628 290.662 195.756 288.789 193.514 287.324C193.02 287 193.277 286.8 193.486 286.458C195.718 282.853 197.998 279.286 200.06 275.576C202.245 271.638 204.221 267.595 206.007 263.457C207.223 260.623 208.743 257.921 209.912 255.058C209.959 254.944 210.016 254.811 210.263 254.82C210.444 256.96 210.178 259.082 209.817 261.184C208.04 271.486 204.392 281.198 200.288 290.758C199.993 291.433 199.689 292.108 199.338 292.898Z" fill="white"/>
<path d="M150.03 286.192C149.622 287.295 148.482 287.647 147.674 288.294C145.812 289.787 144.548 291.775 142.943 293.469C142.135 294.325 141.062 295.019 140.71 296.256C138.411 295.209 136.074 294.277 133.518 293.821C134.44 291.519 135.314 289.264 135.732 286.867C135.893 285.906 136.112 284.936 136.074 283.966C136.045 283.148 136.349 282.986 137.081 283.129C140.815 283.871 144.539 284.603 148.206 285.64C148.824 285.811 149.432 286.011 150.04 286.192H150.03Z" fill="#CEB18B"/>
<path d="M199.148 294.905C199.024 295.285 198.929 295.752 198.72 296.17C197.808 297.977 196.849 299.756 195.956 301.573C195.614 302.258 195.329 302.096 194.949 301.64C192.963 299.224 190.968 296.817 188.982 294.401C188.659 294.011 188.574 293.573 188.84 293.088C189.657 291.614 190.407 290.101 191.262 288.655C191.87 287.619 192.336 287.552 193.305 288.227C195.367 289.654 197.172 291.357 198.597 293.431C198.891 293.859 199.015 294.334 199.148 294.914V294.905Z" fill="#4B3216"/>
<path d="M180.413 278.61C183.272 278.173 186.427 278.411 188.308 281.026C188.688 281.55 188.925 282.12 189.087 282.758C189.524 284.441 190.037 286.097 190.521 287.761C190.255 288.75 189.657 289.588 189.229 290.501C187.975 293.164 186.36 295.599 184.603 297.939C184.432 298.168 184.289 298.586 183.938 298.386C183.7 298.253 183.871 297.901 183.919 297.635C184.812 292.831 185.049 288.008 184.023 283.195C183.577 281.103 182.408 279.514 180.413 278.62V278.61Z" fill="#534842"/>
<path d="M220.268 236.271C219.517 236.861 219.736 237.803 219.488 238.573C218.671 241.065 217.626 243.463 216.524 245.841C215.185 248.704 213.57 251.415 212.097 254.211C211.869 254.639 211.708 255.153 211.176 255.353C211.081 254.649 210.986 253.945 210.891 253.241C210.891 253.203 210.891 253.175 210.872 253.136L210.843 252.746C214.263 244.052 216.809 235.111 218.225 225.865C218.434 224.466 218.538 223.059 218.681 221.651C218.719 221.251 218.719 220.842 218.975 220.5C219.621 220.5 219.213 220.985 219.203 221.156C219.023 223.506 218.994 225.855 219.184 228.214C219.384 230.564 219.707 232.885 220.192 235.196C220.268 235.548 220.239 235.929 220.268 236.29V236.271Z" fill="#CEB18B"/>
<path d="M255.22 188.986C255.22 188.596 255.277 188.206 255.628 187.996C256.854 187.264 256.788 186.094 256.626 184.953C256.484 183.925 256.189 182.907 255.495 182.07C254.887 181.338 254.488 180.482 254.07 179.635C253.358 178.199 252.36 177.076 250.821 176.477C250.337 176.287 249.957 175.944 249.976 175.345C250.375 175.269 250.698 175.26 251.068 175.583C254.887 178.922 258.45 182.508 261.842 186.265C262.117 186.57 262.07 186.75 261.889 187.083C260.388 189.832 257.766 190.584 255.201 188.976L255.22 188.986Z" fill="white"/>
<path d="M189.286 349.172C190.977 335.76 191.709 322.281 192.108 308.783C192.251 308.06 192.802 307.575 193.239 306.966C193.239 308.517 193.239 310.058 193.239 311.608C193.239 311.941 193.144 312.274 193.134 312.607C193.039 316.973 192.726 321.33 192.336 325.687C192.032 328.997 191.842 332.317 191.49 335.617C191.101 339.251 190.588 342.875 190.141 346.499C190.046 347.232 189.98 347.964 189.885 348.697C189.837 349.02 189.837 349.448 189.296 349.172H189.286Z" fill="#30201B"/>
<path d="M231.336 242.663C233.445 241.332 235.288 239.686 236.96 237.831C237.103 237.679 237.207 237.517 237.426 237.479C236.523 239.572 235.63 241.665 234.727 243.748C234.214 244.937 233.682 246.116 233.065 247.515C232.438 245.736 231.887 244.195 231.336 242.654V242.663Z" fill="#30201B"/>
<path d="M257.7 194.341C257.481 194.332 257.32 194.227 257.234 194.027C256.56 192.439 255.258 191.373 254.051 190.241C253.576 189.794 253.7 189.623 254.184 189.423C255.248 189.956 256.246 190.65 257.5 190.707C257.823 190.717 257.871 190.926 257.871 191.174C257.852 192.229 258.051 193.304 257.709 194.341H257.7Z" fill="white"/>
<path d="M242.176 180.758C242.917 181.005 242.86 181.576 242.518 182.013C241.957 182.708 241.273 183.297 240.627 183.916C240.238 184.287 239.772 184.173 239.326 184.011C239.991 183.221 240.827 182.536 241.017 181.433C241.074 181.119 241.226 181.062 241.511 181.205C241.957 181.414 242.119 181.148 242.185 180.758H242.176Z" fill="#FDF3EE"/>
<path d="M212.496 220.157C213.266 221.318 213.532 222.593 213.408 223.962L212.496 220.157Z" fill="#CEB18B"/>
<path d="M217.864 217.637C217.797 216.828 217.721 216.02 217.655 215.211C218.367 215.963 217.987 216.809 217.864 217.637Z" fill="#121111"/>
<path d="M217.617 214.802C217.56 214.602 217.493 214.393 217.436 214.193C217.522 214.06 217.607 213.936 217.788 213.651C217.797 214.146 217.921 214.488 217.617 214.802Z" fill="#121111"/>
<path d="M175.245 309.887C175.254 309.744 175.245 309.649 175.273 309.582C175.311 309.506 175.397 309.459 175.473 309.402C175.482 309.487 175.53 309.582 175.501 309.639C175.463 309.715 175.368 309.773 175.254 309.877L175.245 309.887Z" fill="#8CD1C8"/>
<path d="M202.027 256.742L202.103 256.485C202.103 256.485 202.151 256.513 202.179 256.533C202.132 256.599 202.084 256.676 202.036 256.742H202.027Z" fill="#30201B"/>
<path d="M183.786 298.872C183.786 298.872 183.767 298.929 183.748 298.958C183.719 298.929 183.681 298.9 183.662 298.862C183.662 298.862 183.7 298.814 183.729 298.795C183.748 298.824 183.767 298.843 183.786 298.872Z" fill="#534842"/>
<path d="M210.872 253.117C210.872 253.117 210.891 253.184 210.891 253.222C210.825 253.222 210.767 253.203 210.701 253.194C210.758 253.165 210.815 253.146 210.872 253.117Z" fill="#121111"/>
<path d="M156.101 218.826C156.785 217.399 157.593 216.134 159.455 216.257C162.742 217.551 164.157 220.481 165.478 223.392C167.673 228.233 168.851 233.341 168.784 238.678C168.756 240.59 168.594 242.53 167.502 244.214C166.476 245.803 164.87 246.088 163.321 244.994C161.355 243.596 160.158 241.579 159.16 239.477C156.595 234.064 155.246 228.367 155.502 222.355C155.55 221.318 155.759 220.291 155.892 219.254C156.092 219.168 156.082 218.987 156.101 218.816V218.826ZM168.091 237.926C168.034 233.399 167.074 229.051 165.383 224.876C164.338 222.288 163.15 219.739 160.946 217.884C159.16 216.381 157.773 216.762 156.89 218.93C156.31 220.357 156.13 221.87 156.13 223.382C156.12 228.538 157.241 233.465 159.312 238.164C160.262 240.323 161.364 242.426 163.169 244.014C165.022 245.641 166.571 245.213 167.407 242.911C167.996 241.303 168.1 239.629 168.081 237.936L168.091 237.926Z" fill="#0E0E0E"/>
<path d="M180.698 207.896C181.743 207.468 182.788 207.287 183.833 207.896C185.809 208.895 186.911 210.702 187.88 212.538C191.015 218.474 192.488 224.809 192.08 231.534C192.013 232.676 191.709 233.789 191.206 234.835C190.103 237.108 188.175 237.479 186.294 235.815C184.061 233.836 182.741 231.268 181.638 228.566C179.919 224.352 178.959 219.948 178.826 215.401C178.75 212.766 179.092 210.151 180.698 207.887V207.896ZM191.529 229.099C191.31 223.373 190.018 217.932 187.291 212.862C186.455 211.311 185.505 209.837 184.052 208.79C182.513 207.677 181.277 208.01 180.47 209.722C179.852 211.026 179.634 212.414 179.586 213.832C179.396 218.959 180.479 223.858 182.408 228.576C183.406 231.011 184.555 233.38 186.588 235.149C188.488 236.794 190.056 236.357 190.863 233.979C191.396 232.4 191.567 230.764 191.538 229.089L191.529 229.099Z" fill="#0E0E0E"/>
<path d="M159.075 313.577C159.084 313.768 158.989 313.891 158.828 313.977C158.6 314.082 158.419 313.977 158.315 313.806C158.153 313.511 158.039 313.197 157.897 312.893C157.251 311.466 156.367 310.201 155.256 309.107C155.056 308.907 154.705 308.698 155.009 308.355C155.332 307.994 155.617 308.27 155.864 308.517C157.213 309.868 158.248 311.428 158.932 313.216C158.98 313.34 159.027 313.473 159.075 313.597V313.577Z" fill="#E7CFAD"/>
<path d="M156.101 218.826C156.082 218.997 156.101 219.187 155.892 219.263C155.873 219.073 155.949 218.93 156.101 218.826Z" fill="#534842"/>
<path d="M168.091 237.926C168.11 239.62 167.996 241.294 167.416 242.901C166.58 245.203 165.022 245.631 163.179 244.005C161.364 242.416 160.272 240.323 159.322 238.155C157.251 233.446 156.13 228.528 156.139 223.373C156.139 221.86 156.32 220.348 156.899 218.921C157.773 216.752 159.17 216.372 160.956 217.875C163.16 219.729 164.348 222.279 165.393 224.866C167.084 229.042 168.043 233.389 168.1 237.917L168.091 237.926Z" fill="white"/>
<path d="M191.529 229.099C191.557 230.764 191.396 232.409 190.854 233.988C190.046 236.366 188.479 236.813 186.579 235.158C184.536 233.389 183.387 231.02 182.399 228.585C180.47 223.867 179.387 218.968 179.577 213.841C179.634 212.424 179.852 211.026 180.46 209.732C181.268 208.02 182.503 207.687 184.042 208.8C185.496 209.846 186.446 211.33 187.282 212.871C190.008 217.941 191.301 223.382 191.519 229.109L191.529 229.099Z" fill="white"/>
<path d="M262.06 187.683C262.06 187.683 274.173 172.625 268.036 167.364C261.899 162.104 257.605 158.727 253.747 160.392C246.878 163.36 246.346 174.87 246.346 174.87" fill="white"/>
<path d="M262.393 187.949L261.728 187.416C261.842 187.274 273.508 172.625 267.751 167.688C261.528 162.361 257.5 159.231 253.909 160.782C247.373 163.607 246.774 174.774 246.764 174.889L245.909 174.85C245.909 174.727 246.052 171.883 247.049 168.62C248.38 164.244 250.631 161.267 253.567 160.002C257.605 158.252 261.832 161.495 268.302 167.041C274.687 172.51 262.887 187.331 262.383 187.958L262.393 187.949Z" fill="#010101"/>
<path d="M288.652 202.798C288.244 202.798 287.835 202.636 287.522 202.322L277.309 191.801L182.588 94.4337C181.98 93.8154 181.999 92.8167 182.617 92.2079C183.244 91.5991 184.232 91.6181 184.84 92.2364L279.56 189.604L289.773 200.125C290.381 200.752 290.362 201.742 289.745 202.35C289.441 202.645 289.042 202.798 288.652 202.798Z" fill="white"/>
<path d="M288.652 203.216C288.111 203.216 287.598 202.997 287.227 202.607L277.014 192.087L182.294 94.7191C181.524 93.9296 181.543 92.6645 182.332 91.894C183.121 91.1235 184.384 91.1425 185.154 91.932L279.874 189.3L290.087 199.82C290.856 200.61 290.837 201.875 290.049 202.645C289.678 203.007 289.184 203.207 288.662 203.207L288.652 203.216ZM183.719 92.1793C183.425 92.1793 183.14 92.284 182.912 92.5027C182.456 92.9498 182.446 93.6823 182.893 94.1389L277.613 191.507L287.826 202.027C288.044 202.255 288.339 202.379 288.652 202.379C288.966 202.379 289.241 202.265 289.46 202.056C289.916 201.609 289.925 200.876 289.488 200.42L279.275 189.899L184.555 92.5313C184.327 92.303 184.033 92.1793 183.729 92.1793H183.719Z" fill="#010101"/>
<path d="M189.76 98.69C189.093 99.0235 188.995 100.843 188.995 100.843C204.342 117.006 234.833 149.429 236.374 149.429C238.299 149.429 249.726 143.657 259.555 134.234C269.383 124.81 268.167 120.757 272.423 107.991C276.678 95.2239 278.401 94.5146 286.912 87.9286C295.423 81.3426 304.441 80.8359 306.974 80.3293C309.507 79.8227 310.419 77.9989 309.406 76.479C308.393 74.9592 265.543 28.8802 262.626 28.7413C259.708 28.6023 237.966 38.9522 232.201 45.1344C226.436 51.3166 222.198 59.5826 220.392 66.1816C218.586 72.7805 215.113 80.6992 209.973 87.2982C204.833 93.8971 190.593 98.2733 189.76 98.69Z" fill="white" stroke="black"/>
<path d="M215.555 90.9007L221.452 105.237L215.555 90.9007ZM225.035 103.763L219.139 89.4266L225.035 103.763ZM222.723 87.9526L228.619 102.288L222.723 87.9526ZM274.016 83.6171L271.314 77.0465L274.016 83.6171ZM270.823 75.8518L268.12 69.2812L270.823 75.8518ZM271.704 67.8071L274.407 74.3778L271.704 67.8071ZM274.898 75.5724L277.6 82.143L274.898 75.5724ZM281.184 80.669L278.482 74.0984L281.184 80.669ZM277.991 72.9037L275.288 66.3331L277.991 72.9037Z" fill="black"/>
<path d="M215.555 90.9007L221.452 105.237M225.035 103.763L219.139 89.4266M222.723 87.9526L228.619 102.288M274.016 83.6171L271.314 77.0465M270.823 75.8518L268.12 69.2812M271.704 67.8071L274.407 74.3778M274.898 75.5724L277.6 82.143M281.184 80.669L278.482 74.0984M277.991 72.9037L275.288 66.3331" stroke="black" stroke-width="2.66124"/>
<path d="M240.471 118.043L255.972 118.114L240.471 118.043ZM255.99 114.239L248.885 114.206L255.99 114.239ZM247.593 114.2L240.489 114.168L247.593 114.2ZM240.507 110.292L256.008 110.364L240.507 110.292ZM256.233 61.2773L249.128 61.2447L256.233 61.2773ZM247.836 61.2388L240.732 61.2062L247.836 61.2388ZM240.75 57.3309L256.251 57.4021L240.75 57.3309ZM256.268 53.5269L249.164 53.4943L256.268 53.5269ZM247.872 53.4883L240.767 53.4557L247.872 53.4883Z" fill="black"/>
<path d="M240.471 118.043L255.972 118.114M255.99 114.239L248.885 114.206M247.593 114.2L240.489 114.168M240.507 110.292L256.008 110.364M256.233 61.2773L249.128 61.2447M247.836 61.2388L240.732 61.2062M240.75 57.3309L256.251 57.4021M256.268 53.5269L249.164 53.4943M247.872 53.4883L240.767 53.4557" stroke="black" stroke-width="2.66124"/>
<path d="M255.538 82.8368C256.71 85.6884 256.702 88.8891 255.515 91.7348C254.328 94.5805 252.059 96.8381 249.208 98.0109C246.356 99.1837 243.156 99.1757 240.31 97.9887C237.464 96.8016 235.207 94.5327 234.034 91.6811C232.47 87.879 232.481 83.6114 234.063 79.8172C235.646 76.0229 238.671 73.0128 242.473 71.449C246.276 69.8852 250.543 69.8959 254.337 71.4786C258.132 73.0614 261.142 76.0866 262.706 79.8887" fill="#CD2E3A"/>
<path d="M248.369 85.7851C247.587 83.884 247.593 81.7502 248.384 79.8531C249.176 77.956 250.688 76.4509 252.589 75.669C254.49 74.8871 256.624 74.8925 258.521 75.6838C260.418 76.4752 261.923 77.9878 262.705 79.8889C264.269 83.691 264.258 87.9586 262.676 91.7528C261.093 95.5471 258.068 98.5572 254.266 100.121C250.463 101.685 246.196 101.674 242.402 100.091C238.607 98.5086 235.597 95.4834 234.033 91.6813C234.815 93.5824 236.32 95.095 238.218 95.8863C240.115 96.6777 242.248 96.683 244.15 95.9011C246.051 95.1193 247.563 93.6142 248.355 91.7171C249.146 89.8199 249.151 87.6861 248.369 85.7851Z" fill="#0047A0"/>
<path d="M247.069 165.842C247.069 165.842 248.94 157.376 254.831 154.095C254.831 154.095 258.792 152.135 260.388 156.387C261.281 158.765 259.305 161.98 258.137 163.921C256.579 166.489 253.206 172.101 249.757 172.225C246.907 172.33 246.584 167.802 247.078 165.842H247.069Z" fill="white"/>
<path d="M249.653 172.653C248.826 172.653 248.104 172.301 247.572 171.645C246.328 170.104 246.29 167.222 246.651 165.747C246.679 165.595 247.164 163.521 248.351 161.02C249.482 158.661 251.477 155.474 254.612 153.733C254.707 153.686 256.55 152.792 258.336 153.495C259.429 153.923 260.255 154.856 260.778 156.244C261.737 158.794 259.733 162.095 258.536 164.073L258.46 164.206C256.826 166.908 253.424 172.529 249.757 172.653C249.719 172.653 249.691 172.653 249.653 172.653ZM256.873 154.076C255.866 154.076 255.03 154.475 255.02 154.485C249.396 157.614 247.506 165.852 247.487 165.937C247.154 167.269 247.24 169.866 248.237 171.103C248.636 171.588 249.121 171.826 249.738 171.797C252.94 171.683 256.303 166.128 257.738 163.759L257.814 163.626C258.935 161.781 260.797 158.699 259.989 156.539C259.552 155.388 258.897 154.627 258.042 154.285C257.652 154.133 257.253 154.076 256.873 154.076Z" fill="#010101"/>
<path d="M253.928 171.645C253.928 171.645 255.8 163.179 261.69 159.897C261.69 159.897 265.652 157.938 267.248 162.19C268.141 164.568 266.165 167.783 264.996 169.723C263.438 172.292 260.065 177.904 256.617 178.028C253.766 178.132 253.443 173.604 253.937 171.645H253.928Z" fill="white"/>
<path d="M256.522 178.456C255.695 178.456 254.973 178.104 254.441 177.447C253.196 175.906 253.158 173.024 253.519 171.55C253.548 171.398 254.032 169.324 255.22 166.822C256.351 164.463 258.346 161.276 261.481 159.536C261.576 159.488 263.419 158.594 265.205 159.298C266.298 159.726 267.124 160.658 267.647 162.047C268.606 164.596 266.602 167.897 265.405 169.876L265.329 170.009C263.694 172.71 260.293 178.332 256.636 178.456C256.598 178.456 256.569 178.456 256.531 178.456H256.522ZM263.732 159.878C262.725 159.878 261.889 160.278 261.88 160.287C256.256 163.417 254.365 171.654 254.346 171.74C254.013 173.072 254.099 175.669 255.097 176.905C255.496 177.39 255.98 177.628 256.598 177.6C259.799 177.485 263.162 171.93 264.597 169.562L264.673 169.428C265.794 167.583 267.656 164.501 266.849 162.342C266.412 161.191 265.756 160.43 264.901 160.087C264.512 159.935 264.113 159.878 263.732 159.878Z" fill="#010101"/>
<path d="M260.626 176.249C260.626 176.249 262.155 169.324 266.972 166.651C266.972 166.651 270.212 165.043 271.513 168.525C272.245 170.475 270.63 173.1 269.67 174.679C268.397 176.781 265.642 181.366 262.82 181.462C260.493 181.547 260.227 177.847 260.626 176.249Z" fill="white"/>
<path d="M262.744 181.899C262.041 181.899 261.433 181.604 260.977 181.043C259.942 179.768 259.904 177.371 260.208 176.154C260.236 176.02 260.626 174.318 261.604 172.273C262.526 170.332 264.179 167.716 266.754 166.28C266.839 166.242 268.369 165.49 269.87 166.08C270.782 166.442 271.475 167.212 271.903 168.373C272.701 170.484 271.048 173.214 270.06 174.841L269.993 174.946C268.654 177.162 265.851 181.785 262.82 181.89C262.792 181.89 262.763 181.89 262.735 181.89L262.744 181.899ZM268.635 166.708C267.837 166.708 267.162 167.031 267.153 167.031C262.583 169.571 261.053 176.268 261.034 176.334C260.768 177.409 260.835 179.502 261.633 180.491C261.937 180.872 262.317 181.043 262.792 181.033C265.367 180.948 268.093 176.43 269.262 174.499L269.328 174.394C270.231 172.9 271.751 170.399 271.105 168.668C270.763 167.745 270.24 167.146 269.556 166.87C269.243 166.746 268.929 166.698 268.625 166.698L268.635 166.708Z" fill="#010101"/>
</g>
<defs>
<clipPath id="clip0_9542_9172">
<rect width="357" height="310" fill="white"/>
</clipPath>
</defs>
</svg>
