<svg width="130" height="97" viewBox="0 0 130 97" fill="none" xmlns="http://www.w3.org/2000/svg">
<mask id="mask0_2941_4189" style="mask-type:luminance" maskUnits="userSpaceOnUse" x="0" y="0" width="130" height="97">
<path d="M130 0H0V97H130V0Z" fill="white"/>
</mask>
<g mask="url(#mask0_2941_4189)">
<path d="M38.3889 100.9H94.7989C92.9489 97.22 89.6789 93.96 85.9989 91.14C82.0189 88.09 77.5589 85.56 72.7289 84.3C71.2289 83.91 69.6889 83.65 68.1389 83.48C67.1089 83.37 66.0689 83.37 65.0389 83.48C63.4889 83.64 61.9589 83.91 60.4489 84.3C55.6189 85.55 51.1589 88.09 47.1789 91.14C43.4989 93.96 40.2289 97.23 38.3789 100.9H38.3889Z" fill="#2E2E2E" stroke="#101010" stroke-width="2" stroke-miterlimit="10"/>
<path d="M104.78 63.6C104.57 62.64 104.31 61.64 103.59 61.21C103.2 60.98 102.68 60.93 102.17 60.89C100.35 60.78 98.6898 60.99 96.9997 61.21C93.2797 61.69 89.4197 62.24 85.8997 63.63C84.2497 64.28 82.6897 65.12 81.1997 66.07C79.6197 65.25 77.9697 64.56 76.2697 63.98C73.3897 63 70.3797 62.32 67.3597 62.09C67.1097 62.07 66.8497 62.06 66.5997 62.06C66.3497 62.06 66.0897 62.08 65.8397 62.09C62.8197 62.32 59.7997 62.99 56.9297 63.98C56.1497 64.25 55.3897 64.54 54.6297 64.85C53.0097 63.64 50.7597 63.21 48.5297 63.12C46.2997 63.03 44.0897 63.27 41.8897 63.63C39.6897 63.99 37.5197 64.47 35.3597 64.99C33.2097 65.51 31.0797 66.06 29.0997 67.19C27.1097 68.32 25.2597 70.03 24.8497 72.01C24.4397 73.99 25.4697 76.23 26.5797 78.25C27.6897 80.26 28.8797 82.04 30.3597 83.63C31.8397 85.23 33.6197 86.64 35.6297 87.84C34.6797 89.28 33.8697 90.81 33.2197 92.41C32.1197 95.11 31.4997 98 31.2997 100.89H101.88C101.68 98 101.06 95.11 99.9597 92.41C99.1898 90.52 98.1897 88.73 97.0197 87.05C99.9597 84.78 101.29 83.2 102.35 81.42C104.32 78.13 105.37 74.2 105.51 70.53C105.6 68.27 105.34 66.11 104.78 63.6Z" fill="white"/>
<path d="M38.3889 100.9H94.7989C92.9489 97.22 89.6789 93.96 85.9989 91.14C82.0189 88.09 77.5589 85.56 72.7289 84.3C71.2289 83.91 69.6889 83.65 68.1389 83.48C67.1089 83.37 66.0689 83.37 65.0389 83.48C63.4889 83.64 61.9589 83.91 60.4489 84.3C55.6189 85.55 51.1589 88.09 47.1789 91.14C43.4989 93.96 40.2289 97.23 38.3789 100.9H38.3889Z" fill="#2E2E2E" stroke="#101010" stroke-width="2" stroke-miterlimit="10"/>
<path d="M35.6297 87.85C33.6197 86.65 31.8397 85.24 30.3597 83.64C28.8797 82.04 27.6897 80.27 26.5797 78.26C25.4697 76.25 24.4397 74 24.8497 72.02C25.2597 70.04 27.1197 68.33 29.0997 67.2C31.0897 66.07 33.2097 65.52 35.3597 65C37.5097 64.48 39.6897 64 41.8897 63.64C44.0897 63.28 46.2997 63.03 48.5297 63.13C50.7597 63.22 53.0097 63.65 54.6297 64.86" stroke="#101010" stroke-width="2" stroke-linecap="round" stroke-linejoin="round"/>
<path d="M67.2789 91.3499C70.5389 91.2899 84.0289 91.6399 92.7389 100.89H94.7989C92.9489 97.2099 89.6789 93.9499 85.9989 91.1299C82.0189 88.0799 77.5589 85.55 72.7289 84.29C71.2289 83.9 69.6889 83.64 68.1389 83.47C67.1089 83.36 66.0689 83.36 65.0389 83.47C63.4889 83.63 61.9589 83.9 60.4489 84.29C55.6189 85.54 51.1589 88.0799 47.1789 91.1299C43.4989 93.9499 40.2289 97.2199 38.3789 100.89H40.4689C49.1889 91.6399 62.6689 91.2899 65.9289 91.3499C66.3789 91.3499 66.8189 91.3499 67.2689 91.3499H67.2789Z" fill="#101010"/>
<path d="M72.209 100.9H82.499C82.569 97.96 81.779 92.03 77.359 92.03C72.939 92.03 72.149 97.96 72.219 100.9H72.209Z" fill="white" stroke="#101010" stroke-width="2" stroke-miterlimit="10"/>
<path d="M50.8301 100.9H61.1201C61.1901 97.96 60.4001 92.03 55.9801 92.03C51.5601 92.03 50.7701 97.96 50.8401 100.9H50.8301Z" fill="white" stroke="#101010" stroke-width="2" stroke-miterlimit="10"/>
<path d="M98.9867 54.2625L99 9.95429C98.9734 8.31746 97.6692 7 96.0324 7L29.9447 7C25.5398 7.06654 22 10.6729 22 15.091C22 16.5815 22.3992 17.859 23.0114 18.9769C23.5304 19.9084 24.3421 20.7867 25.1406 21.4388C25.3668 21.6251 25.2604 21.5452 25.9524 21.9711C26.9105 22.5566 28.0017 22.8494 28.0017 22.8494L27.9751 59.2928C28.0017 59.8517 28.055 60.384 28.2014 60.8764C28.6538 62.5265 29.7983 63.7908 31.3553 64.4029C32.0073 64.6558 32.7393 64.8287 33.5244 64.8421L95.5001 64.8953C98.7472 64.8953 102.056 62.2604 102.056 59C102.069 57.0704 100.437 55.3404 98.9867 54.2625Z" fill="#FFEEDA"/>
<path d="M26.2052 19.7887C24.9144 18.5644 24.0095 16.9808 24.0095 15.1044V14.9048C24.1159 11.6977 26.7508 9.11597 29.958 9.02282H96.0457C96.578 9.04944 97.0039 9.42205 97.0039 9.96766V51.7814C97.4696 51.8612 97.6958 51.9278 98.1483 52.0875C98.5076 52.2205 99 52.5 99 52.5V9.96766C98.9734 8.33082 97.6692 7.01337 96.0324 7.01337L29.9447 7.01337C25.5398 7.0799 22 10.6863 22 15.1044C22 17.6728 23.1711 19.8685 25.0874 21.4122C25.2204 21.5187 25.3402 21.6518 25.6862 21.6518C26.2851 21.6518 26.7109 21.1727 26.6843 20.6537C26.671 20.2145 26.4847 20.0548 26.2052 19.7887Z" fill="#190602"/>
<path d="M101 59.6095C100.931 61.7602 99.635 64 97.4523 64L38 63.9588C38.9256 62.8903 39.492 60.5068 39.492 58.9999C39.492 56.6301 38.0691 55 38.0691 55L97.4661 55.0001C99.6903 55.0001 101.014 57.2808 101.014 59.4862L101 59.6095Z" fill="#EBC28E"/>
<path d="M96.6047 54H33.8295C32.7516 54.0133 31.8866 54.8783 31.8866 55.9562V58.2584C31.9132 59.3231 32.8181 60.228 33.8961 60.228H35.0804V58.2584H33.8961V56.0095C33.8961 56.0095 34.1888 56.0095 34.5481 56.0095C36.5709 56.0095 38.0614 57.8858 38.0614 59.8953C38.0614 61.6785 36.4378 63.9541 33.7231 63.7678C31.3144 63.6081 30.0102 61.4656 30.0102 59.8953V14.7584C30.0102 13.8801 29.2916 13.1615 28.4133 13.1615H26.8164V15.1576H28.0008V59.9086C27.9342 63.7944 30.7688 65.7506 33.7231 65.7506L96.618 65.8039C99.8651 65.8039 102.5 63.169 102.5 59.9086C102.5 56.6482 99.8518 54 96.6047 54ZM100.491 60.0284C100.424 62.1177 98.7073 63.7944 96.6047 63.7944L38.6203 63.7545C39.5119 62.7165 40.0575 61.3724 40.0575 59.9086C40.0575 57.6064 38.6868 56.0228 38.6868 56.0228H96.618C98.7605 56.0228 100.504 57.7661 100.504 59.9086L100.491 60.0284Z" fill="#190602"/>
<path d="M51.8475 27.678L46 32.8757L51.8475 38.0735" stroke="black" stroke-width="2" stroke-linecap="round" stroke-linejoin="round"/>
<path d="M74.6525 27.678L80.5 32.8757L74.6525 38.0735" stroke="black" stroke-width="2" stroke-linecap="round" stroke-linejoin="round"/>
<path d="M66.4654 23L60.0332 41.7119" stroke="black" stroke-width="2" stroke-linecap="round"/>
<path d="M81.1992 66.08C82.6892 65.13 84.2592 64.29 85.8992 63.64C89.4192 62.25 93.2892 61.7 96.9992 61.22C98.6992 61 100.359 60.79 102.169 60.9C102.679 60.93 103.199 60.99 103.589 61.22C104.309 61.64 104.569 62.65 104.779 63.61C105.339 66.12 105.599 68.28 105.509 70.54C105.369 74.21 104.319 78.15 102.349 81.43C101.289 83.2 99.9592 84.79 97.0192 87.06" fill="white"/>
<path d="M81.1992 66.08C82.6892 65.13 84.2592 64.29 85.8992 63.64C89.4192 62.25 93.2892 61.7 96.9992 61.22C98.6992 61 100.359 60.79 102.169 60.9C102.679 60.93 103.199 60.99 103.589 61.22C104.309 61.64 104.569 62.65 104.779 63.61C105.339 66.12 105.599 68.28 105.509 70.54C105.369 74.21 104.319 78.15 102.349 81.43C101.289 83.2 99.9592 84.79 97.0192 87.06" stroke="#101010" stroke-width="2" stroke-linecap="round" stroke-linejoin="round"/>
<path d="M38.0305 84.67C36.0305 86.97 34.3705 89.59 33.2305 92.41C32.1305 95.11 31.5105 98 31.3105 100.89H101.891C101.691 98 101.071 95.11 99.9706 92.41C98.8206 89.59 97.1605 86.96 95.1705 84.67" stroke="#101010" stroke-width="2" stroke-linecap="round" stroke-linejoin="round"/>
<path d="M54.0791 65.09C52.8891 65.6 51.7391 66.18 50.6191 66.83" stroke="#101010" stroke-width="2" stroke-linecap="round" stroke-linejoin="round"/>
<path d="M82.5698 66.83C81.1898 66.03 79.7498 65.34 78.2598 64.74" stroke="#101010" stroke-width="2" stroke-linecap="round" stroke-linejoin="round"/>
<path d="M12.7693 23.51L5.2793 16.01" stroke="#101010" stroke-width="2" stroke-linecap="round" stroke-linejoin="round"/>
<path d="M5.2793 49.18L12.7693 41.68" stroke="#101010" stroke-width="2" stroke-linecap="round" stroke-linejoin="round"/>
<path d="M12.77 32.59H0" stroke="#101010" stroke-width="2" stroke-linecap="round" stroke-linejoin="round"/>
<path d="M122.631 16L115.141 23.5" stroke="#101010" stroke-width="2" stroke-linecap="round" stroke-linejoin="round"/>
<path d="M115.141 41.67L122.631 49.17" stroke="#101010" stroke-width="2" stroke-linecap="round" stroke-linejoin="round"/>
<path d="M127.911 32.59H115.141" stroke="#101010" stroke-width="2" stroke-linecap="round" stroke-linejoin="round"/>
</g>
</svg>
