<svg width="245" height="218" viewBox="0 0 245 218" fill="none" xmlns="http://www.w3.org/2000/svg">
<g clip-path="url(#clip0_9320_1929)">
<path d="M187.13 91.8994C212.636 91.8994 233.313 71.4186 233.313 46.1544C233.313 20.8901 212.636 0.409363 187.13 0.409363C161.624 0.409363 140.947 20.8901 140.947 46.1544C140.947 71.4186 161.624 91.8994 187.13 91.8994Z" fill="#F1AF8F"/>
<path d="M182.285 92.7846C180.883 92.1952 179.355 92.2402 177.897 91.9315C164.922 89.1902 154.863 82.2523 147.57 71.3192C146.579 69.8338 145.474 68.3828 145.394 66.4881C146.244 66.3981 146.547 67.0454 146.904 67.6026C148.791 70.5604 150.595 73.5782 152.98 76.1845C157.595 81.2299 163.016 85.1565 169.378 87.8099C177.821 91.3293 186.55 92.4095 195.534 90.6884C204.99 88.8773 213.217 84.6549 219.949 77.7299C220.196 77.4748 220.384 77.0997 220.908 77.104C220.845 77.4769 220.786 77.8306 220.726 78.1842C218.67 81.8472 215.124 83.8748 211.733 85.9967C205.882 89.6596 199.442 91.7665 192.557 92.5252C192.321 92.551 192.038 92.4867 191.908 92.7846H182.287H182.285Z" fill="#FE6E52"/>
<path d="M140.003 44.384C140.603 42.7272 140.482 40.9675 140.73 39.2614C143.487 20.3594 158.437 4.58243 177.289 0.748018C179.173 0.364363 181.045 -0.263631 183.01 0.29792C183.094 1.38459 182.186 1.36958 181.552 1.45317C177.782 1.93971 174.127 2.8399 170.592 4.22235C165.294 6.29709 160.512 9.18415 156.315 13.0164C151.374 17.526 147.64 22.865 145.093 29.0099C143.15 33.7017 141.968 38.5649 141.721 43.6617C141.615 45.8693 141.412 48.0576 141.75 50.2567C141.845 50.8804 141.793 51.4548 140.936 51.4848C140.22 50.8654 140.704 49.7745 140.001 49.1507V44.3861L140.003 44.384Z" fill="#FE6E52"/>
<path d="M233.11 54.1254C232.298 54.0139 232.352 53.3902 232.469 52.8801C232.973 50.6789 232.928 48.4284 232.882 46.2165C232.655 35.4677 229.299 25.7949 222.349 17.4552C217.549 11.6983 211.707 7.31945 204.633 4.61886C203.575 4.21591 202.567 3.68651 201.522 3.24927C200.955 3.01136 200.686 2.71558 201.076 2.1326C204.696 2.39623 207.756 4.16876 210.733 5.93914C223.857 13.743 231.645 25.1626 233.837 40.2066C234.447 44.3904 234.315 48.6149 233.949 52.8265C233.895 53.461 233.568 53.8039 233.114 54.1254H233.11Z" fill="#FE6E52"/>
<path d="M200.245 1.80468C199.033 1.69537 197.858 1.44889 196.755 0.921631C198.003 0.889481 199.183 1.12096 200.245 1.80468Z" fill="#FEFDFD"/>
<path d="M192.652 0.295782C192.379 0.465105 192.137 0.456532 191.936 0.184329C192.221 -0.068583 192.468 -0.0857297 192.652 0.295782Z" fill="#FEFDFD"/>
<path d="M196.203 0.838023C195.922 0.96448 195.668 0.97091 195.489 0.670844C195.8 0.422218 196.049 0.430792 196.203 0.838023Z" fill="#FEFDFD"/>
<path d="M194.433 0.486529C194.247 0.711578 194.093 0.660138 193.961 0.430802C194.147 0.212183 194.301 0.26148 194.433 0.486529Z" fill="#FEFDFD"/>
<path d="M143.686 62.7501C145.106 62.8509 145.316 63.2902 144.522 64.5055C143.353 64.3362 143.122 63.7275 143.686 62.7501Z" fill="#FE6E52"/>
<path d="M227.354 59.0572C227.871 70.9891 216.859 81.8214 203.96 81.3006C192.566 80.8398 182.105 71.4156 182.311 58.6264C182.51 46.3944 192.494 36.0529 206.126 36.6016C217.041 37.041 227.791 46.4694 227.354 59.055V59.0572Z" fill="#F0BAA2"/>
<path d="M173.173 48.5763C173.686 55.1735 167.218 61.3763 160.359 61.1941C153.352 61.0098 147.622 55.5614 147.646 48.3513C147.668 41.5741 153.274 35.4506 161.358 35.7957C167.248 36.0486 173.688 41.5634 173.173 48.5742V48.5763Z" fill="#F0BAA2"/>
<path d="M210.898 20.6767C211.17 24.8861 207.249 28.5384 202.857 28.5705C198.43 28.6027 194.606 24.8004 194.714 20.4023C194.829 15.777 198.17 12.3927 202.937 12.3434C207.172 12.3005 211.287 15.8499 210.898 20.6745V20.6767Z" fill="#F0BAA2"/>
<path d="M108.928 231.953C106.576 231.839 104.213 231.931 101.857 231.929L99.3836 231.923C96.9579 231.936 94.53 231.959 92.1044 231.912L90.4815 231.998C88.9148 231.998 87.359 232.004 85.8011 231.996C85.2017 231.991 84.6001 231.934 84.0007 231.934C65.7227 231.934 47.4446 231.938 29.1666 231.953C28.1669 231.953 28.5693 231.306 28.6516 230.911C29.2163 228.198 30.0148 225.549 30.9993 222.953C33.8491 215.432 38.0557 208.657 42.6495 202.092C46.9837 195.898 51.6468 189.929 55.8014 183.61C58.5235 179.471 61.0228 175.215 62.306 170.375C62.7322 168.77 62.9984 167.143 63.1044 165.482C63.1434 164.869 62.9767 164.646 62.3882 164.577C59.5081 164.234 56.6345 163.836 53.7522 163.516C48.0938 162.888 42.3682 162.734 36.8244 161.272C31.1941 159.787 26.2843 157.191 22.9866 152.21C20.602 148.607 19.4249 144.563 18.7866 140.358C17.5899 132.477 17.8474 124.57 18.4879 116.661C18.8709 111.939 19.479 107.248 20.3683 102.592C20.4376 102.226 20.4787 101.915 20.0719 101.632C13.9655 97.4056 9.86283 91.5607 6.57161 85.0879C4.10049 80.229 2.01237 75.2029 0.502004 69.971C-0.941286 64.9749 0.744355 61.5049 5.51132 59.2865C8.8588 57.7283 12.4508 57.0961 16.0882 56.6974C25.1504 55.7029 33.9919 57.1325 42.762 59.2115C45.7438 59.9188 48.704 60.7183 51.6576 61.5327C52.3436 61.7213 52.7547 61.5692 53.2416 61.0934C57.751 56.6824 62.5396 52.6229 68.2457 49.7659C74.7935 46.4887 81.627 45.2027 88.8651 46.9667C89.709 47.1725 89.5748 46.6066 89.6462 46.2337C91.1501 38.3398 94.3461 31.1747 99.0763 24.6675C99.9548 23.4587 100.864 22.2734 102.043 21.324C104.516 19.3349 106.734 19.3864 108.924 21.6605C112.453 25.3234 115.396 29.4257 117.83 33.8753C123.054 43.4259 125.672 53.6239 125.48 64.5012C125.469 65.0628 125.664 65.4443 126.031 65.8387C130.846 70.9719 135.658 76.1031 140.447 81.2599C143.662 84.7235 146.116 88.6094 147.029 93.3118C147.274 94.57 147.579 95.8217 147.512 97.1184C147.274 97.5449 147.157 97.9607 147.616 98.3293C147.769 98.8673 147.735 99.416 147.709 99.9647C147.384 100.526 147.553 101.274 146.993 101.84C146.794 101.105 147.114 100.385 146.763 99.7482C146.765 99.6111 146.768 99.4739 146.772 99.3346C146.895 98.5072 147.285 97.6585 146.56 96.904C146.547 96.7669 146.536 96.6318 146.523 96.4947C146.83 96.1796 146.707 95.8345 146.694 95.3437C146.508 95.6245 146.424 95.7531 146.337 95.8838C145.491 93.5562 143.963 91.7258 142.083 90.1483C140.882 89.1388 139.579 88.275 138.231 87.4691C126.821 80.6512 114.522 75.923 101.77 72.2579C98.1999 71.2334 94.82 71.5549 91.637 73.5054C90.4468 74.2341 89.2156 74.9049 88.0882 75.7194C76.1048 84.3849 65.9823 94.8272 57.7554 107.059C51.1167 116.929 45.9386 127.5 42.4807 138.872C41.5784 141.843 41.1348 144.889 41.6087 147.99C42.2925 152.48 45.1704 155.198 49.1541 157.009C56.3142 160.263 63.931 161.425 71.7036 161.89C77.4681 162.235 83.2434 162.218 89.0122 162.43C93.1776 162.584 97.3409 162.773 101.45 163.51C104.938 164.136 107.539 165.844 108.312 169.537C108.686 171.32 108.571 173.108 108.283 174.887C107.429 180.14 105.985 185.237 104.096 190.214C103.977 190.529 103.679 190.84 103.897 191.221C104.131 191.262 104.226 191.114 104.33 190.983C106.366 188.439 108.409 185.899 110.432 183.344C110.614 183.115 110.713 182.806 110.791 182.519C112.135 177.6 112.434 172.591 112.057 167.529C111.776 163.748 110.287 161.72 106.946 160.608C105.975 160.284 104.994 159.974 104.006 159.703C97.9511 158.053 91.7538 157.196 85.5436 156.403C79.8202 155.672 74.1379 154.735 68.6417 152.92C65.5041 151.885 62.3449 150.897 59.6314 148.918C56.6561 146.747 55.1652 143.828 55.0397 140.178C54.9207 136.712 55.8231 133.435 56.9937 130.241C59.5514 123.273 62.5699 116.503 66.1836 110C69.2303 104.517 72.7011 99.3217 76.7064 94.4778C81.2397 88.9973 86.3593 84.1448 92.2125 80.0618C95.4627 77.7942 98.9768 77.1854 102.787 78.3321C109.344 80.3061 115.634 82.9446 121.816 85.8509C127.317 88.4379 132.674 91.2435 137.413 95.1165C141.514 98.4687 143.602 102.644 143.45 107.927C143.385 110.165 142.99 112.353 142.704 114.563C141.938 120.491 139.7 125.826 136.489 130.814C134.968 133.176 133.237 135.377 132.084 138C130.861 140.778 128.927 143.206 127.26 145.761C125.138 149.021 122.987 152.266 121.628 155.942C120.224 159.736 119.536 163.6 120.453 167.621C120.516 167.895 120.405 168.307 120.821 168.363C121.156 168.408 121.212 168.032 121.349 167.822C125.114 161.99 128.79 156.103 131.757 149.821C134.066 144.93 136.295 140 138.56 135.087C138.984 135.002 139.047 134.247 139.657 134.511C139.668 134.642 139.677 134.772 139.687 134.903C139.629 134.929 139.571 134.954 139.514 134.982C139.577 134.991 139.642 135 139.705 135.008C139.802 135.713 139.897 136.421 139.995 137.126C139.971 140.628 139.415 144.061 138.612 147.459C136.383 156.898 132.938 165.917 128.937 174.739C128.784 175.075 128.468 175.474 128.546 175.759C129.011 177.444 127.996 178.685 127.33 180.022C127.046 180.59 126.942 181.13 126.973 181.763C127.141 185.243 127.328 188.726 127.395 192.211C127.635 204.713 127.022 217.177 125.421 229.582C125.244 230.965 125.622 231.295 126.96 231.295C128.498 231.295 130.035 231.295 131.573 231.295C138.134 231.295 144.695 231.299 151.255 231.286C151.667 231.286 152.268 231.537 152.24 230.697C152.164 228.401 152.288 226.099 152.067 223.806C152.078 221.451 152.056 219.097 151.831 216.75C151.831 213.878 151.591 211.019 151.381 208.16C151.32 207.152 151.288 206.145 151.195 205.142C150.946 202.433 150.827 199.711 150.407 197.017C150.228 194.074 149.875 191.15 149.427 188.238C149.224 185.871 148.873 183.527 148.486 181.184C148.029 177.782 147.436 174.402 146.8 170.924C146.064 171.419 145.696 172.066 145.246 172.636C145.078 172.848 144.861 172.945 144.625 172.78C144.39 172.615 144.405 172.381 144.563 172.156C144.699 171.963 144.831 171.764 144.98 171.58C147.203 168.804 150.054 166.916 153.402 165.728C156.25 164.719 159.132 164.734 162.062 165.501C162.181 163.424 162.014 161.437 161.783 159.457C161.068 153.387 159.296 147.581 157.264 141.839C154.902 135.158 152.199 128.597 150.288 121.762C149.938 120.508 149.819 119.188 149.204 118.009C149.182 117.643 149.204 117.266 149.128 116.91C148.633 114.599 148.306 112.267 148.107 109.914C147.908 107.552 147.94 105.199 148.122 102.839C148.135 102.665 148.546 102.189 147.895 102.181C147.529 101.461 147.826 100.762 147.966 100.059C148.916 97.4334 149.808 94.7843 150.833 92.1887C151.673 90.0647 152.844 88.1185 154.666 86.6418C155.607 85.8788 156.65 85.3044 157.905 85.3044C158.37 85.3044 158.558 85.0815 158.742 84.7257C161.084 80.1861 163.559 75.7173 166.18 71.3299C166.409 70.9441 166.431 70.614 166.292 70.1918C165.626 68.1728 166.141 66.4817 167.766 65.0907C168.486 64.4734 169.096 63.7939 169.456 62.8487C169.696 62.2122 169.432 62.0879 169.029 61.8478C167.181 60.7397 165.413 59.5244 164.111 57.7755C162.791 56.0008 162.014 54.0482 162.423 51.8042C162.923 49.0607 164.747 47.4425 167.58 47.1317C167.77 47.1103 167.997 47.1875 168.181 46.8874C166.816 45.8029 165.34 44.8577 163.866 43.9125C154.449 37.8769 144.264 33.6374 133.337 31.1339C128.771 30.088 127.553 28.562 127.89 23.9602C128.396 17.0459 130.772 10.8645 135.635 5.7484C138.149 3.10354 141.09 1.17026 144.777 0.533694C144.978 0.499401 145.181 0.480111 145.385 0.450104C146.8 0.240058 147.817 0.651577 148.806 1.82398C157.18 11.7476 166.528 20.6895 176.789 28.6906C176.966 28.8277 177.148 28.9606 177.421 29.1664C177.564 27.1452 177.91 25.3041 178.684 23.5637C179.171 22.4706 179.76 21.4483 180.708 20.6767C182.166 19.4893 183.557 19.6436 184.648 21.1761C185.996 23.0708 186.552 25.2677 186.909 27.516C187.314 30.0644 187.355 32.63 187.182 35.1677C187.515 35.4013 187.667 35.1313 187.844 35.0262C190.672 33.3566 193.702 34.1046 195.422 36.9124C196.166 38.1276 196.482 39.4608 196.482 40.8754C196.244 41.289 196.077 41.707 196.389 42.1592C196.393 42.6243 196.504 43.158 195.746 43.1237C195.69 43.0466 195.634 42.9694 195.578 42.8922C195.612 41.9856 195.647 41.079 195.681 40.1724C195.649 40.0609 195.617 39.9516 195.584 39.8401C195.469 39.3836 195.389 38.9142 195.234 38.4706C193.957 34.8741 190.363 33.8303 187.528 36.3808C184.252 39.33 183.079 43.0958 183.908 47.4061C184.235 49.1079 185.453 49.813 187.173 49.5023C189.746 49.0372 191.743 46.9217 191.973 44.0346C192.072 42.7744 192.568 42.2535 193.68 42.0006C194.009 41.9256 194.359 41.647 194.569 42.0606C194.838 42.59 194.294 42.7229 193.994 42.7894C193.109 42.9865 192.942 43.5245 192.806 44.3518C192.369 47.0117 191.042 49.1014 188.35 50.0509C185.408 51.0905 183.482 49.9566 182.926 46.9131C182.858 46.5487 182.824 46.1758 182.809 45.805C182.672 42.5772 183.566 39.6665 185.607 37.1331C186.005 36.6402 185.959 36.4022 185.42 36.0722C184.581 35.5599 183.793 34.9576 182.993 34.3854C169.886 25.0105 158.123 14.2038 147.75 1.92043C147.335 1.4296 146.917 1.21956 146.276 1.2367C143.163 1.32458 140.51 2.57414 138.203 4.52242C132.051 9.72213 129.247 16.5529 128.723 24.3803C128.466 28.219 129.5 29.4129 133.345 30.2809C146.553 33.2623 158.597 38.7428 169.471 46.7481C169.99 47.1317 170.522 47.4682 171.117 47.7426C173.069 48.6406 174.759 49.8881 175.917 51.7206C176.505 52.6508 177.062 53.4438 178.014 54.1983C189.047 62.9538 198.101 73.4475 205.367 85.4587C206.925 88.035 208.342 90.6884 209.736 93.3547C210.091 94.0341 210.435 94.8443 211.493 94.6128C211.573 94.7007 211.653 94.7864 211.733 94.8743C211.607 95.663 211.053 95.4894 210.571 95.3416C209.634 95.0501 209.232 94.242 208.827 93.4554C206.464 88.843 203.841 84.3806 200.907 80.1004C198.412 76.4589 195.723 72.9652 192.845 69.6131C192.672 69.4116 192.481 69.2273 192.219 68.9529C191.475 70.5904 190.17 71.5206 188.599 72.0886C188.093 72.2708 188.121 72.5601 188.14 72.9374C188.227 74.6006 188.127 76.251 187.721 77.8735C187.299 79.5624 186.528 80.244 184.776 80.4883C184.438 80.5355 184.17 80.5312 184.027 80.9834C181.991 87.4048 179.048 93.4619 176.332 99.6089C176.053 100.239 176.036 100.766 176.241 101.422C178.559 108.86 179.377 116.515 179.301 124.255C179.176 137.132 177.367 149.786 173.809 162.181C173.229 164.204 172.344 166.103 171.182 167.867C171.07 168.037 170.959 168.21 170.823 168.36C169.079 170.268 168.692 170.201 166.766 169.091C165.154 168.163 163.756 166.879 161.899 166.348C156.561 164.824 152.047 166.53 147.895 169.756C147.577 170.002 147.531 170.255 147.603 170.628C149.154 178.841 150.297 187.112 151.167 195.42C152.404 207.275 153.038 219.166 153.101 231.087C153.106 232.004 152.636 231.931 152.028 231.929C141.468 231.923 130.909 231.923 120.351 231.934L108.937 231.946L108.928 231.953ZM92.9699 225.026C90.9532 227.13 88.9343 229.235 86.9631 231.295C87.9411 231.295 89.0317 231.271 90.1201 231.306C90.6308 231.321 90.938 231.181 91.1155 230.675C91.7646 228.828 92.4463 226.993 93.1149 225.152C93.1235 225.068 93.1711 224.933 93.1365 224.91C93.0283 224.833 93.0002 224.946 92.9721 225.026H92.9699ZM108.82 160.449C110.839 161.354 112.025 162.938 112.475 165.04C113.509 169.867 113.275 174.696 112.367 179.512C112.317 179.774 112.142 180.132 112.386 180.264C112.745 180.459 112.892 180.041 113.061 179.816C114.844 177.465 116.487 175.026 117.752 172.358C118.187 171.442 118.789 170.607 119.059 169.614C120.035 169.353 119.683 168.562 119.592 168.02C119.274 166.131 118.997 164.286 119.185 162.327C119.531 158.694 120.715 155.353 122.344 152.157C124.218 148.481 126.611 145.107 128.886 141.667C129.554 140.656 130.244 139.657 130.725 138.536C130.775 138.465 130.822 138.395 130.872 138.322C130.846 138.305 130.822 138.29 130.796 138.272L130.718 138.53C130.244 138.542 130.017 138.924 129.745 139.207C128.496 140.504 127.187 141.742 125.785 142.868C121.587 146.237 117.041 149.049 112.09 151.227C106.236 153.799 100.139 155.496 93.7056 156.503C94.8135 156.936 95.9019 156.992 96.9471 157.198C100.987 157.991 105.014 158.818 108.818 160.445L108.82 160.449ZM117.815 231.175C118.367 231.449 118.369 231.023 118.412 230.697C118.51 229.964 118.579 229.227 118.67 228.491C119.129 224.856 119.648 221.228 120.04 217.586C120.395 214.275 120.594 210.946 120.897 207.628C121.297 203.267 121.613 198.901 121.71 194.52C121.717 194.185 121.816 193.853 121.818 193.519C121.831 191.969 121.823 190.417 121.823 188.866C121.381 189.481 120.821 189.969 120.676 190.69C120.555 190.805 120.403 190.904 120.319 191.041C116.517 197.177 112.271 202.999 107.697 208.591C107.297 209.081 106.881 209.568 106.743 210.237C105.338 216.98 103.542 223.62 101.463 230.187C101.214 230.973 101.383 231.205 102.253 231.196C107.44 231.156 112.626 231.173 117.813 231.173L117.815 231.175ZM179.312 56.9503C178.877 56.2709 178.23 55.8465 177.527 55.495C176.728 55.0963 176.166 54.5005 175.876 53.656C174.919 50.8633 172.745 49.2751 170.137 48.2698C168.3 47.5625 166.392 47.749 164.847 49.0907C163.312 50.4217 162.847 52.175 163.308 54.1511C163.923 56.7831 165.654 58.5942 167.805 60.0731C168.975 60.8769 170.196 61.6078 171.394 62.3729C171.325 62.7609 171.165 63.0331 170.713 62.8209C170.423 62.6837 170.271 62.7373 170.217 63.0524C170.023 64.1562 169.179 64.8399 168.503 65.6329C167.097 66.621 166.606 67.9263 166.997 69.6024C167.305 70.9141 167.833 72.1315 168.733 73.1045C173.061 77.7856 178.656 79.4831 184.86 79.6245C185.784 79.646 186.435 79.0673 186.73 78.1564C186.959 77.4491 187.167 76.7396 187.123 75.9852C187.47 74.9414 187.273 73.8697 187.286 72.8088C187.29 72.5602 187.242 72.3522 186.911 72.3372C185.65 72.2837 184.631 71.5914 183.555 71.0534C183.367 70.8112 182.913 70.6462 183.207 70.2432C183.503 69.8381 183.8 70.1832 184.081 70.3268C184.261 70.419 184.436 70.5197 184.613 70.6161C187.208 72.2279 189.865 71.4713 191.388 68.7193C191.572 68.3849 191.62 68.2071 191.336 67.8984C187.898 64.1283 184.284 60.5339 180.418 57.1904C180.043 56.8667 179.712 56.8731 179.308 56.9503H179.312ZM29.727 231.235C35.4893 231.241 41.2495 231.25 47.0118 231.256C53.1918 231.267 59.3718 231.273 65.5517 231.301C66.0732 231.303 66.3545 231.003 66.6661 230.695C69.5116 227.868 72.3635 225.049 75.2003 222.214C84.044 213.368 92.8055 204.448 100.963 194.965C101.203 194.687 101.459 194.423 101.612 194.067C104.144 188.253 106.072 182.251 107.236 176.021C107.632 173.903 108.026 171.758 107.362 169.606C107.052 167.13 105.245 165.291 102.311 164.552C99.5523 163.857 96.7155 163.731 93.8939 163.529C87.5603 163.079 81.2072 163.141 74.865 162.893C69.1654 162.67 63.4982 162.177 57.9285 160.876C53.9643 159.95 50.1256 158.703 46.6115 156.609C43.4675 154.733 41.4204 152.082 40.7756 148.449C40.4662 146.704 40.4813 144.953 40.6782 143.2C40.9812 141.192 41.4378 139.22 42.0718 137.286C49.1389 115.729 61.2954 97.4656 78.3487 82.3894C82.222 78.9644 86.262 75.7366 90.6914 73.021C94.2531 70.8391 98.029 70.2839 102.075 71.4628C113.185 74.697 124.026 78.5979 134.17 84.2048C138.569 86.6354 143.139 88.8623 146.038 93.2668C146.073 93.0225 146.06 92.8253 146.012 92.6367C145.032 88.7444 143.057 85.3794 140.352 82.443C135.725 77.4191 131.067 72.4251 126.369 67.4655C125.235 66.2695 124.597 65.1335 124.603 63.3417C124.64 51.9542 121.522 41.4026 115.556 31.6762C113.442 28.2276 111.014 25.0083 108.173 22.1106C106.457 20.3595 104.763 20.2759 102.818 21.7655C101.974 22.4106 101.266 23.1908 100.619 24.0245C95.7894 30.2573 92.535 37.2189 90.7758 44.8727C90.6026 45.6293 90.1872 46.4973 90.4079 47.136C90.6589 47.8583 91.7625 47.8433 92.4787 48.1862C94.0518 48.9386 95.5514 49.8023 96.8995 50.9083C97.0964 51.069 97.3993 51.2298 97.1634 51.562C96.9146 51.9114 96.6398 51.772 96.378 51.5663C96.2698 51.4827 96.1681 51.3927 96.0599 51.3091C92.8033 48.8271 89.0858 47.5368 85.0286 47.1403C78.9893 46.5509 73.3935 48.0148 68.0878 50.784C62.7128 53.5896 58.1449 57.439 53.8864 61.6635C53.1031 62.4394 52.4193 62.6173 51.3633 62.3215C44.0409 60.266 36.6708 58.4185 29.0778 57.6083C22.7529 56.9332 16.4626 57.021 10.2566 58.5599C7.70763 59.1922 5.18458 59.9295 3.196 61.7878C1.87605 62.823 1.1425 64.1797 0.926119 65.8258C0.729208 67.3347 0.98887 68.7965 1.44112 70.2218C2.91686 74.8642 4.70204 79.3888 6.8594 83.7655C10.9188 92.0044 16.1488 99.2081 24.748 103.39C25.0228 103.523 25.2586 103.679 25.1137 103.994C24.9341 104.386 24.6225 104.238 24.3368 104.091C23.5535 103.683 22.7334 103.332 21.9955 102.854C21.3204 102.417 21.1516 102.661 21.0413 103.304C19.5764 111.954 18.7043 120.656 18.8168 129.433C18.8883 135.053 19.2431 140.643 21.0002 146.061C22.9476 152.065 26.6803 156.439 32.5898 158.943C37.3005 160.938 42.2882 161.641 47.3256 162.07C54.6719 162.696 61.9987 163.454 69.2238 164.965C72.4241 165.636 75.631 166.292 78.7188 167.392C78.8161 167.942 78.5132 168.077 78.0372 168.037C77.4183 167.85 76.8016 167.653 76.1806 167.479C72.4674 166.449 68.6893 165.711 64.9112 164.967C64.1777 164.824 63.8618 164.982 63.8964 165.806C63.9353 166.783 63.7168 167.75 63.5502 168.718C63.1347 171.123 62.2432 173.376 61.3106 175.686C63.9007 176.143 66.2701 177.075 68.5963 178.123C73.3091 180.594 77.3967 183.914 81.3695 187.385C81.6465 187.625 82.2502 187.858 81.8693 188.315C81.4322 188.84 81.0925 188.233 80.7982 187.987C78.5132 186.054 76.2498 184.095 73.8025 182.361C71.8334 180.965 69.8383 179.609 67.5836 178.683C65.6123 177.562 63.4225 177.062 61.263 176.464C60.8129 176.34 60.8345 176.657 60.7372 176.852C57.3702 183.46 52.8824 189.341 48.546 195.321C44.0322 201.55 39.4687 207.744 35.8139 214.53C32.9944 219.764 30.6834 225.191 29.5214 231.046C29.5149 231.121 29.5084 231.198 29.4998 231.273C29.5734 231.261 29.6469 231.246 29.7205 231.233L29.727 231.235ZM166.584 119.22C167.062 118.213 167.56 117.216 168.014 116.198C170.903 109.704 173.788 103.208 176.666 96.7069C178.87 91.7258 181.175 86.7875 182.897 81.6093C183.174 80.7734 183.062 80.5526 182.142 80.4261C177.934 79.8453 174.015 78.4479 170.49 76.0516C168.956 75.0078 167.863 73.5632 166.883 71.9814C166.755 72.1272 166.677 72.1936 166.627 72.2772C162.802 78.7629 159.277 85.4072 155.975 92.1673C155.248 93.6548 154.343 95.1122 153.941 96.6897C153.328 99.0924 153.521 101.611 153.763 104.063C154.127 107.743 155.189 111.275 156.494 114.734C157.723 117.992 158.933 121.259 160.415 124.416C160.971 125.961 161.525 127.506 162.166 129.285C162.795 127.875 163.334 126.694 163.853 125.507C164.769 123.415 165.675 121.317 166.584 119.22ZM58.1124 146.063C58.7226 147.354 59.8781 148.095 61.0249 148.805C64.3659 150.875 68.1397 151.874 71.8702 152.956C76.001 154.157 80.2508 154.782 84.5006 155.363C87.0864 155.717 89.6527 156.212 92.3143 155.798C98.8101 154.789 105.133 153.222 111.172 150.601C120.964 146.351 129.134 140.126 135.1 131.257C139.644 124.502 142.628 117.253 141.802 108.909C141.512 105.975 140.91 103.105 139.718 100.383C139.131 98.7537 138.476 97.1655 137.091 96.0103C134.401 93.7619 131.48 91.8501 128.399 90.1697C124.988 88.3114 121.481 86.6547 117.932 85.0729C112.925 82.8395 107.842 80.8098 102.595 79.1959C99.4203 78.2185 96.4494 78.5936 93.5909 80.3168C89.9859 82.4902 86.844 85.2293 83.8017 88.0757C81.3262 90.3926 79.1126 92.9625 76.966 95.588C72.6383 100.882 68.9944 106.611 65.7876 112.619C62.6738 118.451 60.0491 124.504 57.8181 130.713C56.5523 134.236 55.3773 137.833 56.1022 141.67C56.4051 143.275 56.7124 144.925 58.1059 146.061L58.1124 146.063ZM67.3759 230.98C67.4494 231.07 67.523 231.16 67.5966 231.25C67.6637 231.263 67.7307 231.288 67.7956 231.288C73.4152 231.293 79.0347 231.288 84.6542 231.303C85.1822 231.303 85.5414 231.083 85.9006 230.735C93.4113 223.482 100.615 215.949 107.186 207.84C112.957 200.72 118.22 193.255 122.729 185.282C123.058 184.699 123.123 184.307 122.619 183.728C120.788 181.632 118.999 179.497 117.281 177.311C116.647 176.503 116.305 176.567 115.881 177.39C115.835 177.48 115.77 177.562 115.712 177.643C109.887 185.835 103.493 193.572 96.7545 201.035C88.8305 209.812 80.4801 218.186 72.0801 226.511C70.5437 228.033 68.9446 229.492 67.3737 230.98H67.3759ZM175.445 101.804C175.25 102.153 175.129 102.337 175.04 102.537C171.078 111.545 167.134 120.558 163.144 129.553C162.767 130.402 162.806 131.101 163.103 131.95C167.188 143.605 170.436 155.421 170.04 167.917C170.46 167.542 170.778 166.954 171.109 166.382C172.39 164.159 173.115 161.731 173.77 159.277C176.107 150.524 177.38 141.603 178.107 132.59C178.739 124.767 178.548 116.978 177.243 109.23C176.83 106.778 176.304 104.348 175.445 101.804ZM158.05 86.1403C156.7 86.181 155.787 86.7533 154.953 87.467C153.904 88.3629 153.134 89.4838 152.491 90.6841C150.061 95.2237 149.016 100.119 148.841 105.207C148.62 111.569 149.931 117.705 151.762 123.756C153.848 130.651 156.669 137.289 158.952 144.115C161.138 150.65 162.893 157.277 162.906 164.226C162.906 165.298 163.079 165.986 164.2 166.47C165.533 167.044 166.584 168.152 167.924 168.774C168.397 168.995 168.631 168.941 168.776 168.395C169.144 167.01 169.33 165.606 169.278 164.179C169.055 157.967 167.95 151.889 166.489 145.862C164.355 137.055 161.038 128.649 157.676 120.258C155.432 114.664 153.229 109.057 152.77 102.968C152.381 97.7828 153.186 92.8553 156.035 88.38C156.215 88.0993 156.442 87.632 156.659 87.6256C157.619 87.5999 157.559 86.7682 158.05 86.1424V86.1403ZM126.163 182.519C125.514 183.372 125.397 184.388 124.575 184.729C123.249 185.28 122.98 186.317 122.933 187.541C122.779 191.403 122.695 195.272 122.448 199.128C122.128 204.147 121.736 209.163 121.269 214.17C120.89 218.225 120.358 222.267 119.886 226.316C119.726 227.681 119.512 229.042 119.399 230.41C119.375 230.693 119.081 231.325 119.884 231.303C121.031 231.273 122.188 231.216 123.327 231.321C124.255 231.406 124.456 231.029 124.551 230.223C125.612 221.32 126.293 212.391 126.52 203.425C126.696 196.53 126.525 189.644 126.161 182.521L126.163 182.519ZM128.003 174.769C128.36 173.976 128.669 173.301 128.966 172.621C133.129 163.043 136.816 153.31 138.621 142.981C138.989 140.876 139.257 138.746 139.071 136.601C138.815 136.588 138.759 136.718 138.709 136.838C137.528 139.711 135.989 142.42 134.756 145.26C132.951 149.413 130.952 153.46 128.734 157.41C126.648 161.127 124.331 164.704 122.074 168.315C121.864 168.652 121.606 168.855 122.102 169.179C124.374 170.652 126.272 172.525 128.003 174.769ZM105.46 211.428C102.013 215.329 98.5353 219.172 94.9304 222.902C94.7616 223.077 94.6858 223.29 94.6036 223.517C93.7619 225.866 92.9158 228.213 92.0416 230.551C91.8317 231.113 91.8836 231.316 92.5566 231.308C94.8763 231.276 97.1959 231.271 99.5155 231.312C100.143 231.323 100.316 231.038 100.463 230.521C101.448 227.049 102.484 223.592 103.456 220.117C104.254 217.262 104.958 214.384 105.462 211.43L105.46 211.428ZM127.81 176.781C127.68 176.207 127.557 175.729 127.256 175.296C125.804 173.215 123.978 171.515 121.89 170.079C120.91 169.404 120.438 169.468 119.819 170.51C118.953 171.963 118.187 173.476 117.363 174.953C117.09 175.442 117.183 175.881 117.506 176.271C119.514 178.698 121.537 181.111 123.552 183.531C123.932 183.989 124.225 184.148 124.571 183.46C125.482 181.645 126.456 179.859 127.375 178.048C127.585 177.632 127.682 177.161 127.808 176.779L127.81 176.781ZM186.137 35.5449C186.232 35.4828 186.28 35.4678 186.282 35.4485C186.312 35.0112 186.347 34.5718 186.36 34.1325C186.474 30.193 186.297 26.2965 184.57 22.6421C183.458 20.2844 181.999 20.1516 180.403 22.2349C180.32 22.342 180.236 22.4492 180.164 22.5649C178.89 24.674 178.371 26.9823 178.288 29.4129C178.28 29.7044 178.34 29.9123 178.591 30.103C181.073 31.9806 183.581 33.8174 186.135 35.5449H186.137ZM141.328 101.864C141.637 103.135 141.947 104.408 142.256 105.679C142.373 104.307 142.104 103.025 141.328 101.864ZM103.586 191.8C103.709 191.688 103.804 191.637 103.839 191.558C103.867 191.493 103.824 191.397 103.811 191.315C103.744 191.375 103.655 191.423 103.612 191.498C103.577 191.562 103.594 191.656 103.586 191.8ZM112.243 180.753C112.224 180.727 112.207 180.702 112.187 180.676C112.165 180.699 112.12 180.734 112.124 180.742C112.146 180.779 112.181 180.809 112.209 180.841C112.22 180.811 112.23 180.783 112.243 180.753Z" fill="#0C0C0B"/>
<path d="M211.726 94.8764C211.646 94.7886 211.566 94.7028 211.486 94.615C211.629 93.8541 211.755 93.0868 211.917 92.3302C213.596 84.4449 216.647 77.1833 222.158 71.1434C226.032 66.8953 230.426 63.406 236.903 63.1166C236.368 62.9473 236.122 62.8594 235.869 62.7909C230.013 61.2155 224.301 59.2394 218.729 56.8646C210.504 53.3602 202.721 49.0736 195.405 43.9596C195.115 43.7581 194.66 43.6295 194.792 43.1451C194.907 42.7229 195.296 42.9351 195.573 42.8965C195.63 42.9737 195.686 43.0508 195.742 43.128C197.642 44.519 199.589 45.8457 201.652 46.9945C204.555 48.84 203.742 48.96 205.691 46.4266C205.754 46.3451 205.826 46.2722 205.882 46.1887C207.819 43.323 209.558 40.3588 210.374 36.9659C210.677 35.7099 210.43 34.4947 209.383 33.6566C208.338 32.8207 207.167 33.1444 206.126 33.7295C202.831 35.5835 200.033 38.014 197.754 41.019C197.278 41.379 197.069 42.0478 196.385 42.1635C196.073 41.7113 196.24 41.2933 196.478 40.8796C196.958 40.8496 197.077 40.4017 197.309 40.1209C199.36 37.6411 201.723 35.5106 204.419 33.7402C205.073 33.3094 205.743 32.9108 206.486 32.6386C208.983 31.7169 211.125 33.0994 211.305 35.7485C211.374 36.7816 211.134 37.7632 210.783 38.7235C209.53 42.1506 207.751 45.2949 205.473 48.1455C204.936 48.8185 204.949 49.0671 205.722 49.5065C215.745 55.1885 226.352 59.443 237.509 62.3772C239.162 62.8123 240.761 63.3824 242.183 64.3598C243.99 65.605 244.849 67.3004 244.972 69.4973C245.312 75.4986 242.972 80.5976 239.593 85.3108C235.672 90.7784 230.729 95.0201 224.19 97.1934C222.693 97.6906 221.15 97.965 219.581 98.0764C215.901 98.3358 213.76 96.6425 213.159 93.031C213.122 92.8146 213.224 92.5381 212.856 92.4073C212.588 92.9432 212.586 93.539 212.467 94.1048C212.38 94.5099 212.306 94.93 211.731 94.8829L211.726 94.8764ZM244.178 70.8755C244.243 68.655 243.838 66.6746 241.934 65.1657C240.564 64.079 238.969 64.1369 237.444 64.0447C233.172 63.7832 229.598 65.5729 226.458 68.2349C220.122 73.6061 215.844 80.2397 214.169 88.4122C213.869 89.8846 213.791 91.3592 213.977 92.851C214.321 95.6095 215.795 97.0412 218.595 97.2148C220.635 97.3413 222.606 96.8933 224.506 96.1967C230.825 93.8841 235.576 89.6253 239.339 84.2198C242.133 80.2075 244.026 75.8394 244.182 70.8755H244.178Z" fill="#100F0E"/>
<path d="M146.759 99.7439C147.109 100.38 146.789 101.103 146.988 101.836C147.549 101.272 147.38 100.522 147.705 99.9604C147.761 100.072 147.847 100.104 147.964 100.057C147.824 100.76 147.527 101.459 147.893 102.179C147.633 102.524 147.635 102.933 147.592 103.334C147.443 104.742 147.345 106.161 147.129 107.558C145.701 116.828 143.122 125.79 139.653 134.507C139.043 134.243 138.978 134.997 138.556 135.083C138.597 134.957 138.636 134.828 138.683 134.704C142.883 123.391 146.714 111.997 146.759 99.7439Z" fill="#100F0E"/>
<path d="M147.612 98.3272C147.153 97.9585 147.27 97.5427 147.508 97.1162C147.588 97.517 147.713 97.9114 147.612 98.3272Z" fill="#100F0E"/>
<path d="M3.19384 61.7899C5.18242 59.9317 7.70547 59.1944 10.2545 58.5621C16.4604 57.0232 22.7507 56.9353 29.0757 57.6105C36.6665 58.4206 44.0387 60.2682 51.3612 62.3236C52.4172 62.6194 53.1031 62.4415 53.8842 61.6656C58.1427 57.439 62.7106 53.5896 68.0856 50.7861C73.3914 48.0169 78.9871 46.5552 85.0264 47.1425C89.0836 47.539 92.8011 48.8292 96.0577 51.3112C96.1659 51.3927 96.2676 51.4827 96.3758 51.5684C96.6376 51.7742 96.9124 51.9135 97.1613 51.5641C97.3971 51.2319 97.0942 51.0733 96.8973 50.9104C95.5492 49.8045 94.0497 48.9407 92.4766 48.1884C91.7603 47.8455 90.6568 47.8626 90.4057 47.1382C90.185 46.4995 90.6005 45.6314 90.7736 44.8748C92.5328 37.221 95.7894 30.2595 100.617 24.0267C101.264 23.1929 101.974 22.4128 102.815 21.7676C104.761 20.278 106.455 20.3616 108.171 22.1127C111.012 25.0105 113.44 28.2297 115.554 31.6784C121.52 41.4048 124.638 51.9564 124.601 63.3439C124.595 65.1357 125.235 66.2716 126.367 67.4676C131.065 72.4251 135.723 77.4212 140.35 82.4452C143.054 85.3815 145.03 88.7465 146.01 92.6388C146.058 92.8274 146.069 93.0268 146.036 93.269C143.139 88.8644 138.567 86.6375 134.167 84.207C124.021 78.6 113.182 74.6992 102.073 71.4649C98.0268 70.2861 94.2509 70.8412 90.6892 73.0231C86.2598 75.7366 82.2199 78.9666 78.3466 82.3916C61.2933 97.4677 49.1368 115.731 42.0696 137.289C41.4356 139.22 40.979 141.194 40.6761 143.202C40.5657 143.133 40.3926 143.091 40.3558 142.994C38.7351 138.819 37.8566 134.472 37.6683 130.023C37.519 126.493 37.5926 122.954 37.439 119.422C37.3416 117.212 37.2247 114.992 37.3329 112.786C37.4 111.406 37.2702 110.01 37.4887 108.643C37.7873 106.78 36.9629 105.203 35.3054 104.416C33.1589 103.396 31.1335 102.159 29.1752 100.816C26.8988 99.251 25.0163 97.2341 22.9195 95.468C20.0589 93.0568 17.5099 90.3605 15.2076 87.4305C13.6366 85.433 12.4595 83.1953 11.1914 81.007C8.80255 76.8832 6.64519 72.6523 4.93142 68.2113C4.13295 66.1409 3.43187 64.0211 3.18951 61.7921L3.19384 61.7899Z" fill="#E7CDAA"/>
<path d="M139.72 100.383C140.912 103.105 141.514 105.975 141.804 108.909C142.63 117.253 139.644 124.502 135.102 131.257C129.137 140.126 120.966 146.351 111.174 150.601C105.135 153.224 98.8123 154.791 92.3164 155.798C89.6549 156.212 87.0886 155.717 84.5028 155.363C80.253 154.782 76.0032 154.157 71.8724 152.956C68.1419 151.872 64.3681 150.875 61.0271 148.805C59.8803 148.093 58.7226 147.352 58.1146 146.063C58.3872 145.583 58.4197 145.037 58.5452 144.516C58.8222 143.376 58.991 142.218 59.3826 141.097C59.982 139.376 60.7567 137.739 61.488 136.075C62.6003 133.544 63.4701 130.914 64.6516 128.402C66.8089 123.814 68.9339 119.212 71.7945 114.994C74.5793 110.885 77.0872 106.555 80.9519 103.283C81.9191 102.464 82.7046 101.388 83.9878 100.97C83.8515 102.005 83.6372 103.036 83.5918 104.073C83.3365 110.107 84.7062 115.819 87.3006 121.239C88.309 123.344 89.5164 125.367 91.5115 126.765C93.0803 127.862 94.7075 127.571 95.7461 125.983C96.8519 124.291 97.0207 122.341 97.0466 120.429C97.1159 115.082 95.9171 109.959 93.697 105.107C92.3619 102.185 90.9208 99.2531 87.5927 97.9521C87.7399 97.8128 87.8676 97.6478 88.0342 97.5406C90.8191 95.7317 93.6147 93.9613 96.6333 92.5295C100.597 90.6498 104.778 89.8225 109.114 89.5696C107.489 91.8329 107.145 94.4564 107.219 97.1012C107.347 101.656 108.325 106.069 110.064 110.296C111.179 113.003 112.516 115.579 114.782 117.561C116.692 119.233 118.648 118.856 119.761 116.58C120.271 115.534 120.574 114.417 120.646 113.268C121.061 106.525 119.574 100.175 116.396 94.227C115.413 92.3881 114.295 90.5748 112.295 89.5717C112.542 89.3017 112.873 89.3767 113.163 89.4046C114.647 89.5546 116.127 89.7582 117.614 89.8954C120.098 90.1247 122.487 90.7827 124.887 91.3957C127.401 92.0387 129.794 93.0011 132.097 94.1606C134.823 95.5345 137.156 97.4185 138.98 99.8811C139.16 100.123 139.387 100.342 139.722 100.383H139.72Z" fill="#504641"/>
<path d="M195.571 42.8922C195.294 42.9308 194.905 42.7186 194.79 43.1409C194.658 43.6252 195.112 43.7538 195.402 43.9553C202.718 49.0714 210.504 53.3581 218.727 56.8603C224.298 59.2351 230.013 61.2112 235.866 62.7866C236.12 62.8552 236.364 62.943 236.901 63.1124C230.424 63.4039 226.03 66.891 222.156 71.1391C216.645 77.1812 213.596 84.4427 211.915 92.3259C211.752 93.0846 211.627 93.8498 211.484 94.6107C210.426 94.8422 210.082 94.032 209.727 93.3525C208.331 90.6862 206.916 88.0328 205.358 85.4565C198.092 73.4453 189.038 62.9516 178.005 54.1961C177.053 53.4417 176.497 52.6465 175.908 51.7184C174.751 49.8859 173.061 48.6385 171.109 47.7404C170.514 47.4661 169.981 47.1274 169.462 46.7459C158.589 38.7428 146.545 33.2601 133.337 30.2788C129.491 29.4107 128.457 28.2169 128.715 24.3782C129.24 16.5508 132.043 9.72212 138.194 4.52027C140.499 2.57199 143.152 1.32243 146.268 1.23455C146.908 1.21526 147.326 1.42531 147.741 1.91827C158.115 14.2017 169.88 25.0083 182.984 34.3832C183.787 34.9576 184.572 35.5578 185.412 36.07C185.953 36.4001 185.996 36.638 185.598 37.131C183.557 39.6644 182.664 42.575 182.8 45.8029C182.815 46.1737 182.852 46.5466 182.917 46.911C183.471 49.9545 185.397 51.0883 188.342 50.0488C191.034 49.0972 192.36 47.0096 192.797 44.3497C192.933 43.5224 193.098 42.9844 193.985 42.7872C194.286 42.7208 194.831 42.5879 194.561 42.0585C194.351 41.6448 193.998 41.9234 193.671 41.9985C192.559 42.2514 192.064 42.7722 191.964 44.0325C191.735 46.9195 189.737 49.035 187.165 49.5001C185.444 49.8109 184.226 49.1057 183.899 47.4039C183.071 43.0937 184.243 39.3279 187.519 36.3787C190.354 33.8281 193.948 34.8719 195.225 38.4684C195.383 38.9099 195.461 39.3815 195.575 39.838C195.608 39.9494 195.64 40.0588 195.673 40.1702C195.638 41.0768 195.604 41.9835 195.569 42.8901L195.571 42.8922Z" fill="#FDFDFD"/>
<path d="M67.5879 178.687C69.8427 179.611 71.8377 180.97 73.8068 182.365C76.2541 184.099 78.5197 186.056 80.8026 187.991C81.0968 188.24 81.4366 188.846 81.8737 188.319C82.2545 187.863 81.6486 187.629 81.3738 187.389C77.401 183.919 73.3135 180.599 68.6006 178.128C68.962 176.889 70.0461 176.196 70.8662 175.337C72.4912 173.635 73.7765 171.642 75.6591 170.146C76.4749 169.498 77.626 169.153 78.0415 168.043C78.5154 168.084 78.8205 167.949 78.7231 167.398C80.2075 167.203 81.6335 166.755 83.0335 166.277C85.8162 165.325 88.6963 164.948 91.598 164.766C93.935 164.618 96.2763 164.897 98.5743 165.36C100.872 165.823 103.066 166.498 105.04 167.882C105.832 168.438 106.371 169.338 107.366 169.61C108.03 171.76 107.636 173.907 107.241 176.025C106.076 182.253 104.148 188.257 101.617 194.072C101.461 194.427 101.208 194.691 100.967 194.97C92.8098 204.452 84.0483 213.372 75.2047 222.218C72.37 225.053 69.5159 227.872 66.6704 230.699C66.3588 231.008 66.0775 231.308 65.5561 231.306C59.3761 231.28 53.1961 231.273 47.0162 231.261C47.3234 230.193 47.542 229.107 47.8904 228.046C48.2972 226.805 48.7256 225.561 48.9204 224.256C49.4289 220.868 50.0521 217.5 50.963 214.189C51.3828 212.663 51.8827 211.158 52.3241 209.643C53.2957 206.302 54.5507 203.072 55.8988 199.874C57.4027 196.301 59.058 192.792 60.8107 189.333C62.3211 186.354 63.8055 183.355 65.9888 180.76C66.5449 180.097 67.3283 179.579 67.5922 178.687H67.5879ZM87.2032 195.495C87.1556 195.368 87.1102 195.242 87.0626 195.116C86.3658 193.324 85.3185 191.761 83.951 190.407C83.7043 190.162 83.4187 189.89 83.0876 190.246C82.7782 190.582 83.1287 190.797 83.3343 190.996C84.4616 192.1 85.3531 193.367 86.011 194.796C86.1516 195.103 86.2663 195.422 86.4307 195.716C86.5324 195.9 86.7207 195.999 86.9501 195.891C87.1167 195.812 87.2162 195.688 87.2032 195.495Z" fill="#E7CDAA"/>
<path d="M146.759 99.744C146.714 111.997 142.886 123.393 138.683 134.704C138.638 134.828 138.599 134.957 138.556 135.083C136.292 139.996 134.064 144.925 131.753 149.816C128.786 156.098 125.11 161.986 121.345 167.818C121.208 168.028 121.152 168.403 120.817 168.358C120.401 168.303 120.511 167.891 120.449 167.617C119.531 163.596 120.219 159.731 121.624 155.938C122.983 152.262 125.133 149.015 127.256 145.757C128.92 143.202 130.857 140.776 132.079 137.996C133.233 135.372 134.966 133.171 136.485 130.809C139.696 125.822 141.934 120.487 142.7 114.559C142.985 112.349 143.383 110.161 143.446 107.923C143.598 102.64 141.509 98.4644 137.409 95.1122C132.67 91.2392 127.312 88.4336 121.812 85.8466C115.632 82.9403 109.342 80.3018 102.783 78.3278C98.9724 77.1812 95.4583 77.7899 92.2082 80.0575C86.355 84.1427 81.2332 88.9952 76.7021 94.4735C72.6946 99.3174 69.226 104.513 66.1792 109.995C62.5656 116.5 59.547 123.269 56.9894 130.237C55.8166 133.431 54.9164 136.708 55.0354 140.174C55.1609 143.824 56.6496 146.743 59.6271 148.914C62.3406 150.892 65.4998 151.88 68.6374 152.916C74.1336 154.731 79.8158 155.668 85.5392 156.398C91.7495 157.192 97.9489 158.049 104.001 159.699C104.99 159.969 105.968 160.28 106.942 160.604C110.281 161.714 111.772 163.742 112.053 167.524C112.429 172.587 112.131 177.596 110.787 182.515C110.709 182.802 110.61 183.113 110.428 183.34C108.405 185.895 106.364 188.435 104.326 190.979C104.222 191.11 104.127 191.258 103.893 191.217C103.674 190.837 103.971 190.525 104.092 190.209C105.981 185.233 107.424 180.136 108.279 174.883C108.569 173.104 108.682 171.316 108.307 169.533C107.533 165.838 104.932 164.132 101.446 163.506C97.3366 162.768 93.1733 162.58 89.0079 162.426C83.2391 162.213 77.4637 162.228 71.6992 161.885C63.9267 161.42 56.3099 160.259 49.1497 157.005C45.1661 155.194 42.2882 152.476 41.6044 147.986C41.1327 144.885 41.5741 141.837 42.4764 138.868C45.9321 127.498 51.1123 116.927 57.751 107.055C65.978 94.825 76.1005 84.3806 88.0839 75.7151C89.2113 74.9007 90.4425 74.2298 91.6326 73.5011C94.8178 71.5506 98.1978 71.227 101.766 72.2537C114.52 75.9166 126.817 80.6448 138.227 87.4648C139.573 88.2686 140.875 89.1345 142.079 90.144C143.957 91.7215 145.487 93.5519 146.333 95.8795C146.395 96.0832 146.456 96.2868 146.519 96.4904C146.532 96.6276 146.543 96.7626 146.556 96.8998C146.627 97.7099 146.696 98.5201 146.768 99.3303C146.765 99.4675 146.763 99.6046 146.759 99.744Z" fill="#84DDCF"/>
<path d="M149.202 118.009C149.816 119.188 149.936 120.508 150.286 121.762C152.197 128.597 154.902 135.16 157.262 141.839C159.292 147.581 161.066 153.385 161.78 159.457C162.014 161.437 162.179 163.422 162.06 165.501C159.132 164.734 156.247 164.719 153.4 165.728C150.052 166.916 147.2 168.804 144.978 171.58C144.831 171.764 144.699 171.963 144.56 172.156C144.403 172.381 144.385 172.613 144.623 172.78C144.859 172.945 145.075 172.851 145.244 172.636C145.697 172.066 146.062 171.419 146.798 170.924C147.434 174.402 148.027 177.782 148.484 181.184C148.22 181.248 147.958 181.334 147.689 181.372C144.405 181.827 141.473 183.046 139.002 185.275C134.799 189.067 132.317 193.883 130.991 199.239C129.853 203.835 130.093 208.456 131.798 212.957C133.356 217.074 136.247 219.931 140.215 221.708C143.968 223.388 147.938 224.087 152.065 223.806C152.285 226.099 152.162 228.401 152.238 230.697C152.266 231.537 151.664 231.284 151.253 231.286C144.692 231.297 138.132 231.295 131.571 231.295C130.032 231.295 128.496 231.295 126.958 231.295C125.618 231.295 125.239 230.965 125.419 229.582C127.02 217.175 127.633 204.713 127.392 192.211C127.325 188.726 127.139 185.245 126.971 181.763C126.94 181.13 127.044 180.59 127.328 180.022C127.994 178.687 129.009 177.444 128.544 175.759C128.466 175.476 128.782 175.078 128.935 174.739C132.936 165.915 136.381 156.898 138.61 147.459C139.413 144.061 139.969 140.628 139.993 137.126C140.531 136.931 140.694 136.418 140.923 135.985C142.412 133.186 144.05 130.469 145.404 127.599C146.527 125.217 147.581 122.819 148.41 120.318C148.663 119.55 148.436 118.605 149.2 118.014L149.202 118.009Z" fill="#E7CDAA"/>
<path d="M107.364 169.608C106.366 169.338 105.83 168.438 105.038 167.88C103.064 166.496 100.868 165.823 98.5721 165.358C96.2741 164.892 93.9328 164.616 91.5959 164.764C88.6963 164.946 85.8162 165.323 83.0313 166.275C81.6335 166.753 80.2053 167.201 78.7209 167.396C75.631 166.296 72.4241 165.641 69.226 164.97C62.0009 163.456 54.674 162.7 47.3278 162.074C42.2903 161.643 37.3048 160.942 32.5919 158.947C26.6825 156.443 22.9498 152.069 21.0023 146.066C19.2453 140.649 18.8904 135.057 18.819 129.438C18.7087 120.661 19.5785 111.959 21.0435 103.308C21.1517 102.663 21.3226 102.419 21.9977 102.858C22.7356 103.336 23.5557 103.686 24.339 104.095C24.6246 104.243 24.9341 104.391 25.1158 103.998C25.2608 103.683 25.0228 103.527 24.7501 103.394C16.151 99.2124 10.921 92.0087 6.86157 83.7697C4.70638 79.3952 2.91903 74.8707 1.44329 70.2261C0.991041 68.8008 0.729215 67.339 0.92829 65.8301C1.14467 64.184 1.87822 62.8273 3.19817 61.7921C3.44052 64.0211 4.14161 66.1409 4.94007 68.2113C6.65384 72.6502 8.81337 76.8832 11.2001 81.007C12.4681 83.1953 13.6452 85.4308 15.2162 87.4306C17.5185 90.3605 20.0676 93.0568 22.9282 95.468C25.0249 97.2363 26.9075 99.2531 29.1839 100.816C31.14 102.159 33.1675 103.396 35.3141 104.416C36.9716 105.205 37.796 106.783 37.4974 108.643C37.2788 110.01 37.4087 111.404 37.3416 112.786C37.2334 114.992 37.3524 117.21 37.4476 119.422C37.6013 122.956 37.5277 126.495 37.677 130.023C37.8652 134.472 38.7438 138.819 40.3645 142.994C40.4013 143.091 40.5744 143.133 40.6847 143.202C40.49 144.955 40.4748 146.706 40.7821 148.451C41.4248 152.084 43.4739 154.735 46.618 156.611C50.13 158.705 53.9708 159.952 57.935 160.878C63.5047 162.179 69.1719 162.672 74.8715 162.895C81.2137 163.144 87.5668 163.081 93.9004 163.531C96.722 163.733 99.5588 163.857 102.318 164.554C105.252 165.293 107.057 167.132 107.368 169.608H107.364Z" fill="#CEB18B"/>
<path d="M160.415 124.414C158.933 121.257 157.723 117.99 156.494 114.732C155.189 111.273 154.127 107.741 153.763 104.061C153.521 101.611 153.328 99.0924 153.941 96.6876C154.343 95.1101 155.248 93.6548 155.975 92.1652C159.277 85.4051 162.8 78.7608 166.627 72.2751C166.677 72.1915 166.755 72.1251 166.883 71.9793C167.865 73.5611 168.956 75.0057 170.49 76.0495C174.015 78.4457 177.934 79.8432 182.142 80.424C183.062 80.5505 183.174 80.7712 182.897 81.6071C181.175 86.7854 178.871 91.7236 176.666 96.7047C173.788 103.203 170.903 109.702 168.014 116.196C167.562 117.214 167.062 118.211 166.586 119.218C166.368 119.259 166.257 119.422 166.117 119.574C164.422 121.424 162.557 123.078 160.415 124.414Z" fill="#504641"/>
<path d="M67.3759 230.98C68.9468 229.492 70.5459 228.033 72.0822 226.511C80.4823 218.186 88.8326 209.812 96.7566 201.035C103.495 193.572 109.889 185.833 115.714 177.643C115.773 177.56 115.837 177.48 115.883 177.39C116.307 176.567 116.649 176.503 117.283 177.311C119.001 179.497 120.791 181.632 122.621 183.728C123.125 184.305 123.06 184.699 122.732 185.282C118.222 193.257 112.96 200.72 107.189 207.84C100.617 215.951 93.4135 223.482 85.9028 230.735C85.5436 231.083 85.1822 231.303 84.6564 231.303C79.0369 231.291 73.4173 231.293 67.7978 231.288C67.7307 231.288 67.6636 231.263 67.5987 231.25C67.5252 231.16 67.4516 231.07 67.378 230.98H67.3759Z" fill="#FDFDFD"/>
<path d="M109.114 89.5696C104.776 89.8203 100.597 90.6477 96.6333 92.5295C93.6126 93.9612 90.8169 95.7316 88.0341 97.5406C87.8675 97.6499 87.7377 97.8128 87.5927 97.9521C85.7037 97.8299 84.8836 99.0945 84.1933 100.526C84.0332 100.631 83.9618 100.779 83.9791 100.97H83.9856C82.7024 101.388 81.9169 102.464 80.9497 103.283C77.0851 106.555 74.5772 110.885 71.7923 114.994C68.9317 119.212 66.8068 123.813 64.6494 128.402C63.4679 130.914 62.5981 133.546 61.4858 136.075C60.7545 137.739 59.9798 139.376 59.3804 141.097C58.9888 142.218 58.82 143.378 58.543 144.516C58.4153 145.037 58.385 145.581 58.1124 146.063C56.7189 144.925 56.4116 143.275 56.1087 141.672C55.3816 137.835 56.5588 134.239 57.8246 130.715C60.0555 124.506 62.6803 118.453 65.7941 112.621C69.0009 106.611 72.6448 100.884 76.9725 95.5902C79.1191 92.9646 81.3327 90.3926 83.8081 88.0778C86.8505 85.2315 89.9924 82.4923 93.5974 80.319C96.4559 78.5957 99.4247 78.2207 102.601 79.198C107.849 80.8141 112.929 82.8438 117.939 85.075C121.487 86.6568 124.995 88.3136 128.405 90.1718C131.486 91.8522 134.408 93.7641 137.097 96.0124C138.482 97.1698 139.138 98.758 139.724 100.385C139.391 100.344 139.162 100.125 138.982 99.8833C137.158 97.4184 134.827 95.5366 132.099 94.1627C129.796 93.0032 127.401 92.0387 124.889 91.3978C122.489 90.7848 120.1 90.1268 117.616 89.8975C116.13 89.7603 114.65 89.5567 113.165 89.4067C112.875 89.3767 112.544 89.3038 112.297 89.5739C111.237 88.9652 110.179 89.1409 109.119 89.5739L109.114 89.5696Z" fill="#2F1F1A"/>
<path d="M67.5879 178.687C67.3239 179.579 66.5406 180.097 65.9845 180.759C63.8012 183.355 62.3168 186.351 60.8064 189.333C59.0537 192.792 57.3983 196.301 55.8945 199.874C54.5485 203.072 53.2935 206.302 52.3198 209.643C51.8784 211.16 51.3785 212.663 50.9587 214.189C50.0456 217.498 49.4245 220.865 48.916 224.256C48.7213 225.559 48.2928 226.805 47.886 228.046C47.5377 229.106 47.3191 230.193 47.0118 231.261C41.2495 231.254 35.4893 231.246 29.727 231.239C29.6599 231.177 29.5928 231.115 29.5258 231.05C30.6899 225.197 33.0009 219.77 35.8204 214.534C39.4751 207.748 44.0387 201.554 48.5525 195.326C52.8867 189.346 57.3745 183.462 60.7437 176.857C60.8432 176.664 60.8194 176.344 61.2695 176.469C63.429 177.067 65.6188 177.566 67.5901 178.687H67.5879Z" fill="#CEB18B"/>
<path d="M175.445 101.804C176.304 104.348 176.832 106.778 177.243 109.23C178.548 116.978 178.739 124.767 178.107 132.59C177.38 141.601 176.107 150.524 173.77 159.277C173.115 161.731 172.39 164.159 171.109 166.382C170.778 166.956 170.46 167.542 170.04 167.917C170.436 155.421 167.188 143.605 163.103 131.95C162.806 131.101 162.767 130.402 163.144 129.553C167.134 120.558 171.081 111.545 175.04 102.537C175.129 102.337 175.25 102.153 175.445 101.804Z" fill="#CEB08A"/>
<path d="M158.05 86.1403C157.559 86.764 157.621 87.5977 156.659 87.6234C156.442 87.6299 156.215 88.0971 156.035 88.3779C153.186 92.851 152.381 97.7807 152.77 102.965C153.229 109.055 155.432 114.661 157.676 120.256C161.04 128.647 164.355 137.053 166.489 145.86C167.95 151.887 169.055 157.967 169.278 164.177C169.33 165.604 169.144 167.008 168.776 168.393C168.631 168.939 168.397 168.993 167.924 168.772C166.584 168.148 165.533 167.042 164.2 166.468C163.079 165.986 162.908 165.298 162.906 164.224C162.893 157.273 161.136 150.648 158.952 144.113C156.669 137.286 153.85 130.646 151.762 123.753C149.931 117.703 148.618 111.567 148.841 105.205C149.018 100.117 150.063 95.2215 152.491 90.682C153.134 89.4817 153.904 88.3607 154.953 87.4648C155.787 86.7511 156.7 86.181 158.05 86.1381V86.1403Z" fill="#84DDCF"/>
<path d="M187.123 75.9852C187.167 76.7396 186.959 77.4491 186.73 78.1564C186.435 79.0673 185.784 79.646 184.86 79.6245C178.656 79.4852 173.061 77.7877 168.733 73.1045C167.833 72.1315 167.305 70.9119 166.997 69.6023C166.606 67.9241 167.097 66.6188 168.503 65.6329C168.958 65.7979 169.425 65.9094 169.823 65.5386C170.483 64.9235 171.176 64.3276 171.741 63.6332C172.093 63.1981 172.15 62.6237 171.397 62.3751C170.198 61.6099 168.977 60.879 167.807 60.0753C165.656 58.5964 163.925 56.7831 163.31 54.1533C162.847 52.1771 163.312 50.4239 164.849 49.0929C166.394 47.7533 168.302 47.5647 170.139 48.272C172.747 49.2772 174.921 50.8675 175.878 53.6582C176.168 54.5026 176.73 55.0985 177.529 55.4971C178.234 55.8486 178.881 56.2752 179.314 56.9524C179.301 57.5526 179.68 57.8955 180.175 58.0863C181.729 58.6864 182.744 59.8138 183.464 61.252C183.888 62.0986 184.293 62.9538 184.906 63.6911C185.602 64.5291 185.903 65.5493 186.048 66.5824C186.206 67.7205 186.271 68.8993 185.033 69.6302C184.68 69.8381 184.62 70.2325 184.62 70.6183C184.442 70.5218 184.267 70.4211 184.088 70.3289C183.806 70.1832 183.51 69.8403 183.213 70.2453C182.917 70.6483 183.373 70.8133 183.562 71.0555C183.068 71.2591 182.947 71.4285 183.43 71.8786C184.65 73.0145 185.974 74.0798 186.656 75.6701C186.745 75.8759 186.909 75.9723 187.128 75.9873L187.123 75.9852Z" fill="#FDFDFD"/>
<path d="M117.815 231.175C112.629 231.175 107.442 231.16 102.255 231.198C101.385 231.205 101.216 230.975 101.465 230.189C103.545 223.622 105.341 216.98 106.745 210.239C106.883 209.568 107.299 209.084 107.699 208.593C112.276 203.003 116.521 197.18 120.321 191.043C120.405 190.906 120.557 190.807 120.678 190.692C120.271 204.225 119.527 217.734 117.815 231.175Z" fill="#504641"/>
<path d="M152.065 223.804C147.938 224.085 143.968 223.386 140.215 221.706C136.245 219.927 133.356 217.072 131.798 212.954C130.093 208.453 129.853 203.83 130.991 199.237C132.32 193.881 134.799 189.065 139.002 185.273C141.473 183.044 144.405 181.825 147.689 181.37C147.958 181.334 148.217 181.246 148.484 181.182C148.871 183.522 149.221 185.869 149.427 188.235C146.125 188.375 143.675 190.053 141.808 192.584C138.735 196.749 137.039 201.387 137.515 206.617C137.887 210.721 139.543 214.037 143.74 215.554C146.35 216.497 149.009 217.177 151.831 216.75C152.056 219.097 152.078 221.451 152.067 223.806L152.065 223.804Z" fill="#86DFD0"/>
<path d="M151.829 216.75C149.007 217.177 146.348 216.497 143.738 215.554C139.54 214.037 137.885 210.721 137.513 206.617C137.037 201.387 138.733 196.749 141.806 192.584C143.673 190.053 146.123 188.375 149.425 188.235C149.875 191.148 150.228 194.072 150.405 197.014C149.652 196.991 148.914 196.999 148.204 197.332C146.092 198.32 144.786 199.863 144.405 202.214C144.223 203.342 144.422 204.295 145.045 205.176C146.579 207.347 148.771 208.196 151.377 208.16C151.587 211.021 151.827 213.88 151.827 216.75H151.829Z" fill="#E6CCAA"/>
<path d="M130.725 138.538C130.244 139.659 129.552 140.658 128.886 141.67C126.611 145.11 124.218 148.483 122.344 152.159C120.715 155.355 119.533 158.696 119.185 162.329C118.999 164.288 119.274 166.133 119.592 168.022C119.683 168.564 120.038 169.353 119.059 169.614C118.57 167.942 118.051 166.281 117.61 164.597C117.443 163.96 117.201 163.39 116.818 162.867C114.909 160.246 111.711 160.01 108.818 160.449C105.012 158.823 100.987 157.995 96.9471 157.202C95.9019 156.996 94.8135 156.943 93.7056 156.508C100.139 155.498 106.237 153.803 112.09 151.231C117.043 149.053 121.587 146.241 125.785 142.872C127.187 141.747 128.496 140.508 129.745 139.211C130.017 138.926 130.244 138.547 130.718 138.534L130.725 138.538Z" fill="#2F1F1A"/>
<path d="M126.163 182.519C126.527 189.641 126.698 196.526 126.523 203.423C126.293 212.389 125.614 221.318 124.553 230.221C124.458 231.027 124.257 231.404 123.329 231.318C122.191 231.213 121.033 231.271 119.886 231.301C119.083 231.323 119.378 230.69 119.401 230.407C119.512 229.038 119.728 227.679 119.888 226.314C120.36 222.267 120.892 218.225 121.271 214.168C121.738 209.161 122.13 204.145 122.45 199.126C122.697 195.268 122.781 191.401 122.935 187.539C122.983 186.313 123.251 185.275 124.577 184.727C125.4 184.386 125.519 183.37 126.166 182.517L126.163 182.519Z" fill="#83DCCD"/>
<path d="M128.003 174.769C126.272 172.525 124.374 170.652 122.102 169.179C121.606 168.858 121.862 168.654 122.074 168.315C124.333 164.704 126.648 161.127 128.734 157.41C130.952 153.46 132.951 149.413 134.756 145.26C135.989 142.418 137.528 139.708 138.709 136.839C138.759 136.721 138.815 136.588 139.071 136.601C139.257 138.746 138.989 140.874 138.621 142.981C136.816 153.31 133.129 163.043 128.966 172.621C128.669 173.301 128.36 173.974 128.003 174.769Z" fill="#FDFDFD"/>
<path d="M78.0393 168.043C77.6239 169.153 76.4727 169.498 75.6569 170.146C73.7744 171.64 72.489 173.635 70.864 175.337C70.0439 176.196 68.9598 176.889 68.5984 178.128C66.2701 177.082 63.9029 176.147 61.3127 175.691C62.2454 173.38 63.1369 171.127 63.5523 168.723C63.7189 167.756 63.9375 166.787 63.8985 165.81C63.8661 164.989 64.1798 164.828 64.9134 164.972C68.6915 165.716 72.4717 166.453 76.1827 167.484C76.8059 167.657 77.4205 167.855 78.0393 168.041V168.043Z" fill="#CEB08A"/>
<path d="M105.46 211.428C104.956 214.382 104.254 217.262 103.454 220.115C102.48 223.59 101.446 227.049 100.461 230.519C100.314 231.035 100.143 231.321 99.5134 231.31C97.1938 231.271 94.8741 231.273 92.5545 231.306C91.8815 231.314 91.8296 231.111 92.0395 230.549C92.9137 228.213 93.7619 225.864 94.6015 223.515C94.6837 223.287 94.7594 223.075 94.9282 222.899C98.5332 219.17 102.01 215.327 105.458 211.426L105.46 211.428Z" fill="#83DCCD"/>
<path d="M127.81 176.782C127.682 177.163 127.587 177.635 127.377 178.05C126.458 179.861 125.484 181.647 124.573 183.462C124.227 184.15 123.935 183.992 123.554 183.533C121.539 181.113 119.516 178.7 117.508 176.274C117.186 175.883 117.093 175.444 117.365 174.955C118.19 173.477 118.956 171.965 119.821 170.512C120.44 169.473 120.912 169.408 121.892 170.081C123.98 171.515 125.806 173.217 127.258 175.298C127.561 175.731 127.682 176.209 127.812 176.784L127.81 176.782Z" fill="#4B3111"/>
<path d="M108.82 160.449C111.713 160.01 114.914 160.246 116.82 162.867C117.201 163.392 117.445 163.96 117.612 164.597C118.051 166.279 118.573 167.942 119.062 169.614C118.791 170.607 118.19 171.442 117.755 172.358C116.489 175.026 114.844 177.465 113.063 179.816C112.893 180.041 112.748 180.459 112.388 180.264C112.144 180.132 112.319 179.774 112.369 179.512C113.278 174.694 113.511 169.867 112.477 165.04C112.027 162.94 110.841 161.354 108.822 160.449H108.82Z" fill="#504641"/>
<path d="M149.202 118.009C148.438 118.603 148.665 119.548 148.412 120.313C147.583 122.815 146.53 125.213 145.407 127.594C144.052 130.466 142.412 133.184 140.925 135.981C140.696 136.414 140.534 136.926 139.995 137.121C139.897 136.416 139.802 135.709 139.705 135.004C139.709 134.967 139.705 134.933 139.687 134.899L139.657 134.507C143.126 125.79 145.705 116.831 147.133 107.559C147.35 106.159 147.447 104.742 147.596 103.334C147.64 102.933 147.637 102.524 147.897 102.179C148.548 102.187 148.137 102.663 148.124 102.837C147.943 105.197 147.91 107.548 148.109 109.912C148.308 112.267 148.635 114.597 149.131 116.908C149.206 117.263 149.182 117.641 149.206 118.007L149.202 118.009Z" fill="#CEB08A"/>
<path d="M186.137 35.5449C183.586 33.8174 181.075 31.9806 178.594 30.103C178.343 29.9122 178.28 29.7043 178.291 29.4129C178.371 26.9823 178.892 24.6718 180.167 22.5649C180.236 22.4492 180.322 22.342 180.405 22.2349C182.002 20.1515 183.458 20.2866 184.572 22.6421C186.297 26.2965 186.476 30.193 186.362 34.1325C186.349 34.5718 186.314 35.0091 186.284 35.4485C186.284 35.4677 186.234 35.4827 186.139 35.5449H186.137Z" fill="#FDFDFD"/>
<path d="M151.379 208.158C148.773 208.194 146.582 207.345 145.047 205.174C144.424 204.293 144.225 203.339 144.407 202.212C144.788 199.861 146.095 198.318 148.207 197.33C148.914 196.997 149.654 196.989 150.407 197.012C150.825 199.707 150.944 202.429 151.195 205.138C151.288 206.141 151.32 207.15 151.381 208.156L151.379 208.158Z" fill="#86DFD0"/>
<path d="M184.618 70.6183C184.618 70.2325 184.68 69.8381 185.031 69.6302C186.269 68.8993 186.204 67.7205 186.046 66.5824C185.903 65.5493 185.6 64.5312 184.903 63.691C184.291 62.9537 183.886 62.0964 183.462 61.2519C182.742 59.8138 181.725 58.6864 180.173 58.0863C179.678 57.8955 179.301 57.5526 179.312 56.9524C179.717 56.8753 180.048 56.8688 180.422 57.1925C184.289 60.5361 187.902 64.1304 191.341 67.9005C191.622 68.2092 191.577 68.3892 191.393 68.7214C189.869 71.4756 187.214 72.2301 184.618 70.6183Z" fill="#FBF2ED"/>
<path d="M117.815 231.175C119.527 217.734 120.269 204.225 120.678 190.692C120.823 189.969 121.383 189.483 121.825 188.866C121.825 190.417 121.831 191.967 121.821 193.519C121.818 193.853 121.719 194.185 121.712 194.52C121.617 198.901 121.299 203.267 120.899 207.628C120.596 210.946 120.397 214.273 120.042 217.586C119.65 221.228 119.133 224.856 118.672 228.491C118.579 229.227 118.512 229.964 118.415 230.697C118.371 231.023 118.369 231.449 117.817 231.175H117.815Z" fill="#2F1F1A"/>
<path d="M160.415 124.414C162.557 123.078 164.422 121.426 166.117 119.574C166.257 119.422 166.368 119.259 166.586 119.218C165.675 121.314 164.771 123.411 163.856 125.505C163.336 126.694 162.797 127.875 162.168 129.283C161.527 127.502 160.971 125.957 160.417 124.414H160.415Z" fill="#2F1F1A"/>
<path d="M201.649 46.9903C199.587 45.8414 197.642 44.5147 195.74 43.1237C196.497 43.1559 196.387 42.6243 196.383 42.1592C197.066 42.0435 197.276 41.3726 197.752 41.0147C198.646 42.545 199.579 44.0475 200.693 45.4364C201.069 45.9079 201.788 46.2015 201.649 46.9903Z" fill="#FBF2ED"/>
<path d="M187.123 75.9852C186.903 75.9723 186.738 75.8737 186.652 75.668C185.97 74.0755 184.646 73.0103 183.425 71.8764C182.943 71.4285 183.066 71.257 183.557 71.0534C184.633 71.5914 185.65 72.2837 186.914 72.3373C187.245 72.3523 187.29 72.5602 187.288 72.8088C187.273 73.8697 187.47 74.9414 187.126 75.9852H187.123Z" fill="#FBF2ED"/>
<path d="M171.397 62.3729C172.15 62.6216 172.093 63.196 171.741 63.6311C171.176 64.3255 170.483 64.9213 169.823 65.5365C169.425 65.9073 168.958 65.7958 168.503 65.6308C169.179 64.8378 170.02 64.154 170.217 63.0502C170.274 62.7352 170.425 62.6816 170.713 62.8187C171.165 63.0331 171.325 62.7587 171.394 62.3708L171.397 62.3729Z" fill="#FBF2ED"/>
<path d="M141.328 101.864C142.104 103.025 142.373 104.307 142.256 105.679C141.947 104.408 141.637 103.135 141.328 101.864Z" fill="#CEB08A"/>
<path d="M146.768 99.3324C146.696 98.5222 146.627 97.7121 146.556 96.9019C147.28 97.6563 146.891 98.5051 146.768 99.3324Z" fill="#100F0E"/>
<path d="M146.519 96.4925C146.456 96.2889 146.395 96.0853 146.333 95.8817C146.419 95.7509 146.506 95.6223 146.69 95.3416C146.701 95.8324 146.826 96.1775 146.519 96.4925Z" fill="#100F0E"/>
<path d="M103.586 191.8C103.597 191.656 103.577 191.562 103.612 191.498C103.653 191.423 103.742 191.375 103.811 191.315C103.824 191.397 103.867 191.493 103.839 191.558C103.804 191.635 103.709 191.686 103.586 191.8Z" fill="#84DDCF"/>
<path d="M130.72 138.534L130.798 138.277C130.824 138.294 130.848 138.309 130.874 138.326C130.824 138.397 130.777 138.467 130.727 138.54L130.72 138.536V138.534Z" fill="#2F1F1A"/>
<path d="M112.244 180.753C112.233 180.783 112.222 180.811 112.209 180.841C112.179 180.809 112.144 180.779 112.124 180.743C112.12 180.734 112.166 180.7 112.187 180.676C112.207 180.702 112.224 180.728 112.244 180.753Z" fill="#504641"/>
<path d="M139.687 134.901C139.704 134.936 139.708 134.971 139.704 135.008C139.641 134.999 139.575 134.991 139.512 134.982C139.571 134.956 139.63 134.929 139.687 134.901Z" fill="#100F0E"/>
<path d="M244.178 70.8755C244.024 75.8394 242.129 80.2054 239.335 84.2198C235.572 89.6253 230.822 93.8841 224.502 96.1968C222.602 96.8912 220.631 97.3413 218.59 97.2148C215.79 97.0412 214.317 95.6073 213.973 92.851C213.786 91.3614 213.864 89.8847 214.165 88.4122C215.84 80.2375 220.118 73.604 226.454 68.2349C229.593 65.5729 233.168 63.7832 237.44 64.0447C238.965 64.139 240.56 64.079 241.93 65.1657C243.834 66.6767 244.238 68.655 244.173 70.8755H244.178Z" fill="#E4DAD1"/>
<path d="M201.649 46.9903C201.788 46.1994 201.069 45.9079 200.693 45.4364C199.579 44.0475 198.646 42.545 197.752 41.0147C200.033 38.0097 202.831 35.5792 206.124 33.7252C207.165 33.1401 208.336 32.8164 209.381 33.6523C210.428 34.4904 210.675 35.7057 210.372 36.9616C209.556 40.3545 207.816 43.3209 205.88 46.1844C205.823 46.268 205.75 46.3408 205.689 46.4223C203.74 48.9578 204.553 48.8357 201.649 46.9903Z" fill="#FDFDFD"/>
<path d="M84.1933 100.526C84.8836 99.0945 85.7037 97.8278 87.5927 97.9521C90.9186 99.251 92.3597 102.185 93.6948 105.107C95.9127 109.959 97.1137 115.079 97.0444 120.429C97.0185 122.341 96.8519 124.291 95.744 125.983C94.7053 127.571 93.0781 127.862 91.5093 126.765C89.5142 125.367 88.3046 123.344 87.2984 121.239C84.7018 115.819 83.3321 110.107 83.5896 104.073C83.6329 103.036 83.8493 102.003 83.9856 100.97H83.9791C84.1847 100.886 84.176 100.7 84.1933 100.526ZM96.3369 119.668C96.2784 115.133 95.3025 110.776 93.5931 106.585C92.5328 103.988 91.3319 101.437 89.0966 99.5767C87.2876 98.07 85.879 98.4515 84.9896 100.625C84.4054 102.054 84.2214 103.568 84.2193 105.085C84.2063 110.253 85.3445 115.189 87.4413 119.904C88.4042 122.071 89.5186 124.171 91.3535 125.766C93.2274 127.395 94.8005 126.966 95.6488 124.658C96.2416 123.044 96.352 121.366 96.3369 119.668Z" fill="#0C0C0B"/>
<path d="M109.114 89.5696C110.175 89.1388 111.235 88.963 112.293 89.5696C114.295 90.5726 115.411 92.3859 116.396 94.2249C119.574 100.173 121.061 106.521 120.646 113.266C120.574 114.415 120.273 115.53 119.761 116.578C118.648 118.854 116.692 119.233 114.782 117.559C112.516 115.577 111.177 113 110.064 110.293C108.325 106.067 107.347 101.654 107.219 97.0991C107.145 94.4563 107.489 91.8308 109.114 89.5674V89.5696ZM120.081 110.818C119.856 105.083 118.551 99.6239 115.788 94.5442C114.944 92.9925 113.974 91.5114 112.503 90.459C110.943 89.3424 109.694 89.6789 108.872 91.3957C108.249 92.6967 108.026 94.0984 107.972 95.5173C107.779 100.659 108.874 105.569 110.828 110.3C111.837 112.739 113.003 115.118 115.067 116.891C116.993 118.543 118.583 118.099 119.401 115.714C119.944 114.132 120.109 112.488 120.081 110.818Z" fill="#0C0C0B"/>
<path d="M87.2032 195.493C87.2162 195.686 87.1167 195.81 86.9501 195.889C86.7207 195.999 86.5324 195.898 86.4307 195.713C86.2663 195.42 86.1516 195.101 86.0109 194.794C85.3531 193.364 84.4616 192.1 83.3343 190.994C83.1309 190.795 82.7782 190.58 83.0876 190.244C83.4165 189.886 83.7043 190.16 83.951 190.404C85.3185 191.759 86.368 193.322 87.0626 195.113C87.1123 195.24 87.1578 195.366 87.2032 195.493Z" fill="#E7CDAA"/>
<path d="M84.1933 100.526C84.176 100.7 84.1847 100.884 83.9791 100.97C83.9618 100.779 84.0332 100.633 84.1933 100.526Z" fill="#504641"/>
<path d="M96.3369 119.668C96.352 121.366 96.2417 123.044 95.6488 124.658C94.8005 126.968 93.2274 127.395 91.3535 125.766C89.5186 124.171 88.4063 122.071 87.4413 119.904C85.3445 115.187 84.2063 110.251 84.2193 105.085C84.2236 103.568 84.4054 102.054 84.9896 100.625C85.879 98.4515 87.2876 98.0722 89.0966 99.5768C91.3319 101.437 92.5328 103.988 93.5931 106.585C95.3025 110.776 96.2784 115.131 96.3369 119.668Z" fill="#FDFDFD"/>
<path d="M120.081 110.818C120.111 112.49 119.944 114.132 119.401 115.714C118.583 118.099 116.993 118.543 115.067 116.891C113.003 115.118 111.837 112.739 110.828 110.3C108.874 105.569 107.777 100.659 107.972 95.5173C108.026 94.0963 108.247 92.6967 108.872 91.3957C109.694 89.681 110.941 89.3445 112.503 90.459C113.974 91.5114 114.942 92.9925 115.788 94.5442C118.553 99.6218 119.858 105.083 120.081 110.818Z" fill="#FDFDFD"/>
<path d="M217.177 79.7253C219.776 75.0828 223.377 70.4254 228.52 68.4214C229.868 67.8963 231.329 67.504 232.789 67.6155C234.105 67.7141 235.297 68.3314 236.089 69.3816C237.591 71.3684 237.678 74.1291 237.357 76.491C236.656 81.6393 233.614 86.4446 229.264 89.3424C228.196 90.0561 227.038 90.6927 225.813 91.102C224.632 91.4986 223.314 91.7343 222.076 91.4728C220.838 91.2114 219.813 90.4183 219.384 89.2352C218.954 88.0499 219.099 86.7361 219.445 85.5465C219.834 84.2134 220.52 82.9788 221.291 81.8279C222.117 80.5933 223.093 79.4616 224.188 78.4543C225.071 77.6441 226.458 76.2381 227.687 77.2454C228.773 78.1371 228.68 79.6117 228.124 80.7648C227.806 81.4228 227.384 82.0229 226.958 82.6166C226.715 82.9553 227.278 83.2768 227.518 82.9403C228.39 81.7186 229.39 80.274 229.167 78.6965C228.996 77.4834 228.018 76.1974 226.674 76.2402C225.878 76.2659 225.218 76.7461 224.625 77.2262C224 77.732 223.409 78.2764 222.855 78.8572C221.758 80.0039 220.799 81.2835 220.016 82.6595C218.735 84.9057 217.593 88.1978 219.356 90.5126C221.12 92.8274 224.456 92.403 226.841 91.3957C229.414 90.3069 231.712 88.5258 233.514 86.4189C235.336 84.2906 236.706 81.785 237.472 79.0973C238.205 76.5253 238.508 73.6061 237.649 71.0255C237.249 69.8231 236.576 68.7086 235.544 67.9413C234.278 67.0003 232.66 66.8289 231.134 67.0432C228.234 67.4483 225.523 68.9894 223.327 70.8519C221.131 72.7145 219.265 75.0828 217.718 77.5477C217.337 78.1564 216.972 78.7758 216.621 79.4016C216.418 79.7639 216.978 80.0875 217.182 79.7253H217.177Z" fill="#444444"/>
<path d="M27.2913 155.439C27.2913 155.439 27.2864 155.434 27.284 155.432L27.2913 155.439Z" fill="#030403"/>
<path d="M27.3944 155.488C27.3944 155.488 27.3944 155.488 27.3944 155.485L27.3991 155.49L27.3944 155.488Z" fill="#030403"/>
<path d="M28.0132 165.062L28.0156 165.06V165.057L28.0132 165.062Z" fill="#030403"/>
<path d="M28.2233 164.601C28.2233 164.601 28.2233 164.601 28.2257 164.599C28.2257 164.599 28.2257 164.599 28.2257 164.597L28.2209 164.601H28.2233Z" fill="#030403"/>
<path d="M36.2637 162.846L36.2532 162.856L36.2637 162.846Z" fill="#030403"/>
<path d="M28.1777 164.711C28.1777 164.711 28.1801 164.709 28.1826 164.706C28.1826 164.706 28.1826 164.706 28.1826 164.704L28.1777 164.711Z" fill="#030403"/>
<path d="M35.7425 162.23V162.233H35.7455L35.7425 162.23Z" fill="#030403"/>
<path d="M35.788 162.286L35.7903 162.289H35.7927L35.788 162.286Z" fill="#030403"/>
<path d="M46.0251 174.083C45.878 172.643 45.6378 171.22 45.3219 169.807C44.8826 167.842 44.214 165.947 43.5454 164.052C42.9049 162.239 42.2622 160.43 41.3664 158.715C40.4532 156.969 39.2717 155.468 37.5948 154.369C34.8056 152.54 31.8973 150.931 28.8723 149.518C23.9149 147.204 18.7541 145.489 13.3899 144.377C12.9139 144.278 12.44 144.175 11.9661 144.074H11.3429C11.2434 144.179 11.1049 144.132 10.9859 144.154C9.97752 144.342 9.44088 144.876 9.26128 145.881C9.23748 146.016 9.26128 146.166 9.16174 146.286V147.264C9.23315 147.283 9.20935 147.345 9.21584 147.39C9.26994 147.806 9.33918 148.22 9.4517 148.625C9.9905 150.581 10.7305 152.468 11.4771 154.352C13.3401 159.041 15.6165 163.534 18.1158 167.917C19.1761 169.777 20.2147 171.65 21.4091 173.429C22.3656 174.855 23.56 176.048 25.1591 176.766C27.1607 177.667 29.2315 178.318 31.4602 178.355C31.7783 178.359 32.1072 178.316 32.4188 178.425H34.5481C34.5675 178.353 34.6281 178.376 34.6736 178.374C37.03 178.316 39.3734 178.102 41.7147 177.851C42.6863 177.746 43.6427 177.564 44.5234 177.116C45.2764 176.732 45.8477 176.199 46.0208 175.335C46.0251 175.318 46.0533 175.303 46.0706 175.288V174.207C45.9992 174.186 46.0251 174.126 46.0186 174.081L46.0251 174.083ZM24.1962 175.42C23.1835 174.649 22.3418 173.717 21.684 172.641C18.2218 166.982 15.0106 161.191 12.4811 155.052C11.6047 152.924 10.7673 150.779 10.1311 148.567C9.88014 147.697 9.74598 146.811 9.93857 145.905C9.97752 145.723 10.0078 145.635 10.2199 145.763C10.512 145.941 10.8301 146.078 11.1373 146.231C12.3101 146.769 13.457 147.36 14.6082 147.941C18.185 149.746 21.7056 151.645 25.0487 153.852C25.1202 153.899 25.1872 153.953 25.2565 154.004C25.3668 154.077 25.4772 154.148 25.5897 154.221L25.6027 154.227C25.6503 154.259 25.6979 154.294 25.7455 154.326L25.752 154.33C25.8018 154.362 25.8515 154.394 25.9013 154.429V154.435C25.9359 154.459 25.9662 154.48 25.9987 154.504L25.9943 154.499C26.0593 154.519 26.1134 154.553 26.1523 154.609L26.1458 154.605C26.1653 154.626 26.1826 154.645 26.2021 154.667L26.1956 154.66C26.2151 154.68 26.2324 154.699 26.2518 154.718C26.3752 154.755 26.4596 154.849 26.5591 154.917C26.6002 154.928 26.6522 154.917 26.6716 154.971L26.6651 154.967C26.6825 154.984 26.6998 155.003 26.7171 155.02C26.7387 155.033 26.7604 155.048 26.782 155.061L26.7928 155.05C26.8231 155.074 26.8534 155.097 26.8837 155.121L26.875 155.115C26.8967 155.132 26.9183 155.149 26.9421 155.166L26.9378 155.157C26.9702 155.181 27.0027 155.205 27.0352 155.228L27.0308 155.224C27.0936 155.245 27.1477 155.28 27.1866 155.335H27.1823C27.2018 155.348 27.2234 155.365 27.2429 155.38C27.258 155.398 27.2732 155.415 27.2862 155.432C27.3251 155.445 27.3727 155.438 27.3922 155.485C27.4744 155.522 27.548 155.571 27.6021 155.642L27.5978 155.638L27.7709 155.764L27.7817 155.773C27.8466 155.822 27.9137 155.869 27.9786 155.918L27.9894 155.927C28.0716 155.989 28.156 156.053 28.2383 156.116C28.2469 156.12 28.2534 156.124 28.2599 156.131C28.6992 156.443 29.1298 156.771 29.5301 157.131C30.2463 157.669 30.9041 158.274 31.5728 158.865C31.6398 158.923 31.6766 158.968 31.5922 159.048C30.3956 160.151 29.7378 161.602 29.0173 163.011C28.7662 163.504 28.5239 164.001 28.2772 164.496C28.2772 164.539 28.2707 164.58 28.2253 164.601C28.2253 164.642 28.221 164.682 28.1798 164.708C28.1712 164.755 28.1647 164.802 28.1193 164.83V164.843L28.1106 164.85C28.1128 164.892 28.1063 164.933 28.0608 164.955C28.0608 164.997 28.0608 165.038 28.0132 165.06C28.0111 165.105 28.0067 165.15 27.9613 165.175C27.7709 165.602 27.5826 166.028 27.3922 166.455L27.3965 166.449C27.3879 166.498 27.3857 166.547 27.3381 166.579C26.9919 167.426 26.6392 168.268 26.3038 169.117C25.6092 170.874 24.9903 172.656 24.4299 174.458C24.4169 174.499 24.3974 174.535 24.3801 174.574C24.3585 174.846 24.1637 175.088 24.233 175.378C24.2438 175.395 24.2654 175.42 24.2611 175.429C24.2351 175.472 24.2157 175.435 24.194 175.42H24.1962ZM43.792 176.732C42.9005 177.056 41.9679 177.195 41.031 177.285C39.1484 177.465 37.2615 177.624 35.3703 177.701C33.6609 177.772 31.9493 177.772 30.242 177.609C28.974 177.489 27.7817 177.092 26.6002 176.653C25.8321 176.368 25.0812 176.051 24.3282 175.532C24.8172 175.62 24.88 175.311 24.9622 175.024C25.0964 174.565 25.2132 174.102 25.4036 173.663C25.5984 172.908 25.8753 172.18 26.1393 171.449C27.3359 168.137 28.7186 164.905 30.3935 161.8C30.8046 161.037 31.2612 160.299 31.8844 159.68C31.9233 159.635 31.9666 159.594 32.0012 159.545C32.1007 159.41 32.1938 159.406 32.2998 159.545C32.3712 159.639 32.4621 159.721 32.5443 159.806C33.1524 160.353 33.702 160.957 34.2494 161.562C36.0368 163.536 37.5774 165.696 39.064 167.895C40.8622 170.555 42.6127 173.243 44.3135 175.965C44.4001 176.103 44.527 176.194 44.6944 176.237C44.4196 176.475 44.1101 176.614 43.7899 176.73L43.792 176.732ZM45.0514 175.892C43.7834 173.845 42.4829 171.826 41.1521 169.824C39.6028 167.494 38.0622 165.158 36.3159 162.966C36.29 162.933 36.2748 162.893 36.2553 162.856C36.158 162.79 36.0887 162.7 36.0411 162.595C36.013 162.561 35.9849 162.524 35.9567 162.49C35.8767 162.445 35.8226 162.376 35.7923 162.288C35.7598 162.284 35.7468 162.263 35.7447 162.233C35.7122 162.228 35.6971 162.209 35.6971 162.177C35.6516 162.166 35.6343 162.132 35.6257 162.091C35.6083 162.07 35.591 162.05 35.5737 162.031C34.6887 161.015 33.7712 160.027 32.7953 159.095C32.7023 159.007 32.6958 158.955 32.8105 158.889C32.9814 158.79 33.1459 158.683 33.3147 158.578C34.3295 157.965 35.4439 157.614 36.5907 157.35C37.2637 157.194 37.9431 157.071 38.6204 156.936C38.9688 156.868 39.0229 156.793 38.9407 156.446L38.9061 156.379C38.8866 156.364 38.8693 156.347 38.8498 156.332C38.6312 156.212 38.417 156.321 38.2028 156.349C38.06 156.366 37.9172 156.392 37.7744 156.413C37.3351 156.503 36.8937 156.596 36.4544 156.686C35.7577 156.898 35.0501 157.065 34.3728 157.335C33.8448 157.545 33.3471 157.809 32.8494 158.072C32.8451 158.079 32.8429 158.09 32.8365 158.094C32.6244 158.235 32.4015 158.499 32.2024 158.484C31.999 158.469 31.8173 158.18 31.6247 158.01C31.2547 157.684 30.8825 157.359 30.5103 157.033C29.5366 156.266 28.5693 155.492 27.561 154.77C24.471 152.551 21.1928 150.639 17.8323 148.86C15.8156 147.793 13.7729 146.775 11.7259 145.765C11.6329 145.72 11.5463 145.667 11.4554 145.615C11.1006 145.448 10.7435 145.283 10.3367 145.092C10.8907 144.769 11.4424 144.679 12.0007 144.777C14.0499 145.146 16.0688 145.637 18.0725 146.196C24.6354 148.031 30.7548 150.841 36.5172 154.433C37.374 154.967 38.1963 155.55 38.8909 156.291C38.9061 156.311 38.9234 156.328 38.9385 156.347C38.9537 156.366 38.9688 156.386 38.984 156.407C39.6223 157.033 40.0918 157.781 40.5268 158.55C41.3815 160.061 42.0393 161.658 42.5868 163.3C43.2662 165.334 44.0365 167.34 44.5537 169.428C44.954 171.042 45.2288 172.677 45.4041 174.33C45.4625 174.878 45.4669 175.429 45.0622 175.892H45.0514Z" fill="#030403"/>
<path d="M35.6343 162.076L35.6235 162.089L35.6257 162.091L35.6343 162.076Z" fill="#030403"/>
<path d="M26.7201 155.028C26.7201 155.028 26.7152 155.023 26.7128 155.02L26.7201 155.028Z" fill="#030403"/>
<path d="M24.3823 174.574C24.3606 174.846 24.1659 175.088 24.2351 175.378C24.2221 175.39 24.2092 175.405 24.1962 175.418C23.1835 174.647 22.3418 173.714 21.684 172.638C18.2218 166.98 15.0106 161.189 12.4811 155.05C11.6047 152.922 10.7673 150.777 10.1311 148.565C9.88014 147.694 9.74598 146.809 9.93856 145.903C9.97751 145.72 10.0078 145.633 10.2199 145.761C10.512 145.939 10.8301 146.076 11.1373 146.228C11.1395 146.34 11.2001 146.423 11.2758 146.494C11.6848 146.874 12.0894 147.255 12.6044 147.499C13.9179 148.127 15.2313 148.758 16.5383 149.398C18.2954 150.26 20.0567 151.111 21.777 152.043C22.6014 152.489 23.415 152.954 24.2178 153.439C24.5619 153.646 24.8821 153.899 25.2586 154.052C25.3409 154.163 25.4253 154.268 25.5897 154.217L25.6027 154.223C25.5875 154.347 25.646 154.362 25.7455 154.322L25.752 154.326C25.7455 154.444 25.8018 154.467 25.9013 154.424L25.9035 154.431C25.8948 154.508 25.9446 154.506 25.9987 154.499L25.9943 154.495C25.9835 154.622 26.0679 154.615 26.1523 154.605L26.1458 154.6C26.1653 154.622 26.1826 154.641 26.2021 154.662L26.1956 154.656C26.2151 154.675 26.2324 154.695 26.2518 154.714C26.3752 154.75 26.4596 154.845 26.5591 154.913C26.5786 154.967 26.6219 154.971 26.6716 154.967L26.6651 154.962C26.6846 154.982 26.7041 155.003 26.7214 155.022L26.7149 155.016C26.7257 155.048 26.7452 155.065 26.7798 155.059L26.7906 155.048C26.7777 155.127 26.8296 155.123 26.8815 155.119C26.8815 155.119 26.8729 155.112 26.8729 155.115C26.8794 155.151 26.901 155.168 26.9399 155.166L26.9356 155.157C26.9356 155.228 26.9811 155.233 27.033 155.228L27.0287 155.224C27.02 155.344 27.1022 155.338 27.1845 155.335L27.1801 155.333C27.2018 155.35 27.2234 155.368 27.2451 155.385L27.2364 155.376C27.2537 155.398 27.2732 155.419 27.2905 155.44L27.284 155.434C27.3013 155.49 27.3468 155.494 27.3944 155.49L27.39 155.485C27.39 155.631 27.4831 155.655 27.6021 155.642L27.5978 155.638C27.6043 155.749 27.641 155.82 27.7709 155.764L27.7817 155.773C27.7817 155.91 27.8379 155.97 27.9786 155.918L27.9894 155.927C28.0046 156.079 28.0673 156.169 28.2383 156.116C28.2469 156.12 28.2534 156.124 28.2599 156.131C28.1993 156.246 28.314 156.281 28.3659 156.33C28.6407 156.587 28.922 156.834 29.2012 157.084C29.238 157.417 29.1233 157.702 28.9372 157.972C28.4784 158.634 28.1041 159.35 27.7319 160.061C27.1109 161.245 26.518 162.441 25.977 163.664C25.2716 165.261 24.6398 166.884 24.0642 168.53C23.6855 169.61 23.3393 170.701 22.9801 171.79C22.9282 171.946 22.8676 172.098 22.7356 172.203C22.6058 172.306 22.6079 172.401 22.701 172.527C23.0515 173.003 23.3761 173.498 23.7461 173.954C23.9279 174.18 24.0707 174.467 24.3801 174.572L24.3823 174.574Z" fill="#84DDCF"/>
<path d="M25.4058 173.663C25.6005 172.908 25.8775 172.18 26.1415 171.449C27.3381 168.137 28.7208 164.905 30.3956 161.8C30.8068 161.037 31.2633 160.299 31.8865 159.68C31.906 159.8 31.9904 159.815 32.0921 159.813C32.2436 159.808 32.395 159.808 32.5465 159.806C33.1545 160.353 33.7042 160.957 34.2516 161.562C36.039 163.536 37.5796 165.696 39.0662 167.895C40.8643 170.555 42.6149 173.243 44.3157 175.965C44.4022 176.103 44.5292 176.194 44.6965 176.237C44.4217 176.475 44.1123 176.614 43.792 176.73C42.9005 177.054 41.9679 177.193 41.031 177.283C39.1484 177.463 37.2615 177.622 35.3703 177.699C33.6609 177.77 31.9493 177.77 30.242 177.607C28.974 177.487 27.7817 177.09 26.6002 176.651C25.8321 176.366 25.0812 176.048 24.3282 175.53C24.8172 175.618 24.88 175.309 24.9622 175.022C25.105 175.11 25.1613 175.028 25.1872 174.902C25.2327 174.666 25.2976 174.428 25.4231 174.229C25.5573 174.017 25.5594 173.845 25.4058 173.659V173.663Z" fill="#7FD4C6"/>
<path d="M37.7679 156.413C37.3286 156.503 36.8872 156.596 36.4479 156.686C36.3679 156.638 36.2835 156.593 36.2077 156.54C35.9632 156.373 35.7036 156.24 35.4049 156.214C34.2343 156.116 33.1156 156.93 32.8408 158.072C32.8365 158.079 32.8343 158.09 32.8278 158.094C32.6157 158.235 32.3929 158.499 32.1938 158.484C31.9904 158.469 31.8086 158.18 31.616 158.01C31.246 157.684 30.8738 157.359 30.5017 157.033C30.6986 156.696 30.5947 156.261 30.2658 156.002C29.9088 155.721 29.5604 155.43 29.1947 155.157C28.024 154.285 26.8361 153.441 25.6005 152.66C23.956 151.621 22.2617 150.665 20.5263 149.786C17.8929 148.453 15.24 147.159 12.5936 145.855C12.4118 145.765 12.3642 145.68 12.4833 145.517C13.2038 145.678 13.9287 145.825 14.6471 145.997C16.917 146.539 19.1631 147.165 21.368 147.932C23.4929 148.674 25.5789 149.512 27.6151 150.468C29.0043 151.119 30.3718 151.814 31.7156 152.56C33.7042 153.664 35.6321 154.862 37.5169 156.128C37.6294 156.203 37.7159 156.287 37.7679 156.411V156.413Z" fill="#A2EEE1"/>
<path d="M36.0389 162.595C36.0108 162.561 35.9827 162.524 35.9546 162.49C35.9589 162.374 35.9329 162.284 35.7901 162.288C35.7901 162.288 35.7923 162.29 35.7923 162.288C35.775 162.269 35.7598 162.25 35.7425 162.23V162.233C35.7252 162.213 35.71 162.196 35.6927 162.177C35.6949 162.128 35.6841 162.089 35.6213 162.089L35.6321 162.076L35.6235 162.091C35.6278 162.053 35.6083 162.033 35.5694 162.029C34.6844 161.013 33.7669 160.025 32.791 159.093C32.698 159.005 32.6915 158.953 32.8061 158.887C32.9771 158.788 33.1415 158.681 33.3103 158.578C33.3406 158.628 33.3817 158.675 33.4012 158.728C33.544 159.09 33.6306 159.15 34.0114 159.146C34.2148 159.144 34.4031 159.08 34.5892 159.018C35.6408 158.658 36.6838 158.27 37.7744 158.042C38.8714 157.813 39.302 157.948 39.8625 158.838C40.1979 159.367 40.4532 159.939 40.7215 160.505C41.7775 162.751 42.5738 165.085 43.2013 167.482C43.5453 168.802 43.8375 170.135 44.0928 171.475C44.108 171.556 44.1426 171.657 44.069 171.717C43.9868 171.783 43.8851 171.745 43.8007 171.698C43.6492 171.616 43.4999 171.53 43.3528 171.44C43.1385 171.31 42.9135 171.136 42.6712 171.162C42.4569 171.183 42.418 171.07 42.3444 170.956C41.4421 169.558 40.4986 168.191 39.5184 166.847C38.6399 165.643 37.7289 164.464 36.7573 163.332C36.6102 163.161 36.5323 162.895 36.2488 162.861L36.2597 162.85L36.251 162.861C36.2748 162.696 36.2056 162.608 36.0368 162.599L36.0389 162.595Z" fill="#BEEDE6"/>
<path d="M24.3823 174.574C24.0728 174.469 23.93 174.184 23.7483 173.957C23.3782 173.498 23.0515 173.003 22.7031 172.529C22.6101 172.403 22.6079 172.306 22.7377 172.205C22.8697 172.1 22.9303 171.948 22.9823 171.792C23.3415 170.705 23.6877 169.614 24.0664 168.532C24.6419 166.886 25.2738 165.263 25.9792 163.666C26.5202 162.443 27.1131 161.247 27.7341 160.064C28.1063 159.352 28.4806 158.638 28.9394 157.974C29.1254 157.704 29.2401 157.419 29.2033 157.086C29.3137 157.101 29.4219 157.116 29.5322 157.131C30.2485 157.669 30.9063 158.274 31.5749 158.865C31.642 158.923 31.6788 158.968 31.5944 159.048C30.3978 160.151 29.74 161.602 29.0194 163.011C28.7662 163.504 28.5239 164.001 28.2772 164.498C28.2512 164.391 28.2924 164.299 28.3356 164.202C28.7619 163.276 29.1925 162.353 29.6924 161.463C29.9152 161.069 30.1295 160.67 30.3545 160.241C30.3588 160.222 30.3502 160.237 30.3459 160.252C30.3372 160.28 30.3459 160.284 30.3653 160.263C30.374 160.252 30.3783 160.235 30.3826 160.22C30.3826 160.218 30.3697 160.211 30.3545 160.241C30.0905 160.355 29.978 160.574 29.8611 160.777C29.4435 161.506 29.0778 162.263 28.723 163.023C28.2556 164.024 27.8618 165.053 27.4679 166.084C27.4225 166.202 27.3662 166.322 27.3965 166.457L27.4008 166.451C27.3403 166.476 27.3403 166.528 27.3424 166.581C26.9962 167.428 26.6435 168.27 26.3081 169.119C25.6135 170.877 24.9946 172.658 24.4342 174.46C24.4212 174.501 24.4018 174.537 24.3844 174.576L24.3823 174.574Z" fill="#A1EDE0"/>
<path d="M36.2532 162.856C36.5366 162.891 36.6145 163.156 36.7617 163.328C37.7333 164.46 38.6442 165.64 39.5228 166.843C40.503 168.187 41.4464 169.556 42.3488 170.952C42.4223 171.065 42.4613 171.179 42.6755 171.157C42.9178 171.134 43.1429 171.305 43.3571 171.436C43.5042 171.526 43.6536 171.612 43.805 171.693C43.8894 171.738 43.9911 171.779 44.0733 171.713C44.1469 171.653 44.1123 171.552 44.0971 171.47C43.8418 170.131 43.5497 168.798 43.2056 167.477C42.5803 165.081 41.784 162.747 40.7259 160.501C40.4597 159.935 40.2022 159.363 39.8668 158.833C39.3064 157.944 38.8758 157.809 37.7787 158.038C36.6881 158.265 35.6451 158.653 34.5935 159.013C34.4074 159.078 34.2192 159.14 34.0158 159.142C33.6349 159.146 33.5462 159.088 33.4055 158.724C33.3839 158.67 33.345 158.623 33.3147 158.574C34.3295 157.961 35.4439 157.609 36.5907 157.346C37.2637 157.189 37.9431 157.067 38.6204 156.932C38.9688 156.864 39.0229 156.789 38.9407 156.441C38.9537 156.428 38.9688 156.418 38.9818 156.405C39.6201 157.031 40.0897 157.779 40.5246 158.548C41.3793 160.059 42.0372 161.656 42.5846 163.298C43.2641 165.332 44.0344 167.338 44.5515 169.426C44.9519 171.04 45.2267 172.675 45.4019 174.327C45.4604 174.876 45.4647 175.427 45.0601 175.89C43.792 173.843 42.4916 171.824 41.1608 169.822C39.6115 167.492 38.0708 165.156 36.3246 162.963C36.2986 162.931 36.2835 162.891 36.264 162.854L36.2532 162.856Z" fill="#7FD2C4"/>
<path d="M37.7679 156.413C37.7159 156.291 37.6294 156.208 37.5169 156.131C35.63 154.864 33.7042 153.666 31.7156 152.562C30.374 151.816 29.0043 151.122 27.6151 150.47C25.5811 149.514 23.4951 148.676 21.368 147.934C19.1631 147.165 16.917 146.539 14.6471 145.999C13.9287 145.828 13.206 145.678 12.4833 145.519C12.137 145.545 11.7778 145.427 11.4468 145.618C11.0919 145.45 10.7349 145.285 10.3281 145.095C10.882 144.771 11.4338 144.681 11.9921 144.779C14.0412 145.148 16.0601 145.639 18.0638 146.198C24.6268 148.033 30.7462 150.843 36.5085 154.435C37.3654 154.969 38.1877 155.552 38.8823 156.293C38.8693 156.306 38.8563 156.317 38.8455 156.33C38.6269 156.21 38.4127 156.319 38.1985 156.347C38.0557 156.364 37.9129 156.39 37.77 156.411L37.7679 156.413Z" fill="#7FD2C4"/>
<path d="M11.4489 145.618C11.7778 145.427 12.1392 145.545 12.4854 145.519C12.3664 145.682 12.4119 145.768 12.5958 145.858C15.2443 147.161 17.8951 148.457 20.5285 149.788C22.2639 150.667 23.9582 151.623 25.6027 152.663C26.8383 153.443 28.0262 154.287 29.1969 155.16C29.5604 155.432 29.9109 155.723 30.268 156.004C30.599 156.263 30.7007 156.699 30.5038 157.035C29.5301 156.268 28.5628 155.494 27.5545 154.772C24.4645 152.553 21.1863 150.644 17.8258 148.863C15.8091 147.795 13.7664 146.777 11.7194 145.768C11.6264 145.723 11.5398 145.669 11.4489 145.618Z" fill="#BBE9E2"/>
<path d="M25.2587 154.056C24.88 153.904 24.5619 153.651 24.2178 153.443C23.4151 152.958 22.6014 152.493 21.777 152.048C20.0568 151.115 18.2954 150.262 16.5383 149.403C15.2314 148.762 13.9179 148.132 12.6045 147.504C12.0895 147.257 11.6848 146.878 11.2758 146.498C11.2001 146.428 11.1395 146.344 11.1374 146.233C12.3102 146.771 13.457 147.362 14.6082 147.943C18.185 149.748 21.7056 151.647 25.0488 153.854C25.1202 153.901 25.1873 153.955 25.2565 154.006C25.2565 154.024 25.2565 154.041 25.2565 154.058L25.2587 154.056Z" fill="#B8E7E0"/>
<path d="M32.8408 158.072C33.1134 156.93 34.2343 156.116 35.405 156.214C35.7036 156.24 35.9632 156.373 36.2077 156.54C36.2856 156.593 36.3679 156.636 36.4479 156.686C35.7512 156.898 35.0436 157.065 34.3663 157.335C33.8383 157.545 33.3406 157.809 32.843 158.072H32.8408Z" fill="#BCEBE4"/>
<path d="M30.3459 160.276C30.1273 160.672 29.9131 161.071 29.6924 161.465C29.1925 162.355 28.7619 163.279 28.3357 164.204C28.2924 164.301 28.2513 164.393 28.2772 164.5V164.498C28.2231 164.515 28.2166 164.558 28.2231 164.605L28.2275 164.601C28.1712 164.62 28.1669 164.663 28.1777 164.712L28.182 164.706C28.1149 164.725 28.1149 164.777 28.1214 164.832V164.845L28.1128 164.852C28.0717 164.875 28.0608 164.914 28.063 164.957C28.0176 164.978 28.0089 165.019 28.0132 165.064C28.0132 165.064 28.0132 165.06 28.0132 165.062C27.9591 165.085 27.957 165.13 27.9613 165.18C27.7709 165.606 27.5826 166.033 27.3922 166.459C27.3641 166.324 27.4182 166.206 27.4636 166.086C27.8574 165.058 28.2513 164.027 28.7187 163.026C29.0735 162.265 29.4392 161.508 29.8568 160.779C29.9737 160.574 30.0862 160.355 30.3415 160.276H30.3459Z" fill="#BCEBE4"/>
<path d="M25.4058 173.663C25.5594 173.847 25.5572 174.019 25.4231 174.233C25.2976 174.432 25.2348 174.67 25.1872 174.906C25.1634 175.033 25.1072 175.112 24.9622 175.026C25.0963 174.567 25.2132 174.104 25.4036 173.665L25.4058 173.663Z" fill="#9CE5D8"/>
<path d="M29.5322 157.131C29.4219 157.116 29.3137 157.101 29.2033 157.086C28.9242 156.836 28.6407 156.587 28.3681 156.332C28.3162 156.283 28.2015 156.248 28.2621 156.133C28.7013 156.446 29.1319 156.771 29.5322 157.134V157.131Z" fill="#B1DFD8"/>
<path d="M32.5487 159.806C32.3972 159.806 32.2457 159.806 32.0943 159.813C31.9926 159.815 31.9082 159.8 31.8887 159.68C31.9277 159.635 31.9709 159.594 32.0056 159.545C32.1051 159.41 32.1981 159.406 32.3042 159.545C32.3777 159.639 32.4665 159.721 32.5487 159.806Z" fill="#9CE5D8"/>
<path d="M25.2586 154.056C25.2586 154.039 25.2586 154.022 25.2586 154.004C25.369 154.077 25.4793 154.148 25.5919 154.221C25.4274 154.272 25.343 154.165 25.2608 154.056H25.2586Z" fill="#B1DFD8"/>
<path d="M36.039 162.595C36.2078 162.603 36.2792 162.691 36.2532 162.856C36.1558 162.79 36.0866 162.7 36.039 162.595Z" fill="#7FD2C4"/>
<path d="M28.2404 156.116C28.0673 156.169 28.0067 156.079 27.9916 155.927C28.0738 155.989 28.1582 156.053 28.2404 156.116Z" fill="#B1DFD8"/>
<path d="M27.6027 155.642C27.4833 155.655 27.39 155.632 27.39 155.485C27.4725 155.522 27.5463 155.571 27.6027 155.642Z" fill="#B1DFD8"/>
<path d="M35.788 162.286C35.9312 162.284 35.9594 162.372 35.9529 162.488C35.8704 162.441 35.8183 162.372 35.788 162.286Z" fill="#7FD2C4"/>
<path d="M27.9813 155.917C27.8403 155.968 27.7839 155.908 27.7839 155.77C27.849 155.82 27.9162 155.867 27.9813 155.917Z" fill="#B1DFD8"/>
<path d="M27.7735 155.764C27.6433 155.82 27.6065 155.749 27.5999 155.638C27.6585 155.681 27.7171 155.721 27.7735 155.764Z" fill="#B1DFD8"/>
<path d="M25.7459 154.328C25.6461 154.369 25.5854 154.352 25.6027 154.229C25.6504 154.262 25.6982 154.296 25.7459 154.328Z" fill="#B1DFD8"/>
<path d="M25.9017 154.431C25.8019 154.474 25.7455 154.451 25.752 154.332C25.8019 154.365 25.8518 154.397 25.9017 154.431Z" fill="#B1DFD8"/>
<path d="M26.1534 154.613C26.0684 154.622 25.9835 154.628 25.9944 154.502C26.0597 154.521 26.1142 154.556 26.1534 154.613Z" fill="#B1DFD8"/>
<path d="M27.1856 155.338C27.105 155.34 27.0221 155.346 27.0287 155.224C27.0919 155.246 27.1464 155.281 27.1856 155.338Z" fill="#B1DFD8"/>
<path d="M25.9986 154.506C25.9445 154.513 25.897 154.515 25.9035 154.437C25.9359 154.461 25.9662 154.483 25.9986 154.506Z" fill="#B1DFD8"/>
<path d="M27.3942 155.488C27.3467 155.492 27.3013 155.488 27.284 155.432C27.3229 155.445 27.3748 155.436 27.3942 155.488Z" fill="#B1DFD8"/>
<path d="M26.6693 154.971C26.6218 154.978 26.5764 154.971 26.5569 154.917C26.598 154.928 26.6499 154.917 26.6693 154.971Z" fill="#B1DFD8"/>
<path d="M27.0329 155.229C26.981 155.233 26.9335 155.229 26.9356 155.157C26.968 155.181 27.0004 155.205 27.0329 155.229Z" fill="#B1DFD8"/>
<path d="M35.6235 162.091C35.6862 162.091 35.697 162.128 35.6948 162.18C35.6473 162.169 35.6321 162.134 35.6235 162.091Z" fill="#7FD2C4"/>
<path d="M26.8814 155.124C26.8295 155.128 26.7777 155.132 26.7907 155.052C26.8209 155.076 26.8512 155.1 26.8814 155.124Z" fill="#B1DFD8"/>
<path d="M28.2231 164.602C28.2166 164.554 28.2231 164.511 28.2772 164.494C28.275 164.537 28.2707 164.582 28.2231 164.602Z" fill="#A1EDE0"/>
<path d="M28.1777 164.711C28.1669 164.661 28.169 164.618 28.2274 164.599C28.2274 164.642 28.2252 164.687 28.1777 164.711Z" fill="#A1EDE0"/>
<path d="M28.1214 164.831C28.1171 164.777 28.1149 164.723 28.1822 164.704C28.1735 164.751 28.167 164.801 28.1214 164.831Z" fill="#A1EDE0"/>
<path d="M28.0608 164.955C28.0587 164.912 28.0695 164.873 28.1105 164.85C28.1127 164.893 28.1062 164.934 28.0608 164.955Z" fill="#A1EDE0"/>
<path d="M28.0132 165.063C28.0089 165.017 28.0175 164.978 28.0629 164.955C28.0629 164.998 28.0629 165.041 28.0132 165.063Z" fill="#A1EDE0"/>
<path d="M27.9635 165.178C27.9591 165.128 27.9635 165.083 28.0155 165.06C28.0134 165.105 28.0112 165.152 27.9635 165.178Z" fill="#A1EDE0"/>
<path d="M27.3403 166.58C27.3403 166.526 27.3381 166.474 27.3989 166.449C27.3902 166.498 27.388 166.547 27.3403 166.58Z" fill="#BCEBE4"/>
<path d="M38.8995 156.378C38.8801 156.363 38.8628 156.345 38.8433 156.33C38.8563 156.317 38.8693 156.306 38.8801 156.293C38.8952 156.313 38.9125 156.33 38.9276 156.35C38.9168 156.36 38.9082 156.369 38.8973 156.38L38.8995 156.378Z" fill="#7FD2C4"/>
<path d="M38.9341 156.444C38.9233 156.423 38.9125 156.399 38.8996 156.377C38.9104 156.366 38.919 156.358 38.9298 156.347C38.9449 156.366 38.9601 156.386 38.9752 156.407C38.9622 156.42 38.9471 156.431 38.9341 156.444Z" fill="#7FD2C4"/>
<path d="M26.9405 155.169C26.9012 155.173 26.8816 155.154 26.8729 155.117C26.8947 155.134 26.9165 155.152 26.9405 155.169Z" fill="#B1DFD8"/>
<path d="M35.5716 162.029C35.6108 162.031 35.6304 162.053 35.6261 162.092C35.6086 162.07 35.589 162.051 35.5716 162.029Z" fill="#7FD2C4"/>
<path d="M35.7425 162.23C35.76 162.25 35.7752 162.27 35.7927 162.289C35.7578 162.285 35.7447 162.263 35.7425 162.23Z" fill="#7FD2C4"/>
<path d="M26.7803 155.064C26.7454 155.07 26.7258 155.053 26.7149 155.02C26.7367 155.036 26.7585 155.049 26.7803 155.064Z" fill="#B1DFD8"/>
<path d="M26.7197 155.028C26.7001 155.008 26.6804 154.986 26.663 154.967C26.6826 154.986 26.7022 155.008 26.7197 155.028Z" fill="#B1DFD8"/>
<path d="M24.2354 175.38C24.2463 175.397 24.2681 175.423 24.2638 175.432C24.2376 175.476 24.218 175.439 24.1962 175.423C24.2093 175.41 24.2224 175.395 24.2354 175.382V175.38Z" fill="#7FD4C6"/>
<path d="M35.6949 162.177C35.7125 162.197 35.7279 162.214 35.7455 162.234C35.7125 162.23 35.6949 162.21 35.6949 162.177Z" fill="#7FD2C4"/>
<path d="M30.3655 160.207C30.3655 160.207 30.3851 160.218 30.3851 160.22C30.3807 160.235 30.3764 160.251 30.3677 160.264C30.348 160.286 30.3393 160.281 30.348 160.253C30.3524 160.238 30.3589 160.225 30.3655 160.209V160.207Z" fill="#BCEBE4"/>
</g>
<defs>
<clipPath id="clip0_9320_1929">
<rect width="245" height="232" fill="white"/>
</clipPath>
</defs>
</svg>
