<svg width="130" height="97" viewBox="0 0 130 97" fill="none" xmlns="http://www.w3.org/2000/svg">
<g clip-path="url(#clip0_781_5566)">
<mask id="mask0_781_5566" style="mask-type:luminance" maskUnits="userSpaceOnUse" x="0" y="0" width="130" height="97">
<path d="M130 0H0V97H130V0Z" fill="white"/>
</mask>
<g mask="url(#mask0_781_5566)">
<path d="M38.3889 100.9H94.7989C92.9489 97.22 89.6789 93.96 85.9989 91.14C82.0189 88.09 77.5589 85.55 72.7289 84.3C71.2289 83.91 69.6889 83.65 68.1389 83.48C67.1089 83.37 66.0689 83.37 65.0389 83.48C63.4889 83.64 61.9589 83.91 60.4489 84.3C55.6189 85.55 51.1589 88.09 47.1789 91.14C43.4989 93.96 40.2289 97.23 38.3789 100.9H38.3889Z" fill="#2E2E2E" stroke="#101010" stroke-width="2" stroke-miterlimit="10"/>
<path d="M104.78 63.6C104.57 62.64 104.31 61.64 103.59 61.21C103.2 60.98 102.68 60.93 102.17 60.89C100.35 60.78 98.6898 60.99 96.9997 61.21C93.2797 61.69 89.4197 62.24 85.8997 63.63C84.2497 64.28 82.6797 65.12 81.1997 66.07C79.6197 65.25 77.9697 64.56 76.2697 63.98C73.3897 63 70.3797 62.32 67.3597 62.09C67.1097 62.07 66.8497 62.06 66.5997 62.06C66.3497 62.06 66.0897 62.08 65.8397 62.09C62.8197 62.32 59.7997 62.99 56.9297 63.98C56.1497 64.25 55.3897 64.54 54.6297 64.85C53.0097 63.64 50.7597 63.21 48.5297 63.12C46.2997 63.03 44.0897 63.27 41.8897 63.63C39.6897 63.99 37.5197 64.47 35.3597 64.99C33.2097 65.51 31.0797 66.06 29.0997 67.19C27.1097 68.32 25.2597 70.03 24.8497 72.01C24.4397 73.99 25.4697 76.23 26.5797 78.25C27.6897 80.26 28.8797 82.04 30.3597 83.63C31.8397 85.23 33.6197 86.64 35.6297 87.84C34.6797 89.28 33.8697 90.82 33.2197 92.41C32.1197 95.11 31.4997 98 31.2997 100.89H101.88C101.68 98 101.06 95.11 99.9597 92.41C99.1898 90.52 98.1897 88.73 97.0197 87.05C99.9597 84.78 101.29 83.2 102.35 81.42C104.32 78.13 105.37 74.2 105.51 70.53C105.6 68.27 105.34 66.11 104.78 63.6Z" fill="white"/>
<path d="M38.0305 84.67C36.0305 86.97 34.3705 89.59 33.2305 92.41C32.1305 95.11 31.5105 98 31.3105 100.89H101.891C101.691 98 101.071 95.11 99.9706 92.41C98.8206 89.59 97.1605 86.96 95.1705 84.67" stroke="#101010" stroke-width="2" stroke-linecap="round" stroke-linejoin="round"/>
<path d="M38.3889 100.9H94.7989C92.9489 97.22 89.6789 93.96 85.9989 91.14C82.0189 88.09 77.5589 85.55 72.7289 84.3C71.2289 83.91 69.6889 83.65 68.1389 83.48C67.1089 83.37 66.0689 83.37 65.0389 83.48C63.4889 83.64 61.9589 83.91 60.4489 84.3C55.6189 85.55 51.1589 88.09 47.1789 91.14C43.4989 93.96 40.2289 97.23 38.3789 100.9H38.3889Z" fill="#2E2E2E" stroke="#101010" stroke-width="2" stroke-miterlimit="10"/>
<path d="M35.6297 87.85C33.6197 86.65 31.8397 85.24 30.3597 83.64C28.8797 82.04 27.6897 80.27 26.5797 78.26C25.4697 76.25 24.4397 74 24.8497 72.02C25.2597 70.04 27.1197 68.33 29.0997 67.2C31.0897 66.07 33.2097 65.52 35.3597 65C37.5097 64.48 39.6897 64 41.8897 63.64C44.0897 63.28 46.2997 63.03 48.5297 63.13C50.7597 63.22 53.0097 63.65 54.6297 64.86" stroke="#101010" stroke-width="2" stroke-linecap="round" stroke-linejoin="round"/>
<path d="M81.1992 66.08C82.6892 65.13 84.2592 64.29 85.8992 63.64C89.4192 62.25 93.2892 61.7 96.9992 61.22C98.6892 61 100.359 60.79 102.169 60.9C102.679 60.93 103.199 60.99 103.589 61.22C104.309 61.64 104.569 62.65 104.779 63.61C105.339 66.12 105.599 68.28 105.509 70.54C105.369 74.21 104.319 78.15 102.349 81.43C101.289 83.21 99.9592 84.79 97.0192 87.06" stroke="#101010" stroke-width="2" stroke-linecap="round" stroke-linejoin="round"/>
<path d="M82.5689 66.83C80.5789 65.68 78.4689 64.75 76.2689 63.99C73.3889 63.01 70.3789 62.33 67.3589 62.1C67.1089 62.08 66.8489 62.07 66.5989 62.07C66.3489 62.07 66.0889 62.09 65.8389 62.1C62.8189 62.33 59.7989 63 56.9289 63.99C54.7289 64.74 52.6189 65.68 50.6289 66.83" stroke="#101010" stroke-width="2" stroke-linecap="round" stroke-linejoin="round"/>
<path d="M67.2789 91.35C70.5389 91.29 84.0289 91.64 92.7389 100.89H94.7989C92.9489 97.21 89.6789 93.95 85.9989 91.13C82.0189 88.08 77.5589 85.54 72.7289 84.29C71.2289 83.9 69.6889 83.64 68.1389 83.47C67.1089 83.36 66.0689 83.36 65.0389 83.47C63.4889 83.63 61.9589 83.9 60.4489 84.29C55.6189 85.54 51.1589 88.08 47.1789 91.13C43.4989 93.95 40.2289 97.22 38.3789 100.89H40.4689C49.1889 91.64 62.6689 91.29 65.9289 91.35C66.3789 91.35 66.8189 91.35 67.2689 91.35H67.2789Z" fill="#101010"/>
<path d="M72.209 100.9H82.499C82.569 97.96 81.779 92.03 77.359 92.03C72.939 92.03 72.149 97.96 72.219 100.9H72.209Z" fill="white" stroke="#101010" stroke-width="2" stroke-miterlimit="10"/>
<path d="M50.8301 100.9H61.1201C61.1901 97.96 60.4001 92.03 55.9801 92.03C51.5601 92.03 50.7601 97.96 50.8401 100.9H50.8301Z" fill="white" stroke="#101010" stroke-width="2" stroke-miterlimit="10"/>
<path d="M13.8298 24.09L6.33984 16.59" stroke="#101010" stroke-width="2" stroke-linecap="round" stroke-linejoin="round"/>
<path d="M6.33984 49.76L13.8298 42.26" stroke="#101010" stroke-width="2" stroke-linecap="round" stroke-linejoin="round"/>
<path d="M13.8305 33.17H1.06055" stroke="#101010" stroke-width="2" stroke-linecap="round" stroke-linejoin="round"/>
<path d="M123.691 16.58L116.201 24.08" stroke="#101010" stroke-width="2" stroke-linecap="round" stroke-linejoin="round"/>
<path d="M116.201 42.25L123.691 49.75" stroke="#101010" stroke-width="2" stroke-linecap="round" stroke-linejoin="round"/>
<path d="M128.971 33.17H116.201" stroke="#101010" stroke-width="2" stroke-linecap="round" stroke-linejoin="round"/>
<path d="M40.7305 18.41L51.7605 4.31L74.7605 22.32L63.4505 36.28L40.7305 18.41Z" fill="#BAF0F7" stroke="#101010" stroke-width="2" stroke-linecap="round" stroke-linejoin="round"/>
<path d="M70.762 42.01L74.452 44.9C78.3619 47.96 84.002 47.27 87.062 43.36C90.122 39.45 89.4319 33.81 85.5219 30.75L81.832 27.86L70.752 42.01H70.762Z" fill="white" stroke="#101010" stroke-width="2" stroke-linecap="round" stroke-linejoin="round"/>
<path d="M70.762 42.01L74.452 44.9C78.3619 47.96 84.002 47.27 87.062 43.36C90.122 39.45 89.4319 33.81 85.5219 30.75L81.832 27.86L70.752 42.01H70.762Z" fill="white" fill-opacity="0.2"/>
<path d="M70.762 42.01L74.452 44.9C78.3619 47.96 84.002 47.27 87.062 43.36C90.122 39.45 89.4319 33.81 85.5219 30.75L81.832 27.86L70.752 42.01H70.762Z" fill="#FB5732" fill-opacity="0.5"/>
<path d="M70.762 42.01L74.452 44.9C78.3619 47.96 84.002 47.27 87.062 43.36C90.122 39.45 89.4319 33.81 85.5219 30.75L81.832 27.86L70.752 42.01H70.762Z" stroke="#101010" stroke-width="2" stroke-linecap="round" stroke-linejoin="round"/>
<path d="M78.3297 25.1134L67.2539 39.2643L71.0732 42.2536L82.1489 28.1027L78.3297 25.1134Z" fill="white" stroke="#101010" stroke-width="2" stroke-linecap="round" stroke-linejoin="round"/>
<path d="M74.525 22.127L63.4492 36.2779L67.2606 39.261L78.3364 25.1101L74.525 22.127Z" fill="white" stroke="#101010" stroke-width="2" stroke-linecap="round" stroke-linejoin="round"/>
<path d="M38.561 2.10997C38.621 2.10997 51.701 4.30997 51.761 4.31997L40.731 18.41L35.611 5.87997C34.961 4.36997 34.331 1.40997 38.561 2.10997Z" fill="white" stroke="#101010" stroke-width="2" stroke-linecap="round" stroke-linejoin="round"/>
<path d="M35.611 5.87999L37.001 9.26999L42.141 2.69999C42.081 2.69999 38.621 2.10999 38.561 2.09999C34.331 1.39999 34.961 4.36999 35.611 5.86999V5.87999Z" fill="#101010" stroke="#101010" stroke-width="2" stroke-linecap="round" stroke-linejoin="round"/>
</g>
</g>
<defs>
<clipPath id="clip0_781_5566">
<rect width="130" height="97" fill="white"/>
</clipPath>
</defs>
</svg>
