<svg width="357" height="310" viewBox="0 0 357 310" fill="none" xmlns="http://www.w3.org/2000/svg">
<g clip-path="url(#clip0_9316_1377)">
<path d="M237.377 104.678C239.594 105.703 241.514 107.127 242.829 109.219C243.498 110.281 244.13 111.186 245.211 112.047C251.143 116.776 256.567 121.948 261.516 127.538L261.348 128.886C260.503 130.756 259.021 131.817 257.236 132.466C256.661 132.674 256.693 133.004 256.715 133.435C256.813 135.333 256.7 137.217 256.238 139.069C255.759 140.997 254.884 141.775 252.893 142.054C252.509 142.107 252.204 142.103 252.042 142.619C249.729 149.948 246.386 156.862 243.301 163.879C242.984 164.598 242.964 165.2 243.198 165.949C245.831 174.438 246.76 183.177 246.674 192.011C246.531 206.71 244.476 221.154 240.435 235.302C239.776 237.612 238.771 239.78 237.451 241.793C237.323 241.986 237.198 242.184 237.043 242.356C235.062 244.533 234.622 244.457 232.434 243.19C230.603 242.131 229.015 240.665 226.906 240.058C220.842 238.319 215.714 240.266 210.997 243.948C210.636 244.23 210.584 244.518 210.665 244.944C212.428 254.319 213.726 263.76 214.714 273.243C216.12 286.775 216.84 300.348 216.911 313.955C216.916 315.002 216.383 314.919 215.692 314.917C203.697 314.909 191.701 314.909 179.708 314.922L166.742 314.936C164.07 314.807 161.386 314.912 158.709 314.909L155.899 314.902C153.144 314.917 150.386 314.944 147.63 314.89L145.787 314.988C144.007 314.988 142.24 314.995 140.47 314.985C139.789 314.98 139.106 314.914 138.425 314.914C117.662 314.914 96.8982 314.919 76.1349 314.936C74.9992 314.936 75.4564 314.198 75.5498 313.747C76.1914 310.65 77.0984 307.626 78.2169 304.663C81.4541 296.079 86.2326 288.345 91.4511 280.852C96.3747 273.781 101.672 266.968 106.391 259.755C109.484 255.031 112.323 250.172 113.78 244.648C114.265 242.816 114.567 240.959 114.687 239.063C114.732 238.363 114.542 238.109 113.874 238.03C110.602 237.639 107.338 237.184 104.064 236.819C97.6357 236.102 91.1316 235.926 84.834 234.258C78.4381 232.562 72.8607 229.6 69.1146 223.914C66.4058 219.801 65.0686 215.185 64.3435 210.385C62.9842 201.389 63.2767 192.364 64.0043 183.336C64.4393 177.946 65.1301 172.591 66.1403 167.277C66.219 166.859 66.2657 166.504 65.8036 166.181C58.8669 161.357 54.2064 154.685 50.4676 147.296C47.6605 141.75 45.2885 136.013 43.5727 130.041C41.9332 124.338 43.848 120.377 49.2632 117.845C53.0658 116.067 57.1462 115.345 61.2783 114.89C71.5727 113.755 81.6164 115.387 91.579 117.76C94.9662 118.567 98.3288 119.48 101.684 120.409C102.463 120.625 102.93 120.451 103.483 119.908C108.606 114.873 114.046 110.239 120.528 106.978C127.966 103.237 135.728 101.769 143.951 103.783C144.909 104.018 144.757 103.372 144.838 102.946C146.546 93.9356 150.177 85.7569 155.55 78.3293C156.548 76.9494 157.581 75.5965 158.92 74.5127C161.73 72.2423 164.25 72.3011 166.737 74.8968C170.746 79.0779 174.089 83.7605 176.855 88.8395C182.788 99.7411 185.763 111.382 185.544 123.798C185.532 124.439 185.753 124.874 186.171 125.324C191.64 131.184 197.107 137.041 202.546 142.927C206.199 146.881 208.986 151.316 210.024 156.684C210.302 158.12 210.648 159.549 210.572 161.029C210.302 161.516 210.169 161.99 210.69 162.411C210.864 163.025 210.825 163.651 210.796 164.278C210.427 164.919 210.619 165.773 209.982 166.418C209.756 165.579 210.12 164.757 209.721 164.031C209.724 163.874 209.726 163.717 209.731 163.558C209.871 162.614 210.314 161.645 209.49 160.784C209.476 160.628 209.463 160.473 209.449 160.317C209.798 159.957 209.658 159.563 209.643 159.003C209.431 159.324 209.336 159.47 209.237 159.62C208.276 156.963 206.541 154.873 204.405 153.073C203.04 151.92 201.561 150.934 200.029 150.015C187.068 142.232 173.096 136.835 158.611 132.652C154.555 131.482 150.715 131.849 147.1 134.076C145.748 134.907 144.349 135.673 143.068 136.603C129.455 146.494 117.957 158.413 108.611 172.376C101.07 183.642 95.1874 195.708 91.2594 208.689C90.2344 212.08 89.7305 215.557 90.2688 219.097C91.0456 224.222 94.3148 227.324 98.8401 229.392C106.974 233.105 115.626 234.431 124.456 234.962C131.004 235.356 137.565 235.337 144.118 235.579C148.85 235.755 153.579 235.97 158.247 236.812C162.209 237.526 165.164 239.476 166.041 243.691C166.467 245.727 166.336 247.767 166.009 249.798C165.039 255.794 163.399 261.612 161.253 267.293C161.118 267.653 160.779 268.007 161.027 268.443C161.292 268.489 161.401 268.321 161.519 268.171C163.832 265.267 166.152 262.368 168.45 259.452C168.657 259.19 168.77 258.838 168.858 258.51C170.385 252.895 170.724 247.178 170.296 241.399C169.977 237.083 168.286 234.769 164.49 233.499C163.387 233.13 162.273 232.775 161.15 232.467C154.272 230.583 147.232 229.604 140.178 228.699C133.676 227.865 127.221 226.796 120.978 224.724C117.413 223.542 113.825 222.414 110.742 220.156C107.362 217.678 105.669 214.346 105.526 210.179C105.391 206.223 106.416 202.482 107.746 198.837C110.651 190.884 114.08 183.155 118.185 175.732C121.646 169.474 125.589 163.544 130.139 158.015C135.288 151.759 141.104 146.22 147.753 141.559C151.445 138.971 155.437 138.276 159.766 139.585C167.214 141.838 174.36 144.85 181.382 148.167C187.631 151.12 193.717 154.323 199.1 158.744C203.758 162.57 206.13 167.336 205.958 173.366C205.884 175.921 205.435 178.419 205.11 180.941C204.24 187.708 201.698 193.797 198.051 199.49C196.322 202.186 194.356 204.699 193.046 207.693C191.657 210.864 189.46 213.636 187.567 216.552C185.155 220.273 182.712 223.977 181.168 228.173C179.573 232.504 178.791 236.915 179.834 241.504C179.905 241.817 179.78 242.287 180.252 242.351C180.633 242.402 180.697 241.974 180.851 241.734C185.128 235.077 189.305 228.357 192.675 221.186C195.297 215.603 197.829 209.976 200.403 204.369C200.885 204.271 200.956 203.41 201.649 203.711C201.661 203.86 201.671 204.009 201.684 204.158C201.617 204.188 201.551 204.217 201.487 204.249C201.558 204.259 201.632 204.268 201.703 204.278C201.814 205.083 201.922 205.89 202.033 206.695C202.006 210.693 201.374 214.612 200.462 218.49C197.93 229.264 194.017 239.559 189.472 249.629C189.297 250.013 188.938 250.468 189.027 250.794C189.555 252.717 188.403 254.133 187.645 255.66C187.323 256.308 187.205 256.925 187.24 257.646C187.432 261.62 187.643 265.595 187.719 269.573C187.992 283.844 187.296 298.07 185.477 312.231C185.276 313.809 185.706 314.185 187.225 314.185C188.973 314.185 190.718 314.185 192.466 314.185C199.919 314.185 207.372 314.19 214.824 314.176C215.291 314.176 215.975 314.462 215.943 313.503C215.857 310.883 215.997 308.255 215.746 305.637C215.758 302.948 215.734 300.262 215.478 297.583C215.478 294.305 215.205 291.041 214.967 287.778C214.898 286.628 214.861 285.478 214.756 284.333C214.473 281.241 214.338 278.133 213.861 275.058C213.657 271.699 213.256 268.362 212.747 265.037C212.516 262.336 212.118 259.66 211.678 256.986C211.159 253.103 210.486 249.245 209.763 245.274C208.928 245.84 208.51 246.578 207.998 247.229C207.807 247.471 207.561 247.581 207.293 247.393C207.025 247.205 207.042 246.938 207.222 246.681C207.376 246.461 207.526 246.233 207.696 246.023C210.22 242.855 213.46 240.699 217.263 239.344C220.498 238.192 223.772 238.209 227.1 239.085C227.235 236.714 227.046 234.446 226.783 232.186C225.972 225.257 223.959 218.629 221.65 212.075C218.966 204.449 215.896 196.961 213.726 189.159C213.327 187.728 213.192 186.22 212.494 184.875C212.47 184.457 212.494 184.026 212.408 183.62C211.845 180.982 211.474 178.321 211.248 175.634C211.022 172.938 211.059 170.252 211.265 167.558C211.28 167.36 211.747 166.817 211.007 166.807C210.592 165.985 210.928 165.188 211.088 164.385C212.167 161.388 213.18 158.364 214.345 155.402C215.299 152.977 216.629 150.756 218.698 149.07C219.768 148.199 220.952 147.544 222.378 147.544C222.907 147.544 223.12 147.289 223.329 146.883C225.989 141.701 228.801 136.6 231.778 131.592C232.038 131.152 232.063 130.775 231.906 130.293C231.149 127.989 231.734 126.058 233.58 124.47C234.398 123.766 235.091 122.99 235.499 121.911C235.772 121.185 235.472 121.043 235.015 120.769C232.916 119.504 230.908 118.117 229.428 116.121C227.928 114.095 227.046 111.866 227.511 109.305C228.078 106.173 230.151 104.326 233.368 103.971C233.368 103.971 235.824 103.849 237.385 104.671L237.377 104.678ZM244.326 84.8394C244.299 84.5923 244.543 83.4694 244.543 83.4694C244.705 81.1623 245.098 79.0608 245.978 77.0742C246.531 75.8265 247.2 74.6595 248.276 73.7788C249.933 72.4234 251.514 72.5995 252.753 74.3488C254.284 76.5115 254.916 79.0192 255.321 81.5856C255.781 84.4945 255.828 87.423 255.631 90.3196C256.009 90.5863 256.182 90.278 256.383 90.1582C259.596 88.2523 263.037 89.1062 264.991 92.3111C265.837 93.6983 266.196 95.22 266.196 96.8347C265.925 97.3069 265.736 97.7839 266.09 98.3002C266.095 98.831 266.22 99.4402 265.36 99.4011C265.296 99.313 265.232 99.2249 265.168 99.1369C265.208 98.102 265.247 97.0671 265.286 96.0322C265.249 95.905 265.213 95.7802 265.176 95.653C265.045 95.1319 264.954 94.5961 264.777 94.0897C263.327 89.9845 259.244 88.793 256.024 91.7044C252.303 95.0708 250.97 99.3693 251.912 104.289C252.283 106.232 253.667 107.037 255.621 106.682C258.544 106.151 260.813 103.736 261.073 100.441C261.186 99.0023 261.749 98.4078 263.013 98.1191C263.386 98.0335 263.784 97.7154 264.023 98.1876C264.328 98.7919 263.711 98.9436 263.369 99.0194C262.364 99.2445 262.174 99.8586 262.019 100.803C261.523 103.839 260.016 106.224 256.958 107.308C253.615 108.495 251.428 107.201 250.796 103.727C250.72 103.311 250.68 102.885 250.663 102.462C250.508 98.7772 251.523 95.4549 253.841 92.5631C254.294 92.0004 254.242 91.7288 253.63 91.3521C252.676 90.7673 251.782 90.0799 250.872 89.4267M148.611 307.039C146.32 309.441 144.027 311.844 141.788 314.195C142.899 314.195 144.138 314.168 145.374 314.207C145.954 314.224 146.303 314.065 146.505 313.488C147.242 311.379 148.016 309.285 148.776 307.183C148.786 307.088 148.84 306.934 148.801 306.907C148.678 306.819 148.646 306.949 148.614 307.039H148.611ZM166.617 233.326C168.91 234.358 170.257 236.166 170.768 238.566C171.943 244.076 171.678 249.588 170.645 255.085C170.589 255.383 170.39 255.792 170.668 255.944C171.076 256.166 171.243 255.689 171.434 255.432C173.46 252.748 175.326 249.964 176.764 246.918C177.258 245.874 177.941 244.92 178.248 243.787C179.357 243.488 178.956 242.586 178.853 241.967C178.492 239.811 178.177 237.705 178.391 235.469C178.784 231.322 180.129 227.508 181.98 223.86C184.108 219.664 186.827 215.813 189.41 211.887C190.17 210.732 190.954 209.592 191.5 208.312C191.556 208.232 191.61 208.151 191.667 208.068C191.637 208.048 191.61 208.031 191.581 208.012L191.492 208.305C190.954 208.32 190.696 208.755 190.386 209.078C188.968 210.558 187.481 211.972 185.888 213.257C181.119 217.103 175.955 220.313 170.331 222.798C163.682 225.734 156.755 227.672 149.447 228.822C150.706 229.316 151.942 229.379 153.129 229.614C157.718 230.519 162.293 231.464 166.614 233.321L166.617 233.326ZM176.835 314.058C177.462 314.371 177.464 313.884 177.513 313.512C177.624 312.676 177.703 311.834 177.806 310.995C178.327 306.846 178.917 302.704 179.362 298.547C179.765 294.767 179.991 290.968 180.335 287.181C180.79 282.202 181.149 277.218 181.259 272.218C181.267 271.836 181.38 271.457 181.382 271.075C181.397 269.306 181.387 267.535 181.387 265.764C180.886 266.466 180.249 267.024 180.084 267.846C179.947 267.978 179.775 268.091 179.679 268.247C175.36 275.251 170.537 281.896 165.341 288.279C164.886 288.839 164.414 289.395 164.257 290.158C162.662 297.855 160.621 305.434 158.259 312.93C157.977 313.828 158.168 314.092 159.156 314.083C165.048 314.036 170.94 314.056 176.832 314.056L176.835 314.058ZM246.693 115.186C246.199 114.41 245.464 113.926 244.665 113.525C243.758 113.07 243.119 112.39 242.79 111.426C241.703 108.238 239.233 106.425 236.271 105.278C234.184 104.47 232.016 104.683 230.261 106.215C228.518 107.734 227.99 109.735 228.513 111.991C229.212 114.995 231.178 117.062 233.621 118.751C234.951 119.668 236.338 120.502 237.699 121.376C237.621 121.818 237.439 122.129 236.925 121.887C236.596 121.73 236.424 121.792 236.362 122.151C236.141 123.411 235.182 124.192 234.415 125.097C232.818 126.225 232.26 127.715 232.704 129.628C233.054 131.125 233.653 132.515 234.676 133.625C239.592 138.969 245.949 140.906 252.996 141.068C254.045 141.092 254.785 140.432 255.12 139.392C255.38 138.584 255.616 137.775 255.567 136.913C255.96 135.722 255.737 134.499 255.751 133.288C255.756 133.004 255.702 132.767 255.326 132.749C253.893 132.688 252.735 131.898 251.514 131.284C251.3 131.008 250.784 130.819 251.118 130.359C251.455 129.897 251.791 130.291 252.111 130.455C252.315 130.56 252.514 130.675 252.716 130.785C255.663 132.625 258.681 131.761 260.412 128.62C260.621 128.238 260.675 128.035 260.353 127.683C256.447 123.379 252.342 119.277 247.949 115.46C247.524 115.091 247.148 115.098 246.688 115.186H246.693ZM76.7691 314.127C83.3149 314.134 89.8583 314.144 96.4042 314.151C103.424 314.163 110.445 314.171 117.465 314.202C118.057 314.205 118.377 313.862 118.731 313.51C121.963 310.283 125.203 307.066 128.426 303.829C138.472 293.732 148.424 283.55 157.691 272.727C157.964 272.409 158.254 272.108 158.429 271.702C161.305 265.064 163.495 258.214 164.817 251.102C165.267 248.685 165.715 246.236 164.96 243.78C164.608 240.954 162.556 238.855 159.223 238.011C156.089 237.218 152.866 237.074 149.661 236.844C142.466 236.33 135.249 236.401 128.045 236.117C121.57 235.863 115.132 235.3 108.805 233.815C104.302 232.758 99.9413 231.334 95.9494 228.944C92.3778 226.803 90.0525 223.777 89.32 219.63C88.9685 217.639 88.9857 215.64 89.2094 213.639C89.5535 211.346 90.0722 209.095 90.7924 206.889C98.8204 182.282 112.63 161.435 132.002 144.226C136.402 140.317 140.991 136.632 146.023 133.532C150.069 131.042 154.358 130.408 158.955 131.754C171.575 135.446 183.89 139.898 195.413 146.298C200.41 149.073 205.602 151.615 208.896 156.642C208.935 156.363 208.92 156.138 208.866 155.923C207.753 151.48 205.508 147.639 202.436 144.287C197.18 138.553 191.888 132.852 186.552 127.191C185.264 125.826 184.538 124.529 184.546 122.484C184.588 109.486 181.046 97.4414 174.269 86.3392C171.867 82.4027 169.109 78.7281 165.882 75.4204C163.932 73.4216 162.008 73.3262 159.798 75.0265C158.839 75.7629 158.035 76.6534 157.301 77.6051C151.814 84.7196 148.117 92.6658 146.119 101.402C145.922 102.266 145.45 103.257 145.701 103.986C145.986 104.81 147.24 104.793 148.053 105.185C149.84 106.043 151.544 107.029 153.075 108.292C153.299 108.475 153.643 108.659 153.375 109.038C153.092 109.437 152.78 109.278 152.483 109.043C152.36 108.947 152.244 108.845 152.121 108.749C148.422 105.916 144.199 104.443 139.59 103.991C132.73 103.318 126.373 104.989 120.346 108.15C114.24 111.352 109.051 115.746 104.213 120.568C103.324 121.454 102.547 121.657 101.347 121.319C93.0292 118.973 84.657 116.864 76.0316 115.94C68.8467 115.169 61.701 115.269 54.6513 117.026C51.7557 117.747 48.8896 118.589 46.6306 120.71C45.1312 121.892 44.2979 123.441 44.0521 125.319C43.8284 127.042 44.1233 128.71 44.6371 130.337C46.3135 135.636 48.3414 140.801 50.7921 145.797C55.4035 155.201 61.3446 163.424 71.113 168.197C71.4252 168.349 71.6931 168.527 71.5284 168.887C71.3244 169.335 70.9705 169.166 70.646 168.997C69.7562 168.532 68.8246 168.131 67.9863 167.585C67.2194 167.086 67.0277 167.365 66.9023 168.099C65.2382 177.973 64.2476 187.906 64.3754 197.925C64.4566 204.339 64.8597 210.72 66.8556 216.905C69.0679 223.757 73.3081 228.751 80.0211 231.608C85.3723 233.886 91.0382 234.688 96.7606 235.178C105.106 235.892 113.429 236.758 121.636 238.483C125.272 239.249 128.915 239.997 132.422 241.252C132.533 241.881 132.189 242.035 131.648 241.989C130.945 241.776 130.244 241.551 129.539 241.353C125.321 240.176 121.029 239.334 116.737 238.485C115.904 238.321 115.545 238.502 115.585 239.442C115.629 240.558 115.381 241.661 115.191 242.767C114.719 245.512 113.707 248.083 112.647 250.72C115.589 251.241 118.281 252.306 120.923 253.502C126.277 256.323 130.92 260.112 135.433 264.073C135.748 264.347 136.434 264.614 136.001 265.135C135.505 265.735 135.119 265.042 134.785 264.761C132.189 262.554 129.618 260.318 126.838 258.339C124.601 256.746 122.334 255.197 119.773 254.141C117.534 252.861 115.046 252.291 112.593 251.608C112.082 251.466 112.106 251.829 111.996 252.051C108.171 259.594 103.073 266.307 98.1469 273.133C93.0194 280.242 87.8353 287.313 83.6836 295.058C80.4807 301.033 77.8555 307.227 76.5355 313.911C76.5282 313.997 76.5208 314.085 76.511 314.171C76.5945 314.156 76.6781 314.139 76.7617 314.124L76.7691 314.127ZM232.235 186.264C232.778 185.115 233.344 183.977 233.86 182.815C237.141 175.402 240.418 167.987 243.687 160.566C246.192 154.881 248.81 149.244 250.766 143.333C251.081 142.379 250.953 142.127 249.909 141.983C245.128 141.32 240.676 139.724 236.672 136.989C234.929 135.798 233.688 134.149 232.574 132.343C232.429 132.51 232.341 132.586 232.284 132.681C227.938 140.084 223.934 147.668 220.183 155.385C219.357 157.083 218.33 158.746 217.872 160.547C217.177 163.289 217.396 166.164 217.671 168.963C218.084 173.163 219.291 177.195 220.773 181.144C222.169 184.863 223.543 188.591 225.227 192.195C225.859 193.959 226.488 195.723 227.216 197.753C227.931 196.144 228.543 194.795 229.133 193.44C230.173 191.052 231.203 188.657 232.235 186.264ZM109.014 216.905C109.707 218.377 111.02 219.224 112.323 220.034C116.118 222.397 120.405 223.537 124.643 224.773C129.335 226.143 134.163 226.857 138.99 227.52C141.928 227.924 144.843 228.489 147.866 228.017C155.246 226.864 162.428 225.076 169.289 222.084C180.411 217.232 189.693 210.128 196.47 200.004C201.632 192.293 205.022 184.019 204.083 174.494C203.753 171.145 203.07 167.869 201.716 164.762C201.049 162.903 200.305 161.09 198.731 159.771C195.676 157.205 192.358 155.023 188.857 153.104C184.983 150.983 180.999 149.092 176.968 147.287C171.28 144.737 165.506 142.421 159.545 140.578C155.939 139.463 152.564 139.891 149.317 141.858C145.222 144.339 141.652 147.465 138.196 150.714C135.384 153.359 132.87 156.292 130.431 159.289C125.515 165.332 121.376 171.872 117.733 178.729C114.196 185.386 111.214 192.295 108.68 199.383C107.242 203.405 105.907 207.51 106.731 211.889C107.075 213.722 107.424 215.606 109.007 216.902L109.014 216.905ZM119.537 313.833C119.621 313.936 119.704 314.039 119.788 314.141C119.864 314.156 119.94 314.185 120.014 314.185C126.398 314.19 132.781 314.185 139.165 314.202C139.765 314.202 140.173 313.95 140.581 313.554C149.113 305.275 157.296 296.676 164.761 287.42C171.316 279.293 177.295 270.772 182.417 261.671C182.791 261.005 182.865 260.558 182.292 259.897C180.212 257.504 178.179 255.068 176.228 252.572C175.508 251.65 175.119 251.723 174.637 252.663C174.586 252.766 174.512 252.859 174.446 252.952C167.828 262.302 160.565 271.134 152.91 279.653C143.909 289.671 134.423 299.23 124.881 308.732C123.136 310.469 121.319 312.135 119.535 313.833H119.537ZM242.301 166.384C242.08 166.783 241.942 166.993 241.841 167.221C237.34 177.504 232.859 187.791 228.327 198.059C227.899 199.028 227.943 199.826 228.28 200.794C232.921 214.098 236.61 227.586 236.161 241.849C236.637 241.421 236.999 240.751 237.375 240.098C238.83 237.561 239.653 234.789 240.398 231.987C243.053 221.996 244.498 211.813 245.324 201.526C246.042 192.596 245.826 183.705 244.343 174.861C243.874 172.062 243.277 169.288 242.301 166.384ZM222.54 148.507C221.006 148.554 219.969 149.207 219.023 150.022C217.831 151.045 216.956 152.324 216.226 153.694C213.465 158.876 212.278 164.464 212.079 170.272C211.828 177.533 213.318 184.537 215.397 191.444C217.767 199.314 220.972 206.891 223.565 214.683C226.048 222.143 228.041 229.707 228.056 237.639C228.056 238.862 228.253 239.647 229.526 240.2C231.04 240.856 232.235 242.121 233.757 242.83C234.295 243.082 234.56 243.021 234.725 242.397C235.143 240.817 235.354 239.214 235.295 237.585C235.042 230.495 233.786 223.557 232.127 216.677C229.703 206.624 225.935 197.029 222.115 187.451C219.566 181.066 217.064 174.666 216.543 167.715C216.1 161.797 217.015 156.172 220.252 151.064C220.456 150.744 220.714 150.21 220.96 150.203C222.051 150.174 221.982 149.224 222.54 148.51V148.507ZM186.318 258.517C185.581 259.491 185.448 260.651 184.514 261.04C183.007 261.668 182.702 262.853 182.648 264.25C182.474 268.658 182.378 273.074 182.098 277.475C181.734 283.205 181.289 288.93 180.758 294.645C180.328 299.274 179.723 303.888 179.187 308.509C179.005 310.068 178.762 311.621 178.634 313.182C178.607 313.505 178.273 314.227 179.185 314.202C180.488 314.168 181.803 314.102 183.096 314.222C184.15 314.32 184.379 313.889 184.487 312.969C185.691 302.807 186.466 292.614 186.724 282.381C186.923 274.51 186.729 266.65 186.316 258.52L186.318 258.517ZM188.407 249.671C188.813 248.766 189.165 247.995 189.501 247.219C194.231 236.286 198.419 225.176 200.469 213.387C200.887 210.984 201.192 208.552 200.981 206.103C200.69 206.089 200.627 206.238 200.57 206.375C199.228 209.653 197.48 212.746 196.079 215.987C194.029 220.729 191.758 225.348 189.238 229.856C186.869 234.099 184.236 238.182 181.672 242.304C181.434 242.688 181.141 242.921 181.704 243.29C184.285 244.971 186.441 247.109 188.407 249.671ZM162.799 291.518C158.884 295.971 154.933 300.358 150.838 304.615C150.647 304.815 150.56 305.057 150.467 305.317C149.511 307.998 148.55 310.677 147.557 313.346C147.318 313.987 147.377 314.22 148.142 314.21C150.777 314.173 153.412 314.168 156.047 314.215C156.76 314.227 156.956 313.902 157.124 313.312C158.242 309.349 159.419 305.402 160.523 301.437C161.43 298.178 162.229 294.892 162.802 291.521L162.799 291.518ZM188.189 251.968C188.041 251.312 187.901 250.767 187.559 250.273C185.91 247.897 183.835 245.957 181.463 244.318C180.35 243.547 179.814 243.621 179.111 244.81C178.128 246.468 177.258 248.196 176.321 249.881C176.011 250.439 176.117 250.941 176.483 251.386C178.764 254.155 181.063 256.91 183.351 259.672C183.784 260.196 184.116 260.377 184.509 259.591C185.544 257.519 186.65 255.481 187.695 253.414C187.933 252.939 188.044 252.401 188.186 251.966L188.189 251.968ZM254.446 90.7527C254.554 90.6817 254.608 90.6646 254.611 90.6426C254.645 90.1435 254.685 89.6419 254.699 89.1404C254.83 84.6437 254.628 80.196 252.667 76.0247C251.403 73.3335 249.746 73.1818 247.932 75.5598C247.839 75.6821 247.743 75.8045 247.662 75.9366C246.214 78.3439 245.624 80.9788 245.531 83.7532C245.521 84.0859 245.59 84.3232 245.875 84.541C248.694 86.6841 251.543 88.7808 254.444 90.7527H254.446ZM203.544 166.455C203.896 167.906 204.247 169.359 204.599 170.81C204.732 169.244 204.427 167.781 203.544 166.455ZM160.671 269.113C160.811 268.986 160.919 268.927 160.958 268.837C160.99 268.763 160.941 268.653 160.926 268.56C160.85 268.629 160.749 268.683 160.7 268.768C160.661 268.842 160.68 268.949 160.671 269.113ZM170.505 256.504C170.483 256.475 170.464 256.445 170.441 256.416C170.417 256.443 170.365 256.482 170.37 256.492C170.395 256.533 170.434 256.567 170.466 256.604C170.478 256.57 170.491 256.538 170.505 256.504Z" fill="#0C0C0B"/>
<path d="M275.691 106.77C267.012 102.195 264.972 100.355 264.972 100.355C264.642 100.125 264.126 99.9785 264.276 99.4255C264.406 98.9436 264.849 99.1858 265.163 99.1418C265.227 99.2298 265.291 99.3179 265.355 99.406C267.513 100.994 269.726 102.508 272.068 103.819C275.367 105.926 274.443 106.063 276.657 103.171C276.729 103.078 276.81 102.995 276.874 102.9C279.074 99.6286 281.05 96.2451 281.977 92.3723C282.321 90.9386 282.041 89.5514 280.851 88.5948C279.664 87.6407 278.334 88.0101 277.151 88.678C273.408 90.7943 270.229 93.5686 267.641 96.9986C267.1 97.4096 266.862 98.1729 266.085 98.305C265.731 97.7888 265.92 97.3118 266.191 96.8396C266.737 96.8053 266.872 96.294 267.135 95.9735C269.465 93.1429 272.149 90.7111 275.212 88.6903C275.954 88.1985 276.716 87.7435 277.559 87.4327C280.396 86.3807 282.83 87.9587 283.034 90.9826C283.112 92.1619 282.839 93.2824 282.441 94.3784C281.018 98.2904 278.997 101.879 276.409 105.133C275.799 105.901 275.814 106.185 276.692 106.687" fill="#100F0E"/>
<path d="M209.714 164.035C210.112 164.762 209.748 165.587 209.975 166.423C210.611 165.78 210.42 164.924 210.788 164.283C210.852 164.41 210.95 164.447 211.083 164.393C210.923 165.195 210.587 165.993 211.002 166.815C210.707 167.209 210.71 167.676 210.66 168.133C210.491 169.741 210.38 171.36 210.134 172.955C208.512 183.537 205.582 193.766 201.642 203.715C200.949 203.415 200.875 204.276 200.396 204.374C200.442 204.229 200.486 204.082 200.541 203.941C205.312 191.028 209.662 178.022 209.714 164.035Z" fill="#100F0E"/>
<path d="M210.683 162.416C210.161 161.995 210.294 161.52 210.565 161.034C210.656 161.491 210.798 161.941 210.683 162.416Z" fill="#100F0E"/>
<path d="M46.6281 120.71C48.8871 118.589 51.7532 117.747 54.6488 117.026C61.6986 115.269 68.8442 115.169 76.0292 115.94C84.6521 116.864 93.0268 118.973 101.345 121.319C102.544 121.657 103.324 121.454 104.211 120.568C109.048 115.744 114.237 111.35 120.343 108.15C126.371 104.989 132.727 103.32 139.588 103.991C144.197 104.443 148.42 105.916 152.119 108.749C152.242 108.842 152.357 108.945 152.48 109.043C152.778 109.278 153.09 109.437 153.373 109.038C153.64 108.659 153.296 108.478 153.073 108.292C151.541 107.029 149.838 106.043 148.051 105.185C147.237 104.793 145.984 104.813 145.698 103.986C145.448 103.257 145.92 102.266 146.116 101.402C148.115 92.6658 151.814 84.7196 157.298 77.6051C158.033 76.6534 158.839 75.7629 159.795 75.0265C162.005 73.3262 163.93 73.4216 165.879 75.4204C169.107 78.7281 171.865 82.4027 174.266 86.3392C181.043 97.4414 184.585 109.486 184.543 122.484C184.536 124.529 185.264 125.826 186.549 127.191C191.886 132.85 197.178 138.553 202.433 144.287C205.506 147.639 207.75 151.48 208.864 155.923C208.918 156.138 208.93 156.366 208.893 156.642C205.602 151.615 200.408 149.073 195.411 146.298C183.885 139.898 171.572 135.446 158.952 131.754C154.356 130.408 150.066 131.042 146.02 133.532C140.989 136.63 136.4 140.317 132 144.226C112.627 161.435 98.818 182.282 90.7899 206.889C90.0697 209.093 89.551 211.346 89.2069 213.639C89.0815 213.56 88.8849 213.511 88.8431 213.401C87.002 208.635 86.004 203.674 85.7902 198.595C85.6206 194.566 85.7042 190.526 85.5296 186.494C85.419 183.972 85.2863 181.438 85.4092 178.92C85.4854 177.345 85.3379 175.752 85.5862 174.191C85.9254 172.065 84.9888 170.264 83.106 169.366C80.6676 168.202 78.3668 166.79 76.1422 165.256C73.5563 163.47 71.4178 161.168 69.0359 159.152C65.7864 156.4 62.8907 153.322 60.2754 149.978C58.4908 147.698 57.1536 145.144 55.7132 142.646C52.9994 137.939 50.5487 133.109 48.602 128.04C47.6949 125.677 46.8985 123.257 46.6232 120.713L46.6281 120.71Z" fill="#E7CDAA"/>
<path d="M201.718 164.765C203.072 167.872 203.756 171.148 204.085 174.497C205.024 184.021 201.632 192.295 196.472 200.007C189.696 210.13 180.414 217.235 169.291 222.086C162.431 225.081 155.248 226.869 147.869 228.019C144.845 228.491 141.93 227.926 138.993 227.522C134.165 226.859 129.337 226.145 124.645 224.775C120.407 223.537 116.12 222.399 112.325 220.036C111.022 219.224 109.707 218.377 109.017 216.907C109.326 216.359 109.363 215.735 109.506 215.141C109.82 213.839 110.012 212.518 110.457 211.238C111.138 209.274 112.018 207.405 112.849 205.506C114.112 202.617 115.1 199.615 116.442 196.748C118.893 191.51 121.307 186.257 124.556 181.442C127.72 176.752 130.569 171.811 134.959 168.075C136.058 167.14 136.95 165.912 138.408 165.435C138.253 166.617 138.01 167.793 137.958 168.977C137.668 175.864 139.224 182.384 142.171 188.572C143.317 190.974 144.688 193.284 146.954 194.879C148.737 196.131 150.585 195.799 151.765 193.986C153.021 192.055 153.213 189.829 153.242 187.647C153.321 181.543 151.959 175.696 149.437 170.157C147.921 166.822 146.283 163.475 142.503 161.99C142.67 161.831 142.815 161.643 143.004 161.52C146.168 159.456 149.344 157.435 152.773 155.801C157.276 153.655 162.025 152.711 166.951 152.422C165.105 155.005 164.714 158 164.798 161.019C164.943 166.218 166.054 171.255 168.03 176.08C169.296 179.17 170.815 182.11 173.389 184.373C175.559 186.282 177.781 185.851 179.045 183.253C179.625 182.059 179.969 180.784 180.05 179.473C180.522 171.776 178.833 164.527 175.222 157.738C174.106 155.639 172.836 153.569 170.564 152.424C170.845 152.116 171.221 152.202 171.55 152.234C173.236 152.405 174.918 152.637 176.606 152.794C179.428 153.056 182.142 153.807 184.868 154.506C187.724 155.24 190.443 156.339 193.058 157.662C196.155 159.231 198.805 161.381 200.877 164.192C201.081 164.469 201.339 164.718 201.72 164.765H201.718Z" fill="#504641"/>
<path d="M263.858 98.7234C263.62 98.2512 263.381 98.0408 263.01 98.1264C261.747 98.4151 261.184 99.0096 261.071 100.448C260.81 103.744 258.541 106.158 255.619 106.689C253.665 107.044 252.281 106.239 251.909 104.297C250.968 99.3766 252.3 95.0781 256.022 91.7117C259.242 88.8003 263.325 89.9918 264.775 94.097C264.954 94.601 265.043 95.1393 265.173 95.6604C265.21 95.7876 265.247 95.9124 265.284 96.0396C265.244 97.0744 265.205 98.1093 265.166 99.1442C264.851 99.1882 264.409 98.946 264.278 99.428" fill="#FDFDFD"/>
<path d="M119.778 254.143C122.339 255.197 124.606 256.749 126.842 258.341C129.623 260.32 132.196 262.554 134.789 264.763C135.124 265.047 135.51 265.739 136.006 265.138C136.439 264.617 135.751 264.35 135.438 264.076C130.925 260.115 126.282 256.325 120.928 253.504C121.339 252.09 122.57 251.3 123.502 250.319C125.348 248.377 126.808 246.101 128.947 244.394C129.873 243.655 131.181 243.261 131.653 241.994C132.191 242.04 132.538 241.886 132.427 241.257C134.113 241.035 135.733 240.523 137.324 239.978C140.485 238.891 143.757 238.461 147.053 238.253C149.708 238.084 152.367 238.402 154.978 238.931C157.588 239.459 160.081 240.23 162.322 241.81C163.222 242.444 163.834 243.471 164.965 243.782C165.719 246.236 165.272 248.687 164.822 251.104C163.5 258.214 161.31 265.067 158.434 271.704C158.257 272.11 157.969 272.411 157.696 272.729C148.429 283.553 138.477 293.735 128.43 303.832C125.21 307.068 121.968 310.286 118.736 313.512C118.382 313.865 118.062 314.207 117.47 314.205C110.45 314.176 103.429 314.168 96.4091 314.153C96.7581 312.935 97.0064 311.695 97.4021 310.484C97.8642 309.067 98.3509 307.648 98.5722 306.158C99.1498 302.29 99.8577 298.447 100.893 294.667C101.369 292.925 101.937 291.208 102.439 289.478C103.542 285.664 104.968 281.977 106.499 278.327C108.208 274.248 110.088 270.243 112.079 266.295C113.795 262.894 115.481 259.471 117.961 256.509C118.593 255.753 119.483 255.161 119.783 254.143H119.778ZM142.06 273.329C142.006 273.184 141.955 273.04 141.901 272.896C141.109 270.85 139.919 269.067 138.366 267.521C138.086 267.242 137.761 266.931 137.385 267.337C137.034 267.721 137.432 267.966 137.665 268.193C138.946 269.453 139.959 270.899 140.706 272.531C140.866 272.881 140.996 273.245 141.183 273.581C141.298 273.791 141.512 273.903 141.773 273.781C141.962 273.691 142.075 273.549 142.06 273.329Z" fill="#E7CDAA"/>
<path d="M209.714 164.035C209.662 178.022 205.314 191.03 200.541 203.941C200.489 204.082 200.445 204.229 200.396 204.374C197.824 209.981 195.293 215.608 192.667 221.191C189.297 228.362 185.121 235.082 180.844 241.739C180.689 241.979 180.625 242.407 180.244 242.356C179.772 242.292 179.898 241.822 179.826 241.509C178.784 236.92 179.566 232.508 181.161 228.178C182.705 223.982 185.148 220.276 187.559 216.557C189.45 213.641 191.65 210.872 193.038 207.698C194.349 204.704 196.318 202.191 198.043 199.495C201.691 193.802 204.233 187.713 205.103 180.946C205.427 178.423 205.879 175.926 205.951 173.371C206.123 167.341 203.751 162.575 199.093 158.749C193.71 154.328 187.623 151.125 181.375 148.172C174.355 144.855 167.209 141.843 159.759 139.59C155.43 138.281 151.438 138.976 147.746 141.564C141.097 146.227 135.279 151.766 130.131 158.02C125.579 163.549 121.639 169.479 118.178 175.737C114.073 183.162 110.644 190.888 107.738 198.842C106.406 202.487 105.384 206.228 105.519 210.184C105.661 214.35 107.352 217.683 110.735 220.161C113.817 222.419 117.406 223.547 120.97 224.729C127.214 226.801 133.669 227.87 140.17 228.704C147.225 229.609 154.267 230.588 161.143 232.472C162.266 232.78 163.377 233.135 164.483 233.504C168.276 234.772 169.969 237.086 170.289 241.404C170.717 247.183 170.377 252.9 168.851 258.515C168.763 258.843 168.649 259.197 168.443 259.457C166.145 262.373 163.827 265.272 161.511 268.176C161.393 268.325 161.285 268.494 161.02 268.448C160.771 268.015 161.108 267.658 161.246 267.298C163.392 261.617 165.031 255.799 166.002 249.803C166.331 247.772 166.459 245.732 166.034 243.696C165.154 239.479 162.199 237.531 158.24 236.817C153.572 235.975 148.842 235.76 144.11 235.584C137.557 235.342 130.997 235.359 124.448 234.967C115.619 234.436 106.967 233.11 98.8327 229.397C94.3074 227.329 91.0382 224.227 90.2614 219.102C89.7256 215.562 90.227 212.083 91.252 208.694C95.1776 195.715 101.062 183.649 108.604 172.381C117.949 158.421 129.448 146.499 143.061 136.608C144.342 135.678 145.74 134.912 147.092 134.08C150.71 131.854 154.55 131.485 158.603 132.657C173.091 136.838 187.06 142.235 200.022 150.019C201.551 150.937 203.031 151.925 204.397 153.078C206.531 154.878 208.269 156.968 209.23 159.624C209.301 159.857 209.37 160.089 209.441 160.322C209.456 160.478 209.468 160.632 209.483 160.789C209.564 161.714 209.643 162.639 209.724 163.563C209.721 163.72 209.719 163.876 209.714 164.035Z" fill="#84DDCF"/>
<path d="M212.489 184.882C213.187 186.228 213.323 187.735 213.721 189.166C215.891 196.968 218.964 204.459 221.646 212.083C223.951 218.637 225.967 225.262 226.778 232.193C227.044 234.453 227.23 236.719 227.095 239.092C223.769 238.216 220.493 238.199 217.258 239.351C213.455 240.707 210.216 242.862 207.691 246.03C207.524 246.241 207.374 246.468 207.217 246.688C207.037 246.945 207.018 247.21 207.288 247.4C207.556 247.589 207.802 247.481 207.993 247.236C208.507 246.586 208.923 245.847 209.758 245.282C210.481 249.252 211.155 253.111 211.673 256.993C211.373 257.067 211.076 257.164 210.771 257.208C207.04 257.727 203.709 259.119 200.902 261.664C196.128 265.991 193.309 271.489 191.802 277.603C190.509 282.848 190.782 288.123 192.719 293.26C194.489 297.96 197.773 301.221 202.281 303.249C206.543 305.167 211.054 305.965 215.741 305.645C215.992 308.262 215.852 310.89 215.938 313.51C215.97 314.469 215.287 314.18 214.82 314.183C207.367 314.195 199.914 314.193 192.461 314.193C190.713 314.193 188.968 314.193 187.22 314.193C185.699 314.193 185.269 313.816 185.473 312.238C187.292 298.075 187.987 283.851 187.714 269.58C187.638 265.602 187.427 261.629 187.235 257.654C187.201 256.932 187.319 256.315 187.641 255.667C188.398 254.143 189.55 252.724 189.022 250.801C188.934 250.478 189.292 250.023 189.467 249.637C194.012 239.564 197.925 229.272 200.457 218.497C201.369 214.62 202.001 210.7 202.028 206.703C202.64 206.48 202.824 205.895 203.085 205.401C204.776 202.206 206.637 199.104 208.175 195.828C209.451 193.11 210.648 190.372 211.59 187.517C211.877 186.641 211.619 185.562 212.487 184.887L212.489 184.882Z" fill="#E7CDAA"/>
<path d="M164.962 243.78C163.829 243.471 163.22 242.444 162.32 241.808C160.078 240.227 157.583 239.459 154.975 238.928C152.365 238.397 149.705 238.082 147.05 238.25C143.757 238.458 140.485 238.889 137.321 239.975C135.733 240.521 134.111 241.032 132.425 241.255C128.915 240 125.272 239.251 121.639 238.485C113.431 236.758 105.108 235.894 96.763 235.18C91.0406 234.688 85.3772 233.888 80.0235 231.611C73.3105 228.753 69.0704 223.76 66.8581 216.907C64.8621 210.725 64.459 204.342 64.3779 197.927C64.2525 187.909 65.2407 177.976 66.9048 168.102C67.0277 167.365 67.2219 167.086 67.9888 167.588C68.827 168.133 69.7586 168.532 70.6484 168.999C70.9729 169.168 71.3244 169.337 71.5309 168.889C71.6956 168.53 71.4252 168.351 71.1155 168.199C61.3471 163.426 55.4059 155.204 50.7946 145.799C48.3463 140.806 46.3159 135.641 44.6395 130.34C44.1258 128.713 43.8284 127.044 44.0545 125.322C44.3003 123.443 45.1336 121.894 46.633 120.713C46.9083 123.257 47.7048 125.677 48.6118 128.04C50.5586 133.107 53.0117 137.939 55.723 142.646C57.1634 145.144 58.5006 147.695 60.2852 149.978C62.9006 153.322 65.7962 156.4 69.0458 159.152C71.4277 161.171 73.5662 163.473 76.1521 165.256C78.3742 166.79 80.6774 168.202 83.1158 169.366C84.9987 170.267 85.9352 172.067 85.596 174.191C85.3477 175.752 85.4952 177.342 85.419 178.92C85.2961 181.438 85.4313 183.97 85.5395 186.494C85.714 190.529 85.6304 194.568 85.8 198.595C86.0139 203.674 87.0119 208.635 88.853 213.401C88.8947 213.511 89.0914 213.56 89.2168 213.639C88.9955 215.64 88.9783 217.639 89.3274 219.63C90.0574 223.777 92.3852 226.803 95.9568 228.944C99.9463 231.334 104.309 232.758 108.813 233.815C115.14 235.3 121.577 235.863 128.052 236.117C135.257 236.401 142.473 236.33 149.668 236.844C152.874 237.074 156.096 237.216 159.23 238.011C162.563 238.855 164.613 240.954 164.967 243.78H164.962Z" fill="#CEB18B"/>
<path d="M225.227 192.195C223.543 188.591 222.169 184.863 220.773 181.144C219.291 177.195 218.084 173.163 217.671 168.963C217.396 166.166 217.177 163.292 217.872 160.547C218.33 158.746 219.357 157.085 220.183 155.385C223.934 147.668 227.936 140.084 232.284 132.681C232.341 132.586 232.429 132.51 232.574 132.343C233.69 134.149 234.929 135.798 236.672 136.989C240.676 139.725 245.128 141.32 249.909 141.983C250.953 142.127 251.081 142.379 250.766 143.333C248.81 149.244 246.192 154.881 243.687 160.566C240.418 167.984 237.141 175.402 233.86 182.815C233.346 183.977 232.778 185.115 232.237 186.264C231.989 186.311 231.864 186.497 231.704 186.671C229.779 188.782 227.661 190.671 225.227 192.195Z" fill="#504641"/>
<path d="M119.537 313.833C121.322 312.135 123.138 310.469 124.883 308.732C134.426 299.23 143.911 289.671 152.913 279.653C160.567 271.134 167.831 262.3 174.448 252.952C174.514 252.856 174.588 252.766 174.64 252.663C175.122 251.723 175.51 251.65 176.23 252.572C178.182 255.068 180.215 257.505 182.294 259.897C182.867 260.555 182.793 261.005 182.42 261.671C177.297 270.774 171.319 279.293 164.763 287.42C157.298 296.678 149.115 305.275 140.583 313.554C140.175 313.95 139.765 314.202 139.167 314.202C132.784 314.188 126.4 314.19 120.016 314.185C119.94 314.185 119.864 314.156 119.79 314.141C119.707 314.039 119.623 313.936 119.54 313.833H119.537Z" fill="#FDFDFD"/>
<path d="M166.951 152.419C162.022 152.706 157.276 153.65 152.773 155.798C149.341 157.432 146.165 159.453 143.004 161.518C142.815 161.643 142.668 161.829 142.503 161.988C140.357 161.848 139.425 163.292 138.641 164.926C138.459 165.046 138.378 165.215 138.398 165.432H138.405C136.948 165.91 136.055 167.138 134.957 168.072C130.566 171.808 127.718 176.75 124.554 181.44C121.304 186.255 118.891 191.507 116.44 196.745C115.098 199.613 114.11 202.617 112.846 205.504C112.015 207.402 111.135 209.272 110.455 211.236C110.01 212.516 109.818 213.839 109.503 215.138C109.358 215.733 109.324 216.354 109.014 216.905C107.431 215.606 107.082 213.722 106.738 211.892C105.912 207.512 107.249 203.407 108.687 199.385C111.221 192.298 114.203 185.389 117.74 178.732C121.383 171.872 125.523 165.335 130.439 159.292C132.877 156.295 135.392 153.359 138.204 150.717C141.66 147.468 145.229 144.341 149.324 141.86C152.571 139.893 155.944 139.465 159.552 140.581C165.513 142.425 171.285 144.742 176.975 147.289C181.006 149.095 184.991 150.986 188.865 153.107C192.365 155.025 195.683 157.207 198.739 159.774C200.312 161.095 201.057 162.908 201.723 164.765C201.344 164.718 201.084 164.469 200.88 164.192C198.808 161.379 196.16 159.231 193.061 157.662C190.445 156.339 187.724 155.238 184.87 154.506C182.144 153.807 179.431 153.056 176.609 152.794C174.92 152.637 173.239 152.405 171.552 152.234C171.223 152.199 170.847 152.116 170.567 152.424C169.362 151.73 168.16 151.93 166.956 152.424L166.951 152.419Z" fill="#2F1F1A"/>
<path d="M119.778 254.143C119.478 255.161 118.588 255.753 117.957 256.509C115.476 259.471 113.79 262.892 112.074 266.295C110.083 270.243 108.203 274.248 106.495 278.327C104.966 281.977 103.54 285.664 102.434 289.478C101.932 291.21 101.365 292.925 100.888 294.667C99.8504 298.444 99.1449 302.288 98.5673 306.158C98.346 307.646 97.8593 309.067 97.3972 310.484C97.0015 311.695 96.7532 312.935 96.4041 314.153C89.8583 314.146 83.3149 314.136 76.769 314.129C76.6928 314.058 76.6166 313.987 76.5404 313.914C77.8629 307.232 80.4881 301.038 83.691 295.061C87.8427 287.315 93.0268 280.245 98.1543 273.135C103.078 266.309 108.176 259.594 112.003 252.054C112.116 251.833 112.089 251.469 112.6 251.611C115.054 252.293 117.541 252.863 119.78 254.143H119.778Z" fill="#CEB18B"/>
<path d="M242.301 166.384C243.277 169.288 243.876 172.063 244.343 174.861C245.826 183.705 246.042 192.596 245.324 201.526C244.498 211.811 243.053 221.996 240.398 231.987C239.653 234.789 238.83 237.561 237.375 240.098C236.999 240.753 236.637 241.421 236.161 241.849C236.61 227.586 232.921 214.098 228.28 200.794C227.943 199.826 227.899 199.028 228.327 198.059C232.859 187.791 237.343 177.504 241.841 167.221C241.942 166.993 242.08 166.783 242.301 166.384Z" fill="#CEB08A"/>
<path d="M222.54 148.507C221.982 149.219 222.054 150.171 220.96 150.2C220.714 150.208 220.456 150.741 220.252 151.062C217.015 156.168 216.1 161.794 216.543 167.713C217.064 174.663 219.566 181.063 222.115 187.449C225.937 197.027 229.703 206.622 232.127 216.675C233.786 223.554 235.042 230.495 235.295 237.583C235.354 239.212 235.143 240.814 234.725 242.395C234.56 243.019 234.295 243.08 233.757 242.828C232.235 242.116 231.04 240.854 229.526 240.198C228.253 239.647 228.059 238.862 228.056 237.636C228.042 229.702 226.046 222.14 223.565 214.681C220.972 206.889 217.769 199.309 215.397 191.441C213.318 184.535 211.826 177.53 212.079 170.269C212.28 164.461 213.468 158.873 216.226 153.692C216.956 152.322 217.831 151.042 219.023 150.019C219.969 149.205 221.006 148.554 222.54 148.505V148.507Z" fill="#84DDCF"/>
<path d="M255.567 136.913C255.616 137.775 255.38 138.584 255.12 139.392C254.785 140.432 254.045 141.092 252.996 141.068C245.949 140.909 239.592 138.971 234.676 133.625C233.653 132.515 233.054 131.123 232.704 129.628C232.26 127.712 232.818 126.222 234.415 125.097C234.931 125.285 235.462 125.412 235.915 124.989C236.664 124.287 237.451 123.607 238.093 122.814C238.493 122.318 238.557 121.662 237.702 121.378C236.34 120.505 234.954 119.67 233.624 118.753C231.18 117.065 229.214 114.995 228.516 111.993C227.99 109.738 228.518 107.736 230.264 106.217C232.019 104.688 234.187 104.473 236.274 105.28C239.236 106.427 241.706 108.243 242.792 111.428C243.122 112.392 243.761 113.072 244.668 113.527C245.469 113.928 246.204 114.415 246.696 115.188C246.681 115.873 247.111 116.265 247.674 116.483C249.439 117.168 250.592 118.455 251.41 120.096C251.892 121.063 252.352 122.039 253.048 122.88C253.839 123.837 254.181 125.001 254.345 126.181C254.525 127.48 254.599 128.825 253.193 129.66C252.792 129.897 252.723 130.347 252.723 130.787C252.521 130.677 252.322 130.562 252.118 130.457C251.799 130.291 251.462 129.899 251.125 130.362C250.789 130.822 251.307 131.01 251.521 131.286C250.961 131.519 250.823 131.712 251.371 132.226C252.757 133.523 254.262 134.739 255.036 136.554C255.137 136.789 255.324 136.899 255.572 136.916L255.567 136.913Z" fill="#FDFDFD"/>
<path d="M176.835 314.058C170.943 314.058 165.051 314.041 159.159 314.085C158.171 314.092 157.979 313.831 158.262 312.933C160.624 305.437 162.664 297.855 164.259 290.161C164.417 289.395 164.889 288.842 165.343 288.282C170.542 281.901 175.365 275.254 179.681 268.25C179.777 268.093 179.949 267.98 180.087 267.848C179.625 283.296 178.779 298.716 176.835 314.058Z" fill="#504641"/>
<path d="M215.741 305.645C211.054 305.965 206.543 305.167 202.281 303.249C197.77 301.219 194.489 297.96 192.719 293.26C190.782 288.123 190.509 282.845 191.802 277.603C193.311 271.489 196.128 265.991 200.902 261.664C203.709 259.119 207.04 257.727 210.771 257.208C211.076 257.167 211.371 257.067 211.673 256.993C212.113 259.665 212.511 262.344 212.745 265.045C208.994 265.204 206.211 267.119 204.09 270.009C200.6 274.762 198.672 280.056 199.213 286.026C199.636 290.711 201.516 294.496 206.285 296.228C209.25 297.304 212.27 298.08 215.476 297.593C215.731 300.272 215.756 302.958 215.744 305.647L215.741 305.645Z" fill="#86DFD0"/>
<path d="M215.473 297.591C212.268 298.077 209.247 297.302 206.283 296.225C201.514 294.493 199.634 290.709 199.211 286.023C198.67 280.054 200.597 274.76 204.088 270.006C206.209 267.117 208.991 265.201 212.742 265.042C213.254 268.367 213.654 271.704 213.856 275.063C213.001 275.036 212.162 275.046 211.356 275.425C208.957 276.553 207.472 278.315 207.04 280.998C206.833 282.285 207.059 283.374 207.767 284.379C209.51 286.858 212 287.827 214.96 287.785C215.198 291.051 215.471 294.315 215.471 297.591H215.473Z" fill="#E6CCAA"/>
<path d="M191.5 208.315C190.954 209.594 190.167 210.735 189.41 211.889C186.827 215.816 184.108 219.667 181.98 223.863C180.129 227.51 178.787 231.324 178.391 235.471C178.179 237.707 178.492 239.814 178.853 241.969C178.956 242.588 179.359 243.488 178.248 243.787C177.693 241.879 177.103 239.983 176.601 238.06C176.412 237.333 176.137 236.682 175.702 236.085C173.534 233.093 169.901 232.824 166.614 233.326C162.29 231.469 157.718 230.524 153.129 229.619C151.942 229.384 150.705 229.323 149.447 228.826C156.755 227.674 163.682 225.739 170.331 222.803C175.957 220.318 181.119 217.108 185.888 213.262C187.481 211.977 188.968 210.563 190.386 209.083C190.696 208.758 190.954 208.325 191.492 208.31L191.5 208.315Z" fill="#2F1F1A"/>
<path d="M186.318 258.517C186.731 266.647 186.925 274.505 186.726 282.378C186.466 292.612 185.694 302.804 184.489 312.967C184.381 313.887 184.153 314.317 183.098 314.22C181.805 314.1 180.49 314.166 179.187 314.2C178.275 314.224 178.61 313.503 178.637 313.18C178.762 311.616 179.008 310.065 179.19 308.507C179.726 303.888 180.33 299.274 180.76 294.643C181.291 288.928 181.736 283.203 182.1 277.473C182.38 273.069 182.476 268.656 182.651 264.247C182.705 262.848 183.01 261.664 184.516 261.037C185.45 260.648 185.586 259.489 186.321 258.515L186.318 258.517Z" fill="#83DCCD"/>
<path d="M188.407 249.671C186.441 247.109 184.285 244.971 181.704 243.29C181.141 242.923 181.431 242.691 181.672 242.304C184.239 238.182 186.869 234.099 189.238 229.856C191.758 225.348 194.029 220.729 196.079 215.987C197.48 212.743 199.228 209.651 200.57 206.375C200.627 206.24 200.691 206.089 200.981 206.103C201.192 208.552 200.887 210.982 200.469 213.387C198.419 225.176 194.231 236.286 189.501 247.219C189.165 247.995 188.813 248.763 188.407 249.671Z" fill="#FDFDFD"/>
<path d="M131.651 241.994C131.179 243.261 129.871 243.655 128.944 244.394C126.806 246.099 125.346 248.377 123.5 250.319C122.568 251.3 121.336 252.09 120.926 253.504C118.281 252.311 115.592 251.244 112.65 250.723C113.709 248.085 114.722 245.514 115.194 242.769C115.383 241.666 115.631 240.56 115.587 239.444C115.55 238.507 115.907 238.324 116.74 238.488C121.032 239.337 125.326 240.178 129.541 241.355C130.249 241.553 130.948 241.778 131.651 241.991V241.994Z" fill="#CEB08A"/>
<path d="M162.799 291.518C162.227 294.89 161.43 298.178 160.521 301.434C159.414 305.4 158.24 309.349 157.121 313.309C156.954 313.899 156.76 314.224 156.044 314.212C153.409 314.168 150.774 314.171 148.139 314.207C147.375 314.217 147.316 313.985 147.554 313.344C148.547 310.677 149.511 307.996 150.465 305.314C150.558 305.055 150.644 304.813 150.836 304.612C154.931 300.355 158.881 295.969 162.797 291.516L162.799 291.518Z" fill="#83DCCD"/>
<path d="M188.189 251.968C188.044 252.404 187.936 252.942 187.697 253.416C186.652 255.484 185.546 257.522 184.511 259.594C184.118 260.379 183.786 260.198 183.354 259.675C181.065 256.912 178.767 254.158 176.486 251.388C176.12 250.943 176.014 250.441 176.324 249.884C177.26 248.196 178.13 246.471 179.114 244.812C179.817 243.625 180.352 243.552 181.466 244.32C183.838 245.957 185.913 247.899 187.562 250.275C187.906 250.769 188.044 251.315 188.191 251.97L188.189 251.968Z" fill="#4B3111"/>
<path d="M166.617 233.326C169.903 232.824 173.539 233.093 175.704 236.085C176.137 236.685 176.415 237.333 176.604 238.06C177.103 239.98 177.695 241.879 178.251 243.787C177.943 244.92 177.26 245.874 176.766 246.918C175.328 249.964 173.46 252.748 171.437 255.432C171.243 255.689 171.078 256.166 170.67 255.944C170.392 255.792 170.591 255.383 170.648 255.085C171.68 249.585 171.946 244.076 170.771 238.566C170.26 236.168 168.912 234.358 166.619 233.326H166.617Z" fill="#504641"/>
<path d="M212.489 184.882C211.622 185.56 211.88 186.639 211.592 187.512C210.651 190.367 209.454 193.105 208.178 195.823C206.639 199.101 204.776 202.204 203.087 205.396C202.827 205.89 202.642 206.475 202.03 206.698C201.92 205.893 201.811 205.086 201.701 204.281C201.706 204.239 201.701 204.2 201.681 204.161L201.647 203.713C205.587 193.763 208.517 183.537 210.139 172.953C210.385 171.355 210.496 169.738 210.665 168.131C210.715 167.673 210.712 167.206 211.007 166.812C211.747 166.822 211.28 167.365 211.265 167.563C211.059 170.257 211.022 172.941 211.248 175.639C211.474 178.328 211.845 180.987 212.408 183.625C212.494 184.031 212.467 184.461 212.494 184.88L212.489 184.882Z" fill="#CEB08A"/>
<path d="M254.446 90.7527C251.548 88.7808 248.697 86.6841 245.877 84.541C245.592 84.3232 245.521 84.0859 245.533 83.7532C245.624 80.9788 246.217 78.3415 247.664 75.9366C247.743 75.8045 247.841 75.6821 247.935 75.5598C249.749 73.1818 251.403 73.3359 252.669 76.0247C254.628 80.196 254.832 84.6437 254.702 89.1404C254.687 89.6419 254.648 90.141 254.613 90.6426C254.613 90.6646 254.557 90.6817 254.449 90.7527H254.446Z" fill="#FDFDFD"/>
<path d="M214.962 287.785C212.003 287.827 209.513 286.858 207.77 284.379C207.062 283.374 206.836 282.285 207.042 280.998C207.475 278.315 208.959 276.553 211.359 275.425C212.162 275.046 213.003 275.036 213.858 275.063C214.333 278.138 214.468 281.245 214.753 284.338C214.859 285.483 214.896 286.635 214.965 287.783L214.962 287.785Z" fill="#86DFD0"/>
<path d="M252.721 130.787C252.721 130.347 252.792 129.897 253.19 129.66C254.596 128.825 254.522 127.48 254.343 126.181C254.181 125.001 253.837 123.839 253.045 122.88C252.349 122.039 251.89 121.06 251.408 120.096C250.589 118.455 249.434 117.168 247.672 116.483C247.109 116.265 246.681 115.873 246.693 115.188C247.153 115.1 247.529 115.093 247.954 115.462C252.347 119.279 256.452 123.382 260.358 127.685C260.677 128.038 260.626 128.243 260.417 128.622C258.686 131.766 255.67 132.627 252.721 130.787Z" fill="#FBF2ED"/>
<path d="M176.835 314.058C178.779 298.716 179.622 283.296 180.087 267.848C180.252 267.024 180.888 266.469 181.39 265.764C181.39 267.535 181.397 269.304 181.385 271.075C181.382 271.457 181.269 271.836 181.262 272.218C181.154 277.218 180.792 282.202 180.338 287.181C179.993 290.968 179.767 294.765 179.364 298.547C178.919 302.704 178.332 306.846 177.808 310.995C177.703 311.834 177.626 312.676 177.516 313.512C177.467 313.884 177.464 314.371 176.837 314.058H176.835Z" fill="#2F1F1A"/>
<path d="M225.227 192.195C227.661 190.671 229.779 188.784 231.704 186.671C231.864 186.497 231.989 186.311 232.237 186.264C231.203 188.657 230.175 191.05 229.135 193.44C228.545 194.798 227.933 196.146 227.218 197.753C226.49 195.72 225.859 193.956 225.229 192.195H225.227Z" fill="#2F1F1A"/>
<path d="M148.776 307.183C148.016 309.282 147.242 311.379 146.505 313.486C146.303 314.063 145.957 314.222 145.374 314.205C144.138 314.168 142.899 314.193 141.788 314.193C144.029 311.844 146.32 309.442 148.611 307.037C148.663 307.09 148.717 307.137 148.776 307.181V307.183Z" fill="#CEB08A"/>
<path d="M272.068 103.817C269.726 102.506 267.516 100.991 265.355 99.4035C266.215 99.4402 266.09 98.8335 266.085 98.3026C266.862 98.1705 267.1 97.4047 267.641 96.9962C268.656 98.743 269.716 100.458 270.982 102.043C271.409 102.582 272.225 102.917 272.068 103.817Z" fill="#FBF2ED"/>
<path d="M255.567 136.913C255.316 136.899 255.129 136.786 255.031 136.551C254.257 134.734 252.753 133.518 251.366 132.223C250.818 131.712 250.958 131.516 251.516 131.284C252.738 131.898 253.893 132.688 255.329 132.749C255.705 132.767 255.756 133.004 255.754 133.288C255.737 134.499 255.96 135.722 255.569 136.913H255.567Z" fill="#FBF2ED"/>
<path d="M237.702 121.376C238.557 121.659 238.493 122.315 238.093 122.812C237.451 123.604 236.664 124.285 235.915 124.987C235.462 125.41 234.931 125.283 234.415 125.094C235.182 124.189 236.138 123.409 236.362 122.149C236.426 121.789 236.598 121.728 236.925 121.885C237.439 122.129 237.621 121.816 237.699 121.373L237.702 121.376Z" fill="#FBF2ED"/>
<path d="M203.544 166.455C204.427 167.781 204.732 169.244 204.599 170.81C204.247 169.359 203.896 167.906 203.544 166.455Z" fill="#CEB08A"/>
<path d="M209.724 163.563C209.643 162.639 209.564 161.714 209.483 160.789C210.306 161.65 209.864 162.619 209.724 163.563Z" fill="#100F0E"/>
<path d="M209.441 160.324C209.37 160.092 209.301 159.859 209.23 159.627C209.328 159.478 209.426 159.331 209.635 159.01C209.648 159.571 209.79 159.964 209.441 160.324Z" fill="#100F0E"/>
<path d="M160.671 269.113C160.683 268.949 160.661 268.842 160.7 268.768C160.747 268.683 160.848 268.629 160.926 268.56C160.941 268.653 160.99 268.763 160.958 268.837C160.919 268.925 160.811 268.984 160.671 269.113Z" fill="#84DDCF"/>
<path d="M191.495 208.31L191.583 208.016C191.613 208.036 191.64 208.053 191.669 208.073C191.613 208.153 191.559 208.234 191.502 208.317L191.495 208.312V208.31Z" fill="#2F1F1A"/>
<path d="M170.505 256.504C170.493 256.538 170.481 256.57 170.466 256.604C170.432 256.567 170.392 256.533 170.37 256.492C170.365 256.482 170.417 256.443 170.441 256.416C170.464 256.445 170.483 256.475 170.505 256.504Z" fill="#504641"/>
<path d="M148.611 307.039C148.646 306.949 148.678 306.819 148.798 306.907C148.837 306.934 148.783 307.088 148.773 307.183C148.714 307.139 148.66 307.09 148.609 307.039H148.611Z" fill="#CEB08A"/>
<path d="M201.679 204.163C201.698 204.202 201.703 204.241 201.698 204.283C201.627 204.273 201.553 204.263 201.482 204.254C201.548 204.224 201.615 204.195 201.679 204.163Z" fill="#100F0E"/>
<path d="M272.068 103.817C272.225 102.914 271.409 102.582 270.982 102.043C269.716 100.458 268.656 98.743 267.641 96.9962C270.232 93.5662 273.41 90.7918 277.151 88.6756C278.334 88.0077 279.664 87.6383 280.851 88.5924C282.041 89.549 282.321 90.9362 281.977 92.3698C281.05 96.2426 279.074 99.6286 276.874 102.897C276.81 102.993 276.726 103.076 276.657 103.169C274.443 106.063 275.367 105.923 272.068 103.817Z" fill="#FDFDFD"/>
<path d="M138.641 164.926C139.425 163.292 140.357 161.846 142.503 161.988C146.281 163.47 147.918 166.82 149.435 170.154C151.954 175.693 153.318 181.538 153.24 187.644C153.21 189.827 153.021 192.053 151.762 193.983C150.583 195.796 148.734 196.129 146.952 194.876C144.686 193.281 143.312 190.972 142.169 188.569C139.219 182.382 137.663 175.862 137.955 168.975C138.005 167.791 138.25 166.612 138.405 165.432H138.398C138.631 165.337 138.622 165.124 138.641 164.926ZM152.436 186.776C152.37 181.599 151.261 176.625 149.319 171.842C148.115 168.877 146.75 165.966 144.211 163.842C142.156 162.122 140.556 162.558 139.546 165.039C138.882 166.67 138.673 168.398 138.671 170.13C138.656 176.028 139.949 181.663 142.331 187.045C143.425 189.518 144.691 191.916 146.775 193.736C148.904 195.596 150.691 195.106 151.654 192.471C152.328 190.629 152.453 188.713 152.436 186.776Z" fill="#0C0C0B"/>
<path d="M166.951 152.419C168.155 151.928 169.36 151.727 170.562 152.419C172.836 153.564 174.104 155.634 175.222 157.733C178.833 164.522 180.522 171.769 180.05 179.468C179.969 180.779 179.627 182.052 179.045 183.248C177.781 185.846 175.559 186.279 173.389 184.368C170.815 182.105 169.294 179.165 168.03 176.075C166.054 171.25 164.943 166.213 164.798 161.014C164.714 157.998 165.105 155.001 166.951 152.417V152.419ZM179.408 176.677C179.153 170.13 177.671 163.898 174.532 158.1C173.573 156.329 172.472 154.638 170.8 153.437C169.028 152.163 167.61 152.547 166.676 154.506C165.968 155.991 165.715 157.591 165.653 159.211C165.434 165.08 166.678 170.685 168.898 176.085C170.043 178.869 171.368 181.584 173.713 183.608C175.901 185.494 177.707 184.987 178.637 182.264C179.254 180.459 179.44 178.582 179.408 176.677Z" fill="#0C0C0B"/>
<path d="M142.06 273.329C142.075 273.549 141.962 273.691 141.773 273.781C141.512 273.906 141.298 273.791 141.183 273.581C140.996 273.245 140.866 272.881 140.706 272.531C139.959 270.899 138.946 269.456 137.665 268.193C137.434 267.966 137.034 267.721 137.385 267.337C137.759 266.928 138.086 267.242 138.366 267.521C139.919 269.067 141.112 270.85 141.901 272.896C141.957 273.04 142.009 273.184 142.06 273.329Z" fill="#E7CDAA"/>
<path d="M138.641 164.926C138.622 165.124 138.631 165.335 138.398 165.432C138.378 165.215 138.459 165.048 138.641 164.926Z" fill="#504641"/>
<path d="M152.436 186.778C152.453 188.716 152.328 190.632 151.654 192.474C150.691 195.111 148.904 195.598 146.775 193.739C144.691 191.918 143.427 189.521 142.331 187.047C139.949 181.663 138.656 176.028 138.671 170.132C138.676 168.4 138.882 166.673 139.546 165.041C140.556 162.56 142.156 162.127 144.211 163.845C146.75 165.968 148.115 168.88 149.319 171.845C151.261 176.628 152.37 181.599 152.436 186.778Z" fill="#FDFDFD"/>
<path d="M179.408 176.677C179.443 178.585 179.254 180.459 178.637 182.264C177.707 184.987 175.901 185.494 173.713 183.608C171.368 181.584 170.043 178.869 168.898 176.085C166.678 170.685 165.432 165.08 165.653 159.211C165.715 157.589 165.965 155.991 166.676 154.506C167.61 152.549 169.026 152.165 170.8 153.437C172.472 154.638 173.571 156.329 174.532 158.1C177.673 163.896 179.155 170.13 179.408 176.677Z" fill="#FDFDFD"/>
<path d="M74.0026 227.61C74.0026 227.61 73.9968 227.604 73.9939 227.601L74.0026 227.61Z" fill="#030403"/>
<path d="M74.1193 227.665C74.1193 227.665 74.1193 227.665 74.1193 227.662L74.1252 227.668L74.1193 227.665Z" fill="#030403"/>
<path d="M74.8223 238.591H74.8252V238.588L74.8223 238.591Z" fill="#030403"/>
<path d="M75.0612 238.068C75.0612 238.068 75.0612 238.068 75.0641 238.065C75.0641 238.065 75.0641 238.065 75.0641 238.062L75.0582 238.068H75.0612Z" fill="#030403"/>
<path d="M84.1949 236.061L84.1826 236.073V236.076L84.1949 236.061Z" fill="#030403"/>
<path d="M75.0091 238.191C75.0091 238.191 75.012 238.188 75.0149 238.185C75.0149 238.185 75.0149 238.185 75.0149 238.182L75.0091 238.191Z" fill="#030403"/>
<path d="M83.6025 235.359V235.362H83.6055L83.6025 235.359Z" fill="#030403"/>
<path d="M83.6541 235.425H83.6571L83.66 235.428L83.6541 235.425Z" fill="#030403"/>
<path d="M95.2833 248.89C95.1161 247.246 94.8433 245.622 94.4844 244.01C93.9854 241.766 93.2259 239.603 92.4663 237.441C91.7387 235.371 91.0087 233.306 89.9911 231.349C88.9537 229.355 87.6116 227.642 85.7066 226.387C82.5382 224.3 79.2345 222.463 75.7981 220.851C70.1667 218.209 64.3042 216.251 58.2106 214.982C57.6698 214.869 57.1315 214.752 56.5932 214.637H55.8852C55.7722 214.757 55.6149 214.703 55.4797 214.727C54.3342 214.943 53.7246 215.552 53.5206 216.699C53.4935 216.853 53.5206 217.025 53.4075 217.162V218.277C53.4886 218.299 53.4616 218.37 53.469 218.421C53.5304 218.896 53.6091 219.368 53.7369 219.831C54.3489 222.064 55.1896 224.217 56.0376 226.368C58.154 231.721 60.7399 236.849 63.579 241.852C64.7835 243.975 65.9634 246.114 67.3202 248.144C68.4067 249.771 69.7635 251.134 71.5801 251.953C73.8538 252.981 76.2062 253.725 78.738 253.766C79.0993 253.771 79.4729 253.722 79.8269 253.847H82.2457C82.2678 253.764 82.3366 253.791 82.3882 253.788C85.0651 253.722 87.7272 253.478 90.3868 253.191C91.4905 253.071 92.5769 252.863 93.5774 252.352C94.4328 251.914 95.0817 251.305 95.2784 250.319C95.2833 250.3 95.3152 250.282 95.3349 250.265V249.032C95.2538 249.008 95.2833 248.939 95.2759 248.888L95.2833 248.89ZM70.4862 250.414C69.3358 249.534 68.3796 248.47 67.6324 247.241C63.6995 240.783 60.0517 234.172 57.1782 227.165C56.1827 224.736 55.2314 222.287 54.5087 219.762C54.2236 218.769 54.0712 217.758 54.29 216.724C54.3342 216.516 54.3686 216.415 54.6095 216.562C54.9413 216.765 55.3027 216.922 55.6517 217.095C56.984 217.71 58.2868 218.385 59.5945 219.048C63.6577 221.108 67.657 223.275 71.4547 225.795C71.5358 225.849 71.612 225.91 71.6907 225.969C71.816 226.052 71.9414 226.133 72.0692 226.216L72.084 226.223C72.138 226.26 72.1921 226.299 72.2462 226.336L72.2536 226.341C72.3101 226.378 72.3666 226.414 72.4232 226.453V226.461C72.4625 226.488 72.4969 226.512 72.5338 226.539L72.5289 226.534C72.6026 226.556 72.6641 226.595 72.7083 226.659L72.7009 226.654C72.7231 226.678 72.7427 226.7 72.7649 226.725L72.7575 226.718C72.7796 226.74 72.7993 226.762 72.8214 226.784C72.9615 226.825 73.0574 226.933 73.1704 227.011C73.2171 227.023 73.2761 227.011 73.2983 227.072L73.2909 227.067C73.3105 227.087 73.3302 227.109 73.3499 227.129C73.3745 227.143 73.399 227.16 73.4236 227.175L73.4359 227.163C73.4703 227.19 73.5047 227.217 73.5391 227.244L73.5293 227.236C73.5539 227.256 73.5785 227.275 73.6055 227.295L73.6006 227.285C73.6375 227.312 73.6743 227.339 73.7112 227.366L73.7063 227.361C73.7776 227.385 73.839 227.425 73.8833 227.488H73.8784C73.9005 227.503 73.9251 227.522 73.9472 227.54C73.9644 227.559 73.9816 227.579 73.9963 227.598C74.0406 227.613 74.0947 227.606 74.1168 227.659C74.2102 227.701 74.2938 227.757 74.3552 227.838L74.3503 227.833L74.547 227.978L74.5592 227.987C74.633 228.044 74.7092 228.097 74.7829 228.154L74.7952 228.163C74.8886 228.234 74.9845 228.308 75.0779 228.379C75.0877 228.384 75.0951 228.389 75.1025 228.396C75.6015 228.753 76.0906 229.127 76.5454 229.538C77.359 230.152 78.1063 230.842 78.8658 231.518C78.942 231.584 78.9838 231.635 78.8879 231.726C77.5286 232.986 76.7813 234.642 75.9628 236.249C75.6777 236.812 75.4024 237.379 75.1221 237.945C75.1221 237.994 75.1148 238.04 75.0632 238.065C75.0632 238.111 75.0582 238.157 75.0115 238.187C75.0017 238.241 74.9943 238.294 74.9427 238.326V238.341L74.9329 238.348C74.9353 238.397 74.928 238.444 74.8763 238.468C74.8763 238.517 74.8763 238.564 74.8223 238.588C74.8198 238.639 74.8149 238.691 74.7633 238.72C74.547 239.207 74.3331 239.694 74.1168 240.181L74.1217 240.173C74.1119 240.23 74.1094 240.286 74.0553 240.323C73.662 241.289 73.2614 242.25 72.8804 243.219C72.0913 245.225 71.3883 247.258 70.7517 249.316C70.7369 249.362 70.7148 249.404 70.6952 249.448C70.6706 249.759 70.4493 250.035 70.528 250.366C70.5403 250.385 70.5649 250.414 70.56 250.424C70.5305 250.473 70.5083 250.432 70.4838 250.414H70.4862ZM92.7466 251.912C91.7338 252.281 90.6744 252.44 89.61 252.543C87.4715 252.748 85.3281 252.93 83.1797 253.018C81.2378 253.098 79.2935 253.098 77.3541 252.912C75.9136 252.775 74.5592 252.323 73.2171 251.821C72.3445 251.496 71.4916 251.134 70.6362 250.542C71.1917 250.642 71.263 250.29 71.3564 249.962C71.5088 249.438 71.6415 248.91 71.8578 248.408C72.079 247.547 72.3937 246.715 72.6936 245.881C74.0529 242.101 75.6236 238.412 77.5261 234.867C77.9932 233.996 78.5118 233.154 79.2198 232.447C79.264 232.396 79.3132 232.349 79.3525 232.293C79.4656 232.139 79.5713 232.134 79.6917 232.293C79.7728 232.401 79.8761 232.494 79.9695 232.592C80.6602 233.216 81.2845 233.905 81.9064 234.595C83.9368 236.849 85.687 239.315 87.3757 241.825C89.4183 244.861 91.4069 247.929 93.3389 251.036C93.4373 251.194 93.5815 251.298 93.7716 251.347C93.4594 251.618 93.1079 251.777 92.7441 251.909L92.7466 251.912ZM94.1772 250.953C92.7367 248.616 91.2594 246.312 89.7477 244.027C87.9877 241.367 86.2376 238.701 84.2539 236.198C84.2244 236.161 84.2072 236.115 84.1851 236.073C84.0745 235.997 83.9958 235.894 83.9417 235.775C83.9098 235.735 83.8778 235.694 83.8459 235.655C83.7549 235.603 83.6935 235.525 83.659 235.425C83.6222 235.42 83.6074 235.395 83.605 235.361C83.5681 235.356 83.5509 235.334 83.5509 235.298C83.4993 235.285 83.4796 235.246 83.4698 235.2C83.4501 235.175 83.4304 235.153 83.4108 235.131C82.4054 233.971 81.3632 232.844 80.2546 231.779C80.1489 231.679 80.1415 231.62 80.2718 231.545C80.466 231.432 80.6528 231.31 80.8445 231.19C81.9974 230.49 83.2633 230.089 84.5661 229.788C85.3305 229.609 86.1024 229.47 86.8717 229.316C87.2675 229.237 87.329 229.152 87.2355 228.756L87.1962 228.68C87.1741 228.663 87.1544 228.643 87.1323 228.626C86.884 228.489 86.6407 228.614 86.3973 228.645C86.2351 228.665 86.0729 228.694 85.9106 228.719C85.4117 228.822 84.9102 228.927 84.4112 229.03C83.6197 229.272 82.8159 229.463 82.0465 229.771C81.4468 230.011 80.8814 230.312 80.3161 230.612C80.3111 230.62 80.3087 230.632 80.3013 230.637C80.0604 230.798 79.8072 231.099 79.5811 231.082C79.35 231.065 79.1436 230.735 78.9248 230.541C78.5045 230.17 78.0817 229.798 77.6589 229.426C76.5527 228.55 75.454 227.667 74.3085 226.842C70.7984 224.31 67.0744 222.128 63.257 220.097C60.9661 218.879 58.6457 217.717 56.3203 216.565C56.2146 216.513 56.1163 216.452 56.0131 216.393C55.6099 216.202 55.2044 216.014 54.7422 215.796C55.3715 215.427 55.9983 215.324 56.6325 215.437C58.9603 215.858 61.2537 216.418 63.5299 217.056C70.9852 219.151 77.9366 222.358 84.4825 226.458C85.4559 227.067 86.39 227.733 87.179 228.579C87.1962 228.601 87.2159 228.621 87.2331 228.643C87.2503 228.665 87.2675 228.687 87.2847 228.711C88.0098 229.426 88.5432 230.28 89.0373 231.158C90.0083 232.883 90.7555 234.705 91.3774 236.579C92.1492 238.901 93.0243 241.191 93.6118 243.574C94.0665 245.416 94.3787 247.283 94.5778 249.169C94.6442 249.796 94.6491 250.424 94.1894 250.953H94.1772Z" fill="#030403"/>
<path d="M83.4796 235.185L83.4673 235.2L83.4698 235.202L83.4796 235.185Z" fill="#030403"/>
<path d="M73.3537 227.14C73.3537 227.14 73.3479 227.134 73.345 227.131L73.3537 227.14Z" fill="#030403"/>
<path d="M70.6976 249.451C70.673 249.761 70.4518 250.038 70.5305 250.368C70.5157 250.383 70.501 250.4 70.4862 250.415C69.3358 249.534 68.3796 248.47 67.6324 247.241C63.6995 240.783 60.0517 234.172 57.1782 227.165C56.1827 224.736 55.2314 222.287 54.5087 219.762C54.2236 218.769 54.0712 217.758 54.29 216.724C54.3342 216.516 54.3686 216.415 54.6095 216.562C54.9413 216.765 55.3027 216.922 55.6517 217.095C55.6542 217.223 55.723 217.318 55.809 217.399C56.2736 217.832 56.7333 218.267 57.3183 218.546C58.8104 219.263 60.3024 219.982 61.7871 220.714C63.783 221.697 65.7839 222.669 67.7381 223.733C68.6746 224.242 69.5989 224.773 70.5108 225.326C70.9016 225.563 71.2654 225.852 71.6931 226.025C71.7865 226.152 71.8824 226.272 72.0692 226.214L72.084 226.221C72.0668 226.363 72.1331 226.38 72.2462 226.333L72.2536 226.338C72.2462 226.473 72.3101 226.5 72.4232 226.451L72.4256 226.458C72.4158 226.546 72.4723 226.544 72.5338 226.537L72.5289 226.532C72.5166 226.676 72.6125 226.669 72.7083 226.656L72.7009 226.652C72.7231 226.676 72.7427 226.698 72.7649 226.722L72.7575 226.715C72.7796 226.737 72.7993 226.759 72.8214 226.781C72.9615 226.823 73.0574 226.93 73.1704 227.009C73.1926 227.07 73.2417 227.075 73.2983 227.07L73.2909 227.065C73.313 227.087 73.3351 227.111 73.3548 227.134L73.3474 227.126C73.3597 227.163 73.3818 227.182 73.4212 227.175L73.4334 227.163C73.4187 227.253 73.4777 227.248 73.5367 227.244C73.5367 227.244 73.5269 227.236 73.5269 227.239C73.5342 227.28 73.5588 227.3 73.6031 227.297L73.5981 227.288C73.5981 227.368 73.6498 227.373 73.7088 227.368L73.7038 227.363C73.694 227.5 73.7874 227.493 73.8808 227.491L73.8759 227.488C73.9005 227.508 73.9251 227.527 73.9496 227.547L73.9398 227.537C73.9595 227.562 73.9816 227.586 74.0013 227.611L73.9939 227.603C74.0136 227.667 74.0652 227.672 74.1193 227.667L74.1143 227.662C74.1143 227.828 74.22 227.855 74.3552 227.841L74.3503 227.836C74.3577 227.963 74.3995 228.044 74.547 227.98L74.5592 227.99C74.5592 228.146 74.6232 228.215 74.7829 228.156L74.7952 228.166C74.8124 228.34 74.8837 228.442 75.0779 228.381C75.0877 228.386 75.0951 228.391 75.1025 228.398C75.0337 228.53 75.1639 228.57 75.2229 228.626C75.5351 228.919 75.8547 229.201 76.1717 229.487C76.2135 229.866 76.0833 230.192 75.8719 230.5C75.3507 231.256 74.9255 232.073 74.5027 232.885C73.7972 234.236 73.1237 235.601 72.5092 236.998C71.7079 238.82 70.9901 240.672 70.3363 242.551C69.9061 243.784 69.5128 245.03 69.1048 246.273C69.0458 246.451 68.977 246.625 68.827 246.745C68.6795 246.862 68.682 246.97 68.7877 247.114C69.1859 247.657 69.5546 248.222 69.9749 248.744C70.1814 249 70.3436 249.328 70.6952 249.448L70.6976 249.451Z" fill="#84DDCF"/>
<path d="M71.8603 248.411C72.0815 247.55 72.3962 246.718 72.696 245.884C74.0554 242.104 75.6261 238.414 77.5286 234.869C77.9956 233.998 78.5143 233.157 79.2222 232.45C79.2444 232.587 79.3402 232.604 79.4557 232.601C79.6278 232.597 79.7999 232.597 79.9719 232.594C80.6627 233.218 81.287 233.908 81.9089 234.598C83.9393 236.851 85.6894 239.317 87.3781 241.827C89.4208 244.863 91.4094 247.931 93.3414 251.038C93.4397 251.197 93.5839 251.3 93.774 251.349C93.4619 251.621 93.1104 251.78 92.7466 251.912C91.7338 252.281 90.6744 252.44 89.6101 252.543C87.4715 252.748 85.3281 252.93 83.1797 253.018C81.2379 253.098 79.2935 253.098 77.3541 252.912C75.9137 252.775 74.5593 252.323 73.2171 251.821C72.3445 251.496 71.4916 251.134 70.6362 250.542C71.1917 250.642 71.263 250.29 71.3564 249.962C71.5186 250.062 71.5825 249.969 71.612 249.825C71.6636 249.556 71.7374 249.284 71.88 249.057C72.0324 248.814 72.0348 248.619 71.8603 248.406V248.411Z" fill="#7FD4C6"/>
<path d="M85.9033 228.719C85.4043 228.822 84.9028 228.927 84.4038 229.03C84.3129 228.976 84.217 228.924 84.131 228.863C83.8532 228.672 83.5583 228.521 83.219 228.491C81.8892 228.379 80.6184 229.308 80.3062 230.612C80.3013 230.62 80.2989 230.632 80.2915 230.637C80.0506 230.798 79.7974 231.099 79.5713 231.082C79.3402 231.065 79.1337 230.735 78.915 230.541C78.4946 230.17 78.0718 229.798 77.649 229.426C77.8727 229.042 77.7547 228.545 77.3811 228.249C76.9755 227.929 76.5798 227.596 76.1644 227.285C74.8345 226.289 73.4851 225.326 72.0815 224.435C70.2134 223.248 68.2887 222.157 66.3173 221.154C63.3258 219.632 60.3122 218.155 57.306 216.667C57.0995 216.565 57.0455 216.467 57.1806 216.281C57.9992 216.464 58.8226 216.633 59.6387 216.829C62.2172 217.448 64.7687 218.162 67.2735 219.038C69.6873 219.884 72.0569 220.841 74.37 221.932C75.9481 222.676 77.5016 223.469 79.028 224.32C81.287 225.58 83.4771 226.948 85.6181 228.393C85.7459 228.479 85.8443 228.574 85.9033 228.716V228.719Z" fill="#A2EEE1"/>
<path d="M83.9393 235.775C83.9073 235.735 83.8754 235.694 83.8434 235.655C83.8483 235.523 83.8188 235.42 83.6566 235.425C83.6566 235.425 83.659 235.427 83.659 235.425C83.6394 235.403 83.6222 235.381 83.6025 235.359V235.361C83.5828 235.339 83.5656 235.32 83.546 235.298C83.5484 235.241 83.5361 235.197 83.4649 235.197L83.4771 235.183L83.4673 235.2C83.4722 235.156 83.4501 235.134 83.4059 235.129C82.4005 233.969 81.3583 232.841 80.2497 231.777C80.144 231.677 80.1366 231.618 80.2669 231.542C80.4611 231.43 80.6479 231.307 80.8396 231.19C80.874 231.246 80.9208 231.3 80.9429 231.361C81.1051 231.775 81.2034 231.843 81.636 231.838C81.8671 231.836 82.081 231.762 82.2924 231.691C83.487 231.28 84.6718 230.838 85.9106 230.578C87.1569 230.316 87.646 230.471 88.2827 231.486C88.6637 232.09 88.9537 232.743 89.2585 233.389C90.4581 235.953 91.3627 238.617 92.0755 241.353C92.4663 242.86 92.7982 244.381 93.0882 245.91C93.1054 246.003 93.1448 246.118 93.0612 246.187C92.9678 246.263 92.8523 246.219 92.7564 246.165C92.5843 246.072 92.4147 245.974 92.2476 245.871C92.0042 245.722 91.7486 245.524 91.4733 245.553C91.2299 245.578 91.1857 245.448 91.1021 245.318C90.0771 243.723 89.0054 242.162 87.8919 240.628C86.8939 239.254 85.859 237.908 84.7553 236.616C84.5882 236.42 84.4997 236.117 84.1777 236.078L84.19 236.066L84.1802 236.078C84.2072 235.89 84.1285 235.789 83.9368 235.779L83.9393 235.775Z" fill="#BEEDE6"/>
<path d="M70.6976 249.451C70.3461 249.331 70.1839 249.005 69.9774 248.746C69.5571 248.222 69.1859 247.657 68.7901 247.117C68.6844 246.972 68.682 246.862 68.8295 246.747C68.9794 246.627 69.0482 246.454 69.1072 246.275C69.5153 245.035 69.9086 243.789 70.3387 242.554C70.9926 240.675 71.7103 238.823 72.5117 237C73.1262 235.603 73.7997 234.238 74.5052 232.888C74.928 232.075 75.3532 231.261 75.8743 230.502C76.0857 230.194 76.216 229.869 76.1742 229.489C76.2996 229.507 76.4225 229.524 76.5478 229.541C77.3615 230.155 78.1087 230.845 78.8683 231.52C78.9445 231.586 78.9862 231.638 78.8904 231.728C77.5311 232.988 76.7838 234.644 75.9653 236.252C75.6777 236.814 75.4024 237.382 75.1221 237.95C75.0926 237.827 75.1393 237.722 75.1885 237.612C75.6728 236.555 76.1619 235.501 76.7297 234.485C76.9829 234.035 77.2263 233.58 77.4819 233.091C77.4868 233.069 77.477 233.086 77.4721 233.103C77.4622 233.135 77.4721 233.14 77.4942 233.115C77.504 233.103 77.5089 233.083 77.5139 233.066C77.5139 233.064 77.4991 233.057 77.4819 233.091C77.182 233.22 77.0542 233.47 76.9215 233.702C76.447 234.534 76.0316 235.398 75.6285 236.266C75.0976 237.409 74.6502 238.583 74.2028 239.76C74.1512 239.895 74.0873 240.032 74.1217 240.186L74.1266 240.178C74.0578 240.208 74.0578 240.266 74.0603 240.328C73.667 241.294 73.2663 242.255 72.8853 243.224C72.0963 245.23 71.3932 247.263 70.7566 249.321C70.7419 249.367 70.7197 249.409 70.7001 249.453L70.6976 249.451Z" fill="#A1EDE0"/>
<path d="M84.1826 236.073C84.5046 236.112 84.5931 236.416 84.7603 236.611C85.8639 237.903 86.8988 239.251 87.8968 240.624C89.0103 242.158 90.082 243.721 91.107 245.314C91.1906 245.443 91.2348 245.573 91.4782 245.548C91.7535 245.521 92.0091 245.717 92.2525 245.866C92.4196 245.969 92.5892 246.067 92.7613 246.16C92.8572 246.211 92.9727 246.258 93.0661 246.182C93.1497 246.114 93.1103 245.999 93.0931 245.906C92.8031 244.377 92.4712 242.855 92.0804 241.348C91.37 238.613 90.4655 235.948 89.2635 233.384C88.9611 232.738 88.6686 232.085 88.2876 231.481C87.651 230.466 87.1618 230.312 85.9156 230.573C84.6767 230.833 83.4919 231.275 82.2973 231.686C82.0859 231.76 81.872 231.831 81.641 231.833C81.2083 231.838 81.1076 231.772 80.9478 231.356C80.9232 231.295 80.879 231.241 80.8445 231.185C81.9974 230.485 83.2633 230.084 84.5661 229.783C85.3305 229.604 86.1024 229.465 86.8717 229.311C87.2675 229.233 87.3289 229.147 87.2355 228.751C87.2503 228.736 87.2675 228.724 87.2822 228.709C88.0074 229.423 88.5408 230.277 89.0349 231.156C90.0058 232.88 90.753 234.703 91.3749 236.577C92.1468 238.899 93.0218 241.189 93.6093 243.572C94.0641 245.414 94.3763 247.281 94.5754 249.167C94.6417 249.793 94.6466 250.422 94.187 250.95C92.7465 248.614 91.2692 246.309 89.7575 244.024C87.9975 241.365 86.2474 238.698 84.2637 236.195C84.2342 236.159 84.217 236.112 84.1949 236.071L84.1826 236.073Z" fill="#7FD2C4"/>
<path d="M85.9033 228.719C85.8443 228.579 85.746 228.484 85.6181 228.396C83.4747 226.95 81.287 225.582 79.028 224.322C77.504 223.471 75.9481 222.678 74.37 221.935C72.0594 220.844 69.6898 219.887 67.2735 219.04C64.7687 218.162 62.2172 217.448 59.6387 216.831C58.8226 216.635 58.0016 216.464 57.1807 216.283C56.7874 216.313 56.3793 216.178 56.0032 216.396C55.6001 216.205 55.1945 216.017 54.7324 215.799C55.3617 215.429 55.9885 215.327 56.6227 215.439C58.9505 215.86 61.2439 216.42 63.52 217.059C70.9754 219.153 77.9268 222.36 84.4727 226.461C85.4461 227.07 86.3801 227.735 87.1692 228.582C87.1544 228.597 87.1397 228.609 87.1274 228.623C86.8791 228.486 86.6358 228.611 86.3924 228.643C86.2302 228.663 86.068 228.692 85.9057 228.716L85.9033 228.719Z" fill="#7FD2C4"/>
<path d="M56.0057 216.396C56.3793 216.178 56.7898 216.313 57.1831 216.283C57.0479 216.469 57.0995 216.567 57.3085 216.67C60.3172 218.157 63.3283 219.637 66.3198 221.157C68.2912 222.16 70.2158 223.251 72.084 224.437C73.4875 225.328 74.837 226.292 76.1668 227.288C76.5798 227.598 76.978 227.931 77.3836 228.252C77.7597 228.548 77.8752 229.044 77.6515 229.428C76.5454 228.552 75.4466 227.669 74.3011 226.845C70.791 224.313 67.067 222.133 63.2496 220.1C60.9587 218.881 58.6383 217.719 56.313 216.567C56.2073 216.516 56.1089 216.454 56.0057 216.396Z" fill="#BBE9E2"/>
<path d="M71.6931 226.028C71.263 225.854 70.9016 225.565 70.5108 225.328C69.5988 224.775 68.6746 224.244 67.7381 223.735C65.7839 222.671 63.783 221.697 61.7871 220.716C60.3024 219.985 58.8103 219.266 57.3183 218.549C56.7333 218.267 56.2736 217.834 55.809 217.401C55.723 217.321 55.6542 217.225 55.6517 217.098C56.984 217.712 58.2868 218.387 59.5945 219.05C63.6577 221.11 67.657 223.278 71.4547 225.798C71.5358 225.852 71.612 225.913 71.6907 225.971C71.6907 225.991 71.6907 226.011 71.6907 226.03L71.6931 226.028Z" fill="#B8E7E0"/>
<path d="M80.3062 230.615C80.6159 229.311 81.8892 228.381 83.219 228.494C83.5582 228.523 83.8532 228.675 84.131 228.866C84.2195 228.927 84.3129 228.976 84.4038 229.032C83.6123 229.274 82.8085 229.465 82.0392 229.773C81.4394 230.013 80.874 230.314 80.3087 230.615H80.3062Z" fill="#BCEBE4"/>
<path d="M77.4721 233.127C77.2238 233.58 76.9804 234.035 76.7297 234.485C76.1619 235.501 75.6727 236.555 75.1885 237.612C75.1393 237.722 75.0926 237.827 75.1221 237.95V237.947C75.0607 237.967 75.0533 238.016 75.0607 238.069L75.0656 238.065C75.0017 238.087 74.9968 238.135 75.0091 238.192L75.014 238.184C74.9378 238.206 74.9378 238.265 74.9452 238.329V238.343L74.9353 238.351C74.8886 238.378 74.8763 238.422 74.8788 238.471C74.8272 238.495 74.8173 238.542 74.8222 238.593C74.8222 238.593 74.8222 238.588 74.8222 238.591C74.7608 238.617 74.7583 238.669 74.7633 238.725C74.5469 239.212 74.3331 239.699 74.1168 240.186C74.0848 240.032 74.1463 239.897 74.1979 239.76C74.6453 238.586 75.0926 237.409 75.6236 236.266C76.0267 235.398 76.4421 234.534 76.9165 233.702C77.0493 233.468 77.1771 233.218 77.4671 233.127H77.4721Z" fill="#BCEBE4"/>
<path d="M71.8603 248.411C72.0348 248.621 72.0324 248.817 71.88 249.062C71.7374 249.289 71.6661 249.561 71.612 249.83C71.585 249.974 71.5211 250.065 71.3564 249.967C71.5088 249.443 71.6415 248.915 71.8578 248.413L71.8603 248.411Z" fill="#9CE5D8"/>
<path d="M76.5478 229.541C76.4225 229.524 76.2996 229.507 76.1742 229.489C75.8571 229.203 75.5351 228.919 75.2254 228.628C75.1664 228.572 75.0361 228.533 75.105 228.401C75.6039 228.758 76.0931 229.13 76.5478 229.543V229.541Z" fill="#B1DFD8"/>
<path d="M79.9744 232.592C79.8023 232.592 79.6303 232.592 79.4582 232.599C79.3427 232.601 79.2468 232.584 79.2247 232.447C79.2689 232.396 79.3181 232.349 79.3574 232.293C79.4705 232.139 79.5762 232.134 79.6966 232.293C79.7802 232.401 79.881 232.494 79.9744 232.592Z" fill="#9CE5D8"/>
<path d="M71.6931 226.028C71.6931 226.008 71.6931 225.989 71.6931 225.969C71.8185 226.052 71.9438 226.133 72.0717 226.216C71.8848 226.275 71.789 226.152 71.6956 226.028H71.6931Z" fill="#B1DFD8"/>
<path d="M83.9393 235.775C84.131 235.784 84.2121 235.885 84.1826 236.073C84.072 235.997 83.9933 235.894 83.9393 235.775Z" fill="#7FD2C4"/>
<path d="M75.0803 228.379C74.8837 228.44 74.8149 228.337 74.7977 228.163C74.8911 228.234 74.9869 228.308 75.0803 228.379Z" fill="#B1DFD8"/>
<path d="M74.3552 227.838C74.22 227.853 74.1143 227.826 74.1143 227.659C74.2078 227.701 74.2913 227.757 74.3552 227.838Z" fill="#B1DFD8"/>
<path d="M83.6541 235.425C83.8163 235.422 83.8483 235.523 83.8409 235.655C83.7475 235.601 83.6885 235.523 83.6541 235.425Z" fill="#7FD2C4"/>
<path d="M74.7854 228.154C74.6256 228.212 74.5617 228.144 74.5617 227.987C74.6354 228.044 74.7117 228.097 74.7854 228.154Z" fill="#B1DFD8"/>
<path d="M74.5494 227.978C74.4019 228.041 74.3602 227.96 74.3528 227.833C74.4192 227.882 74.4855 227.929 74.5494 227.978Z" fill="#B1DFD8"/>
<path d="M72.2462 226.338C72.1331 226.385 72.0643 226.365 72.084 226.226C72.138 226.263 72.1921 226.302 72.2462 226.338Z" fill="#B1DFD8"/>
<path d="M72.4232 226.456C72.3101 226.505 72.2462 226.478 72.2536 226.343C72.3101 226.38 72.3666 226.417 72.4232 226.456Z" fill="#B1DFD8"/>
<path d="M72.7083 226.661C72.6124 226.671 72.5166 226.678 72.5289 226.537C72.6026 226.559 72.6641 226.598 72.7083 226.661Z" fill="#B1DFD8"/>
<path d="M73.8808 227.488C73.7899 227.491 73.6965 227.498 73.7038 227.361C73.7751 227.385 73.8366 227.425 73.8808 227.488Z" fill="#B1DFD8"/>
<path d="M72.5338 226.541C72.4723 226.549 72.4183 226.551 72.4256 226.463C72.4625 226.49 72.4969 226.515 72.5338 226.541Z" fill="#B1DFD8"/>
<path d="M74.1193 227.664C74.0652 227.669 74.0136 227.664 73.9939 227.601C74.0381 227.615 74.0971 227.606 74.1193 227.664Z" fill="#B1DFD8"/>
<path d="M73.2958 227.075C73.2417 227.082 73.1901 227.075 73.168 227.014C73.2147 227.026 73.2737 227.014 73.2958 227.075Z" fill="#B1DFD8"/>
<path d="M73.7087 227.368C73.6498 227.373 73.5957 227.368 73.5981 227.288C73.635 227.315 73.6719 227.341 73.7087 227.368Z" fill="#B1DFD8"/>
<path d="M83.4673 235.2C83.5386 235.2 83.5509 235.241 83.5484 235.3C83.4944 235.288 83.4771 235.249 83.4673 235.2Z" fill="#7FD2C4"/>
<path d="M73.5367 227.246C73.4777 227.251 73.4187 227.256 73.4334 227.165C73.4679 227.192 73.5023 227.219 73.5367 227.246Z" fill="#B1DFD8"/>
<path d="M75.0607 238.067C75.0533 238.013 75.0607 237.964 75.1221 237.945C75.1197 237.994 75.1148 238.045 75.0607 238.067Z" fill="#A1EDE0"/>
<path d="M75.0091 238.189C74.9968 238.133 74.9992 238.084 75.0656 238.062C75.0656 238.111 75.0632 238.162 75.0091 238.189Z" fill="#A1EDE0"/>
<path d="M74.9452 238.326C74.9402 238.265 74.9378 238.204 75.014 238.182C75.0042 238.236 74.9968 238.292 74.9452 238.326Z" fill="#A1EDE0"/>
<path d="M74.8763 238.468C74.8739 238.419 74.8862 238.375 74.9329 238.348C74.9353 238.397 74.928 238.444 74.8763 238.468Z" fill="#A1EDE0"/>
<path d="M74.8223 238.591C74.8173 238.539 74.8272 238.495 74.8788 238.468C74.8788 238.517 74.8788 238.566 74.8223 238.591Z" fill="#A1EDE0"/>
<path d="M74.7657 238.723C74.7608 238.666 74.7657 238.615 74.8247 238.588C74.8223 238.639 74.8198 238.693 74.7657 238.723Z" fill="#A1EDE0"/>
<path d="M74.0578 240.323C74.0578 240.261 74.0554 240.203 74.1242 240.173C74.1143 240.23 74.1119 240.286 74.0578 240.323Z" fill="#BCEBE4"/>
<path d="M87.1889 228.68C87.1667 228.663 87.1471 228.643 87.1249 228.626C87.1397 228.611 87.1544 228.599 87.1667 228.584C87.1839 228.606 87.2036 228.626 87.2208 228.648C87.2085 228.66 87.1987 228.67 87.1864 228.682L87.1889 228.68Z" fill="#7FD2C4"/>
<path d="M87.2282 228.756C87.2159 228.731 87.2036 228.704 87.1888 228.68C87.2011 228.667 87.211 228.658 87.2233 228.645C87.2405 228.667 87.2577 228.689 87.2749 228.714C87.2601 228.729 87.2429 228.741 87.2282 228.756Z" fill="#7FD2C4"/>
<path d="M73.6031 227.297C73.5588 227.302 73.5367 227.28 73.5269 227.239C73.5514 227.258 73.576 227.278 73.6031 227.297Z" fill="#B1DFD8"/>
<path d="M83.4083 235.131C83.4526 235.134 83.4747 235.158 83.4698 235.202C83.4501 235.178 83.428 235.156 83.4083 235.131Z" fill="#7FD2C4"/>
<path d="M83.6025 235.359C83.6222 235.381 83.6394 235.403 83.659 235.425C83.6197 235.42 83.605 235.395 83.6025 235.359Z" fill="#7FD2C4"/>
<path d="M73.4212 227.178C73.3818 227.185 73.3597 227.165 73.3474 227.129C73.372 227.146 73.3966 227.16 73.4212 227.178Z" fill="#B1DFD8"/>
<path d="M73.3523 227.138C73.3302 227.116 73.3081 227.092 73.2884 227.07C73.3105 227.092 73.3327 227.116 73.3523 227.138Z" fill="#B1DFD8"/>
<path d="M70.5305 250.368C70.5427 250.388 70.5673 250.417 70.5624 250.427C70.5329 250.476 70.5108 250.434 70.4862 250.417C70.501 250.402 70.5157 250.385 70.5305 250.37V250.368Z" fill="#7FD4C6"/>
<path d="M83.5484 235.298C83.5681 235.32 83.5853 235.339 83.605 235.361C83.5681 235.356 83.5484 235.334 83.5484 235.298Z" fill="#7FD2C4"/>
<path d="M77.4942 233.052C77.4942 233.052 77.5163 233.064 77.5163 233.066C77.5114 233.083 77.5065 233.101 77.4966 233.115C77.4745 233.14 77.4647 233.135 77.4745 233.103C77.4794 233.086 77.4868 233.071 77.4942 233.054V233.052Z" fill="#BCEBE4"/>
<path d="M202.36 69.7492L204.616 69.4944L202.522 67.9072L203.18 60.4147L194.85 58.2423C193.587 57.9136 192.194 58.3435 191.352 59.44C190.512 60.5391 190.467 61.9893 191.122 63.1157L195.441 70.5317L199.871 70.031L202.091 72.794L202.36 69.7492Z" fill="#231F20" stroke="#231F20" stroke-miterlimit="10"/>
<path d="M213.246 85.0166L219.9 84.2085L214.936 80.4437L220.651 64.9691L203.18 60.4122L197.795 67.4504L195.439 70.5291L204.496 86.0836L212.04 85.1652L212.828 86.1453L213.246 85.0166Z" fill="#FAEDDB" stroke="#231F20" stroke-miterlimit="10"/>
<path d="M309.814 132.564L299.203 124.521L275.906 125.324L270.665 121.651L272.62 125.438L267.636 125.61L275.974 131.931L283.05 145.636L293.659 153.678C296.589 155.9 300.772 155.337 303.003 152.42L307.041 147.141L311.079 141.862C313.31 138.947 312.741 134.783 309.812 132.561L309.814 132.564Z" fill="#FF684B" stroke="#231F20" stroke-miterlimit="10"/>
<path d="M291.247 118.488L281.35 121.88L278.618 113.083L277.263 123.281L268.521 126.278L276.1 132.024L275.094 139.603L283.05 145.633L287.088 140.356L299.205 124.519L291.247 118.488Z" fill="white" stroke="#231F20" stroke-miterlimit="10"/>
<path d="M279.126 134.306L291.24 118.473L220.654 64.9618L208.539 80.7947L208.563 80.8129L208.534 80.8043L204.496 86.0836L275.094 139.603L279.132 134.323L279.116 134.298L279.126 134.306Z" fill="#FFD23B" stroke="#231F20" stroke-linejoin="round"/>
<path d="M265.564 99.1833C265.311 98.6843 263.676 98.0164 263.28 98.1069C261.943 98.4127 261.346 99.0414 261.226 100.568C260.95 104.059 258.546 106.618 255.449 107.179C253.377 107.555 251.914 106.701 251.519 104.642C250.521 99.428 251.932 94.875 255.874 91.308C259.284 88.223 263.612 89.4878 265.149 93.8353C265.338 94.3711 265.434 94.9386 265.571 95.4916C265.611 95.6261 265.65 95.7582 265.687 95.8928C265.645 96.9888 265.603 98.0849 265.562 99.1833" fill="white"/>
<path d="M265.564 99.1833C265.311 98.6843 263.676 98.0164 263.28 98.1069C261.943 98.4127 261.346 99.0414 261.226 100.568C260.95 104.059 258.546 106.618 255.449 107.179C253.377 107.555 251.914 106.701 251.519 104.642C250.521 99.428 251.932 94.875 255.874 91.308C259.284 88.223 263.612 89.4878 265.149 93.8353C265.338 94.3711 265.434 94.9386 265.571 95.4916C265.611 95.6261 265.65 95.7582 265.687 95.8928C265.645 96.9888 265.603 98.0849 265.562 99.1833" stroke="#231F20" stroke-linejoin="round"/>
</g>
<defs>
<clipPath id="clip0_9316_1377">
<rect width="357" height="310" fill="white"/>
</clipPath>
</defs>
</svg>
