<svg width="24" height="24" viewBox="0 0 24 24" fill="none" xmlns="http://www.w3.org/2000/svg">
<path d="M17.3818 13.4859H12.5642V10.7461H20.9363C21.0014 11.2247 21.0358 11.7184 21.0358 12.2273C21.0358 15.047 20.0589 17.395 18.3937 19.0131H15.9506V17.3592C16.9955 16.5716 17.6954 15.4534 17.9366 14.1529L18.0603 13.4859H17.3818Z" fill="#4285F4" stroke="#6366F1" stroke-width="1.12841"/>
<path d="M12.0001 21.9999C14.7001 21.9999 16.9637 21.1044 18.6182 19.5772L15.3864 17.0681C14.491 17.6681 13.3455 18.0226 12.0001 18.0226C9.39552 18.0226 7.19098 16.2635 6.40462 13.8999H3.06372V16.4908C4.70917 19.759 8.09098 21.9999 12.0001 21.9999Z" fill="#34A853"/>
<path d="M6.40454 13.8999C6.20454 13.2999 6.0909 12.659 6.0909 11.9999C6.0909 11.3408 6.20454 10.6999 6.40454 10.0999V7.50903H3.06363C2.36364 8.90254 1.99938 10.4405 2 11.9999C2 13.6136 2.38636 15.1408 3.06363 16.4908L6.40454 13.8999Z" fill="#FBBC05"/>
<path d="M12.0001 5.97726C13.4682 5.97726 14.7864 6.48181 15.8228 7.47271L18.691 4.60454C16.9591 2.99091 14.6955 2 12.0001 2C8.09098 2 4.70917 4.2409 3.06372 7.50908L6.40462 10.1C7.19098 7.73635 9.39552 5.97726 12.0001 5.97726Z" fill="#EA4335"/>
</svg>
