<svg xmlns="http://www.w3.org/2000/svg" width="44" height="36" fill="none" viewBox="0 0 44 36" class="w-24 h-24"><path fill="currentColor" d="m11.044 20.46 4.697 13s.587 1.215 1.215 1.215c.63 0 9.98-9.728 9.98-9.728l10.4-20.085-26.124 12.244z"></path><path fill="#C7DACA" d="m17.271 23.794-.901 9.582s-.378 2.935 2.557 0 5.745-5.2 5.745-5.2"></path><path fill="currentColor" d="m11.13 20.925-9.661-3.148s-1.155-.468-.783-1.53c.077-.22.231-.406.693-.726C3.519 14.029 40.997.558 40.997.558s1.058-.356 1.682-.12a.91.91 0 0 1 .622.679c.067.279.096.566.084.853-.003.248-.033.477-.056.838-.228 3.683-7.059 31.17-7.059 31.17s-.409 1.608-1.873 1.663a2.68 2.68 0 0 1-1.954-.756c-2.874-2.472-12.805-9.146-15-10.614a.42.42 0 0 1-.18-.297c-.03-.154.138-.346.138-.346S34.694 8.256 35.154 6.643c.036-.125-.099-.187-.28-.132-1.148.422-21.06 12.996-23.257 14.384a1.06 1.06 0 0 1-.488.03"></path></svg>