<svg width="52" height="47" viewBox="0 0 52 47" fill="none" xmlns="http://www.w3.org/2000/svg">
<path d="M20 20.0003C19.45 20.0003 18.9792 19.8045 18.5875 19.4128C18.1958 19.0211 18 18.5503 18 18.0003V16.0003C18 15.717 18.0958 15.4795 18.2875 15.2878C18.4792 15.0961 18.7167 15.0003 19 15.0003C19.2833 15.0003 19.5208 15.0961 19.7125 15.2878C19.9042 15.4795 20 15.717 20 16.0003V18.0003H32V16.0003C32 15.717 32.0958 15.4795 32.2875 15.2878C32.4792 15.0961 32.7167 15.0003 33 15.0003C33.2833 15.0003 33.5208 15.0961 33.7125 15.2878C33.9042 15.4795 34 15.717 34 16.0003V18.0003C34 18.5503 33.8042 19.0211 33.4125 19.4128C33.0208 19.8045 32.55 20.0003 32 20.0003H20ZM25 7.85029L23.125 9.72529C22.925 9.92529 22.6875 10.0211 22.4125 10.0128C22.1375 10.0045 21.9 9.90029 21.7 9.70029C21.5167 9.50029 21.4208 9.26696 21.4125 9.00029C21.4042 8.73363 21.5 8.50029 21.7 8.30029L25.3 4.70029C25.4 4.60029 25.5083 4.52946 25.625 4.48779C25.7417 4.44613 25.8667 4.42529 26 4.42529C26.1333 4.42529 26.2583 4.44613 26.375 4.48779C26.4917 4.52946 26.6 4.60029 26.7 4.70029L30.3 8.30029C30.5 8.50029 30.5958 8.73363 30.5875 9.00029C30.5792 9.26696 30.4833 9.50029 30.3 9.70029C30.1 9.90029 29.8625 10.0045 29.5875 10.0128C29.3125 10.0211 29.075 9.92529 28.875 9.72529L27 7.85029V15.0003C27 15.2836 26.9042 15.5211 26.7125 15.7128C26.5208 15.9045 26.2833 16.0003 26 16.0003C25.7167 16.0003 25.4792 15.9045 25.2875 15.7128C25.0958 15.5211 25 15.2836 25 15.0003V7.85029Z" fill="white"/>
<path d="M10.368 38.8722C10.368 40.3336 9.97867 41.4322 9.2 42.1682C8.42133 42.8936 7.312 43.2562 5.872 43.2562C4.4 43.2562 3.248 42.9096 2.416 42.2162C1.59467 41.5122 1.184 40.3976 1.184 38.8722V31.5762H2.704V38.8722C2.704 39.8962 2.976 40.6749 3.52 41.2082C4.064 41.7309 4.848 41.9922 5.872 41.9922C6.84267 41.9922 7.57867 41.7309 8.08 41.2082C8.592 40.6749 8.848 39.8962 8.848 38.8722V31.5762H10.368V38.8722ZM12.6189 34.7282H13.9789V35.8482H14.0109C14.2349 35.3896 14.5869 35.0589 15.0669 34.8562C15.5469 34.6429 16.0749 34.5362 16.6509 34.5362C17.2909 34.5362 17.8455 34.6536 18.3149 34.8882C18.7949 35.1229 19.1895 35.4429 19.4989 35.8482C19.8189 36.2429 20.0589 36.7016 20.2189 37.2242C20.3789 37.7469 20.4589 38.3016 20.4589 38.8882C20.4589 39.4749 20.3789 40.0296 20.2189 40.5522C20.0695 41.0749 19.8349 41.5336 19.5149 41.9282C19.2055 42.3122 18.8109 42.6162 18.3309 42.8402C17.8615 43.0642 17.3122 43.1762 16.6829 43.1762C16.4802 43.1762 16.2509 43.1549 15.9949 43.1122C15.7495 43.0696 15.5042 43.0002 15.2589 42.9042C15.0135 42.8082 14.7789 42.6802 14.5549 42.5202C14.3415 42.3496 14.1602 42.1416 14.0109 41.8962H13.9789V46.1522H12.6189V34.7282ZM19.0189 38.7922C19.0189 38.4082 18.9655 38.0349 18.8589 37.6722C18.7629 37.2989 18.6082 36.9682 18.3949 36.6802C18.1922 36.3922 17.9255 36.1629 17.5949 35.9922C17.2749 35.8216 16.8962 35.7362 16.4589 35.7362C16.0002 35.7362 15.6109 35.8269 15.2909 36.0082C14.9709 36.1896 14.7095 36.4296 14.5069 36.7282C14.3042 37.0162 14.1549 37.3469 14.0589 37.7202C13.9735 38.0936 13.9309 38.4722 13.9309 38.8562C13.9309 39.2616 13.9789 39.6562 14.0749 40.0402C14.1709 40.4136 14.3202 40.7442 14.5229 41.0322C14.7362 41.3202 15.0082 41.5549 15.3389 41.7362C15.6695 41.9069 16.0695 41.9922 16.5389 41.9922C17.0082 41.9922 17.3975 41.9016 17.7069 41.7202C18.0269 41.5389 18.2829 41.2989 18.4749 41.0002C18.6669 40.7016 18.8055 40.3602 18.8909 39.9762C18.9762 39.5922 19.0189 39.1976 19.0189 38.7922ZM22.1353 31.5762H23.4953V43.0002H22.1353V31.5762ZM26.5941 38.8722C26.5941 39.3736 26.6581 39.8216 26.7861 40.2162C26.9248 40.6002 27.1115 40.9256 27.3461 41.1922C27.5808 41.4482 27.8528 41.6456 28.1621 41.7842C28.4821 41.9229 28.8181 41.9922 29.1701 41.9922C29.5221 41.9922 29.8528 41.9229 30.1621 41.7842C30.4821 41.6456 30.7595 41.4482 30.9941 41.1922C31.2288 40.9256 31.4101 40.6002 31.5381 40.2162C31.6768 39.8216 31.7461 39.3736 31.7461 38.8722C31.7461 38.3709 31.6768 37.9282 31.5381 37.5442C31.4101 37.1496 31.2288 36.8189 30.9941 36.5522C30.7595 36.2856 30.4821 36.0829 30.1621 35.9442C29.8528 35.8056 29.5221 35.7362 29.1701 35.7362C28.8181 35.7362 28.4821 35.8056 28.1621 35.9442C27.8528 36.0829 27.5808 36.2856 27.3461 36.5522C27.1115 36.8189 26.9248 37.1496 26.7861 37.5442C26.6581 37.9282 26.5941 38.3709 26.5941 38.8722ZM25.1541 38.8722C25.1541 38.2642 25.2395 37.6989 25.4101 37.1762C25.5808 36.6429 25.8368 36.1842 26.1781 35.8002C26.5195 35.4056 26.9408 35.0962 27.4421 34.8722C27.9435 34.6482 28.5195 34.5362 29.1701 34.5362C29.8315 34.5362 30.4075 34.6482 30.8981 34.8722C31.3995 35.0962 31.8208 35.4056 32.1621 35.8002C32.5035 36.1842 32.7595 36.6429 32.9301 37.1762C33.1008 37.6989 33.1861 38.2642 33.1861 38.8722C33.1861 39.4802 33.1008 40.0456 32.9301 40.5682C32.7595 41.0909 32.5035 41.5496 32.1621 41.9442C31.8208 42.3282 31.3995 42.6322 30.8981 42.8562C30.4075 43.0696 29.8315 43.1762 29.1701 43.1762C28.5195 43.1762 27.9435 43.0696 27.4421 42.8562C26.9408 42.6322 26.5195 42.3282 26.1781 41.9442C25.8368 41.5496 25.5808 41.0909 25.4101 40.5682C25.2395 40.0456 25.1541 39.4802 25.1541 38.8722ZM42.1176 42.9682C41.883 43.1069 41.5576 43.1762 41.1416 43.1762C40.7896 43.1762 40.507 43.0802 40.2936 42.8882C40.091 42.6856 39.9896 42.3602 39.9896 41.9122C39.6163 42.3602 39.179 42.6856 38.6776 42.8882C38.187 43.0802 37.6536 43.1762 37.0776 43.1762C36.7043 43.1762 36.347 43.1336 36.0056 43.0482C35.675 42.9629 35.387 42.8296 35.1416 42.6482C34.8963 42.4669 34.699 42.2322 34.5496 41.9442C34.411 41.6456 34.3416 41.2882 34.3416 40.8722C34.3416 40.4029 34.4216 40.0189 34.5816 39.7202C34.7416 39.4216 34.9496 39.1816 35.2056 39.0002C35.4723 38.8082 35.771 38.6642 36.1016 38.5682C36.443 38.4722 36.7896 38.3922 37.1416 38.3282C37.515 38.2536 37.867 38.2002 38.1976 38.1682C38.539 38.1256 38.8376 38.0722 39.0936 38.0082C39.3496 37.9336 39.5523 37.8322 39.7016 37.7042C39.851 37.5656 39.9256 37.3682 39.9256 37.1122C39.9256 36.8136 39.867 36.5736 39.7496 36.3922C39.643 36.2109 39.499 36.0722 39.3176 35.9762C39.147 35.8802 38.9496 35.8162 38.7256 35.7842C38.5123 35.7522 38.299 35.7362 38.0856 35.7362C37.5096 35.7362 37.0296 35.8482 36.6456 36.0722C36.2616 36.2856 36.0536 36.6962 36.0216 37.3042H34.6616C34.683 36.7922 34.7896 36.3602 34.9816 36.0082C35.1736 35.6562 35.4296 35.3736 35.7496 35.1602C36.0696 34.9362 36.4323 34.7762 36.8376 34.6802C37.2536 34.5842 37.6963 34.5362 38.1656 34.5362C38.539 34.5362 38.907 34.5629 39.2696 34.6162C39.643 34.6696 39.979 34.7816 40.2776 34.9522C40.5763 35.1122 40.8163 35.3416 40.9976 35.6402C41.179 35.9389 41.2696 36.3282 41.2696 36.8082V41.0642C41.2696 41.3842 41.2856 41.6189 41.3176 41.7682C41.3603 41.9176 41.4883 41.9922 41.7016 41.9922C41.819 41.9922 41.9576 41.9656 42.1176 41.9122V42.9682ZM39.9096 38.7282C39.739 38.8562 39.515 38.9522 39.2376 39.0162C38.9603 39.0696 38.667 39.1176 38.3576 39.1602C38.059 39.1922 37.755 39.2349 37.4456 39.2882C37.1363 39.3309 36.859 39.4056 36.6136 39.5122C36.3683 39.6189 36.1656 39.7736 36.0056 39.9762C35.8563 40.1682 35.7816 40.4349 35.7816 40.7762C35.7816 41.0002 35.8243 41.1922 35.9096 41.3522C36.0056 41.5016 36.123 41.6242 36.2616 41.7202C36.411 41.8162 36.5816 41.8856 36.7736 41.9282C36.9656 41.9709 37.1683 41.9922 37.3816 41.9922C37.8296 41.9922 38.2136 41.9336 38.5336 41.8162C38.8536 41.6882 39.115 41.5336 39.3176 41.3522C39.5203 41.1602 39.6696 40.9576 39.7656 40.7442C39.8616 40.5202 39.9096 40.3122 39.9096 40.1202V38.7282ZM44.3754 38.9362C44.3754 39.3202 44.4234 39.6989 44.5194 40.0722C44.626 40.4349 44.7807 40.7602 44.9834 41.0482C45.1967 41.3362 45.4634 41.5656 45.7834 41.7362C46.114 41.9069 46.498 41.9922 46.9354 41.9922C47.394 41.9922 47.7834 41.9016 48.1034 41.7202C48.4234 41.5389 48.6847 41.3042 48.8874 41.0162C49.09 40.7176 49.234 40.3816 49.3194 40.0082C49.4154 39.6349 49.4634 39.2562 49.4634 38.8722C49.4634 38.4669 49.4154 38.0776 49.3194 37.7042C49.2234 37.3202 49.0687 36.9842 48.8554 36.6962C48.6527 36.4082 48.386 36.1789 48.0554 36.0082C47.7247 35.8269 47.3247 35.7362 46.8554 35.7362C46.3967 35.7362 46.0074 35.8269 45.6874 36.0082C45.3674 36.1896 45.1114 36.4296 44.9194 36.7282C44.7274 37.0269 44.5887 37.3682 44.5034 37.7522C44.418 38.1362 44.3754 38.5309 44.3754 38.9362ZM50.7754 43.0002H49.4154V41.8802H49.3834C49.1594 42.3389 48.8074 42.6696 48.3274 42.8722C47.8474 43.0749 47.3194 43.1762 46.7434 43.1762C46.1034 43.1762 45.5434 43.0589 45.0634 42.8242C44.594 42.5896 44.1994 42.2749 43.8794 41.8802C43.57 41.4856 43.3354 41.0269 43.1754 40.5042C43.0154 39.9816 42.9354 39.4269 42.9354 38.8402C42.9354 38.2536 43.01 37.6989 43.1594 37.1762C43.3194 36.6536 43.554 36.2002 43.8634 35.8162C44.1834 35.4216 44.578 35.1122 45.0474 34.8882C45.5274 34.6536 46.082 34.5362 46.7114 34.5362C46.9247 34.5362 47.154 34.5576 47.3994 34.6002C47.6447 34.6429 47.89 34.7176 48.1354 34.8242C48.3807 34.9202 48.61 35.0536 48.8234 35.2242C49.0474 35.3842 49.234 35.5869 49.3834 35.8322H49.4154V31.5762H50.7754V43.0002Z" fill="white"/>
</svg>
