<svg width="304" height="193" viewBox="0 0 304 193" fill="none" xmlns="http://www.w3.org/2000/svg">
<rect width="304" height="193" fill="#F5F5F5"/>
<rect width="1512" height="982" transform="translate(-1148 -96)" fill="#FFF8F3"/>
<rect x="-1148" y="-96" width="1512" height="320" fill="#FFF0DD"/>
<g clip-path="url(#clip0_674_3520)">
<path d="M197.969 118.428C198.658 117.377 199.215 116.195 200.078 115.317C200.751 114.634 200.764 113.972 200.784 113.176C200.826 111.522 202.531 109.306 204.114 108.781C204.515 108.648 204.592 108.685 205.343 109.381C205.722 108.858 206.06 108.302 206.484 107.826C207.199 107.024 207.954 107.103 208.496 108.018C208.868 108.65 209.186 109.315 209.636 110.166C210.366 108.094 211.214 106.287 210.671 104.107C208.911 97.0589 210.514 90.8533 215.515 85.5715C215.699 85.3775 215.948 85.2482 216.33 84.9711C214.556 84.354 213.037 83.846 211.53 83.2992C208.428 82.1722 205.452 80.7682 202.49 79.3013C199.29 77.7162 197.857 75.1612 197.488 71.7231C196.386 61.468 198.842 52.0387 203.91 43.2005C204.201 42.6943 204.298 42.2897 204.072 41.7041C203.1 39.1879 202.762 36.5276 202.555 33.8599C202.073 27.658 202.112 21.5005 204.324 15.5591C205.002 13.7357 205.911 12.1229 208.003 11.6943C209.414 11.4043 210.797 11.6056 212.14 12.1321C214.363 13.0041 216.397 14.2678 218.577 15.2321C223.276 17.3087 228.12 18.8236 233.247 19.3445C233.707 19.3907 234.083 19.2485 234.484 19.1099C237.857 17.9534 241.273 17.2791 244.837 18.0994C246.369 18.4522 247.747 19.3113 249.503 18.8402C251.044 18.4264 252.718 18.4799 254.335 18.3894C260.083 18.068 265.706 18.5372 270.945 21.2252C271.786 21.6557 272.594 22.16 273.377 22.694C274.692 23.5918 274.944 24.3105 274.525 25.8494C273.542 29.4741 271.575 32.5722 269.323 35.5041C267.897 37.3608 266.281 39.0456 264.469 40.5254C263.994 40.9152 263.957 41.2071 264.22 41.7392C266.6 46.5555 268.735 51.4733 269.951 56.7385C270.598 59.5374 271.004 62.364 270.453 65.2386C269.811 68.5769 267.995 71.1744 265.303 73.1346C261.201 76.1237 256.679 78.3425 251.974 80.1918C250.668 80.7054 249.356 81.2079 248.035 81.6827C247.62 81.8323 247.628 82.0115 247.699 82.4161C247.874 83.41 248.353 83.9365 249.347 84.2635C250.703 84.7069 251.864 85.6158 252.611 86.8407C253.174 87.7607 253.826 87.7829 254.73 87.6739C258.9 87.1732 262.961 86.183 266.993 85.045C268.61 84.5887 270.232 84.1453 271.893 83.8756C273.858 83.5578 275.793 83.7333 277.707 84.2395C277.92 84.3522 278.128 84.4723 278.344 84.5776C280.929 85.8172 282.34 87.8956 282.749 90.7203C283.005 92.4865 282.799 94.2194 282.454 95.9412C281.563 100.366 280.352 104.709 279.175 109.062C277.365 114.953 275.407 120.791 273.037 126.485C269.479 135.035 265.208 143.197 259.991 150.845C259.662 151.327 259.587 151.667 259.906 152.218C260.847 153.833 261.699 155.499 262.579 157.147C262.695 157.363 262.768 157.518 263.084 157.559C264.844 157.78 265.99 158.859 266.79 160.38C267.144 161.056 267.385 161.802 267.96 162.344C268.439 162.794 268.779 162.987 269.247 162.19C270.41 160.21 272.352 159.314 274.479 158.767C280.222 157.293 285.731 160.572 287.039 166.242C287.355 167.609 287.362 168.985 287.083 170.362C286.857 171.476 286.455 172.506 285.452 173.142C279.211 177.092 272.747 180.585 265.656 182.758C264.161 183.216 262.599 183.362 261.025 183.238C259.531 183.122 258.347 182.508 257.5 181.226C256.675 179.981 256.148 178.608 255.753 177.192C255.064 174.718 253.925 172.525 252.158 170.652C251.357 169.804 250.73 168.819 250.35 167.688C249.97 166.556 249.782 165.418 250.201 164.263C250.363 163.818 250.209 163.384 249.97 163.153C249.648 162.842 249.395 163.332 249.167 163.52C245.085 166.879 240.524 169.17 235.241 169.82C231.785 170.245 228.407 169.931 225.17 168.542C224.874 168.414 224.604 168.187 224.198 168.222C224.106 168.654 224.487 168.791 224.681 169.006C226.359 170.855 227.623 172.913 228.056 175.427C228.436 177.644 227.871 179.582 226.384 181.226C224.299 183.53 221.696 184.833 218.595 185.06C216.049 185.246 213.52 185.006 210.999 184.668C209.816 184.509 208.821 183.911 207.884 183.194C203.609 179.926 199.641 176.32 196.114 172.24C195.6 171.646 195.374 171.549 194.801 172.203C191.534 175.933 187.995 179.366 183.734 181.96C172.091 189.041 158.073 187.908 147.332 179.046C143.743 176.085 140.706 172.578 137.592 169.146C135.219 166.53 132.805 163.962 129.95 161.85C125.964 158.9 121.511 157.744 116.588 158.004C108.663 158.425 101.111 160.513 93.651 163.014C83.9975 166.253 74.2283 169.018 64.2239 170.947C57.2028 172.301 50.1505 173.205 42.9862 172.87C40.1462 172.737 37.3116 172.538 34.5727 171.649C31.5949 170.681 29.3537 168.985 28.6685 165.726C28.5326 165.083 28.2074 165.364 27.8767 165.49C22.2665 167.622 16.6508 167.611 11.035 165.521C8.50911 164.581 6.28265 163.158 4.31888 161.304C3.27179 160.315 2.57005 159.157 2.52045 157.694C2.45983 155.905 1.89219 154.265 1.1978 152.65C0.0772199 150.042 -0.32876 147.32 0.277454 144.542C0.799166 142.157 1.95832 140.136 4.25091 138.985C4.45666 138.881 4.68078 138.617 4.8902 138.898C5.17493 139.278 4.72486 139.332 4.55402 139.489C3.6796 140.298 3.65756 141.335 3.81738 142.393C4.13335 144.477 5.12901 146.247 6.62066 147.668C11.5879 152.399 17.4866 155.091 24.3423 155.519C26.7194 155.669 28.9202 154.948 31.0327 153.888C33.3547 152.722 35.4967 151.22 37.8921 150.202C41.0812 148.846 44.3639 147.947 47.8763 148.475C49.9925 148.793 51.5485 149.641 52.3384 151.946C53.0806 154.11 53.8613 156.216 53.9311 158.519C53.9495 159.146 54.2103 159.037 54.6218 158.88C57.302 157.856 59.9455 156.739 62.5798 155.602C73.3391 150.958 83.5878 145.316 93.7796 139.556C100.681 135.656 107.803 132.229 115.429 129.967C119.235 128.839 123.096 128.14 127.094 128.532C129.442 128.763 131.622 129.5 133.685 130.621C138.336 133.15 142.55 136.273 146.445 139.87C149.869 143.031 153.269 146.228 156.912 149.144C159.3 151.056 161.881 152.621 164.918 153.247C168.329 153.951 171.529 153.221 174.599 151.704C177.542 150.252 180.044 148.187 182.439 145.985C183.953 144.593 185.404 143.138 186.878 141.702C187.721 140.882 187.715 140.875 186.859 139.979C186.295 139.107 185.755 138.22 185.16 137.37C184.721 136.742 184.84 136.415 185.515 136.04C188.648 134.29 191.421 132.023 194.176 129.738C194.369 129.577 194.705 129.457 194.509 129.092C193.952 128.053 194.345 127.058 194.65 126.066C195.471 123.396 196.696 120.9 197.964 118.425L197.969 118.428ZM223.871 168.22C223.96 168.294 224.061 168.414 224.156 168.265C224.259 168.102 224.095 168.084 223.993 168.045C223.846 167.847 223.666 167.873 223.434 167.975C223.598 168.067 223.734 168.143 223.871 168.22ZM247.707 105.631C247.383 105.818 246.946 105.879 246.913 106.376C245.436 107.911 244.255 109.653 243.298 111.556C242.584 112.978 242.839 114.204 244.064 115.232C246.913 117.619 249.804 117.698 252.431 115.45C253.324 114.685 254.028 113.754 254.619 112.744C256.251 109.954 254.814 106.594 251.678 105.792C250.335 105.45 249.083 105.76 247.835 106.209C247.835 106.021 247.833 105.831 247.832 105.642C249.569 104.844 251.309 104.89 253.096 105.662C253.3 104.8 253.574 103.979 253.622 103.032C251.528 103.723 249.505 104.367 247.374 104.543C247.495 104.94 247.6 105.286 247.707 105.631ZM202.997 115.469C203.03 115.498 203.064 115.528 203.097 115.557V115.369C202.76 113.647 203.315 112.184 204.379 110.863C204.513 110.697 204.605 110.497 204.741 110.335C205.014 110.011 204.816 109.784 204.623 109.533C204.366 109.2 204.149 109.392 203.938 109.57C203.33 110.078 202.687 110.553 202.136 111.118C201.122 112.156 201.221 113.507 201.456 114.755C201.561 115.312 202.415 115.352 202.999 115.469H202.997ZM226.344 142.223C227.755 140.149 228.556 137.813 229.25 135.425C229.533 134.453 229.491 133.673 228.756 132.847C228.098 132.107 227.683 131.144 227.189 130.265C226.761 129.504 226.372 128.72 225.966 127.946C225.784 128.238 225.795 128.497 225.782 128.755C225.642 131.331 225.387 133.895 225.012 136.446C224.904 137.18 224.748 137.943 223.768 138.004C223.043 137.738 222.38 137.355 221.827 136.814C221.548 136.539 221.345 136.474 220.969 136.673C219.011 137.719 216.984 137.673 214.938 136.949C214.46 136.781 213.99 136.592 213.516 136.413C215.267 138.902 217.003 141.349 219.65 142.909C220.776 143.572 222.005 143.893 223.302 144.004C224.744 144.128 225.876 143.757 226.344 142.22V142.223ZM252.384 160.86C251.838 160.995 251.579 161.488 251.204 161.83C250.46 162.51 250.436 163.345 251.213 163.958C251.833 164.448 252.578 164.575 253.339 164.213C256.917 163.687 259.702 161.86 261.828 158.965C262.124 158.562 262.326 158.058 262.074 157.575C261.148 155.789 260.185 154.023 259.206 152.194C258.986 152.458 258.837 152.613 258.716 152.787C257.142 155.017 255.486 157.176 253.671 159.218C253.216 159.73 252.58 160.13 252.382 160.858L252.384 160.86ZM207.118 181.793C208.292 182.834 209.475 183.89 211.102 184.106C213.468 184.421 215.845 184.64 218.239 184.506C221.213 184.339 223.739 183.174 225.798 181.016C227.297 179.445 227.893 177.57 227.465 175.422C226.897 172.562 225.381 170.269 223.149 168.449C222.33 167.783 221.366 167.387 220.298 167.291C219.137 166.916 217.951 167.027 216.771 167.147C216.108 167.215 215.761 166.992 215.579 166.334C215.324 165.418 214.973 164.533 214.313 163.812C214.163 163.55 214.049 163.288 213.681 163.219C211.573 162.83 209.767 161.727 207.935 160.69C207.502 160.444 207.173 160.395 206.688 160.616C202.753 162.412 200.132 165.627 197.626 168.978C197.148 169.532 196.682 170.099 196.186 170.637C195.907 170.94 195.897 171.141 196.189 171.474C199.5 175.268 203.091 178.76 207.116 181.788L207.118 181.793ZM250.616 166.227C250.828 168.302 252.121 169.767 253.411 171.234C254.862 172.885 255.661 174.866 256.282 176.94C256.662 178.206 257.121 179.44 257.775 180.596C258.539 181.949 259.688 182.605 261.218 182.68C262.732 182.754 264.201 182.521 265.665 182.169C268.329 181.526 270.778 180.343 273.234 179.17C277.069 177.336 280.868 175.442 284.462 173.147C285.597 172.421 286.313 171.498 286.528 170.164C286.725 168.937 286.754 167.716 286.48 166.499C285.261 161.078 280.17 157.956 274.72 159.318C272.662 159.831 270.776 160.668 269.641 162.632C269.167 163.45 268.568 163.581 267.798 162.999C267.107 162.479 266.775 161.703 266.439 160.951C265.968 159.899 265.248 159.1 264.269 158.525C263.262 157.936 263.049 158.002 262.524 159C262.383 159.27 262.206 159.526 262.017 159.765C259.967 162.366 257.34 164.051 254.11 164.767C253.242 164.96 252.314 165.228 251.502 164.801C250.528 164.291 250.578 164.869 250.569 165.495C250.565 165.739 250.602 165.985 250.62 166.229L250.616 166.227ZM264.352 60.6034C264.429 59.7277 264.091 58.9776 263.622 58.2793C262.19 56.1418 260.792 53.9785 259.298 51.8853C257.417 49.249 255.492 46.6349 253.034 44.4937C251.292 42.9751 249.327 42.5742 247.157 43.4739C244.804 44.4494 242.662 45.8128 240.515 47.1633C234.273 51.0872 228.872 56.0531 223.543 61.1059C221.807 62.752 220.287 64.5938 218.796 66.4598C218.537 66.7831 218.213 67.1101 218.25 67.5922C218.087 67.8139 217.943 68.0541 217.758 68.2536C215.831 70.3135 215.298 73.5853 216.911 75.9538C218.311 78.0118 220.363 79.1554 222.635 79.8796C226.939 81.2522 231.28 82.5269 235.806 82.8927C237.629 83.0387 239.469 83.0442 241.303 82.8428C244.128 82.5325 246.761 81.5386 249.387 80.5409C254.908 78.4422 259.502 75.1316 262.744 70.0863C264.626 67.1599 264.892 63.9509 264.352 60.6052V60.6034ZM215.502 81.9745C212.974 80.9917 210.417 80.0717 208.055 78.7175C205.654 77.3412 204.98 75.6489 205.738 72.9923C206.361 70.8142 207.426 68.8577 208.762 67.0436C209.052 66.6888 209.348 66.3378 209.635 65.9794C216.062 57.9763 223.451 51.0152 232.02 45.3786C236.374 42.5151 240.963 40.071 245.976 38.545C250.194 37.261 253.807 38.1164 256.701 41.6154C257.854 43.0102 259.103 44.3348 260.097 45.8516C263.968 51.7523 267.886 57.6327 269.903 64.507C269.914 64.4978 269.99 64.4682 269.995 64.4294C270.03 64.1856 270.058 63.9417 270.074 63.696C270.313 60.003 269.459 56.4817 268.322 53.0252C266.543 47.6159 264.131 42.4856 261.368 37.5178C261.245 37.2961 260.918 37.019 261.231 36.8102C261.631 36.5423 261.725 37.0098 261.859 37.2462C262.355 38.1275 262.853 39.0105 263.303 39.9158C263.547 40.4053 263.735 40.4386 264.153 40.0747C266.2 38.2974 268.064 36.3484 269.635 34.137C271.467 31.5543 273.14 28.8773 273.959 25.7644C274.33 24.3585 274.161 23.9576 272.973 23.1115C271.084 21.7684 268.999 20.8299 266.795 20.1648C261.997 18.7183 257.092 18.6998 252.16 19.1062C250.956 19.206 249.757 19.339 248.372 19.4739C249.044 20.0189 249.569 20.4216 250.071 20.8539C251.05 21.6982 251.906 22.6625 252.727 23.6565C252.874 23.8357 253.139 24.037 252.854 24.2735C252.556 24.5192 252.439 24.1701 252.281 24.0186C252.104 23.8486 251.956 23.6509 251.798 23.4625C250.604 22.0473 249.314 20.732 247.681 19.8323C244.286 17.9627 240.708 18.0218 237.074 18.9252C234.664 19.5237 232.393 20.5195 230.119 21.4968C229.855 21.6114 229.458 22.0122 229.274 21.5393C229.1 21.0922 229.671 21.107 229.926 20.9666C230.655 20.5675 231.495 20.3828 232.322 19.8175C227.312 19.1912 222.703 17.7391 218.268 15.7125C216.296 14.8109 214.381 13.7801 212.412 12.8748C211.007 12.2282 209.532 11.868 207.979 12.3649C206.6 12.6162 205.815 13.5584 205.294 14.7629C204.36 16.9133 203.762 19.1616 203.392 21.4765C202.67 25.9787 202.841 30.4901 203.266 34.9997C203.481 37.2906 203.841 39.5629 204.743 41.8112C205.371 40.9614 205.951 40.1781 206.53 39.3966C207.382 38.6078 208.126 37.7007 209.074 37.0153C209.276 36.8693 209.513 36.5165 209.763 36.825C210.009 37.1298 209.635 37.2943 209.438 37.4605C208.383 38.3528 207.364 39.2784 206.578 40.4312C206.434 40.5882 206.269 40.7305 206.152 40.9042C199.77 50.2707 196.908 60.5609 198.113 71.9208C198.449 75.0928 199.92 77.3486 202.832 78.8376C207.584 81.2688 212.533 83.1421 217.607 84.7217C218.682 85.0468 219.775 85.324 220.822 85.723C221.202 85.8671 222.053 85.6879 221.871 86.3567C221.748 86.8111 221.092 86.2661 220.666 86.2994C219.854 86.0408 219.003 85.8634 218.237 85.505C217.179 85.0099 216.507 85.1909 215.713 86.1239C214.194 87.9104 212.811 89.7449 211.99 91.9636C210.281 96.0908 210.081 100.292 211.404 104.558C212.397 107.767 214.363 110.401 216.455 112.938C220.293 117.589 223.75 122.494 226.577 127.837C227.294 129.193 228.014 130.547 228.784 131.874C229.357 132.862 230.101 133.716 231.012 134.423C231.535 134.83 231.851 134.907 232.211 134.185C233.301 132.003 234.135 129.742 234.614 127.348C235.325 123.795 235.748 120.18 236.824 116.71C238.281 112.016 239.692 107.283 243.799 104.074C242.783 103.216 241.646 102.673 240.41 102.271C238.525 101.657 236.662 100.97 234.794 100.301C230.779 98.862 226.888 97.179 223.568 94.4004C223.366 94.2305 222.883 94.0808 223.166 93.728C223.436 93.3899 223.708 93.7815 223.925 93.9644C225.839 95.5717 228.001 96.7707 230.237 97.8514C230.742 98.0953 231.104 98.0436 231.565 97.7424C234.05 96.1185 236.104 94.0069 238.198 91.9341C238.579 91.5591 238.4 91.3189 238.198 90.9993C236.183 87.794 233.314 85.7673 229.652 84.9711C224.942 83.9458 220.1 83.5375 215.502 81.969V81.9745ZM30.5937 158.97C29.6697 159.39 29.1553 160.084 28.8963 161.019C28.6226 162.004 28.8228 162.975 28.922 163.951C29.2912 167.57 31.1393 169.961 34.6516 171.021C37.5174 171.886 40.4621 172.2 43.4289 172.314C52.3035 172.66 60.9687 171.161 69.5898 169.26C78.3064 167.339 86.7953 164.638 95.2731 161.874C102.347 159.569 109.519 157.708 117.021 157.448C121.693 157.285 125.984 158.287 129.833 161.032C132.419 162.878 134.675 165.078 136.808 167.42C140.195 171.141 143.43 175.002 147.295 178.261C153.332 183.351 160.188 186.168 168.136 185.969C174.889 185.801 180.916 183.502 186.308 179.469C190.915 176.024 194.663 171.727 198.214 167.236C200.455 164.402 202.869 161.773 206.238 160.234C208.766 159.079 211.233 159.057 213.705 160.396C215.755 161.507 217.554 162.981 219.424 164.35C221.254 165.688 223.08 167.034 225.187 167.906C231.115 170.363 236.909 169.695 242.576 167.038C247.887 164.549 252.011 160.596 255.565 156.02C261.381 148.534 266.075 140.357 270.08 131.769C274.455 122.382 277.733 112.605 280.306 102.581C281.098 99.4975 282.037 96.4474 282.25 93.2347C282.601 87.9399 279.61 84.5332 274.36 84.3245C272.346 84.2432 270.41 84.6921 268.502 85.2538C264.482 86.438 260.428 87.4522 256.274 88.0286C253.807 88.3704 251.329 88.6142 248.812 88.7029C248.864 88.8119 248.873 88.8877 248.91 88.9043C252.07 90.3342 253.587 92.9742 254.274 96.2331C254.911 99.2555 254.476 102.232 253.829 105.182C253.688 105.823 253.822 106.154 254.272 106.586C255.593 107.857 256.313 109.492 255.795 111.262C254.895 114.345 252.944 116.583 249.764 117.503C249.252 117.65 248.956 117.874 248.7 118.351C245.447 124.416 241.885 130.28 237.381 135.508C235.055 138.207 232.649 140.841 229.584 142.731C225.027 145.545 221.202 145.188 217.183 141.667C216.024 140.651 214.989 139.526 214.03 138.323C212.752 136.718 211.536 135.061 210.07 133.616C206.868 130.462 202.99 129.94 199.101 132.118C197.521 133.003 196.064 134.065 194.657 135.201C191.213 137.983 188.198 141.222 185.048 144.318C182.199 147.119 179.237 149.781 175.712 151.717C173.467 152.951 171.103 153.825 168.533 154.045C164.749 154.368 161.439 153.095 158.404 150.956C154.533 148.227 151.131 144.937 147.626 141.774C143.245 137.823 138.729 134.074 133.555 131.198C131.91 130.285 130.209 129.57 128.343 129.278C124.208 128.632 120.172 129.199 116.2 130.339C108.56 132.532 101.385 135.837 94.5107 139.799C83.0386 146.411 71.3331 152.541 59.1115 157.647C52.9979 160.202 46.9082 162.809 40.2784 163.742C37.9289 164.073 35.5885 164.243 33.2941 163.434C30.9354 162.6 30.1289 161.281 30.5882 158.967L30.5937 158.97ZM268.711 68.213C269.198 67.6421 269.297 67.147 269.308 66.6113C269.347 64.6677 268.906 62.8203 268.132 61.0652C266.433 57.2096 264.315 53.5776 262.136 49.9843C260.141 46.6959 257.915 43.5792 255.139 40.8857C253.405 39.2027 251.375 38.4434 248.978 38.5875C246.869 38.7131 244.913 39.3929 242.993 40.2058C230.163 45.6391 220.049 54.6047 211.106 65.0742C209.376 67.1008 207.704 69.1977 206.785 71.7675C206.611 72.257 206.436 72.7503 206.302 73.2546C205.659 75.6692 206.21 77.0382 208.407 78.2316C213.906 81.2171 219.806 82.9204 225.989 83.676C231.326 84.3282 236.047 86.0629 238.911 91.075C240.368 89.7523 240.263 90.1938 239.649 88.472C239.26 87.382 238.498 86.5229 237.62 85.7803C236.506 84.8399 235.23 84.1896 233.874 83.6834C231.433 82.7726 228.87 82.3126 226.359 81.6586C223.724 80.9714 221.085 80.2971 218.805 78.7027C215.118 76.1256 214.317 72.4639 216.606 68.5806C217.607 66.8828 218.796 65.3088 220.122 63.8623C224.865 58.695 230.031 53.9896 235.632 49.7792C238.968 47.2723 242.458 45.0036 246.222 43.1987C249.286 41.73 251.445 42.0921 253.929 44.4069C254.489 44.9279 255.016 45.4913 255.512 46.0751C259.869 51.1796 263.595 56.7256 266.856 62.5894C267.796 64.2816 268.671 66.009 268.707 68.2148L268.711 68.213ZM3.21851 140.387C1.8628 141.693 1.16106 143.127 0.813862 144.747C0.224181 147.501 0.756915 150.115 1.8334 152.658C2.38451 153.958 2.97419 155.279 2.98889 156.705C3.01277 158.909 4.03047 160.481 5.70767 161.764C12.2419 166.759 19.41 167.659 27.1089 165.141C28.4334 164.707 28.4223 164.673 28.2239 163.319C27.7941 160.398 28.7677 158.797 31.5159 157.762C33.6101 156.971 35.7557 156.993 37.905 157.306C40.4787 157.681 43.0376 158.139 45.6333 157.55C47.9792 157.016 50.0128 155.994 51.1903 153.744C51.9673 152.258 51.6146 150.919 50.235 149.988C49.4892 149.484 48.6662 149.181 47.7771 149.049C44.3529 148.543 41.151 149.395 38.0961 150.823C35.9412 151.83 33.8838 153.047 31.7804 154.167C29.1571 155.562 26.3612 156.321 23.3981 156.038C16.8749 155.418 11.2591 152.658 6.4388 148.288C4.2252 146.28 2.99807 143.703 3.21851 140.391V140.387ZM217.174 136.871C220.532 136.895 222.371 135.556 223.195 132.827C223.789 130.863 224.336 128.888 224.948 126.93C225.073 126.531 225.049 126.235 224.841 125.899C224.099 124.702 223.366 123.498 222.633 122.293C222.47 122.027 222.319 121.822 221.93 121.833C218.568 121.924 215.434 120.93 212.34 119.749C208.694 118.358 205.044 116.98 201.397 115.585C201.012 115.437 200.718 115.282 200.394 115.759C197.971 119.328 196.064 123.141 194.926 127.32C194.633 128.39 194.904 128.988 195.824 129.598C196.718 130.191 197.688 130.64 198.655 131.102C199.037 131.285 199.375 131.279 199.762 131.091C200.758 130.608 201.8 130.272 202.915 130.196C206.422 129.958 209.111 131.552 211.336 134.082C213.039 136.018 215.32 136.511 217.175 136.866L217.174 136.871ZM252.229 92.5714C250.376 89.1759 246.355 88.1598 243.425 90.3028C241.521 91.6958 240.645 93.6725 240.364 95.9615C239.908 99.6749 242.084 103.098 245.451 103.885C247.396 104.34 249.114 103.891 250.354 102.226C251.526 100.652 251.682 98.9303 250.712 97.2104C249.731 95.4701 248.186 94.7976 246.217 95.108C246.002 95.1412 245.699 95.3426 245.576 95.0027C245.458 94.6831 245.796 94.5981 245.984 94.4854C246.851 93.9626 247.78 93.582 248.739 93.2587C249.863 92.8781 251.039 92.7451 252.231 92.5696L252.229 92.5714ZM52.1712 153.164C51.1168 155.595 49.1787 156.945 46.8457 157.803C45.1557 158.423 43.3977 158.555 41.6066 158.396C39.3875 158.2 37.2106 157.601 34.9603 157.686C33.8783 157.727 32.8183 157.849 31.9163 158.518C30.6433 159.46 30.5716 160.696 31.7179 161.776C32.4252 162.443 33.2812 162.842 34.2089 163.084C35.5849 163.441 36.9828 163.487 38.3955 163.375C43.4803 162.97 48.1959 161.171 52.952 159.521C53.2992 159.401 53.3892 159.209 53.3837 158.843C53.3469 156.884 52.9446 155.011 52.1731 153.164H52.1712ZM232.856 135.271C233.134 135.112 233.468 134.957 233.762 134.747C235.465 133.527 236.387 131.765 236.953 129.823C237.664 127.381 238.218 124.891 238.902 122.441C240.594 116.378 242.128 110.229 246.869 105.625C247.067 105.431 247.02 105.278 246.856 105.086C246.366 104.51 244.626 104.273 244.005 104.722C242.589 105.746 241.509 107.068 240.663 108.589C239.198 111.229 238.178 114.048 237.346 116.947C236.455 120.052 235.944 123.235 235.388 126.409C234.886 129.275 234.034 132.009 232.65 134.571C232.527 134.8 232.121 135.159 232.854 135.275L232.856 135.271ZM237.309 130.885C237.726 130.906 237.873 130.643 238.048 130.451C238.709 129.727 239.381 129.01 240.008 128.255C242.576 125.164 244.624 121.768 245.945 117.948C246.119 117.444 246.108 117.15 245.535 116.899C244.461 116.427 243.538 115.69 242.771 114.805C242.205 114.155 242.025 114.319 241.758 115.034C240.362 118.781 239.468 122.668 238.463 126.526C238.088 127.967 237.7 129.406 237.307 130.884L237.309 130.885ZM198.456 131.711C197.433 131.159 196.487 130.728 195.638 130.158C195.142 129.823 194.874 129.919 194.477 130.252C191.779 132.513 189.034 134.712 185.974 136.47C185.581 136.696 185.548 136.877 185.772 137.246C186.347 138.19 186.98 139.088 187.647 139.967C188.007 140.444 188.222 140.403 188.625 140.001C191.637 136.988 194.768 134.113 198.458 131.711H198.456ZM210.489 115.757C210.437 112.952 209.284 110.713 208.09 108.493C207.656 107.685 207.322 107.652 206.763 108.413C206.003 109.451 205.334 110.556 204.572 111.593C203.745 112.72 203.407 113.906 203.683 115.313C203.773 115.772 203.936 115.899 204.302 116.034C205.532 116.488 206.752 116.976 207.976 117.451C210.261 118.338 210.437 118.21 210.487 115.659C210.487 115.627 210.487 115.598 210.487 115.757H210.489ZM221.952 121.201C220.82 119.636 219.876 118.21 218.81 116.884C216.071 113.473 217.172 113.32 212.114 114.774C212.085 114.783 212.059 114.802 212.03 114.807C211.361 114.924 211.358 115.254 211.674 115.768C212.234 116.679 213.005 117.508 213.248 118.55C213.455 119.442 213.966 119.755 214.725 119.989C217.001 120.691 219.286 121.312 221.95 121.199L221.952 121.201ZM257.467 76.8239C258.374 76.8239 258.87 76.386 259.41 76.0942C262.072 74.6532 264.728 73.2029 266.859 70.9749C267.728 70.066 268.176 69.0166 268.092 67.7363C267.919 65.113 266.376 63.1011 265.16 60.9045C266.167 67.8952 262.542 72.6265 257.467 76.8257V76.8239ZM231.554 98.4426C232.674 98.8712 233.659 99.2629 234.655 99.6268C236.441 100.281 237.962 99.8781 239.216 98.4186C239.46 98.1341 239.818 97.9161 239.791 97.4284C239.695 95.7749 240.01 94.2009 240.686 92.6823C240.99 91.9987 240.243 91.7752 239.923 91.4076C239.58 91.0141 239.405 91.5406 239.238 91.7087C236.877 94.1048 234.554 96.5379 231.556 98.4408L231.554 98.4426ZM247.449 94.4337C249.749 94.8641 251.241 95.9504 251.766 98.0583C252.275 100.109 251.59 101.866 249.99 103.516C250.905 103.251 251.562 103.004 252.244 102.878C253.455 102.657 253.984 102.054 254.03 100.745C254.114 98.3225 254.009 95.9652 252.973 93.7316C252.856 93.4785 252.819 93.1183 252.38 93.1645C250.751 93.3307 249.147 93.5875 247.449 94.4337ZM235.483 83.6336C235.625 83.737 235.757 83.8571 235.907 83.9402C237.974 85.0745 239.697 86.5285 240.469 88.8747C240.634 89.3809 240.818 89.1297 241.02 88.8969C242.306 87.4153 243.542 85.8911 244.6 84.2358C244.883 83.7943 245.555 83.2862 245.271 82.8669C245.006 82.4789 244.343 83.0479 243.838 83.1015C243.777 83.1089 243.715 83.1107 243.656 83.1237C240.979 83.7093 238.279 83.8368 235.483 83.6336ZM238.828 132.799C242.458 128.04 245.668 123.067 248.386 117.724C247.995 117.654 247.666 117.621 247.352 117.532C246.885 117.399 246.672 117.508 246.502 118.018C244.999 122.542 242.508 126.489 239.278 129.945C238.432 130.85 238.06 131.626 238.826 132.799H238.828ZM215.994 113.355C215.293 112.418 214.697 111.644 214.12 110.856C212.939 109.237 212.61 109.206 211.1 110.617C210.9 110.804 210.735 111.029 210.54 111.225C210.298 111.467 210.265 111.715 210.371 112.051C210.625 112.856 210.827 113.677 211.051 114.497C211.841 114.259 212.621 114.007 213.411 113.787C214.198 113.568 214.988 113.346 215.994 113.357V113.355ZM233.712 137.97C234.116 138.039 234.434 137.904 234.701 137.601C235.667 136.496 236.62 135.378 237.616 134.3C238.16 133.71 238.173 133.128 237.965 132.382C237.774 131.7 237.61 131.691 237.182 132.16C236.378 133.041 235.608 133.961 234.735 134.772C234.087 135.375 233.415 136.092 232.342 135.765C232.081 135.685 231.657 135.436 231.574 135.888C231.455 136.54 231.137 137.159 231.227 137.845C231.232 137.885 231.398 137.956 231.46 137.932C232.219 137.647 232.966 137.837 233.712 137.972V137.97ZM242.925 87.6406C243.268 87.9288 243.581 88.1746 243.875 88.4406C244.332 88.8544 245.886 88.7934 246.312 88.3353C247.418 87.1418 247.857 84.04 247.135 82.5417C247.056 82.3791 247.047 82.1722 246.797 82.1778C246.524 82.1833 246.472 82.4161 246.371 82.599C245.386 84.3744 244.202 86.0112 242.925 87.6406ZM221.981 166.826C219.786 165.477 217.874 163.814 215.836 162.32C215.61 162.153 215.294 161.675 215.05 162.054C214.819 162.412 214.297 162.83 214.791 163.43C215.397 164.169 215.831 165.026 216.062 165.957C216.191 166.473 216.402 166.635 216.942 166.558C218.41 166.349 219.867 166.484 221.298 166.879C221.492 166.933 221.683 167.062 221.983 166.826H221.981ZM252.643 87.8679C251.636 86.2846 250.365 85.2408 248.75 84.6201C248.489 84.5203 248.107 84.3189 248.091 84.8547C248.052 86.0057 247.547 87.0199 247.152 88.1099C248.987 88.1709 250.745 88.0268 252.643 87.8679ZM226.267 143.557C227.492 143.265 228.385 142.909 228.912 141.784C229.75 139.997 230.409 138.166 230.885 136.254C231.098 135.399 230.911 134.841 230.033 134.525C229.381 137.727 228.13 140.692 226.265 143.557H226.267ZM224.948 128.955C224.727 129.712 224.524 130.475 224.281 131.225C223.824 132.644 223.554 134.144 222.602 135.358C221.909 136.241 221.906 136.262 222.854 136.882C223.058 137.015 223.278 137.119 223.489 137.243C223.956 137.516 224.252 137.381 224.338 136.855C224.762 134.239 225.089 131.613 224.95 128.955H224.948ZM208.402 160.182C209.875 161.217 211.418 161.86 212.983 162.451C213.202 162.534 213.465 162.538 213.705 162.525C214.212 162.497 214.301 162.043 214.442 161.688C214.6 161.291 214.199 161.257 213.986 161.134C213.053 160.589 212.048 160.204 210.992 160.029C210.171 159.892 209.317 159.815 208.402 160.182ZM233.712 138.61C231.846 138.19 230.948 138.072 229.496 142.055C231.175 141.069 232.421 139.862 233.712 138.61ZM243.729 89.1555C243.586 88.7824 243.204 88.6752 242.93 88.4443C242.671 88.2263 242.422 88.2706 242.207 88.5071C241.613 89.1592 240.994 89.7911 240.447 90.4802C240.044 90.9864 240.605 91.2302 240.864 91.5203C241.244 91.9433 241.325 91.4796 241.509 91.2801C242.065 90.676 242.598 90.0479 243.303 89.6008C243.467 89.4973 243.707 89.429 243.728 89.1555H243.729ZM210.233 110.508C210.999 109.819 211.844 109.304 212.763 108.89C212.317 108.059 211.89 107.266 211.382 106.32C211.157 107.87 210.674 109.16 210.233 110.508ZM212.835 119.171C212.513 117.957 211.795 117.076 211.13 116.089C210.69 117.755 211.182 118.786 212.607 119.184C212.633 119.191 212.662 119.182 212.835 119.171ZM239.874 98.4722C239.153 99.4569 239.561 100.382 239.657 101.158C239.732 101.774 240.704 101.709 241.455 101.997C240.629 100.902 240.258 99.8005 239.875 98.4722H239.874ZM237.763 100.831C238.312 100.822 238.698 101.334 238.975 100.913C239.15 100.648 239.174 99.9187 238.878 99.8559C238.45 99.7654 238.228 100.362 237.761 100.831H237.763ZM210.018 110.811C210.064 110.785 210.123 110.767 210.151 110.728C210.164 110.71 210.11 110.649 210.086 110.606C210.035 110.636 209.984 110.667 209.932 110.697C209.96 110.735 209.987 110.774 210.018 110.811ZM257.191 77.1971C257.243 77.1712 257.323 77.1546 257.334 77.1176C257.364 77.0234 257.325 76.9587 257.211 77.0068C257.16 77.029 257.114 77.0677 257.066 77.0992C257.107 77.1306 257.147 77.1638 257.191 77.1971ZM237.348 131.026C237.326 131.002 237.309 130.982 237.291 130.963C237.271 131 237.245 131.037 237.236 131.078C237.232 131.092 237.267 131.116 237.285 131.137C237.305 131.1 237.327 131.063 237.348 131.028V131.026Z" fill="#121110"/>
<path d="M197.969 118.428C196.704 120.904 195.476 123.398 194.655 126.069C194.35 127.061 193.959 128.057 194.514 129.095C194.71 129.461 194.374 129.583 194.181 129.742C191.428 132.027 188.656 134.294 185.52 136.044C184.846 136.42 184.726 136.746 185.165 137.374C185.76 138.223 186.301 139.11 186.865 139.982C181.113 141.168 176.037 139.823 171.843 135.672C166.11 129.999 165.61 120.734 170.578 114.371C176.737 106.483 188.512 106.106 195.175 113.621C196.413 115.016 197.523 116.542 197.966 118.43L197.969 118.428Z" fill="#F78978"/>
<path d="M279.176 109.065C280.354 104.713 281.564 100.368 282.455 95.9449C282.803 94.2231 283.008 92.4902 282.751 90.724C282.341 87.8993 280.931 85.8209 278.346 84.5813C278.129 84.4778 277.922 84.3577 277.708 84.2432C279.101 83.1938 280.751 82.793 282.411 82.6138C286.963 82.1205 290.988 83.3786 294.141 86.8C297.747 90.7129 298.75 95.3722 297.185 100.416C295.608 105.496 292.028 108.591 286.848 109.697C284.252 110.251 281.676 109.969 279.176 109.065Z" fill="#F78978"/>
<path d="M176.974 26.3795C174.814 30.636 168.549 31.3251 165.278 27.6672C163.321 25.478 162.82 22.2505 164.109 19.5884C165.472 16.7692 167.813 15.4187 170.882 15.3873C172.655 15.3688 174.189 16.1484 175.6 17.1775C175.64 18.6757 175.677 20.174 175.719 21.6741C175.767 23.3424 175.975 24.9699 176.974 26.3814V26.3795Z" fill="#F78978"/>
<path d="M176.974 26.3796C175.975 24.9663 175.767 23.3405 175.719 21.6723C175.675 20.174 175.639 18.6739 175.6 17.1756C175.653 13.9611 175.775 10.7484 176.019 7.54125C176.175 5.4906 176.48 3.4695 177.297 1.56479C177.399 1.32832 177.345 0.908949 177.805 0.95144C178.155 1.18237 177.983 1.4484 177.861 1.71997C177.538 2.44971 177.261 3.20162 177.127 3.99048C176.133 9.80621 176.114 15.67 176.324 21.5411C176.348 22.2044 176.103 23.1687 176.563 23.4588C177.094 23.795 177.828 23.1189 178.458 22.8584C180.885 21.8589 183.284 20.7929 185.707 19.7861C186.361 19.5145 186.459 19.1302 186.247 18.5076C185.904 17.4897 185.544 16.481 185.085 15.5111C182.744 10.5618 180.4 5.61437 178.06 0.665087C178.007 0.169974 178.352 -0.10899 178.887 0.036958C179.335 0.158889 179.695 0.458174 180.049 0.751917C182.281 2.58827 184.271 4.66849 186.17 6.84292C187.441 8.29685 188.637 9.82469 189.984 11.2047C192.091 13.3644 192.84 15.9101 192.541 18.866C192.106 23.1447 191.845 27.44 191.266 31.7039C191.171 32.4041 190.998 33.0895 190.726 33.7435C189.988 35.5225 188.636 35.9659 187.065 34.8667C183.453 32.3394 179.869 29.7715 176.974 26.3777V26.3796ZM188.446 34.7743C188.579 34.4677 188.478 34.1647 188.439 33.8654C188.219 32.0956 188.004 30.3257 187.768 28.5577C187.416 25.9066 187.21 23.2371 186.703 20.6063C186.646 20.3163 186.703 19.9394 186.19 20.1851C183.211 21.6113 180.121 22.7734 177.083 24.0592C176.658 24.2384 176.632 24.4564 176.8 24.824C177.16 25.6184 177.681 26.2946 178.264 26.932C180.979 29.9008 184.256 32.175 187.517 34.4658C187.789 34.6561 188.081 34.8427 188.446 34.7762V34.7743ZM187.087 18.9381C188.454 17.3031 189.778 15.7088 191.117 14.1255C191.4 13.7911 191.09 13.6193 190.961 13.4216C190.043 11.9954 188.817 10.8223 187.728 9.53833C185.287 6.66002 182.799 3.82421 179.912 1.38005C179.588 1.10478 179.27 0.801797 178.706 0.672477C181.559 6.77272 184.638 12.5977 187.087 18.9399V18.9381ZM191.54 14.5855C190.034 16.2039 188.856 17.9442 187.344 19.3796C187.083 19.6272 187.181 19.884 187.225 20.1463C188.011 24.7557 188.395 29.4186 189.054 34.0446C189.082 34.2404 188.952 34.536 189.214 34.6136C189.484 34.6912 189.648 34.4289 189.782 34.2386C190.383 33.3832 190.592 32.3819 190.702 31.3732C191.082 27.8889 191.455 24.401 191.771 20.9112C191.959 18.8402 192.308 16.7489 191.542 14.5874L191.54 14.5855Z" fill="#121110"/>
<path d="M303.833 41.6468C304.514 44.3496 303.012 46.4705 300.954 48.4398C298.272 51.0059 295.645 53.6293 292.86 56.0864C292.585 56.3284 292.305 56.5796 291.991 56.7588C291.279 57.1634 290.647 57.0655 290.16 56.3542C289.423 55.2809 289.243 54.0228 289.001 52.7924C288.312 49.321 287.928 45.8109 287.718 42.2768C287.627 40.7101 288.023 39.3929 289.01 38.1847C291.144 35.5724 293.771 33.5033 296.338 31.364C297.491 30.4033 298.597 29.3798 299.863 28.5651C301.276 27.6561 302.152 27.9499 302.587 29.596C303.203 31.9163 303.41 34.3143 303.653 36.6957C303.809 38.2253 303.93 39.7606 303.833 41.6468ZM291.633 56.2766C295.46 53.1009 299.04 49.6665 302.359 45.9587C302.653 45.6299 302.964 45.2696 302.98 44.7246C300.172 44.7431 297.401 44.5306 294.651 44.1205C294.032 44.0281 293.81 44.1889 293.648 44.78C292.638 48.4915 291.975 52.2677 291.459 56.0734C291.438 56.127 291.418 56.1824 291.398 56.236C291.475 56.2489 291.554 56.2619 291.631 56.2748L291.633 56.2766ZM301.536 28.844C300.216 31.0905 298.902 33.3001 297.611 35.5225C296.268 37.83 295.123 40.228 294.266 42.7682C294.058 43.3815 294.24 43.5053 294.771 43.5718C297.227 43.8803 299.688 44.1131 302.167 44.1371C303.37 44.1482 303.373 44.1482 303.37 42.9437C303.355 38.9735 303.004 35.0311 302.341 31.1182C302.211 30.3497 302.152 29.5276 301.536 28.8422V28.844ZM300.803 28.9364C300.75 28.8791 300.697 28.82 300.644 28.7628C300.175 29.0824 299.677 29.3632 299.246 29.7271C296.808 31.7778 294.372 33.8303 291.966 35.9197C290.854 36.8841 289.868 37.9796 289.004 39.1823C288.701 39.6035 288.661 39.8806 289.168 40.1984C290.463 41.0094 291.732 41.8629 292.992 42.7294C293.446 43.0416 293.606 42.9899 293.782 42.443C294.675 39.6885 295.976 37.1206 297.44 34.6339C298.559 32.7329 299.683 30.8374 300.805 28.9383L300.803 28.9364ZM290.656 56.0254C290.711 55.6929 290.948 55.4823 290.988 55.2033C291.528 51.4659 292.188 47.7526 293.241 44.1205C293.308 43.884 293.439 43.6845 293.138 43.4924C291.578 42.4985 290.026 41.4898 288.282 40.3647C288.431 45.8035 288.894 51.0078 290.656 56.0254Z" fill="#121110"/>
<path d="M288.071 64.7989C288.088 63.2378 289.267 62.0739 290.825 62.0813C292.414 62.0869 293.59 63.3117 293.551 64.919C293.513 66.4727 292.313 67.6181 290.753 67.5904C289.205 67.5627 288.057 66.3674 288.073 64.7989H288.071Z" fill="#F78978"/>
<path d="M30.5935 158.97C30.1325 161.285 30.9407 162.606 33.2995 163.437C35.5939 164.246 37.9343 164.077 40.2838 163.746C46.9136 162.813 53.0033 160.206 59.1169 157.651C71.3385 152.543 83.044 146.415 94.5161 139.803C101.39 135.84 108.564 132.535 116.206 130.342C120.177 129.202 124.213 128.637 128.348 129.282C130.215 129.574 131.916 130.289 133.56 131.201C138.735 134.078 143.252 137.826 147.632 141.778C151.137 144.939 154.539 148.231 158.409 150.96C161.444 153.099 164.754 154.374 168.539 154.049C171.11 153.829 173.473 152.955 175.718 151.721C179.243 149.783 182.202 147.121 185.053 144.322C188.204 141.227 191.218 137.987 194.663 135.205C196.07 134.069 197.525 133.006 199.106 132.121C202.995 129.945 206.873 130.466 210.075 133.62C211.541 135.064 212.757 136.721 214.036 138.327C214.995 139.53 216.029 140.655 217.188 141.671C221.208 145.192 225.032 145.547 229.59 142.735C232.652 140.845 235.06 138.211 237.386 135.511C241.889 130.283 245.452 124.419 248.706 118.354C248.961 117.878 249.257 117.654 249.769 117.506C252.949 116.584 254.9 114.347 255.8 111.266C256.318 109.496 255.598 107.861 254.277 106.59C253.827 106.157 253.695 105.827 253.835 105.186C254.481 102.235 254.917 99.2591 254.279 96.2367C253.59 92.9779 252.075 90.3379 248.915 88.9079C248.879 88.8913 248.867 88.8156 248.818 88.7066C251.333 88.6197 253.811 88.374 256.28 88.0323C260.433 87.4577 264.488 86.4416 268.507 85.2574C270.416 84.6958 272.352 84.2469 274.365 84.3281C279.615 84.5369 282.606 87.9454 282.255 93.2383C282.042 96.451 281.103 99.5012 280.312 102.585C277.738 112.609 274.461 122.385 270.085 131.772C266.082 140.361 261.387 148.538 255.571 156.024C252.016 160.6 247.892 164.553 242.581 167.042C236.914 169.698 231.12 170.365 225.192 167.91C223.085 167.036 221.257 165.691 219.429 164.354C217.559 162.985 215.761 161.512 213.711 160.4C211.24 159.061 208.771 159.083 206.243 160.238C202.874 161.776 200.46 164.405 198.219 167.239C194.668 171.729 190.921 176.028 186.313 179.473C180.922 183.504 174.895 185.802 168.142 185.972C160.193 186.172 153.337 183.355 147.301 178.265C143.436 175.006 140.201 171.143 136.813 167.424C134.681 165.082 132.425 162.881 129.838 161.036C125.99 158.29 121.698 157.291 117.027 157.452C109.525 157.712 102.353 159.572 95.2785 161.878C86.8006 164.642 78.3118 167.341 69.5952 169.264C60.9741 171.165 52.3089 172.663 43.4343 172.318C40.4675 172.203 37.5228 171.889 34.657 171.025C31.1447 169.964 29.2966 167.574 28.9274 163.955C28.8282 162.979 28.6298 162.007 28.9017 161.023C29.1607 160.088 29.675 159.393 30.5991 158.974L30.5935 158.97Z" fill="#F8F7F7"/>
<path d="M207.974 12.3686C209.526 11.8717 211.001 12.2319 212.406 12.8785C214.377 13.7856 216.292 14.8146 218.263 15.7162C222.697 17.7428 227.308 19.1949 232.316 19.8212C231.489 20.3865 230.65 20.5694 229.92 20.9703C229.663 21.1107 229.094 21.0959 229.268 21.543C229.452 22.0178 229.849 21.615 230.113 21.5005C232.389 20.5232 234.658 19.5274 237.068 18.9289C240.702 18.0255 244.28 17.9664 247.675 19.836C249.308 20.7357 250.598 22.051 251.792 23.4662C251.95 23.6546 252.099 23.8523 252.275 24.0223C252.431 24.1719 252.551 24.5229 252.848 24.2772C253.133 24.0407 252.87 23.8375 252.721 23.6602C251.898 22.6662 251.042 21.7019 250.065 20.8576C249.564 20.4253 249.038 20.0225 248.366 19.4776C249.751 19.3427 250.951 19.2097 252.154 19.1099C257.086 18.7016 261.991 18.722 266.789 20.1685C268.996 20.8336 271.079 21.7721 272.967 23.1152C274.158 23.9594 274.325 24.3622 273.954 25.7681C273.134 28.881 271.463 31.558 269.629 34.1407C268.059 36.3539 266.194 38.3011 264.148 40.0783C263.729 40.4423 263.541 40.409 263.297 39.9195C262.847 39.0142 262.349 38.1311 261.853 37.2499C261.719 37.0134 261.625 36.5442 261.225 36.8139C260.913 37.0227 261.24 37.2998 261.363 37.5215C264.126 42.4892 266.538 47.6196 268.316 53.0289C269.453 56.4854 270.307 60.0067 270.068 63.6997C270.052 63.9454 270.024 64.1893 269.989 64.4331C269.984 64.4719 269.91 64.5015 269.898 64.5107C267.881 57.6364 263.962 51.7542 260.092 45.8553C259.098 44.3404 257.849 43.0158 256.695 41.6191C253.802 38.1219 250.188 37.2647 245.97 38.5487C240.957 40.0746 236.368 42.5188 232.015 45.3823C223.445 51.017 216.057 57.9782 209.629 65.9831C209.342 66.3415 209.046 66.6925 208.756 67.0472C208.558 65.1647 208.264 63.2877 208.179 61.3996C208.036 58.1629 208.98 55.0962 210.038 52.1052C210.613 50.4831 211.231 49.0292 209.873 47.5457C209.779 47.4422 209.778 47.2575 209.717 47.1171C208.815 44.974 207.911 42.8329 207.009 40.6898C206.923 40.4848 206.75 40.4534 206.563 40.4386C207.349 39.2858 208.369 38.3602 209.423 37.4679C209.62 37.3016 209.994 37.1391 209.748 36.8324C209.498 36.5239 209.261 36.8767 209.059 37.0227C208.111 37.7062 207.367 38.6152 206.515 39.404C206.379 37.9409 205.935 36.5386 205.692 35.0921C204.996 30.9317 204.854 26.7639 205.244 22.5813C205.393 20.9795 205.602 19.3833 206.041 17.8075C206.559 15.9434 207.222 14.1495 207.964 12.3742L207.974 12.3686Z" fill="#E0C7A4"/>
<path d="M220.66 86.3031C221.086 86.2698 221.742 86.8148 221.865 86.3603C222.045 85.6897 221.197 85.8708 220.816 85.7267C219.769 85.3295 218.676 85.0505 217.602 84.7272C217.907 83.9698 217.247 83.7314 216.863 83.3435C216.411 82.8872 215.684 82.7061 215.502 81.9764C220.1 83.5449 224.94 83.9513 229.652 84.9785C233.314 85.7766 236.183 87.8032 238.198 91.0067C238.4 91.3263 238.577 91.5664 238.198 91.9415C236.104 94.0124 234.05 96.1259 231.565 97.7498C231.104 98.0509 230.742 98.1027 230.237 97.8588C227.999 96.7762 225.839 95.5791 223.925 93.9718C223.708 93.7907 223.436 93.3991 223.166 93.7353C222.883 94.09 223.366 94.2397 223.568 94.4078C226.888 97.1845 230.778 98.8694 234.794 100.309C236.662 100.977 238.523 101.665 240.41 102.278C241.644 102.681 242.783 103.224 243.799 104.081C239.692 107.29 238.281 112.023 236.824 116.717C235.748 120.189 235.323 123.804 234.614 127.355C234.135 129.749 233.301 132.011 232.211 134.192C231.851 134.915 231.535 134.837 231.012 134.431C230.101 133.725 229.357 132.87 228.783 131.881C228.016 130.555 227.296 129.201 226.577 127.845C223.75 122.502 220.291 117.595 216.455 112.945C214.363 110.407 212.397 107.774 211.404 104.565C210.083 100.301 210.281 96.0982 211.99 91.971C212.408 91.9396 212.616 91.6145 212.809 91.317C213.31 90.5374 213.944 89.8705 214.637 89.2848C216.251 87.9233 217.956 86.704 220.188 86.6282C220.421 86.6208 220.609 86.5691 220.666 86.3068L220.66 86.3031Z" fill="#E0C6A4"/>
<path d="M264.352 60.6034C264.89 63.9472 264.624 67.1562 262.744 70.0844C259.502 75.1298 254.908 78.4404 249.387 80.5391C246.76 81.5385 244.13 82.5306 241.303 82.841C239.469 83.0424 237.629 83.0368 235.806 82.8909C231.28 82.5269 226.939 81.2503 222.635 79.8777C220.362 79.1535 218.311 78.0099 216.911 75.9519C215.298 73.5816 215.832 70.3117 217.758 68.2518C217.945 68.0522 218.086 67.8121 218.25 67.5904C218.717 67.3336 219.009 66.8976 219.361 66.5207C220.719 65.0779 221.948 63.4946 223.695 62.4693C226.57 60.7789 229.566 59.3268 232.549 57.8525C234.116 57.0785 235.786 56.6055 237.546 56.5261C236.815 57.1782 236.097 57.8341 235.529 58.6506C234.067 60.753 233.385 63.1214 233.161 65.6339C233.04 66.9881 233.102 68.3386 233.837 69.5671C234.587 70.8179 235.893 71.1098 237.035 70.2137C237.667 69.7186 238.167 69.1053 238.486 68.3441C239.723 65.4086 240.256 62.3474 240.092 59.1698C240.03 57.9449 239.638 56.8789 238.404 56.345C241.137 55.9109 243.873 55.4878 246.648 55.4213C248.36 55.3807 250.05 55.6098 251.748 55.7779C255.271 56.1233 258.679 56.8198 261.681 58.8594C262.561 59.458 263.459 60.0251 264.348 60.6071L264.352 60.6034ZM254.452 60.7512C254.439 59.9549 254.452 59.1624 254.292 58.368C254.138 57.6031 253.785 57.0378 253.061 56.7829C252.327 56.5242 251.777 56.9196 251.268 57.4128C249.187 59.4321 248.281 61.9945 247.837 64.786C247.611 66.2103 247.644 67.5978 248.197 68.9464C248.845 70.5297 250.352 70.9342 251.682 69.8775C252.246 69.4286 252.655 68.8485 252.924 68.1871C253.888 65.8058 254.485 63.3431 254.452 60.7512Z" fill="#504540"/>
<path d="M250.617 166.227C250.598 165.983 250.562 165.737 250.565 165.494C250.573 164.867 250.525 164.289 251.498 164.799C252.312 165.224 253.238 164.958 254.107 164.766C257.336 164.049 259.963 162.364 262.013 159.763C262.203 159.523 262.379 159.268 262.52 158.998C263.046 158.002 263.259 157.934 264.266 158.523C265.245 159.098 265.965 159.898 266.435 160.949C266.771 161.701 267.104 162.477 267.795 162.998C268.564 163.58 269.165 163.448 269.637 162.63C270.772 160.666 272.659 159.829 274.716 159.316C280.165 157.954 285.257 161.078 286.477 166.497C286.751 167.714 286.723 168.935 286.525 170.162C286.31 171.498 285.595 172.421 284.458 173.146C280.865 175.44 277.064 177.334 273.23 179.168C270.776 180.341 268.325 181.526 265.662 182.167C264.2 182.52 262.728 182.752 261.214 182.678C259.686 182.603 258.536 181.947 257.772 180.594C257.118 179.438 256.659 178.204 256.278 176.938C255.656 174.864 254.858 172.881 253.407 171.232C255.962 171.246 258.192 170.112 260.476 169.179C261.02 168.957 261.352 168.446 261.168 167.827C260.998 167.25 260.652 166.763 259.939 166.781C259.605 166.79 259.267 166.8 258.936 166.848C256.115 167.254 253.302 167.589 250.613 166.223L250.617 166.227Z" fill="#E0C6A4"/>
<path d="M268.711 68.213C268.674 66.0071 267.8 64.2798 266.859 62.5875C263.597 56.7237 259.871 51.1777 255.516 46.0733C255.018 45.4913 254.491 44.9278 253.932 44.405C251.447 42.0902 249.29 41.7281 246.226 43.1968C242.462 45.0017 238.97 47.2704 235.636 49.7774C230.033 53.9895 224.869 58.695 220.126 63.8604C218.799 65.3069 217.611 66.8791 216.61 68.5787C214.321 72.4621 215.122 76.1237 218.809 78.7009C221.09 80.2952 223.728 80.9695 226.362 81.6568C228.874 82.3108 231.436 82.7689 233.878 83.6816C235.232 84.1878 236.51 84.8362 237.623 85.7784C238.501 86.5211 239.266 87.3801 239.653 88.4701C240.267 90.1919 240.372 89.7504 238.915 91.0732C236.051 86.0611 231.33 84.3263 225.993 83.6742C219.81 82.9186 213.909 81.2152 208.411 78.2298C206.214 77.0363 205.661 75.6674 206.306 73.2528C206.44 72.7503 206.613 72.257 206.789 71.7656C207.708 69.1958 209.379 67.099 211.11 65.0723C220.052 54.6029 230.167 45.6373 242.997 40.2039C244.916 39.3911 246.871 38.7112 248.982 38.5856C251.379 38.4415 253.409 39.2008 255.143 40.8838C257.919 43.5774 260.145 46.694 262.14 49.9824C264.319 53.5757 266.437 57.2078 268.136 61.0634C268.91 62.8203 269.352 64.6677 269.312 66.6094C269.301 67.1451 269.202 67.6402 268.715 68.2111L268.711 68.213Z" fill="#80D7C8"/>
<path d="M3.21855 140.387C2.99811 143.699 4.2234 146.276 6.43884 148.285C11.2592 152.656 16.8749 155.416 23.3981 156.035C26.3612 156.317 29.1572 155.558 31.7804 154.163C33.8838 153.044 35.9413 151.828 38.0961 150.819C41.151 149.391 44.353 148.54 47.7771 149.046C48.6644 149.177 49.4892 149.482 50.2351 149.984C51.6147 150.917 51.9692 152.255 51.1903 153.74C50.011 155.992 47.9792 157.012 45.6334 157.546C43.0377 158.137 40.4787 157.677 37.905 157.302C35.7557 156.99 33.6101 156.968 31.5159 157.758C28.7677 158.795 27.7941 160.395 28.224 163.315C28.4242 164.67 28.4352 164.705 27.1089 165.137C19.41 167.655 12.242 166.753 5.7077 161.76C4.03051 160.478 3.01281 158.904 2.98892 156.702C2.97423 155.275 2.38455 153.954 1.83344 152.654C0.756953 150.112 0.224219 147.498 0.8139 144.743C1.1611 143.123 1.86284 141.689 3.21855 140.383V140.387Z" fill="#F7F7F7"/>
<path d="M220.298 167.293C221.366 167.389 222.33 167.782 223.15 168.451C225.382 170.269 226.897 172.564 227.465 175.423C227.891 177.57 227.298 179.445 225.799 181.018C223.739 183.175 221.213 184.341 218.239 184.507C215.846 184.64 213.468 184.422 211.102 184.108C209.475 183.892 208.292 182.835 207.118 181.795C207.884 181.223 207.72 180.55 207.195 179.979C206.471 179.194 205.76 178.39 204.875 177.76C203.459 176.752 202.14 175.651 201.074 174.228C199.816 172.547 198.451 170.949 197.628 168.983C200.134 165.632 202.757 162.417 206.69 160.622C207.175 160.4 207.506 160.45 207.937 160.696C209.767 161.73 211.575 162.833 213.683 163.225C214.051 163.293 214.165 163.556 214.315 163.818C214.198 163.844 214.043 163.831 213.966 163.901C212.287 165.462 210.658 167.075 209.596 169.146C209.319 169.689 209.28 170.328 209.741 170.871C210.419 171.668 211.218 171.669 212.061 170.69C213.843 168.623 216.09 167.723 218.759 167.696C219.286 167.69 219.839 167.64 220.298 167.297V167.293Z" fill="#E0C6A4"/>
<path d="M217.174 136.871C215.318 136.518 213.037 136.025 211.334 134.087C209.109 131.558 206.422 129.962 202.913 130.202C201.8 130.278 200.756 130.614 199.761 131.096C199.373 131.283 199.035 131.29 198.653 131.107C197.689 130.645 196.717 130.196 195.822 129.603C194.902 128.994 194.632 128.393 194.924 127.325C196.063 123.148 197.97 119.333 200.393 115.764C200.716 115.288 201.01 115.443 201.396 115.59C205.04 116.983 208.692 118.364 212.339 119.755C215.432 120.935 218.566 121.929 221.928 121.839C222.317 121.827 222.468 122.033 222.632 122.299C223.366 123.501 224.097 124.706 224.84 125.905C225.047 126.239 225.071 126.537 224.946 126.936C224.334 128.892 223.785 130.869 223.194 132.833C222.369 135.561 220.532 136.901 217.172 136.877L217.174 136.871Z" fill="#F7F7F7"/>
<path d="M215.502 81.9745C215.684 82.7043 216.411 82.8853 216.863 83.3416C217.247 83.7296 217.905 83.9661 217.602 84.7254C212.526 83.1458 207.577 81.2707 202.827 78.8413C199.915 77.3522 198.444 75.0965 198.107 71.9245C196.904 60.5646 199.764 50.2762 206.146 40.9078C206.264 40.7342 206.429 40.5919 206.572 40.4349C206.76 40.4497 206.932 40.4811 207.019 40.6861C207.921 42.8292 208.825 44.9703 209.726 47.1134C209.785 47.2538 209.787 47.4385 209.883 47.542C211.238 49.0255 210.621 50.4794 210.048 52.1014C208.988 55.0924 208.046 58.161 208.189 61.3959C208.272 63.284 208.565 65.161 208.766 67.0435C207.43 68.8577 206.365 70.8123 205.742 72.9923C204.981 75.6489 205.656 77.3411 208.058 78.7175C210.423 80.0735 212.98 80.9935 215.506 81.9745H215.502Z" fill="#C8AA85"/>
<path d="M264.352 60.6034C263.463 60.0214 262.563 59.4543 261.685 58.8557C258.683 56.8143 255.275 56.1196 251.752 55.7742C250.054 55.6079 248.364 55.377 246.652 55.4176C243.877 55.4841 241.141 55.909 238.408 56.3413C238.121 56.3912 237.792 56.2545 237.55 56.5224C235.788 56.6018 234.12 57.0748 232.553 57.8489C229.568 59.3213 226.572 60.7752 223.699 62.4656C221.952 63.4928 220.723 65.0742 219.365 66.517C219.011 66.8939 218.719 67.3299 218.254 67.5867C218.217 67.1045 218.54 66.7775 218.799 66.4542C220.289 64.5883 221.808 62.7464 223.546 61.1003C228.875 56.0476 234.274 51.0835 240.518 47.1577C242.666 45.8073 244.808 44.4438 247.161 43.4684C249.329 42.5687 251.294 42.9714 253.038 44.4882C255.496 46.6312 257.421 49.2435 259.302 51.8798C260.795 53.9729 262.193 56.1363 263.626 58.2738C264.095 58.9721 264.433 59.7222 264.356 60.5978L264.352 60.6034Z" fill="#2F1F1A"/>
<path d="M252.23 92.5714C251.037 92.7469 249.863 92.88 248.737 93.2605C247.78 93.5838 246.849 93.9644 245.982 94.4872C245.794 94.5999 245.456 94.6849 245.574 95.0045C245.697 95.3426 246.002 95.1431 246.215 95.1098C248.186 94.7995 249.729 95.4719 250.71 97.2122C251.678 98.9303 251.524 100.654 250.352 102.228C249.112 103.893 247.396 104.341 245.449 103.887C242.082 103.1 239.907 99.6767 240.362 95.9633C240.643 93.6744 241.52 91.6976 243.423 90.3046C246.353 88.1598 250.374 89.1758 252.228 92.5733L252.23 92.5714Z" fill="#DDD3CA"/>
<path d="M247.835 106.209C249.082 105.76 250.335 105.45 251.678 105.792C254.814 106.592 256.252 109.954 254.619 112.744C254.028 113.754 253.324 114.685 252.431 115.45C249.804 117.698 246.913 117.619 244.064 115.232C242.833 114.201 242.578 112.976 243.298 111.556C244.255 109.651 245.436 107.911 246.913 106.375C247.264 106.566 247.58 106.557 247.835 106.211V106.209Z" fill="#F7F7F7"/>
<path d="M52.1713 153.164C52.941 155.009 53.3433 156.883 53.3819 158.843C53.3892 159.209 53.2992 159.399 52.9502 159.521C48.1942 161.17 43.4767 162.97 38.3937 163.374C36.981 163.487 35.5831 163.441 34.2071 163.084C33.2795 162.844 32.4252 162.443 31.7162 161.776C30.5699 160.696 30.6415 159.46 31.9146 158.518C32.8184 157.849 33.8765 157.727 34.9585 157.686C37.2088 157.603 39.3838 158.2 41.6048 158.396C43.394 158.553 45.1539 158.422 46.844 157.803C49.1788 156.947 51.1169 155.595 52.1695 153.164H52.1713Z" fill="#DDD3CA"/>
<path d="M232.856 135.271C232.123 135.155 232.529 134.795 232.652 134.567C234.036 132.005 234.886 129.271 235.39 126.405C235.946 123.231 236.455 120.048 237.348 116.943C238.18 114.044 239.2 111.225 240.666 108.585C241.509 107.065 242.589 105.742 244.007 104.718C244.628 104.269 246.368 104.506 246.858 105.082C247.022 105.274 247.069 105.428 246.871 105.622C242.13 110.227 240.596 116.374 238.904 122.437C238.22 124.889 237.666 127.377 236.955 129.819C236.389 131.761 235.467 133.524 233.764 134.743C233.47 134.953 233.136 135.109 232.858 135.268L232.856 135.271Z" fill="#80D7C8"/>
<path d="M252.384 160.86C252.582 160.132 253.218 159.731 253.673 159.22C255.488 157.178 257.143 155.019 258.718 152.789C258.841 152.615 258.99 152.46 259.208 152.196C260.187 154.023 261.15 155.791 262.076 157.577C262.326 158.061 262.125 158.564 261.83 158.966C259.704 161.861 256.918 163.689 253.341 164.215C253.13 163.066 252.733 161.97 252.386 160.862L252.384 160.86Z" fill="#504540"/>
<path d="M207.974 12.3686C207.232 14.144 206.569 15.9379 206.051 17.8019C205.612 19.3796 205.402 20.9758 205.253 22.5757C204.864 26.7601 205.004 30.928 205.702 35.0866C205.944 36.5331 206.387 37.9353 206.525 39.3985C205.946 40.1818 205.367 40.9633 204.737 41.8131C203.835 39.5647 203.475 37.2906 203.26 35.0016C202.836 30.492 202.665 25.9805 203.387 21.4783C203.758 19.1635 204.357 16.9152 205.288 14.7647C205.81 13.5602 206.596 12.618 207.974 12.3668V12.3686Z" fill="#C6A983"/>
<path d="M237.309 130.885C237.7 129.407 238.088 127.97 238.465 126.527C239.469 122.67 240.364 118.781 241.76 115.036C242.027 114.323 242.207 114.159 242.772 114.807C243.542 115.69 244.462 116.429 245.537 116.9C246.11 117.152 246.121 117.445 245.947 117.95C244.626 121.77 242.576 125.166 240.01 128.257C239.383 129.01 238.711 129.727 238.049 130.453C237.875 130.645 237.726 130.908 237.311 130.887L237.309 130.885Z" fill="#C6A983"/>
<path d="M226.344 142.223C225.876 143.76 224.744 144.132 223.302 144.008C222.005 143.897 220.776 143.576 219.65 142.912C217.003 141.353 215.267 138.905 213.516 136.417C213.99 136.596 214.46 136.782 214.938 136.952C216.984 137.675 219.011 137.723 220.969 136.677C221.345 136.476 221.546 136.542 221.827 136.818C222.378 137.359 223.041 137.741 223.768 138.007C224.713 139.362 225.694 140.692 226.346 142.227L226.344 142.223Z" fill="#E0C6A4"/>
<path d="M198.456 131.711C194.766 134.113 191.635 136.988 188.623 140.001C188.22 140.403 188.005 140.442 187.645 139.967C186.979 139.088 186.345 138.19 185.77 137.246C185.546 136.877 185.579 136.698 185.972 136.47C189.032 134.712 191.777 132.513 194.475 130.252C194.872 129.919 195.14 129.823 195.636 130.158C196.487 130.73 197.431 131.159 198.454 131.711H198.456Z" fill="#C6A983"/>
<path d="M210.489 115.757C210.489 115.596 210.489 115.627 210.489 115.659C210.439 118.212 210.261 118.338 207.978 117.451C206.754 116.976 205.534 116.488 204.304 116.034C203.938 115.899 203.775 115.772 203.685 115.313C203.409 113.906 203.747 112.72 204.574 111.593C205.334 110.556 206.003 109.45 206.765 108.413C207.324 107.652 207.658 107.685 208.092 108.493C209.284 110.713 210.439 112.952 210.491 115.757H210.489Z" fill="#80D7C8"/>
<path d="M221.952 121.201C219.288 121.312 217.003 120.693 214.727 119.991C213.968 119.756 213.457 119.446 213.25 118.552C213.007 117.51 212.236 116.679 211.675 115.77C211.359 115.256 211.363 114.924 212.032 114.809C212.061 114.804 212.087 114.783 212.116 114.776C217.174 113.322 216.073 113.473 218.812 116.886C219.878 118.212 220.82 119.638 221.953 121.203L221.952 121.201Z" fill="#80D7C8"/>
<path d="M257.467 76.8239C262.541 72.6265 266.167 67.8934 265.16 60.9026C266.376 63.0993 267.919 65.1111 268.092 67.7345C268.177 69.0148 267.728 70.0622 266.859 70.973C264.73 73.201 262.072 74.6513 259.41 76.0923C258.872 76.3842 258.374 76.8239 257.467 76.822V76.8239Z" fill="#A48468"/>
<path d="M226.344 142.223C225.692 140.688 224.711 139.358 223.767 138.004C224.746 137.941 224.902 137.18 225.01 136.446C225.385 133.895 225.64 131.331 225.78 128.755C225.795 128.497 225.782 128.236 225.964 127.946C226.37 128.72 226.759 129.504 227.187 130.265C227.681 131.144 228.096 132.107 228.754 132.847C229.487 133.673 229.529 134.453 229.248 135.425C228.554 137.813 227.753 140.149 226.342 142.223H226.344Z" fill="#C6A983"/>
<path d="M231.554 98.4426C234.552 96.5397 236.877 94.1048 239.236 91.7105C239.403 91.5424 239.578 91.0159 239.921 91.4094C240.243 91.777 240.988 92.0005 240.684 92.6841C240.008 94.2027 239.692 95.7767 239.789 97.4302C239.816 97.916 239.458 98.134 239.214 98.4204C237.965 99.8811 236.444 100.284 234.653 99.6286C233.659 99.2647 232.672 98.873 231.552 98.4444L231.554 98.4426Z" fill="#F7F7F7"/>
<path d="M250.616 166.227C253.306 167.59 256.118 167.258 258.94 166.851C259.27 166.803 259.608 166.792 259.943 166.785C260.654 166.766 260.999 167.254 261.172 167.831C261.355 168.448 261.023 168.959 260.479 169.183C258.198 170.116 255.966 171.25 253.41 171.235C252.121 169.768 250.827 168.303 250.616 166.229V166.227Z" fill="#C8AA85"/>
<path d="M220.298 167.293C219.841 167.638 219.288 167.688 218.759 167.692C216.09 167.72 213.841 168.619 212.061 170.687C211.218 171.666 210.417 171.662 209.741 170.868C209.28 170.326 209.316 169.685 209.596 169.142C210.658 167.071 212.287 165.458 213.966 163.897C214.043 163.827 214.197 163.84 214.315 163.814C214.975 164.533 215.325 165.42 215.581 166.336C215.763 166.994 216.11 167.217 216.773 167.149C217.95 167.029 219.137 166.92 220.3 167.293H220.298Z" fill="#C8AA85"/>
<path d="M197.628 168.981C198.451 170.947 199.814 172.545 201.074 174.226C202.139 175.649 203.458 176.75 204.875 177.759C205.758 178.389 206.471 179.192 207.195 179.977C207.722 180.548 207.885 181.221 207.118 181.793C203.093 178.765 199.501 175.274 196.191 171.479C195.901 171.147 195.908 170.945 196.187 170.642C196.683 170.105 197.15 169.538 197.628 168.983V168.981Z" fill="#C6A983"/>
<path d="M247.449 94.4336C249.147 93.5857 250.75 93.3307 252.38 93.1645C252.819 93.1201 252.856 93.4785 252.973 93.7316C254.009 95.9652 254.114 98.3225 254.029 100.744C253.983 102.056 253.454 102.657 252.244 102.878C251.562 103.002 250.905 103.251 249.99 103.516C251.59 101.868 252.277 100.109 251.766 98.0583C251.243 95.9504 249.751 94.8659 247.449 94.4336Z" fill="#DDD3CA"/>
<path d="M235.483 83.6335C238.281 83.8368 240.979 83.7093 243.656 83.1236C243.715 83.1107 243.777 83.1089 243.838 83.1015C244.343 83.0479 245.006 82.4789 245.271 82.8668C245.555 83.2862 244.883 83.7943 244.6 84.2358C243.542 85.893 242.306 87.4152 241.02 88.8969C240.818 89.1297 240.634 89.3809 240.469 88.8747C239.697 86.5285 237.976 85.0745 235.907 83.9402C235.755 83.8571 235.623 83.737 235.483 83.6335Z" fill="#504540"/>
<path d="M238.828 132.799C238.062 131.626 238.433 130.85 239.28 129.945C242.509 126.489 245 122.542 246.503 118.018C246.672 117.508 246.885 117.399 247.354 117.532C247.668 117.621 247.997 117.654 248.388 117.724C245.667 123.067 242.46 128.04 238.83 132.799H238.828Z" fill="#E0C6A4"/>
<path d="M215.994 113.355C214.987 113.344 214.199 113.566 213.411 113.786C212.621 114.007 211.839 114.257 211.051 114.495C210.827 113.675 210.625 112.854 210.371 112.049C210.265 111.713 210.298 111.465 210.54 111.223C210.735 111.029 210.898 110.804 211.1 110.615C212.612 109.204 212.941 109.235 214.12 110.854C214.697 111.643 215.291 112.418 215.994 113.353V113.355Z" fill="#80D7C8"/>
<path d="M233.712 137.97C232.968 137.837 232.221 137.645 231.46 137.93C231.398 137.954 231.232 137.884 231.227 137.843C231.135 137.159 231.455 136.539 231.574 135.886C231.657 135.432 232.081 135.683 232.342 135.763C233.415 136.09 234.087 135.373 234.736 134.771C235.606 133.961 236.378 133.04 237.182 132.158C237.61 131.689 237.774 131.698 237.965 132.38C238.173 133.126 238.16 133.708 237.616 134.298C236.62 135.377 235.667 136.494 234.701 137.599C234.434 137.904 234.116 138.037 233.712 137.969V137.97Z" fill="#2F1F1A"/>
<path d="M242.925 87.6406C244.202 86.0112 245.386 84.3743 246.371 82.5989C246.472 82.416 246.524 82.1833 246.797 82.1777C247.047 82.1722 247.058 82.3791 247.135 82.5417C247.857 84.0399 247.418 87.1418 246.312 88.3352C245.888 88.7934 244.334 88.8544 243.875 88.4405C243.579 88.1745 243.266 87.927 242.925 87.6406Z" fill="#F7F7F7"/>
<path d="M221.981 166.826C221.68 167.062 221.489 166.933 221.296 166.879C219.865 166.486 218.408 166.349 216.94 166.558C216.4 166.635 216.189 166.473 216.06 165.957C215.829 165.026 215.395 164.169 214.789 163.43C214.295 162.83 214.817 162.412 215.048 162.054C215.293 161.675 215.609 162.155 215.834 162.32C217.874 163.814 219.786 165.479 221.979 166.826H221.981Z" fill="#F2E9E4"/>
<path d="M220.66 86.3031C220.605 86.5654 220.416 86.6171 220.182 86.6245C217.951 86.7003 216.248 87.9196 214.631 89.2811C213.937 89.8668 213.303 90.5337 212.803 91.3133C212.612 91.6107 212.405 91.9359 211.984 91.9673C212.805 89.7485 214.188 87.914 215.708 86.1275C216.501 85.1946 217.172 85.0135 218.232 85.5087C218.998 85.8671 219.848 86.0444 220.66 86.3031Z" fill="#C6A983"/>
<path d="M252.643 87.8679C250.743 88.0268 248.987 88.1709 247.152 88.1099C247.545 87.0199 248.052 86.0057 248.091 84.8547C248.109 84.3171 248.489 84.5203 248.75 84.6201C250.365 85.2408 251.638 86.2846 252.643 87.8679Z" fill="#C6A983"/>
<path d="M226.267 143.557C228.129 140.692 229.38 137.727 230.034 134.525C230.912 134.841 231.1 135.399 230.887 136.254C230.411 138.166 229.751 139.997 228.914 141.783C228.387 142.909 227.494 143.265 226.268 143.557H226.267Z" fill="#80D7C8"/>
<path d="M202.997 115.469C202.413 115.352 201.559 115.312 201.454 114.755C201.219 113.507 201.122 112.156 202.134 111.118C202.685 110.553 203.33 110.08 203.936 109.57C204.149 109.392 204.366 109.202 204.621 109.533C204.816 109.784 205.012 110.011 204.739 110.335C204.601 110.497 204.509 110.697 204.377 110.863C203.313 112.182 202.758 113.647 203.093 115.369C203.06 115.402 203.027 115.435 202.995 115.47L202.997 115.469Z" fill="#80D7C8"/>
<path d="M224.948 128.955C225.088 131.613 224.761 134.239 224.336 136.855C224.252 137.381 223.954 137.516 223.488 137.242C223.278 137.119 223.056 137.015 222.852 136.882C221.904 136.262 221.908 136.241 222.6 135.358C223.552 134.142 223.824 132.644 224.279 131.225C224.522 130.475 224.724 129.712 224.946 128.955H224.948Z" fill="#F5ECE7"/>
<path d="M208.402 160.182C209.317 159.813 210.171 159.892 210.992 160.029C212.048 160.204 213.053 160.589 213.986 161.134C214.199 161.257 214.598 161.291 214.442 161.688C214.301 162.042 214.212 162.497 213.705 162.525C213.467 162.538 213.204 162.534 212.983 162.451C211.418 161.86 209.875 161.215 208.402 160.182Z" fill="#2F1F1A"/>
<path d="M247.707 105.631C247.602 105.285 247.495 104.942 247.374 104.543C249.505 104.369 251.528 103.723 253.622 103.032C253.574 103.979 253.302 104.8 253.096 105.662C251.307 104.89 249.567 104.844 247.831 105.642C247.793 105.605 247.751 105.601 247.707 105.629V105.631Z" fill="#E0C6A4"/>
<path d="M252.383 160.86C252.732 161.969 253.127 163.064 253.339 164.213C252.578 164.575 251.834 164.448 251.213 163.958C250.436 163.345 250.46 162.51 251.204 161.83C251.579 161.486 251.836 160.993 252.383 160.86Z" fill="#2F1F1A"/>
<path d="M233.712 138.61C232.419 139.862 231.175 141.068 229.496 142.055C230.947 138.072 231.846 138.19 233.712 138.61Z" fill="#F2E9E4"/>
<path d="M243.729 89.1555C243.709 89.4289 243.468 89.4973 243.305 89.6007C242.6 90.0478 242.065 90.6759 241.51 91.28C241.326 91.4796 241.246 91.9451 240.865 91.5202C240.605 91.232 240.046 90.9882 240.448 90.4801C240.996 89.791 241.613 89.1573 242.208 88.507C242.423 88.2706 242.673 88.2262 242.932 88.4442C243.206 88.6733 243.588 88.7823 243.731 89.1555H243.729Z" fill="#2F1F1A"/>
<path d="M210.233 110.508C210.674 109.161 211.157 107.87 211.382 106.32C211.89 107.266 212.315 108.059 212.763 108.89C211.844 109.304 211.001 109.819 210.233 110.508Z" fill="#E0C6A4"/>
<path d="M212.835 119.171C212.662 119.182 212.633 119.189 212.607 119.184C211.181 118.786 210.689 117.754 211.13 116.089C211.797 117.076 212.515 117.957 212.835 119.171Z" fill="#80D7C8"/>
<path d="M239.873 98.4722C240.255 99.8005 240.627 100.9 241.453 101.997C240.702 101.709 239.73 101.774 239.655 101.158C239.559 100.382 239.153 99.4569 239.872 98.4722H239.873Z" fill="#80D7C8"/>
<path d="M237.763 100.831C238.229 100.362 238.452 99.7672 238.88 99.8559C239.175 99.9187 239.15 100.648 238.977 100.913C238.7 101.334 238.312 100.822 237.765 100.831H237.763Z" fill="#C8AA85"/>
<path d="M247.707 105.631C247.751 105.603 247.793 105.607 247.832 105.644C247.832 105.832 247.833 106.023 247.835 106.211C247.58 106.558 247.264 106.566 246.913 106.375C246.948 105.879 247.385 105.816 247.707 105.631Z" fill="#2F1F1A"/>
<path d="M223.871 168.22C223.734 168.143 223.598 168.067 223.434 167.975C223.664 167.875 223.846 167.847 223.993 168.045C223.952 168.104 223.912 168.161 223.871 168.22Z" fill="#F5ECE7"/>
<path d="M210.017 110.811C209.987 110.772 209.96 110.735 209.932 110.697C209.984 110.667 210.035 110.636 210.086 110.606C210.11 110.649 210.164 110.71 210.151 110.728C210.125 110.767 210.064 110.785 210.018 110.813L210.017 110.811Z" fill="#121110"/>
<path d="M257.191 77.1971C257.149 77.1638 257.109 77.1306 257.066 77.0992C257.114 77.0677 257.16 77.0289 257.212 77.0068C257.324 76.9569 257.364 77.0234 257.335 77.1176C257.324 77.1546 257.243 77.1712 257.191 77.1971Z" fill="#A48468"/>
<path d="M203.095 115.367V115.555C203.063 115.525 203.031 115.496 202.998 115.466C203.029 115.433 203.062 115.398 203.095 115.365V115.367Z" fill="#80D7C8"/>
<path d="M237.347 131.026C237.327 131.061 237.307 131.097 237.285 131.134C237.267 131.114 237.232 131.09 237.236 131.075C237.245 131.035 237.27 131 237.291 130.961C237.309 130.981 237.325 131 237.347 131.024V131.026Z" fill="#C6A983"/>
<path d="M223.991 168.047C224.094 168.085 224.257 168.104 224.154 168.267C224.059 168.416 223.958 168.296 223.87 168.222C223.91 168.163 223.95 168.106 223.991 168.047Z" fill="#F5ECE7"/>
<path d="M178.06 0.666931C180.402 5.61622 182.744 10.5637 185.085 15.5129C185.544 16.4829 185.904 17.4916 186.248 18.5095C186.457 19.1321 186.362 19.5163 185.708 19.7879C183.285 20.7948 180.885 21.8607 178.459 22.8602C177.829 23.1188 177.094 23.7969 176.563 23.4606C176.104 23.1687 176.348 22.2062 176.324 21.543C176.115 15.6718 176.133 9.80805 177.127 3.99232C177.261 3.20346 177.538 2.4534 177.862 1.72182C177.981 1.45024 178.156 1.18421 177.805 0.953284C177.889 0.859065 177.976 0.762998 178.06 0.668779V0.666931Z" fill="#9DE9DC"/>
<path d="M188.446 34.7743C188.081 34.8408 187.789 34.6561 187.517 34.464C184.256 32.1731 180.979 29.8989 178.264 26.9301C177.681 26.2927 177.16 25.6166 176.8 24.8222C176.632 24.4545 176.66 24.2365 177.082 24.0573C180.121 22.7715 183.211 21.6095 186.19 20.1833C186.703 19.9376 186.646 20.3144 186.703 20.6045C187.21 23.2352 187.414 25.9048 187.768 28.5559C188.004 30.3239 188.218 32.0937 188.439 33.8635C188.476 34.1647 188.579 34.4658 188.446 34.7725V34.7743Z" fill="#B9E8E1"/>
<path d="M187.087 18.9381C184.638 12.5977 181.558 6.77083 178.707 0.670593C179.271 0.799914 179.588 1.10474 179.912 1.37816C182.799 3.82417 185.287 6.65999 187.728 9.53645C188.817 10.8204 190.043 11.9935 190.961 13.4198C191.09 13.6174 191.4 13.7893 191.117 14.1236C189.778 15.7069 188.454 17.3012 187.087 18.9362V18.9381Z" fill="#80D7C8"/>
<path d="M191.54 14.5855C192.306 16.7489 191.957 18.8383 191.769 20.9093C191.453 24.401 191.08 27.8871 190.7 31.3713C190.59 32.38 190.382 33.3795 189.78 34.2367C189.646 34.427 189.48 34.6893 189.212 34.6118C188.95 34.536 189.08 34.2404 189.052 34.0427C188.393 29.4168 188.009 24.7538 187.223 20.1445C187.179 19.884 187.081 19.6253 187.342 19.3778C188.856 17.9405 190.033 16.2002 191.538 14.5837L191.54 14.5855Z" fill="#80D7C8"/>
<path d="M301.537 28.8441C302.152 29.5295 302.211 30.3497 302.341 31.1201C303.005 35.033 303.355 38.9736 303.37 42.9455C303.374 44.1501 303.37 44.1501 302.167 44.139C299.689 44.115 297.227 43.8822 294.771 43.5737C294.24 43.5072 294.058 43.3834 294.266 42.77C295.124 40.2317 296.268 37.8337 297.611 35.5244C298.904 33.3019 300.216 31.0924 301.537 28.8459V28.8441Z" fill="#80CFC1"/>
<path d="M291.458 56.0734C291.975 52.2677 292.638 48.4915 293.648 44.78C293.81 44.187 294.032 44.0263 294.651 44.1205C297.403 44.5325 300.173 44.7449 302.98 44.7246C302.964 45.2696 302.653 45.6298 302.359 45.9587C299.04 49.6665 295.46 53.1009 291.633 56.2766C291.574 56.2083 291.517 56.1418 291.458 56.0734Z" fill="#80D8C9"/>
<path d="M300.804 28.9364C299.681 30.8356 298.557 32.7311 297.438 34.6321C295.974 37.1187 294.673 39.6867 293.781 42.4412C293.604 42.988 293.445 43.0379 292.991 42.7276C291.731 41.8611 290.461 41.0094 289.166 40.1966C288.659 39.8788 288.7 39.6017 289.003 39.1805C289.866 37.9778 290.852 36.8823 291.964 35.9179C294.369 33.8284 296.806 31.7759 299.244 29.7253C299.676 29.3613 300.175 29.0805 300.642 28.7609C300.695 28.8182 300.748 28.8773 300.802 28.9346L300.804 28.9364Z" fill="#9DE9DC"/>
<path d="M290.656 56.0254C288.894 51.0078 288.432 45.8035 288.283 40.3647C290.028 41.4916 291.578 42.5003 293.138 43.4924C293.439 43.6845 293.309 43.8841 293.241 44.1205C292.188 47.7526 291.529 51.4659 290.989 55.2033C290.948 55.4823 290.711 55.6929 290.656 56.0254Z" fill="#B9E8E1"/>
<path d="M291.633 56.2766C291.556 56.2637 291.477 56.2508 291.4 56.2378C291.42 56.1843 291.44 56.1288 291.459 56.0734C291.517 56.1399 291.574 56.2083 291.633 56.2766Z" fill="#80D8C9"/>
<path d="M237.551 56.5224C237.794 56.2545 238.121 56.3912 238.409 56.3413C239.644 56.8771 240.035 57.9412 240.098 59.166C240.259 62.3436 239.728 65.4048 238.492 68.3404C238.172 69.0997 237.673 69.7149 237.041 70.21C235.898 71.106 234.592 70.8141 233.843 69.5634C233.108 68.3349 233.045 66.9844 233.167 65.6302C233.391 63.1177 234.074 60.7493 235.534 58.6469C236.102 57.8303 236.82 57.1745 237.551 56.5224ZM239.532 60.7142C239.484 60.0103 239.453 59.3028 239.383 58.6007C239.321 57.9615 239.107 57.3574 238.457 57.1265C237.822 56.9011 237.438 57.4221 237.063 57.81C235.108 59.8367 234.215 62.3381 233.865 65.0834C233.699 66.3747 233.637 67.6569 234.179 68.878C234.794 70.2654 236.172 70.4539 237.162 69.2974C237.686 68.684 238.016 67.9598 238.288 67.2042C239.039 65.1074 239.431 62.9422 239.534 60.716L239.532 60.7142Z" fill="#121110"/>
<path d="M254.452 60.753C254.483 63.345 253.886 65.8076 252.922 68.1889C252.654 68.8503 252.244 69.4323 251.68 69.8793C250.35 70.9361 248.842 70.5315 248.195 68.9482C247.644 67.5996 247.609 66.2103 247.835 64.7878C248.28 61.9963 249.184 59.4339 251.267 57.4147C251.778 56.9196 252.325 56.5242 253.06 56.7847C253.784 57.0397 254.136 57.605 254.291 58.3698C254.452 59.1642 254.439 59.9568 254.452 60.753ZM253.899 60.4796C253.846 59.9235 253.8 59.2492 253.71 58.5804C253.638 58.041 253.407 57.5606 252.863 57.363C252.29 57.1542 251.95 57.5976 251.621 57.9431C249.04 60.6477 248.206 63.9528 248.42 67.5922C248.449 68.1058 248.658 68.6009 248.939 69.0517C249.446 69.8664 250.354 70.0789 251.133 69.5302C251.537 69.2457 251.84 68.8577 252.073 68.4162C253.367 65.972 253.721 63.3099 253.899 60.4796Z" fill="#121110"/>
<path d="M239.532 60.7142C239.431 62.9422 239.04 65.1056 238.287 67.2024C238.015 67.958 237.686 68.6841 237.16 69.2956C236.172 70.4521 234.793 70.2636 234.177 68.8762C233.635 67.655 233.698 66.3729 233.863 65.0816C234.214 62.3363 235.107 59.833 237.061 57.8082C237.436 57.4202 237.82 56.8992 238.456 57.1246C239.106 57.3556 239.319 57.9597 239.381 58.5989C239.449 59.3009 239.482 60.0085 239.53 60.7124L239.532 60.7142Z" fill="#F2E9E4"/>
<path d="M253.899 60.4796C253.721 63.3099 253.367 65.972 252.073 68.4162C251.84 68.8577 251.537 69.2438 251.133 69.5302C250.352 70.0789 249.445 69.8664 248.939 69.0517C248.658 68.6009 248.451 68.1058 248.419 67.5922C248.206 63.9509 249.042 60.6477 251.621 57.9431C251.95 57.5994 252.29 57.1561 252.863 57.363C253.407 57.5606 253.638 58.041 253.71 58.5804C253.8 59.2492 253.846 59.9235 253.899 60.4796Z" fill="#F2E9E4"/>
</g>
<defs>
<clipPath id="clip0_674_3520">
<rect width="304" height="193" fill="white"/>
</clipPath>
</defs>
</svg>
