<svg width="16" height="17" viewBox="0 0 16 17" fill="none" xmlns="http://www.w3.org/2000/svg">
<path d="M15.3892 11.5607C15.7912 10.5904 15.998 9.55032 15.998 8.5C15.998 6.37879 15.1554 4.34445 13.6555 2.84453C12.1555 1.3446 10.1212 0.501953 8 0.501953C5.87879 0.501953 3.84445 1.3446 2.34453 2.84453C0.844602 4.34445 0.00195312 6.37879 0.00195312 8.5C0.00195312 9.55032 0.208829 10.5904 0.610768 11.5607C1.01271 12.5311 1.60184 13.4128 2.34453 14.1555C3.08721 14.8982 3.96891 15.4873 4.93928 15.8892C5.90965 16.2912 6.94968 16.498 8 16.498C9.05032 16.498 10.0904 16.2912 11.0607 15.8892C12.0311 15.4873 12.9128 14.8982 13.6555 14.1555C14.3982 13.4128 14.9873 12.5311 15.3892 11.5607Z" fill="#101010"/>
<path d="M5.05424 8.92045L7.01849 10.6041L10.947 7.23682" stroke="white" stroke-linecap="round" stroke-linejoin="round"/>
</svg>
