<svg width="56" height="56" viewBox="0 0 56 56" fill="none" xmlns="http://www.w3.org/2000/svg">
<path d="M21.0397 2.56459C19.3217 4.02848 17.1857 4.91318 14.9357 5.09276C12.3926 5.29508 10.0049 6.39707 8.20098 8.20098C6.39707 10.0049 5.29508 12.3926 5.09276 14.9357C4.91318 17.1857 4.02848 19.3217 2.56459 21.0397C0.909257 22.981 0 25.4487 0 28C0 30.5513 0.909257 33.019 2.56459 34.9603C4.02848 36.6783 4.91318 38.8143 5.09276 41.0643C5.29508 43.6074 6.39707 45.9951 8.20098 47.799C10.0049 49.6029 12.3926 50.7049 14.9357 50.9072C17.1857 51.0868 19.3217 51.9715 21.0397 53.4354C22.981 55.0907 25.4487 56 28 56C30.5513 56 33.019 55.0907 34.9603 53.4354C36.6783 51.9715 38.8143 51.0868 41.0643 50.9072C43.6074 50.7049 45.9951 49.6029 47.799 47.799C49.6029 45.9951 50.7049 43.6074 50.9072 41.0643C51.0868 38.8143 51.9715 36.6783 53.4354 34.9603C55.0907 33.019 56 30.5513 56 28C56 25.4487 55.0907 22.981 53.4354 21.0397C51.9715 19.3217 51.0868 17.1857 50.9072 14.9357C50.7049 12.3926 49.6029 10.0049 47.799 8.20098C45.9951 6.39707 43.6074 5.29508 41.0643 5.09276C38.8143 4.91318 36.6783 4.02848 34.9603 2.56459C33.019 0.909257 30.5513 0 28 0C25.4487 0 22.981 0.909257 21.0397 2.56459Z" fill="#E8F628"/>
<path d="M21 26L28 19M28 19L35 26M28 19V37" stroke="#18181B" stroke-width="2" stroke-linecap="round" stroke-linejoin="round"/>
</svg>
