<svg width="40" height="40" viewBox="0 0 40 40" fill="none" xmlns="http://www.w3.org/2000/svg">
<rect x="0.75" y="0.75" width="38.5" height="38.5" rx="19.25" fill="#BAF0F7" fill-opacity="0.3"/>
<rect x="0.75" y="0.75" width="38.5" height="38.5" rx="19.25" stroke="black" stroke-width="1.5"/>
<path fill-rule="evenodd" clip-rule="evenodd" d="M17.8548 27.3571H12.5958V26.782C12.5958 26.5174 12.8103 26.3028 13.0749 26.3028H13.1707V25.7277C13.1707 25.463 13.3851 25.2484 13.6497 25.2484V16.7175H13.1228L12.5 14.6087H15.2784V12.5H25.7216V14.6087H28.5L27.8772 16.7175H27.3503V25.2484C27.6149 25.2484 27.8293 25.463 27.8293 25.7277V26.3028H27.9251C28.1897 26.3028 28.4042 26.5174 28.4042 26.782V27.3571H23.1512V26.782C23.1512 26.5174 23.3656 26.3028 23.6302 26.3028H23.726V25.7277C23.726 25.4685 23.9317 25.2573 24.1886 25.2487V20.5516C24.0192 18.6707 22.4241 17.1968 20.5 17.1968C18.5759 17.1968 16.9808 18.6707 16.8114 20.5516V25.2485C17.0711 25.2541 17.2799 25.4665 17.2799 25.7277V26.0152V26.3028H17.3757C17.6403 26.3028 17.8548 26.5174 17.8548 26.782V27.3571Z" fill="#101010"/>
</svg>
