<svg width="57" height="56" viewBox="0 0 57 56" fill="none" xmlns="http://www.w3.org/2000/svg">
<circle cx="28.5" cy="28" r="28" fill="#BAF0F7" fill-opacity="0.4"/>
<path d="M26.3341 32.0294V31.6765C26.3341 28.9412 27.8854 27.9412 29.3195 27C30.5488 26.1765 31.6902 25.4412 31.6902 23.7059C31.6902 21.7353 30.3439 20.5882 28.4122 20.5882C26.5683 20.5882 25.1049 21.7353 25.1049 23.7647V24H22.5V23.6765C22.5 20.2059 25.0463 18 28.5 18C31.9829 18 34.5 20.1471 34.5 23.6765C34.5 26.7647 32.7732 27.7647 31.2512 28.6765C30.022 29.4118 28.9098 30.0882 28.9098 31.6765V32.0294H26.3341ZM27.6805 38C26.5683 38 25.7488 37.1765 25.7488 36.0588C25.7488 34.9412 26.5683 34.1176 27.6805 34.1176C28.7927 34.1176 29.6122 34.9412 29.6122 36.0588C29.6122 37.1765 28.7927 38 27.6805 38Z" fill="black"/>
</svg>
