<svg width="125" height="22" viewBox="0 0 125 22" fill="none" xmlns="http://www.w3.org/2000/svg">
<g clip-path="url(#clip0_8037_589)">
<path d="M42.3584 3.3009V15.7908H48.9745C49.1998 15.7908 49.3836 15.9751 49.3836 16.2011V17.2182C49.3836 17.4442 49.1998 17.6286 48.9745 17.6286H40.7103C40.485 17.6286 40.3013 17.4442 40.3013 17.2182V3.3009C40.3013 3.07489 40.485 2.89052 40.7103 2.89052H41.9434C42.1687 2.89052 42.3525 3.07489 42.3525 3.3009H42.3584Z" fill="#190602"/>
<path d="M53.8357 17.0873C53.0058 16.5758 52.3596 15.8859 51.8972 15.0235C51.4407 14.1611 51.2095 13.2036 51.2095 12.1449C51.2095 11.0862 51.4407 10.1346 51.8972 9.26629C52.3596 8.4039 53.0058 7.71398 53.8357 7.20249C54.6657 6.691 55.6202 6.43526 56.7051 6.43526C57.7129 6.43526 58.6022 6.66721 59.3729 7.12517C60.1436 7.58313 60.7482 8.23737 61.181 9.08192C61.6138 9.92647 61.8272 10.8959 61.8272 11.9903C61.8272 12.2995 61.8213 12.5315 61.8035 12.6921H53.2666C53.3674 13.7151 53.7172 14.5537 54.3159 15.2079C54.9147 15.8621 55.715 16.1833 56.7229 16.1833C57.4936 16.1833 58.1516 15.987 58.6911 15.6004C59.1476 15.2733 59.4914 14.8391 59.7167 14.3039C59.7878 14.1314 59.9598 14.0184 60.1435 14.0362L61.2166 14.1492C61.4893 14.179 61.6494 14.4585 61.5604 14.7143C61.2522 15.5648 60.7305 16.2725 59.9835 16.8375C59.0942 17.5096 57.9975 17.8486 56.6992 17.8486C55.6202 17.8486 54.6657 17.5929 53.8298 17.0814L53.8357 17.0873ZM59.8116 11.1338C59.6811 10.2238 59.3551 9.4923 58.8275 8.93918C58.2998 8.38011 57.5825 8.10652 56.6577 8.10652C55.7328 8.10652 54.9918 8.38605 54.4167 8.93918C53.8417 9.49825 53.48 10.2298 53.3318 11.1338H59.8116Z" fill="#190602"/>
<path d="M65.4437 6.92296L68.562 15.5231L71.6803 6.92296C71.7396 6.76237 71.8938 6.64937 72.0657 6.64937H73.364C73.6545 6.64937 73.8501 6.9408 73.7493 7.21439L69.7832 17.3669C69.724 17.5274 69.5698 17.6286 69.3979 17.6286H67.7261C67.5542 17.6286 67.406 17.5274 67.3408 17.3669L63.3747 7.21439C63.268 6.9408 63.4695 6.64937 63.76 6.64937H65.0583C65.2302 6.64937 65.3844 6.75642 65.4437 6.92296Z" fill="#190602"/>
<path d="M77.7449 17.0873C76.915 16.5758 76.2688 15.8859 75.8063 15.0235C75.3499 14.1611 75.1187 13.2036 75.1187 12.1449C75.1187 11.0862 75.3499 10.1346 75.8063 9.26629C76.2688 8.4039 76.915 7.71398 77.7449 7.20249C78.5749 6.691 79.5294 6.43526 80.6143 6.43526C81.6221 6.43526 82.5113 6.66721 83.282 7.12517C84.0527 7.58313 84.6574 8.23737 85.0902 9.08192C85.523 9.92647 85.7364 10.8959 85.7364 11.9903C85.7364 12.2995 85.7305 12.5315 85.7127 12.6921H77.1758C77.2766 13.7151 77.6264 14.5537 78.2251 15.2079C78.8239 15.8621 79.6242 16.1833 80.632 16.1833C81.4027 16.1833 82.0608 15.987 82.6003 15.6004C83.0568 15.2733 83.4006 14.8391 83.6259 14.3039C83.697 14.1314 83.8689 14.0184 84.0527 14.0362L85.1258 14.1492C85.3985 14.179 85.5585 14.4585 85.4696 14.7143C85.1613 15.5648 84.6396 16.2725 83.8927 16.8375C83.0034 17.5096 81.9067 17.8486 80.6083 17.8486C79.5294 17.8486 78.5749 17.5929 77.739 17.0814L77.7449 17.0873ZM83.7207 11.1338C83.5903 10.2238 83.2643 9.4923 82.7366 8.93918C82.209 8.38011 81.4917 8.10652 80.5668 8.10652C79.642 8.10652 78.901 8.38605 78.3259 8.93918C77.7509 9.49825 77.3892 10.2298 77.241 11.1338H83.7207Z" fill="#190602"/>
<path d="M101.334 16.2309C100.427 15.1722 99.9766 13.7448 99.9766 11.9605V3.27116C99.9766 3.04515 100.16 2.86078 100.386 2.86078H101.601C101.826 2.86078 102.01 3.04515 102.01 3.27116V11.9605C102.01 13.2036 102.289 14.1849 102.852 14.9046C103.415 15.6242 104.257 15.9811 105.377 15.9811C106.498 15.9811 107.346 15.6242 107.903 14.9046C108.466 14.1849 108.745 13.2036 108.745 11.9605V3.27116C108.745 3.04515 108.928 2.86078 109.154 2.86078H110.387C110.612 2.86078 110.796 3.04515 110.796 3.27116V11.9605C110.796 13.7448 110.339 15.1722 109.426 16.2309C108.513 17.2955 107.162 17.8248 105.365 17.8248C103.569 17.8248 102.223 17.2955 101.316 16.2309H101.334Z" fill="#190602"/>
<path d="M117.981 17.1587C117.358 16.7126 116.866 16.1 116.505 15.3268V21.5896C116.505 21.8156 116.321 22 116.096 22H114.88C114.655 22 114.471 21.8156 114.471 21.5896V7.03596C114.471 6.80995 114.655 6.62558 114.88 6.62558H116.096C116.321 6.62558 116.505 6.80995 116.505 7.03596V8.90944C116.872 8.13626 117.364 7.52366 117.981 7.07759C118.603 6.63152 119.356 6.40552 120.245 6.40552C121.176 6.40552 122.006 6.65531 122.729 7.15491C123.453 7.6545 124.01 8.33847 124.401 9.20681C124.798 10.0752 124.994 11.0506 124.994 12.1152C124.994 13.1798 124.798 14.1552 124.401 15.0235C124.01 15.8919 123.447 16.5818 122.729 17.0754C122.006 17.575 121.176 17.8248 120.245 17.8248C119.315 17.8248 118.603 17.6048 117.981 17.1527V17.1587ZM117.37 14.8689C117.945 15.6064 118.734 15.9751 119.724 15.9751C120.714 15.9751 121.52 15.6064 122.101 14.8689C122.676 14.1314 122.967 13.2095 122.967 12.1152C122.967 11.0208 122.676 10.0989 122.101 9.36145C121.526 8.62395 120.732 8.25521 119.724 8.25521C118.716 8.25521 117.945 8.62395 117.37 9.36145C116.795 10.0989 116.505 11.0208 116.505 12.1152C116.505 13.2095 116.795 14.1314 117.37 14.8689Z" fill="#190602"/>
<path d="M90.3366 15.8562H93.5202C93.7454 15.8562 93.9292 16.0406 93.9292 16.2666V17.2182C93.9292 17.4442 93.7454 17.6286 93.5202 17.6286H88.7656C88.5403 17.6286 88.3565 17.4442 88.3565 17.2182V4.66289H86.7855C86.5602 4.66289 86.3765 4.47851 86.3765 4.25251V3.3009C86.3765 3.07489 86.5602 2.89052 86.7855 2.89052H89.1272C89.809 2.89052 90.3426 3.44364 90.3426 4.10977V15.8562H90.3366Z" fill="#190602"/>
<path d="M4.23287 20.5488C1.89708 20.5488 0 18.6456 0 16.3022V3.06299C0 1.37388 1.36946 0 3.05312 0C5.34148 0 7.55276 0.785077 9.33128 2.21844C10.9794 1.65342 12.6986 1.36199 14.4593 1.36199C16.2201 1.36199 17.9393 1.64747 19.5874 2.21844C21.36 0.785077 23.5713 0 25.8655 0C27.5492 0 28.9187 1.37388 28.9187 3.06299V16.3022C28.9187 18.6456 27.0216 20.5488 24.6858 20.5488H4.23287Z" fill="#EBC28E"/>
<path d="M28.9127 16.2725V3.06299C28.9127 1.37388 27.5433 0 25.8596 0C23.5713 0 21.3659 0.791025 19.5874 2.22439C19.4925 2.1887 19.3977 2.15301 19.3028 2.12328C18.8997 1.99243 18.461 2.21249 18.3306 2.62287C18.2001 3.0273 18.4195 3.46742 18.8286 3.59827C20.7968 4.23466 22.6464 5.32901 24.1641 6.75047C24.3123 6.88727 24.502 6.95864 24.6917 6.95864C24.8992 6.95864 25.1008 6.87537 25.2549 6.71479C25.5454 6.40552 25.5276 5.91187 25.2193 5.62044C24.0515 4.52609 22.7057 3.61016 21.2592 2.92025C22.6227 2.03406 24.2115 1.55231 25.8596 1.55231C26.6955 1.55231 27.3714 2.23033 27.3714 3.06894V12.9835C24.1582 9.51609 20.0913 7.03596 15.5502 5.81671C14.8447 5.62639 14.074 5.62639 13.3626 5.81671C8.82144 7.03596 4.74864 9.52203 1.54138 12.9835V3.06299C1.54138 2.22439 2.22314 1.54636 3.05312 1.54636C4.69528 1.54636 6.28409 2.02812 7.64762 2.9143C6.21888 3.59827 4.88499 4.5023 3.69931 5.61449C3.38511 5.90592 3.37325 6.39362 3.66374 6.70884C3.81788 6.86942 4.01944 6.95269 4.22694 6.95269C4.41665 6.95269 4.60636 6.88132 4.75456 6.74453C7.39862 4.27034 10.843 2.9143 14.4593 2.9143C14.7676 2.9143 15.0759 2.9262 15.3782 2.94404C15.7991 2.96188 16.1667 2.64666 16.1963 2.21844C16.226 1.79021 15.8999 1.42741 15.4731 1.39768C15.1352 1.37388 14.7972 1.36794 14.4593 1.36794C12.6927 1.36794 10.9557 1.66532 9.32535 2.22439C7.54683 0.791025 5.34147 0 3.05312 0C1.36946 0 0 1.37388 0 3.06299V16.2725C0 16.2725 0 16.2903 0 16.2963C0 16.2963 0 16.2963 0 16.3022C0 17.8783 0.865544 19.2522 2.14608 19.9838C2.15793 19.9897 2.16979 20.0016 2.18165 20.0076C2.79227 20.3466 3.49182 20.5429 4.23287 20.5429H24.6799C25.4268 20.5429 26.1264 20.3466 26.7311 20.0076C26.7429 20.0016 26.7548 19.9957 26.7667 19.9838C28.0413 19.2522 28.9068 17.8783 28.9127 16.3022C28.9127 16.3022 28.9127 16.3022 28.9127 16.2963C28.9127 16.2903 28.9127 16.2785 28.9127 16.2725ZM3.43253 18.8656C3.53925 18.5207 3.69338 18.1995 3.91273 17.9259C4.81385 16.7543 5.80389 15.7075 6.86507 14.7797C6.81171 15.1246 6.78207 15.4874 6.78207 15.8621C6.78207 17.0873 7.07256 18.1817 7.55869 19.0084H4.23287C3.9483 19.0084 3.68153 18.9549 3.42661 18.8716L3.43253 18.8656ZM19.0657 19.0024C18.3543 19.0024 17.5539 17.6583 17.5539 15.8562C17.5539 14.0541 18.3543 12.7099 19.0657 12.7099C19.7771 12.7099 20.5774 14.0541 20.5774 15.8562C20.5774 17.6583 19.7771 19.0024 19.0657 19.0024ZM16.0126 15.8562C16.0126 17.0814 16.3031 18.1757 16.7892 19.0024H12.1176C12.5978 18.1757 12.8942 17.0814 12.8942 15.8562C12.8942 14.0898 12.2895 12.585 11.3706 11.7821C12.1947 11.3896 13.0365 11.0506 13.9021 10.7829C14.2578 10.6759 14.655 10.6699 15.0107 10.7829C15.8762 11.0506 16.718 11.3896 17.5362 11.7821C16.6173 12.585 16.0126 14.0898 16.0126 15.8562ZM8.32345 15.8562C8.32345 14.0541 9.12378 12.7099 9.83519 12.7099C10.5466 12.7099 11.3469 14.0541 11.3469 15.8562C11.3469 17.6583 10.5466 19.0024 9.83519 19.0024C9.12378 19.0024 8.32345 17.6583 8.32345 15.8562ZM24.6799 19.0024H21.3422C21.8224 18.1757 22.1188 17.0814 22.1188 15.8562C22.1188 15.4815 22.0892 15.1127 22.0358 14.7678C23.1029 15.7015 24.1048 16.7543 25.0119 17.9378C25.2253 18.2114 25.3853 18.5266 25.4861 18.8716C25.2312 18.9549 24.9644 19.0084 24.6799 19.0084V19.0024ZM27.3714 16.3022C27.3714 16.9267 27.152 17.4977 26.7904 17.9557C26.6422 17.6048 26.4525 17.2776 26.2212 16.9803C23.3519 13.2393 19.6289 10.5866 15.4612 9.30197C14.8091 9.1057 14.1036 9.09976 13.4515 9.30197C11.7678 9.81941 10.1613 10.5748 8.64951 11.5204C8.63766 11.5264 8.6258 11.5323 8.61987 11.5442C6.40266 12.9359 4.39886 14.7618 2.69742 16.9743C2.46028 17.2717 2.27057 17.6048 2.12236 17.9557C1.76666 17.4977 1.54138 16.9267 1.54138 16.3022V16.2903C1.54138 15.6242 1.79037 14.9819 2.24686 14.4763C5.32369 10.9792 9.30756 8.49905 13.7598 7.3036C14.2044 7.18464 14.7024 7.18464 15.153 7.3036C19.6111 8.49905 23.589 10.9792 26.6777 14.4882C27.1283 14.9819 27.3714 15.6242 27.3773 16.2903V16.3022H27.3714Z" fill="#190602"/>
<path d="M9.83498 19.0024C10.5464 19.0024 11.3467 17.6583 11.3467 15.8562C11.3467 14.0541 10.5464 12.7099 9.83498 12.7099C9.12357 12.7099 8.32324 14.0541 8.32324 15.8562C8.32324 17.6583 9.12357 19.0024 9.83498 19.0024Z" fill="white"/>
<path d="M19.0654 19.0024C19.7769 19.0024 20.5772 17.6583 20.5772 15.8562C20.5772 14.0541 19.7769 12.7099 19.0654 12.7099C18.354 12.7099 17.5537 14.0541 17.5537 15.8562C17.5537 17.6583 18.354 19.0024 19.0654 19.0024Z" fill="white"/>
<path d="M7.55877 19.0024C7.07857 18.1757 6.78215 17.0814 6.78215 15.8562C6.78215 15.4815 6.8118 15.1246 6.86515 14.7737C5.80397 15.7075 4.808 16.7483 3.91282 17.92C3.69347 18.1995 3.5334 18.5147 3.43262 18.8597C3.68754 18.943 3.95432 18.9965 4.23888 18.9965H7.5647L7.55877 19.0024Z" fill="#514641"/>
<path d="M15.0106 10.7829C14.649 10.6699 14.2577 10.6759 13.902 10.7829C13.0365 11.0506 12.1947 11.3896 11.3706 11.7821C12.2836 12.585 12.8942 14.0898 12.8942 15.8562C12.8942 17.0814 12.6037 18.1757 12.1176 19.0024H16.7891C16.3089 18.1757 16.0125 17.0814 16.0125 15.8562C16.0125 14.0898 16.6172 12.5791 17.5361 11.7821C16.718 11.3896 15.8762 11.0506 15.0106 10.7829Z" fill="#514641"/>
<path d="M24.68 19.0024C24.9645 19.0024 25.2313 18.9489 25.4862 18.8656C25.3795 18.5207 25.2254 18.2055 25.012 17.9319C24.1049 16.7543 23.1089 15.7015 22.0359 14.7618C22.0893 15.1127 22.1189 15.4755 22.1189 15.8502C22.1189 17.0754 21.8284 18.1698 21.3423 18.9965H24.68V19.0024Z" fill="#514641"/>
<path d="M27.3715 16.3022V16.2904C27.3715 15.6242 27.1226 14.9819 26.672 14.4882C23.5892 10.9851 19.6054 8.50501 15.1472 7.3036C14.6967 7.18465 14.1987 7.18465 13.754 7.3036C9.30183 8.49906 5.31795 10.9792 2.24112 14.4763C1.78464 14.9819 1.54157 15.6183 1.53564 16.2904V16.3022C1.53564 16.9267 1.75499 17.4977 2.11663 17.9557C2.26484 17.6048 2.46047 17.2717 2.69168 16.9743C4.39313 14.7618 6.39692 12.9359 8.61414 11.5442C8.62599 11.5383 8.63785 11.5323 8.64378 11.5204C10.1555 10.5748 11.7621 9.81941 13.4458 9.30198C14.1038 9.09976 14.8093 9.10571 15.4555 9.30198C19.6291 10.5866 23.3462 13.2393 26.2155 16.9803C26.4467 17.2717 26.6364 17.6048 26.7846 17.9557C27.1403 17.4977 27.3656 16.9267 27.3656 16.3022H27.3715Z" fill="#A4D9D3"/>
</g>
<defs>
<clipPath id="clip0_8037_589">
<rect width="125" height="22" fill="white"/>
</clipPath>
</defs>
</svg>
