<svg width="26" height="18" viewBox="0 0 26 18" fill="none" xmlns="http://www.w3.org/2000/svg">
<g clip-path="url(#clip0_322_3072)">
<path d="M23.2497 0C21.1923 0 19.2095 0.692909 17.6105 1.95369C17.5252 1.92243 17.4399 1.89117 17.3547 1.86512C16.9922 1.75051 16.5978 1.94848 16.4805 2.30275C16.3633 2.65702 16.5658 3.04255 16.9282 3.15716C18.6978 3.71462 20.3608 4.66802 21.7253 5.91838C21.8585 6.03821 22.0291 6.10072 22.1997 6.10072C22.3862 6.10072 22.5674 6.02779 22.706 5.88712C22.9672 5.61621 22.9512 5.18379 22.674 4.92851C21.624 3.9699 20.4141 3.16758 19.1136 2.56324C20.3395 1.78698 21.7679 1.36498 23.2497 1.36498C24.0012 1.36498 24.6089 1.9589 24.6089 2.69349V14.2906C24.6089 14.3427 24.5982 14.3896 24.5929 14.4365C21.7253 11.4304 18.0476 9.29436 13.9381 8.25239C13.3251 8.1013 12.6695 8.09609 12.0513 8.25239C7.93645 9.29436 4.25871 11.4356 1.39647 14.4313C1.39647 14.3792 1.38048 14.3323 1.38048 14.2854V2.68307C1.38048 1.94848 1.98811 1.35456 2.73965 1.35456C4.21607 1.35456 5.64453 1.77656 6.87044 2.55282C5.5859 3.15195 4.38663 3.94385 3.32062 4.91809C3.04346 5.17337 3.02747 5.60058 3.28864 5.8767C3.42722 6.01737 3.60845 6.0903 3.795 6.0903C3.96556 6.0903 4.13612 6.02779 4.26937 5.90796C6.64658 3.74067 9.74334 2.55282 12.9947 2.55282C13.2718 2.55282 13.549 2.56324 13.8208 2.57887C14.2046 2.5945 14.5351 2.31838 14.5564 1.94327C14.5777 1.56816 14.2899 1.25036 13.9061 1.22431C13.6023 1.20347 13.2985 1.19826 12.9893 1.19826C11.401 1.19826 9.83928 1.45876 8.36818 1.95369C6.78516 0.692909 4.80238 0 2.74498 0C1.23124 0 0 1.20347 0 2.68307V14.2802C0 16.3329 1.70562 18 3.80566 18H22.1943C24.2944 18 26 16.3329 26 14.2802V2.68307C26 1.20347 24.7688 0 23.255 0H23.2497Z" fill="#101010"/>
<path d="M9.0504 16.6507C9.8923 16.6507 10.5748 15.3585 10.5748 13.7644C10.5748 12.1704 9.8923 10.8782 9.0504 10.8782C8.2085 10.8782 7.526 12.1704 7.526 13.7644C7.526 15.3585 8.2085 16.6507 9.0504 16.6507Z" fill="white"/>
<path d="M17.0242 16.6507C17.8661 16.6507 18.5485 15.3585 18.5485 13.7644C18.5485 12.1704 17.8661 10.8782 17.0242 10.8782C16.1823 10.8782 15.4998 12.1704 15.4998 13.7644C15.4998 15.3585 16.1823 16.6507 17.0242 16.6507Z" fill="white"/>
<path d="M14.5511 1.96934C14.5137 2.32882 14.1939 2.58931 13.8208 2.57368C13.549 2.55805 13.2718 2.54763 12.9947 2.54763C9.74335 2.54763 6.64659 3.74068 4.26938 5.90277C4.13613 6.02259 3.96557 6.08511 3.79501 6.08511C3.60846 6.08511 3.4219 6.01217 3.28865 5.87151C3.02748 5.59539 3.04347 5.16818 3.32063 4.9129C4.38664 3.94387 5.58591 3.15197 6.87045 2.54763C5.64454 1.77136 4.21608 1.34937 2.73966 1.34937C1.98812 1.34937 1.38049 1.94329 1.38049 2.67787V14.275C1.38049 14.3271 1.39115 14.374 1.39648 14.4209C4.25872 11.42 7.93646 9.27874 12.0513 8.24198C12.6695 8.08569 13.3251 8.0909 13.9381 8.24198C18.0476 9.28395 21.7253 11.42 24.5929 14.4261C24.5929 14.374 24.6089 14.3271 24.6089 14.2802V2.68308C24.6089 1.9485 24.0012 1.35458 23.2497 1.35458C21.7733 1.35458 20.3395 1.78178 19.1136 2.55284C20.4088 3.16239 21.6187 3.9595 22.6741 4.91811C22.9566 5.17339 22.9672 5.6006 22.706 5.87672C22.5675 6.01738 22.3862 6.09032 22.1997 6.09032C22.0291 6.09032 21.8586 6.0278 21.7253 5.90798C20.3555 4.65761 18.6978 3.70421 16.9283 3.14676C16.5711 3.03214 16.3739 2.66745 16.4805 2.3184C15.8569 2.15689 15.212 2.04227 14.5511 1.96413V1.96934Z" fill="white"/>
</g>
<defs>
<clipPath id="clip0_322_3072">
<rect width="26" height="18" fill="white"/>
</clipPath>
</defs>
</svg>
