<svg width="103" height="18" viewBox="0 0 103 18" fill="none" xmlns="http://www.w3.org/2000/svg">
<g clip-path="url(#clip0_343_617)">
<path d="M34.7501 2.709V12.9225H40.1778C40.3626 12.9225 40.5134 13.0732 40.5134 13.258V14.0897C40.5134 14.2745 40.3626 14.4253 40.1778 14.4253H33.398C33.2132 14.4253 33.0624 14.2745 33.0624 14.0897V2.709C33.0624 2.52418 33.2132 2.37341 33.398 2.37341H34.4096C34.5944 2.37341 34.7452 2.52418 34.7452 2.709H34.7501Z" fill="#101010"/>
<path d="M44.1708 13.9827C43.4899 13.5644 42.9598 13.0003 42.5804 12.2951C42.2059 11.5898 42.0162 10.8068 42.0162 9.9411C42.0162 9.07539 42.2059 8.29722 42.5804 7.58714C42.9598 6.88193 43.4899 6.31776 44.1708 5.89949C44.8517 5.48123 45.6347 5.27209 46.5247 5.27209C47.3515 5.27209 48.0811 5.46177 48.7133 5.83627C49.3456 6.21076 49.8417 6.74575 50.1967 7.43637C50.5518 8.127 50.7268 8.91976 50.7268 9.81465C50.7268 10.0676 50.722 10.2572 50.7074 10.3886H43.7039C43.7866 11.2251 44.0735 11.9108 44.5647 12.4458C45.0559 12.9808 45.7125 13.2435 46.5393 13.2435C47.1716 13.2435 47.7114 13.083 48.154 12.7668C48.5285 12.4993 48.8106 12.1443 48.9954 11.7066C49.0538 11.5655 49.1948 11.4731 49.3456 11.4877L50.2259 11.5801C50.4496 11.6044 50.5809 11.833 50.508 12.0422C50.2551 12.7376 49.8271 13.3164 49.2143 13.7784C48.4847 14.328 47.585 14.6052 46.5199 14.6052C45.6347 14.6052 44.8517 14.3961 44.1659 13.9778L44.1708 13.9827ZM49.0732 9.1143C48.9662 8.37018 48.6987 7.77196 48.2659 7.31965C47.833 6.86248 47.2445 6.63875 46.4858 6.63875C45.7271 6.63875 45.1192 6.86734 44.6474 7.31965C44.1756 7.77682 43.879 8.37504 43.7574 9.1143H49.0732Z" fill="#101010"/>
<path d="M53.6887 5.67575L56.247 12.7084L58.8052 5.67575C58.8538 5.54443 58.9803 5.45203 59.1213 5.45203H60.1864C60.4248 5.45203 60.5853 5.69034 60.5026 5.91406L57.2489 14.2161C57.2002 14.3475 57.0738 14.4301 56.9327 14.4301H55.5612C55.4202 14.4301 55.2986 14.3475 55.2451 14.2161L51.9914 5.91406C51.9038 5.69034 52.0692 5.45203 52.3075 5.45203H53.3726C53.5137 5.45203 53.6401 5.53957 53.6887 5.67575Z" fill="#101010"/>
<path d="M63.7806 13.9827C63.0997 13.5644 62.5696 13.0003 62.1902 12.2951C61.8157 11.5898 61.6261 10.8068 61.6261 9.9411C61.6261 9.07539 61.8157 8.29722 62.1902 7.58714C62.5696 6.88193 63.0997 6.31776 63.7806 5.89949C64.4615 5.48123 65.2445 5.27209 66.1346 5.27209C66.9614 5.27209 67.6909 5.46177 68.3232 5.83627C68.9554 6.21076 69.4515 6.74575 69.8065 7.43637C70.1616 8.127 70.3367 8.91976 70.3367 9.81465C70.3367 10.0676 70.3318 10.2572 70.3172 10.3886H63.3137C63.3964 11.2251 63.6833 11.9108 64.1746 12.4458C64.6658 12.9808 65.3223 13.2435 66.1492 13.2435C66.7814 13.2435 67.3213 13.083 67.7639 12.7668C68.1383 12.4993 68.4204 12.1443 68.6052 11.7066C68.6636 11.5655 68.8047 11.4731 68.9554 11.4877L69.8357 11.5801C70.0594 11.6044 70.1908 11.833 70.1178 12.0422C69.8649 12.7376 69.4369 13.3164 68.8241 13.7784C68.0946 14.328 67.1948 14.6052 66.1297 14.6052C65.2445 14.6052 64.4615 14.3961 63.7757 13.9778L63.7806 13.9827ZM68.6831 9.1143C68.5761 8.37018 68.3086 7.77196 67.8757 7.31965C67.4429 6.86248 66.8544 6.63875 66.0957 6.63875C65.3369 6.63875 64.729 6.86734 64.2572 7.31965C63.7855 7.77682 63.4888 8.37504 63.3672 9.1143H68.6831Z" fill="#101010"/>
<path d="M82.8409 13.2872C82.0967 12.4215 81.7271 11.2542 81.7271 9.79518V2.68953C81.7271 2.50471 81.8779 2.35394 82.0627 2.35394H83.0597C83.2445 2.35394 83.3953 2.50471 83.3953 2.68953V9.79518C83.3953 10.8117 83.6239 11.6141 84.0859 12.2026C84.548 12.7911 85.2386 13.0829 86.1578 13.0829C87.077 13.0829 87.7725 12.7911 88.2297 12.2026C88.6917 11.6141 88.9203 10.8117 88.9203 9.79518V2.68953C88.9203 2.50471 89.0711 2.35394 89.2559 2.35394H90.2675C90.4523 2.35394 90.6031 2.50471 90.6031 2.68953V9.79518C90.6031 11.2542 90.2286 12.4215 89.4796 13.2872C88.7306 14.1578 87.6217 14.5906 86.1481 14.5906C84.6744 14.5906 83.5704 14.1578 82.8263 13.2872H82.8409Z" fill="#101010"/>
<path d="M96.4977 14.0411C95.987 13.6763 95.5834 13.1753 95.2867 12.5431V17.6644C95.2867 17.8492 95.1359 18 94.9511 18H93.9541C93.7693 18 93.6185 17.8492 93.6185 17.6644V5.76816C93.6185 5.58335 93.7693 5.43258 93.9541 5.43258H94.9511C95.1359 5.43258 95.2867 5.58335 95.2867 5.76816V7.30018C95.5882 6.66792 95.9919 6.16697 96.4977 5.80221C97.0084 5.43744 97.6261 5.25262 98.3556 5.25262C99.1192 5.25262 99.8001 5.45689 100.393 5.86543C100.987 6.27397 101.444 6.83328 101.765 7.54336C102.091 8.25344 102.251 9.05106 102.251 9.92163C102.251 10.7922 102.091 11.5898 101.765 12.2999C101.444 13.01 100.982 13.5742 100.393 13.9778C99.8001 14.3864 99.1192 14.5906 98.3556 14.5906C97.592 14.5906 97.0084 14.4107 96.4977 14.0411ZM95.9968 12.1735C96.4685 12.7765 97.1154 13.0781 97.9276 13.0781C98.7398 13.0781 99.4013 12.7765 99.8779 12.1735C100.35 11.5704 100.588 10.8165 100.588 9.92163C100.588 9.02674 100.35 8.27289 99.8779 7.66981C99.4061 7.06673 98.7544 6.76519 97.9276 6.76519C97.1008 6.76519 96.4685 7.06673 95.9968 7.66981C95.525 8.27289 95.2867 9.02674 95.2867 9.92163C95.2867 10.8165 95.525 11.5704 95.9968 12.1735Z" fill="#101010"/>
<path d="M74.1108 12.9808H76.7225C76.9073 12.9808 77.0581 13.1315 77.0581 13.3164V14.0945C77.0581 14.2793 76.9073 14.4301 76.7225 14.4301H72.8219C72.6371 14.4301 72.4864 14.2793 72.4864 14.0945V3.82757H71.1975C71.0127 3.82757 70.8619 3.6768 70.8619 3.49199V2.71382C70.8619 2.529 71.0127 2.37823 71.1975 2.37823H73.1186C73.6779 2.37823 74.1157 2.83055 74.1157 3.37526V12.9808H74.1108Z" fill="#101010"/>
<path d="M21.2148 0C19.3375 0 17.5282 0.646852 16.0692 1.82383C15.9914 1.79465 15.9135 1.76547 15.8357 1.74115C15.505 1.63415 15.1451 1.81897 15.0381 2.14969C14.9311 2.48041 15.1159 2.84031 15.4466 2.94731C17.0613 3.46771 18.5788 4.35774 19.8238 5.52499C19.9454 5.63686 20.1011 5.69522 20.2567 5.69522C20.4269 5.69522 20.5923 5.62713 20.7187 5.49581C20.957 5.24291 20.9424 4.83923 20.6895 4.60092C19.7314 3.70603 18.6274 2.95704 17.4407 2.39287C18.5593 1.6682 19.8627 1.27425 21.2148 1.27425C21.9006 1.27425 22.455 1.8287 22.455 2.51446V13.3407C22.455 13.3894 22.4453 13.4331 22.4404 13.4769C19.8238 10.6706 16.468 8.67657 12.7182 7.70386C12.1589 7.56282 11.5607 7.55796 10.9965 7.70386C7.24183 8.67657 3.88598 10.6755 1.27425 13.472C1.27425 13.4234 1.25966 13.3796 1.25966 13.3359V2.50473C1.25966 1.81897 1.8141 1.26452 2.49987 1.26452C3.84707 1.26452 5.1505 1.65847 6.26912 2.38314C5.097 2.94245 4.0027 3.68171 3.02999 4.59119C2.77709 4.82951 2.7625 5.22832 3.00081 5.48609C3.12726 5.6174 3.29262 5.68549 3.46285 5.68549C3.61848 5.68549 3.77412 5.62713 3.8957 5.51527C6.06485 3.49203 8.89057 2.38314 11.8573 2.38314C12.1102 2.38314 12.3631 2.39287 12.6112 2.40746C12.9614 2.42205 13.2629 2.16428 13.2824 1.8141C13.3018 1.46393 13.0392 1.16725 12.689 1.14293C12.4118 1.12348 12.1346 1.11862 11.8525 1.11862C10.4031 1.11862 8.97811 1.36179 7.63577 1.82383C6.1913 0.646852 4.38206 0 2.50473 0C1.12348 0 0 1.12348 0 2.50473V13.331C0 15.2472 1.55634 16.8036 3.47258 16.8036H20.2518C22.1681 16.8036 23.7244 15.2472 23.7244 13.331V2.50473C23.7244 1.12348 22.6009 0 21.2197 0H21.2148Z" fill="#101010"/>
<path d="M8.25832 15.5439C9.02653 15.5439 9.64929 14.3376 9.64929 12.8495C9.64929 11.3614 9.02653 10.1551 8.25832 10.1551C7.4901 10.1551 6.86734 11.3614 6.86734 12.8495C6.86734 14.3376 7.4901 15.5439 8.25832 15.5439Z" fill="white"/>
<path d="M15.5342 15.5439C16.3024 15.5439 16.9252 14.3376 16.9252 12.8495C16.9252 11.3614 16.3024 10.1551 15.5342 10.1551C14.766 10.1551 14.1432 11.3614 14.1432 12.8495C14.1432 14.3376 14.766 15.5439 15.5342 15.5439Z" fill="white"/>
<path d="M13.2775 1.83841C13.2434 2.17399 12.9516 2.41717 12.6112 2.40258C12.3631 2.38799 12.1102 2.37826 11.8573 2.37826C8.89057 2.37826 6.06485 3.49201 3.8957 5.51039C3.77411 5.62225 3.61848 5.68061 3.46285 5.68061C3.29262 5.68061 3.1224 5.61252 3.00081 5.48121C2.7625 5.22344 2.77709 4.82463 3.02999 4.58631C4.0027 3.68169 5.097 2.94243 6.26912 2.37826C5.1505 1.65359 3.84707 1.25964 2.49986 1.25964C1.8141 1.25964 1.25966 1.81409 1.25966 2.49985V13.3261C1.25966 13.3747 1.26939 13.4185 1.27425 13.4623C3.88598 10.6609 7.24183 8.66197 10.9965 7.69412C11.5607 7.54821 12.1589 7.55308 12.7182 7.69412C16.468 8.66683 19.8238 10.6609 22.4404 13.4672C22.4404 13.4185 22.455 13.3747 22.455 13.331V2.50471C22.455 1.81895 21.9006 1.26451 21.2148 1.26451C19.8676 1.26451 18.5593 1.66332 17.4407 2.38312C18.6225 2.95216 19.7266 3.69628 20.6895 4.59118C20.9473 4.82949 20.957 5.2283 20.7187 5.48607C20.5923 5.61738 20.4269 5.68547 20.2567 5.68547C20.1011 5.68547 19.9454 5.62711 19.8238 5.51525C18.5739 4.348 17.0613 3.45797 15.4466 2.93757C15.1208 2.83057 14.9408 2.49012 15.0381 2.16426C14.4691 2.01349 13.8806 1.9065 13.2775 1.83354V1.83841Z" fill="white"/>
</g>
<defs>
<clipPath id="clip0_343_617">
<rect width="102.251" height="18" fill="white"/>
</clipPath>
</defs>
</svg>
