<svg width="41" height="41" viewBox="0 0 41 41" fill="none" xmlns="http://www.w3.org/2000/svg">
<path d="M20.4409 40.1234C31.243 40.1234 39.9999 31.3666 39.9999 20.5644C39.9999 9.76225 31.243 1.00537 20.4409 1.00537C9.63871 1.00537 0.881836 9.76225 0.881836 20.5644C0.881836 31.3666 9.63871 40.1234 20.4409 40.1234Z" fill="white" stroke="#FB5732" stroke-width="1.5" stroke-miterlimit="10"/>
<path d="M20.4413 33.1844C27.4729 33.1844 33.1732 27.4842 33.1732 20.4526C33.1732 13.4209 27.4729 7.7207 20.4413 7.7207C13.4097 7.7207 7.70947 13.4209 7.70947 20.4526C7.70947 27.4842 13.4097 33.1844 20.4413 33.1844Z" fill="white" stroke="#FB5732" stroke-miterlimit="10"/>
<path d="M9.95076 9.45218C10.0706 9.338 10.1313 9.21025 10.1286 9.06903M9.95076 9.45218L10.2336 9.75062C10.3401 9.64962 10.4222 9.54065 10.4799 9.42422C10.5376 9.30779 10.5705 9.18737 10.5784 9.06348M9.95076 9.45218C9.95076 9.45218 9.95076 9.45218 9.95075 9.45218L9.93359 9.43417L9.95076 9.45218ZM10.1286 9.06903C10.1286 9.06905 10.1286 9.06906 10.1286 9.06908L10.1038 9.06945L10.1286 9.06898C10.1286 9.069 10.1286 9.06901 10.1286 9.06903ZM10.1286 9.06903C10.1266 8.93617 10.0794 8.80587 9.9894 8.67888L10.3205 8.36353C10.4033 8.4718 10.4639 8.58349 10.5026 8.69778C10.544 8.82033 10.5609 8.94151 10.5536 9.06198L10.5784 9.06348M10.5784 9.06348L10.5536 9.06188C10.5459 9.18235 10.514 9.29956 10.4576 9.41317C10.4014 9.52668 10.3211 9.63334 10.2165 9.73257L10.2164 9.73263C10.0868 9.85645 9.94881 9.94404 9.8036 9.99746L9.81219 10.0208L10.5784 9.06348ZM8.55445 9.64691C8.43376 9.51984 8.34088 9.38431 8.27597 9.24034C8.21101 9.09626 8.17553 8.95014 8.17018 8.80284L8.17018 8.80277C8.16436 8.65533 8.19148 8.51015 8.25138 8.3665L8.25141 8.36644C8.31059 8.22332 8.40494 8.08979 8.53467 7.96593C8.62796 7.87704 8.72831 7.80695 8.83622 7.75542L8.8363 7.75538C8.94419 7.70338 9.05481 7.67236 9.16876 7.6612L9.16877 7.6612C9.28175 7.6501 9.39538 7.66214 9.50934 7.69705C9.61485 7.72938 9.71624 7.78442 9.81392 7.86228L9.48283 8.17765C9.44882 8.15343 9.41265 8.13442 9.37422 8.1205L9.37631 8.11841L9.33433 8.10745C9.27436 8.09181 9.21332 8.0866 9.15084 8.09181C9.08832 8.09702 9.0269 8.11265 8.96718 8.13914C8.90726 8.16571 8.85316 8.20216 8.80442 8.2483L8.80441 8.24831C8.71643 8.33168 8.65752 8.42073 8.62763 8.51511C8.59807 8.60845 8.59182 8.70307 8.60844 8.79761C8.6249 8.89123 8.65882 8.98308 8.71099 9.07208L8.73246 9.0595L8.55445 9.64691Z" fill="#FB5732" stroke="#FB5732" stroke-width="0.0497571"/>
<path d="M11.5046 7.51154L11.5045 7.51147C11.4334 7.44241 11.3705 7.36474 11.3162 7.2785L11.3373 7.26524L11.3162 7.27855C11.2595 7.18882 11.2148 7.095 11.1819 6.9981L11.1818 6.99807C11.1487 6.90002 11.1332 6.80355 11.1358 6.70829C11.1384 6.61221 11.1633 6.52076 11.2105 6.43522C11.2583 6.34862 11.3343 6.27312 11.4365 6.20875L11.4365 6.2087C11.5386 6.14489 11.6392 6.1087 11.7385 6.10345C11.7385 6.10345 11.7385 6.10345 11.7385 6.10345L11.5046 7.51154ZM11.5046 7.51154C11.5767 7.58105 11.6557 7.63503 11.7422 7.67264M11.5046 7.51154L11.5219 7.49363C11.592 7.5613 11.6687 7.61354 11.7522 7.64987M11.7522 7.64987L11.7422 7.67264M11.7522 7.64987C11.8358 7.68669 11.9244 7.70261 12.0179 7.69714M11.7522 7.64987L12.0179 7.69714M11.7422 7.67264C11.8294 7.71106 11.9219 7.72766 12.0193 7.72198M11.7422 7.67264L12.0193 7.72198M12.0193 7.72198C12.1186 7.71672 12.2191 7.68053 12.3212 7.61673L12.3213 7.61668C12.4234 7.55234 12.4995 7.47734 12.5473 7.39015M12.0193 7.72198L12.5805 6.83505M12.0179 7.69714C12.112 7.69216 12.2085 7.65783 12.308 7.59563L12.0179 7.69714ZM12.5473 7.39015C12.5473 7.39017 12.5473 7.39019 12.5473 7.39021L12.5255 7.37819L12.5473 7.39015ZM12.5473 7.39015C12.5944 7.30475 12.6199 7.21387 12.623 7.11878C12.6261 7.02469 12.6122 6.93024 12.5805 6.83505M12.5805 6.83505L12.5568 6.84281M12.5805 6.83505C12.5804 6.83502 12.5804 6.83498 12.5804 6.83494L12.5568 6.84281M12.5568 6.84281C12.5265 6.75026 12.4842 6.66219 12.4314 6.5776L12.5568 6.84281ZM10.7243 7.08214H10.7244L10.7231 7.07661C10.688 6.92227 10.6822 6.77226 10.706 6.62639C10.7298 6.48087 10.7851 6.34391 10.8723 6.21487C10.9591 6.08625 11.0779 5.97413 11.2296 5.87869C11.3834 5.78221 11.5363 5.72345 11.6891 5.70163C11.8424 5.67972 11.9891 5.68996 12.1308 5.7317C12.2723 5.77353 12.4053 5.84362 12.5289 5.94224L12.5289 5.94227C12.6528 6.04084 12.761 6.16404 12.8542 6.31268C12.9449 6.45731 13.0074 6.60544 13.041 6.7581C13.0747 6.91097 13.0795 7.05847 13.0547 7.20231C13.03 7.34588 12.9742 7.4814 12.8875 7.60902C12.8012 7.7361 12.6815 7.84826 12.5277 7.94475L12.5276 7.94477C12.3759 8.04023 12.2233 8.09904 12.0704 8.12235C11.917 8.14573 11.7703 8.1374 11.6302 8.09763C11.4897 8.05778 11.3582 7.98969 11.2357 7.89305C11.1133 7.79646 11.0067 7.67575 10.9155 7.53111L10.8944 7.54438C10.7999 7.39412 10.7347 7.23987 10.6989 7.08264L10.7243 7.08214Z" fill="#FB5732" stroke="#FB5732" stroke-width="0.0497571"/>
<path d="M14.6507 6.75509L14.2363 6.90306L13.4539 4.70888L14.1073 4.47592L15.17 5.81635L15.1806 5.82967L15.1968 5.82467L15.2033 5.82268L15.2214 5.8171L15.2208 5.79813L15.1677 4.09813L15.8208 3.86528L16.6032 6.05949L16.1888 6.20745L15.6309 4.64265L15.6229 4.62023L15.6001 4.62723L15.5937 4.62922L15.5759 4.63467L15.5761 4.65323L15.5929 6.4198L15.2465 6.54326L14.1475 5.18023L14.137 5.16711L14.1209 5.17207L14.1144 5.17406L14.0895 5.1817L14.0983 5.20619L14.6507 6.75509Z" fill="#FB5732" stroke="#FB5732" stroke-width="0.0497571"/>
<path d="M18.613 4.43632C18.6549 4.40252 18.6863 4.3585 18.7066 4.30493C18.7275 4.25004 18.7318 4.18335 18.7215 4.10621C18.7112 4.02907 18.6893 3.96534 18.6541 3.91801C18.6199 3.8721 18.5782 3.83777 18.5285 3.81645C18.4799 3.79565 18.426 3.78467 18.3671 3.7831C18.3094 3.78157 18.2503 3.78515 18.1895 3.79326L18.1894 3.79327L17.7864 3.848L17.7618 3.85135L17.7651 3.87601L17.8611 4.58256L17.8645 4.60721L17.8891 4.60386L18.2921 4.54913C18.2921 4.54913 18.2921 4.54913 18.2922 4.54913C18.3527 4.54099 18.4106 4.52828 18.466 4.51202C18.5231 4.49526 18.5719 4.46993 18.613 4.43632ZM18.613 4.43632C18.613 4.43634 18.6129 4.43636 18.6129 4.43638L18.5973 4.417L18.6131 4.43625C18.613 4.43628 18.613 4.4363 18.613 4.43632ZM18.0555 5.82811L18.0521 5.80346L18.0275 5.80682L18.0308 5.83146L18.0555 5.82811ZM18.2832 3.42014C18.2904 3.41916 18.2976 3.41825 18.3047 3.41739V3.39648V3.39549H18.2799L18.28 3.39648L18.2832 3.42014ZM17.2199 3.56593L17.2446 3.56257L17.2412 3.53792L17.2166 3.54127L17.2199 3.56593ZM17.5583 5.87076L17.5336 5.87412L17.537 5.89877L17.5616 5.89541L17.5583 5.87076ZM19.1153 3.76667C19.1571 3.85275 19.1849 3.94431 19.1979 4.04133L19.1153 3.76667Z" fill="#FB5732" stroke="#FB5732" stroke-width="0.0497571"/>
<path d="M21.9139 5.27125L21.8998 5.66089L20.2677 5.60101L20.353 3.27285L20.8262 3.29042L20.756 5.2036L20.755 5.22846L20.7799 5.22938L21.9139 5.27125Z" fill="#FB5732" stroke="#FB5732" stroke-width="0.0497571"/>
<path d="M23.5109 4.52271L24.6146 4.7559L24.5408 5.10527L23.4371 4.87208L23.4128 4.86694L23.4076 4.89129L23.2872 5.462L23.2821 5.48634L23.3064 5.49148L24.5374 5.75154L24.4567 6.13326L22.738 5.77036L23.2193 3.49091L24.912 3.84841L24.8313 4.22955L23.6267 3.97496L23.6023 3.96982L23.5972 3.99416L23.4917 4.49322L23.4866 4.51756L23.5109 4.52271Z" fill="#FB5732" stroke="#FB5732" stroke-width="0.0497571"/>
<path d="M27.7744 4.88822L27.6288 5.25006L26.9906 4.99268L26.9676 4.98337L26.9583 5.00645L26.2426 6.7821L25.8036 6.60515L26.5193 4.82951L26.5286 4.80644L26.5055 4.79713L25.867 4.53963L26.0124 4.17837L27.7744 4.88822Z" fill="#FB5732" stroke="#FB5732" stroke-width="0.0497571"/>
<path d="M30.3338 6.36907L30.1273 6.70073L29.0821 6.04963L29.061 6.03647L29.0478 6.05759L28.7781 6.49048L28.765 6.5116L28.7861 6.52475L29.7437 7.12112L29.5551 7.42371L28.5975 6.82733L28.5764 6.81418L28.5632 6.83529L28.2547 7.33038L28.2415 7.35149L28.2627 7.36465L29.3302 8.02969L29.1242 8.36062L27.6334 7.43161L28.8654 5.45419L30.3338 6.36907Z" fill="#FB5732" stroke="#FB5732" stroke-width="0.0497571"/>
<path d="M29.8352 8.89646L30.5722 9.57422L29.8352 8.89646ZM29.8352 8.89646L31.4122 7.18164L32.1022 7.81621H32.1018L32.1487 7.8594C32.2596 7.96159 32.3463 8.07372 32.4091 8.19625C32.4716 8.31851 32.5055 8.44629 32.5098 8.5798L32.5098 8.57989C32.5147 8.71327 32.4886 8.85107 32.4306 8.99301L29.8352 8.89646ZM31.4937 9.35444L31.4937 9.35446C31.4047 9.39996 31.3187 9.42561 31.2353 9.42981M31.4937 9.35444L31.2353 9.42981M31.4937 9.35444C31.5832 9.30843 31.673 9.23564 31.7629 9.13767C31.8451 9.0484 31.911 8.95877 31.9603 8.87024L31.9604 8.87019M31.4937 9.35444L31.9604 8.87019M31.2353 9.42981C31.1525 9.43447 31.0745 9.42092 31.0021 9.3889C30.9339 9.35879 30.8719 9.31915 30.8159 9.26912M31.2353 9.42981L30.8159 9.26912M31.9604 8.87019C32.0101 8.78051 32.0392 8.69058 32.047 8.59954L31.9604 8.87019ZM31.4953 7.78952L31.5136 7.80637L31.7882 8.0591C31.8849 8.14767 31.9545 8.23684 31.996 8.32728L31.4953 7.78952ZM31.4953 7.78952L31.4785 7.80783M31.4953 7.78952L31.4785 7.80783M31.4785 7.80783L30.4634 8.91145L30.4466 8.92975M31.4785 7.80783L30.4466 8.92975M30.4466 8.92975L30.4649 8.94659M30.4466 8.92975L30.4649 8.94659M30.4649 8.94659L30.8082 9.26255L30.8153 9.26912M30.4649 8.94659L30.8153 9.26912M30.8153 9.26912H30.8159M30.8153 9.26912H30.8159M32.1457 9.42094C32.0297 9.5468 31.9072 9.64815 31.7777 9.72436C31.6485 9.80044 31.5163 9.84698 31.3816 9.86442L31.3848 9.8891L32.1457 9.42094Z" fill="#FB5732" stroke="#FB5732" stroke-width="0.0497571"/>
<path d="M9.01797 31.2792L9.0295 31.3012C9.16967 31.2279 9.31336 31.1842 9.46021 31.1701C9.60671 31.156 9.75339 31.1744 9.90046 31.2255C10.047 31.2765 10.1859 31.363 10.3165 31.4854C10.4103 31.5733 10.4863 31.6698 10.5447 31.7744C10.6025 31.8794 10.6403 31.9881 10.6578 32.1005L10.033 31.7882L10.05 31.77C10.05 31.77 10.05 31.77 10.05 31.77C9.96155 31.6872 9.86937 31.6334 9.77338 31.6093C9.67859 31.5855 9.58399 31.5844 9.49042 31.6067M9.01797 31.2792L9.02956 31.3012C8.88941 31.3749 8.75924 31.4751 8.63958 31.6031L8.63956 31.6032C8.52295 31.7276 8.43402 31.8616 8.37154 32.0046C8.30909 32.1476 8.27702 32.2921 8.2741 32.438C8.27119 32.5835 8.30026 32.7272 8.36211 32.8699C8.42376 33.0122 8.51962 33.1443 8.65036 33.2667L8.65039 33.2667C8.75545 33.3654 8.86649 33.4389 8.983 33.4889L8.97319 33.5118M9.01797 31.2792C8.87517 31.3543 8.74282 31.4563 8.62141 31.5862L10.3336 31.4672C10.2007 31.3428 10.0589 31.2543 9.90863 31.202C9.75836 31.1498 9.60809 31.1309 9.45783 31.1453C9.30756 31.1597 9.16078 31.2045 9.01797 31.2792ZM8.97319 33.5118L8.98292 33.4889C9.09946 33.5384 9.2181 33.5635 9.33901 33.564C9.45999 33.5645 9.58018 33.5408 9.69973 33.4922C9.81175 33.4467 9.91945 33.3796 10.0228 33.2907L9.68856 32.9785C9.56677 33.0754 9.43979 33.1301 9.30693 33.14C9.16579 33.1506 9.03482 33.0978 8.9139 32.9846L8.91384 32.9845C8.82605 32.9018 8.76552 32.8138 8.73506 32.7193C8.70505 32.6262 8.6972 32.5326 8.71228 32.4385M8.97319 33.5118C8.85378 33.4605 8.74033 33.3854 8.63335 33.2849L10.0411 33.3078C9.93531 33.3991 9.82464 33.4683 9.7091 33.5152C9.5867 33.565 9.4633 33.5894 9.33891 33.5889C9.21451 33.5884 9.09261 33.5625 8.97319 33.5118ZM8.71228 32.4385L8.73685 32.4425M8.71228 32.4385C8.71227 32.4386 8.71227 32.4386 8.71226 32.4387L8.73685 32.4425M8.71228 32.4385C8.72673 32.3453 8.75915 32.2555 8.80765 32.1682C8.85598 32.0812 8.91542 32.0009 8.98485 31.9265L8.98493 31.9264C9.05781 31.8489 9.13639 31.782 9.22217 31.7251L9.23591 31.7459L9.22211 31.7252C9.30797 31.6679 9.39775 31.6284 9.49042 31.6067M8.73685 32.4425C8.72242 32.5325 8.72988 32.6221 8.75874 32.7117C8.7876 32.8012 8.84532 32.8858 8.9309 32.9664C9.04783 33.0759 9.17222 33.1251 9.30507 33.1152C9.43792 33.1052 9.5658 33.0485 9.6897 32.9455L8.73685 32.4425ZM9.49042 31.6067C9.49044 31.6067 9.49047 31.6067 9.49049 31.6067L9.49614 31.6309L9.49036 31.6067C9.49038 31.6067 9.4904 31.6067 9.49042 31.6067ZM10.2196 32.2985L10.2202 32.298L10.6418 32.4426C10.6157 32.5499 10.5666 32.6543 10.4946 32.7563L10.1604 32.4441C10.1887 32.3988 10.2085 32.3504 10.2196 32.2985Z" fill="#FB5732" stroke="#FB5732" stroke-width="0.0497571"/>
<path d="M11.2999 34.221C11.3304 34.1267 11.3725 34.036 11.4256 33.9494L11.4468 33.9625L11.4256 33.9495C11.4809 33.8587 11.5453 33.7776 11.6178 33.705C11.6909 33.632 11.7709 33.5755 11.8574 33.5358C11.9446 33.4959 12.0371 33.4777 12.1351 33.4823M11.2999 34.221L12.5681 34.6532C12.5682 34.6532 12.5682 34.6532 12.5682 34.6532C12.6238 34.5626 12.668 34.4688 12.7 34.3713C12.7321 34.2732 12.7466 34.1767 12.7435 34.0816L12.7435 34.0814C12.7398 33.9854 12.7144 33.8945 12.6661 33.8094L12.6445 33.8216M11.2999 34.221L11.2997 34.221C11.269 34.3162 11.2556 34.4112 11.2598 34.5054C11.2639 34.6004 11.2899 34.6908 11.3381 34.7758L11.3597 34.7635M11.2999 34.221L11.8703 35.078M12.1351 33.4823C12.2339 33.4865 12.335 33.5217 12.4381 33.585L12.4381 33.585C12.5408 33.6484 12.6173 33.7228 12.6662 33.8094L12.6445 33.8216M12.1351 33.4823C12.1351 33.4823 12.1351 33.4823 12.1352 33.4823L12.134 33.5072M12.1351 33.4823C12.1351 33.4823 12.135 33.4823 12.135 33.4823L12.134 33.5072M12.6445 33.8216C12.6908 33.9032 12.7151 33.9903 12.7186 34.0824L12.134 33.5072M12.6445 33.8216C12.5982 33.7395 12.5251 33.6679 12.425 33.6062C12.3245 33.5445 12.2275 33.5112 12.134 33.5072M11.3597 34.7635C11.406 34.8456 11.4792 34.9173 11.5792 34.979C11.6797 35.0407 11.7767 35.074 11.8703 35.078M11.3597 34.7635C11.3135 34.6819 11.2886 34.5954 11.2846 34.5043C11.2807 34.4146 11.2932 34.324 11.3221 34.2329L11.3597 34.7635ZM11.8703 35.078L11.8691 35.1029C11.8691 35.1029 11.8691 35.1029 11.8691 35.1029C11.8692 35.1029 11.8692 35.1029 11.8692 35.1029L11.8703 35.078ZM13.1968 33.9913C13.1714 33.8425 13.1137 33.7027 13.0246 33.5724C12.9356 33.442 12.8127 33.3281 12.6554 33.2315L13.1968 33.9913ZM13.1968 33.9913C13.2227 34.1401 13.2182 34.2933 13.1838 34.4511M13.1968 33.9913L13.1838 34.4511M13.1838 34.4511C13.1495 34.6088 13.0858 34.7631 12.9923 34.9143L13.1838 34.4511ZM11.0217 33.7003C11.1117 33.554 11.2171 33.4317 11.3368 33.333H11.3372L11.3441 33.3275C11.4672 33.2278 11.5992 33.1563 11.7402 33.1135C11.8814 33.0708 12.0285 33.0596 12.1829 33.0805C12.3367 33.1014 12.4896 33.1587 12.6424 33.2527L12.6424 33.2527C12.7971 33.3477 12.9173 33.4593 13.0041 33.5864C13.0912 33.714 13.1475 33.8505 13.1723 33.9955L13.1723 33.9956C13.1976 34.1409 13.1932 34.2909 13.1595 34.4458C13.1259 34.6005 13.0633 34.7521 12.9711 34.9012L12.9711 34.9012C12.8814 35.0463 12.7757 35.168 12.6543 35.2656C12.5327 35.3632 12.4018 35.4328 12.2618 35.4741C12.1221 35.5153 11.9759 35.5251 11.823 35.5037C11.6706 35.4823 11.5171 35.4245 11.3628 35.3295L11.3628 35.3295C11.2101 35.2355 11.0899 35.1248 11.0015 34.9976C10.9129 34.87 10.8556 34.735 10.8294 34.5914L10.8294 34.5914C10.8032 34.448 10.806 34.2995 10.8387 34.1473L10.8387 34.1473C10.8714 33.9946 10.9325 33.8459 11.0217 33.7003L11.0005 33.6873L11.0217 33.7003Z" fill="#FB5732" stroke="#FB5732" stroke-width="0.0497571"/>
<path d="M14.0104 36.6256L13.5946 36.4817L14.3575 34.2807L15.0133 34.508L15.0035 36.2178L15.0034 36.2363L15.021 36.2417L15.0275 36.2437L15.0442 36.2488L15.0547 36.2349L16.0767 34.8756L16.7322 35.1028L15.9693 37.3038L15.5536 37.1599L16.0977 35.5902L16.1062 35.5658L16.0815 35.5582L16.0751 35.5562L16.0588 35.5512L16.0482 35.5646L14.956 36.9529L14.6083 36.8326L14.6039 35.0819L14.6039 35.0636L14.5863 35.0582L14.5799 35.0562L14.5569 35.0491L14.5491 35.0718L14.0104 36.6256Z" fill="#FB5732" stroke="#FB5732" stroke-width="0.0497571"/>
<path d="M18.3972 36.5021L18.0444 36.4573L18.0198 36.4541L18.0229 36.4295L18.1125 35.7219L18.1156 35.6972L18.1403 35.7004L18.5433 35.7516L18.5435 35.7516C18.6037 35.7597 18.6617 35.7714 18.7174 35.7878L18.7174 35.7878C18.7737 35.8044 18.8229 35.8287 18.8647 35.8618L18.8648 35.8619C18.9066 35.8956 18.9385 35.939 18.9594 35.9926M18.3972 36.5021L18.9759 36.1914C18.9759 36.1914 18.9759 36.1914 18.9759 36.1914C18.9856 36.1143 18.9808 36.0471 18.9594 35.9926M18.3972 36.5021L18.3966 36.5027L18.447 36.509C18.5079 36.5166 18.5669 36.5197 18.6247 36.5177C18.6836 36.5156 18.7375 36.5041 18.7856 36.4827L18.7755 36.46C18.8208 36.4401 18.8586 36.4082 18.89 36.3654L18.3972 36.5021ZM18.9594 35.9926C18.9594 35.9926 18.9594 35.9926 18.9594 35.9927L18.9362 36.0017L18.9594 35.9926C18.9594 35.9926 18.9594 35.9926 18.9594 35.9926ZM18.7103 35.8116C18.7641 35.8275 18.8104 35.8504 18.8492 35.8813L18.7103 35.8116ZM18.7103 35.8116C18.6561 35.7957 18.5994 35.7843 18.5402 35.7763L18.7103 35.8116ZM19.313 35.7211L19.3131 35.7211C19.3672 35.7968 19.4026 35.88 19.4203 35.9707C19.4382 36.062 19.4412 36.1549 19.429 36.2493L19.429 36.2494C19.4174 36.3417 19.3913 36.4303 19.3511 36.5155C19.3113 36.5999 19.2558 36.6721 19.1845 36.732C19.1135 36.7915 19.0253 36.8363 18.9192 36.8654C18.8143 36.8941 18.6893 36.8997 18.5438 36.8811L18.5438 36.8811L17.9985 36.8119L17.9738 36.8088L17.9707 36.8335L17.8663 37.6552L17.3967 37.5958L17.69 35.2846L18.7296 35.4164L18.7296 35.4166H18.7316C18.8765 35.4352 18.9955 35.4717 19.0896 35.5257C19.185 35.5805 19.2592 35.6454 19.313 35.7211ZM18.7332 35.3917C18.881 35.4106 19.0039 35.4479 19.1019 35.5041C19.2 35.5604 19.2771 35.6275 19.3333 35.7066C19.3895 35.7853 19.4264 35.8718 19.4448 35.9659C19.4632 36.0599 19.4662 36.1555 19.4537 36.2525C19.4418 36.3475 19.4149 36.4386 19.3736 36.5261C19.3323 36.6137 19.2746 36.6888 19.2005 36.751C19.1263 36.8132 19.0348 36.8595 18.9258 36.8894C18.8168 36.9192 18.6885 36.9247 18.5407 36.9058L18.7332 35.3917Z" fill="#FB5732" stroke="#FB5732" stroke-width="0.0497571"/>
<path d="M20.9864 37.4443L22.1199 37.3927L22.1376 37.7824L20.506 37.8567L20.4002 35.5295L20.8735 35.5079L20.9604 37.4206L20.9616 37.4455L20.9864 37.4443Z" fill="#FB5732" stroke="#FB5732" stroke-width="0.0497571"/>
<path d="M23.5615 36.1585L24.6632 35.9155L24.74 36.264L23.6383 36.507L23.614 36.5123L23.6194 36.5366L23.7448 37.1058L23.7501 37.1301L23.7744 37.1248L25.003 36.854L25.0868 37.2348L23.3715 37.6132L22.8697 35.3381L24.5596 34.9655L24.6435 35.3465L23.4408 35.6118L23.4165 35.6172L23.4218 35.6415L23.5318 36.1395L23.5372 36.1638L23.5615 36.1585Z" fill="#FB5732" stroke="#FB5732" stroke-width="0.0497571"/>
<path d="M27.2563 36.4467L26.8186 36.6277L26.0873 34.8585L26.0778 34.8355L26.0548 34.845L25.4185 35.1077L25.2693 34.7471L27.025 34.0213L27.1742 34.3818L26.5384 34.645L26.5154 34.6545L26.5249 34.6775L27.2563 36.4467Z" fill="#FB5732" stroke="#FB5732" stroke-width="0.0497571"/>
<path d="M29.2104 32.704L29.4197 33.0335L28.3804 33.6938L28.3594 33.7072L28.3728 33.7282L28.6464 34.1586L28.6598 34.1796L28.6808 34.1662L29.633 33.5611L29.8243 33.8624L28.872 34.4675L28.851 34.4809L28.8644 34.5019L29.1773 34.994L29.1907 35.015L29.2117 35.0016L30.2734 34.3268L30.4826 34.656L29 35.5981L27.7504 33.6319L29.2104 32.704Z" fill="#FB5732" stroke="#FB5732" stroke-width="0.0497571"/>
<path d="M31.4174 31.1315L31.4164 31.1564C31.5498 31.1617 31.6852 31.1979 31.8223 31.2662C31.9588 31.3342 32.0944 31.4397 32.2277 31.5824L32.2277 31.5824C32.3447 31.7072 32.4362 31.8371 32.5027 31.9724C32.569 32.1076 32.6058 32.2421 32.6126 32.3777C32.6194 32.5131 32.5957 32.6473 32.5408 32.7804C32.4862 32.9128 32.3936 33.0408 32.2627 33.1633L31.5315 33.8479L29.9395 32.1472L30.6288 31.5018V31.5024L30.6707 31.4631C30.7806 31.36 30.8991 31.2821 31.026 31.2286C31.1526 31.1752 31.2828 31.1515 31.4165 31.1564L31.4174 31.1315ZM31.4174 31.1315C31.2801 31.1265 31.1462 31.1509 31.0164 31.2056C30.8961 31.2563 30.7834 31.3284 30.6785 31.4222L32.2459 31.5654C32.111 31.4211 31.9732 31.3136 31.8334 31.2439C31.6936 31.1743 31.5547 31.137 31.4174 31.1315ZM31.9611 32.9108L31.628 33.223L31.6098 33.24L31.5928 33.2219L30.5678 32.1272L30.5508 32.1091L30.569 32.0921L30.8416 31.8368C30.8416 31.8368 30.8416 31.8368 30.8416 31.8368C30.9373 31.7472 31.0316 31.6844 31.1246 31.6495L31.1247 31.6495C31.2173 31.6154 31.3092 31.6047 31.4 31.6194C31.4899 31.634 31.5778 31.6693 31.6635 31.7257C31.7485 31.7817 31.8325 31.8542 31.9157 31.9429L31.9611 32.9108ZM31.9611 32.9108H31.9621L31.9693 32.9041C32.0265 32.8505 32.0735 32.7896 32.1096 32.7204L31.9611 32.9108Z" fill="#FB5732" stroke="#FB5732" stroke-width="0.0497571"/>
<path d="M34.0449 12.1499C35.4565 14.4654 36.2629 17.0987 36.3899 19.8076C36.5169 22.5164 35.9605 25.2137 34.7717 27.651" stroke="#FB5732"/>
<path d="M6.24196 28.6475C4.88049 26.2894 4.13674 23.6256 4.07972 20.9032C4.02269 18.1809 4.65424 15.4883 5.91577 13.0752" stroke="#FB5732"/>
<path d="M18.3722 22.6804L25.8897 15.1629L27.0439 16.3171L18.365 24.9961L13.7047 20.3358L14.8589 19.1816L18.3577 22.6804L18.365 22.6877L18.3722 22.6804Z" fill="#FB5732" stroke="#FB5732" stroke-width="0.0205034"/>
</svg>
