<svg width="56" height="56" viewBox="0 0 56 56" fill="none" xmlns="http://www.w3.org/2000/svg">
<path d="M53.8686 38.7151C55.2758 35.318 56 31.677 56 28C56 20.5739 53.05 13.452 47.799 8.20101C42.548 2.94999 35.4261 0 28 0C20.5739 0 13.452 2.94999 8.20101 8.20101C2.94999 13.452 0 20.5739 0 28C0 31.677 0.724241 35.318 2.13137 38.7151C3.5385 42.1123 5.60097 45.1989 8.20101 47.799C10.8011 50.399 13.8877 52.4615 17.2849 53.8686C20.682 55.2758 24.323 56 28 56C31.677 56 35.318 55.2758 38.7151 53.8686C42.1123 52.4615 45.1989 50.399 47.799 47.799C50.399 45.1989 52.4615 42.1123 53.8686 38.7151Z" fill="#CEF6D0"/>
<path d="M17.6865 29.4729L24.5637 35.3676L38.3181 23.5781" stroke="#101010" stroke-width="2" stroke-linecap="round" stroke-linejoin="round"/>
</svg>
