<svg width="24" height="25" viewBox="0 0 24 25" fill="none" xmlns="http://www.w3.org/2000/svg">
<path fill-rule="evenodd" clip-rule="evenodd" d="M9.38536 2.60071C9.79957 2.60071 10.1354 2.93649 10.1354 3.35071V3.90771H13.2101V3.35071C13.2101 2.93649 13.5458 2.60071 13.9601 2.60071C14.3743 2.60071 14.7101 2.93649 14.7101 3.35071V3.90771H17.8285V3.35071C17.8285 2.93649 18.1643 2.60071 18.5785 2.60071C18.9927 2.60071 19.3285 2.93649 19.3285 3.35071V3.90771H22.4999C22.9141 3.90771 23.2499 4.24349 23.2499 4.65771V21.6494C23.2499 22.0637 22.9141 22.3994 22.4999 22.3994H5.42106C5.00685 22.3994 4.67106 22.0637 4.67106 21.6494V19.7854H1.49955C1.18378 19.7854 0.901833 19.5876 0.794342 19.2907C0.687142 18.9946 0.776359 18.6631 1.01747 18.4608C1.01791 18.4605 1.01835 18.4601 1.0188 18.4597L1.02084 18.4579C1.02495 18.4544 1.03262 18.4477 1.04361 18.4379C1.06558 18.4182 1.10083 18.386 1.14747 18.341C1.24078 18.2511 1.37951 18.1103 1.54873 17.9176C1.88727 17.5321 2.34689 16.9397 2.80914 16.1308C3.73136 14.517 4.67106 12.03 4.67106 8.57888V4.65771C4.67106 4.24349 5.00685 3.90771 5.42106 3.90771H8.63536V3.35071C8.63536 2.93649 8.97115 2.60071 9.38536 2.60071ZM8.63536 5.40771H6.17106V7.82888H21.7499V5.40771H19.3285V5.96482C19.3285 6.37903 18.9927 6.71482 18.5785 6.71482C18.1643 6.71482 17.8285 6.37903 17.8285 5.96482V5.40771H14.7101V5.96482C14.7101 6.37903 14.3743 6.71482 13.9601 6.71482C13.5458 6.71482 13.2101 6.37903 13.2101 5.96482V5.40771H10.1354V5.96482C10.1354 6.37903 9.79957 6.71482 9.38536 6.71482C8.97115 6.71482 8.63536 6.37903 8.63536 5.96482V5.40771ZM21.7349 9.32888H6.15717C6.03187 12.6857 5.07926 15.1816 4.11148 16.8751C3.79304 17.4323 3.47362 17.9015 3.1826 18.2854H5.41282C5.41557 18.2853 5.41831 18.2853 5.42106 18.2853C5.42381 18.2853 5.42656 18.2853 5.4293 18.2854H18.2832C18.3725 18.1967 18.4899 18.0744 18.6276 17.9176C18.9661 17.5321 19.4258 16.9397 19.888 16.1308C20.742 14.6364 21.611 12.3932 21.7349 9.32888ZM18.5784 19.0354L19.0585 19.6116C18.9238 19.7239 18.7539 19.7854 18.5784 19.7854H6.17106V20.8994H21.7499V15.7898C21.568 16.1825 21.3795 16.5441 21.1903 16.8751C20.6722 17.7817 20.1515 18.4555 19.7547 18.9073C19.5563 19.1333 19.3887 19.304 19.2675 19.4208C19.2069 19.4792 19.1579 19.5242 19.1224 19.5559C19.1047 19.5718 19.0904 19.5844 19.0796 19.5936L19.0663 19.605L19.0617 19.6089L19.0599 19.6104L19.0592 19.611C19.0589 19.6113 19.0585 19.6116 18.5784 19.0354Z" fill="#101010"/>
</svg>
