<svg width="24" height="25" viewBox="0 0 24 25" fill="none" xmlns="http://www.w3.org/2000/svg">
<path fill-rule="evenodd" clip-rule="evenodd" d="M13.3609 22.5135L13.3538 22.5194C12.958 22.8434 12.4718 23 12 23C11.5779 23 11.0673 22.877 10.6322 22.5078C10.384 22.3031 8.62404 20.8172 6.89346 18.6879C5.17149 16.5692 3.22656 13.5117 3.22656 10.2999C3.22656 5.62766 7.26185 2 12 2C16.7382 2 20.7735 5.62766 20.7735 10.2999C20.7735 13.5119 18.8284 16.568 17.1064 18.6858C15.3544 20.8407 13.5727 22.3358 13.3743 22.5022L13.3609 22.5135ZM11.5967 21.3588C11.319 21.1318 4.72656 15.6268 4.72656 10.2999C4.72656 6.55012 7.99301 3.5 12 3.5C16.0071 3.5 19.2735 6.55012 19.2735 10.2999C19.2735 15.5946 12.7606 21.0591 12.4091 21.354L12.4034 21.3588C12.291 21.4509 12.1455 21.5 12 21.5C11.8546 21.5 11.7091 21.457 11.5967 21.3588ZM9.45995 10.2508C9.45995 11.3871 10.4928 12.5005 12 12.5005C13.5072 12.5005 14.5401 11.3871 14.5401 10.2508C14.5401 9.11439 13.5072 8.00102 12 8.00102C10.4928 8.00102 9.45995 9.11439 9.45995 10.2508ZM7.95995 10.2508C7.95995 12.319 9.77171 14.0005 12 14.0005C14.2284 14.0005 16.0401 12.319 16.0401 10.2508C16.0401 8.18258 14.2284 6.50102 12 6.50102C9.77171 6.50102 7.95995 8.18258 7.95995 10.2508Z" fill="#101010"/>
</svg>
