<svg width="18" height="18" viewBox="0 0 18 18" fill="none" xmlns="http://www.w3.org/2000/svg">
<path d="M17.6415 4.63906C17.5397 4.25612 17.3391 3.90662 17.0599 3.62555C16.7806 3.34448 16.4324 3.14168 16.0501 3.03747C14.6428 2.65906 9.01782 2.65906 9.01782 2.65906C9.01782 2.65906 3.39282 2.65906 1.98555 3.03747C1.60327 3.14168 1.25507 3.34448 0.975788 3.62555C0.696509 3.90662 0.495951 4.25612 0.394186 4.63906C0.0178223 6.05247 0.0178223 8.99997 0.0178223 8.99997C0.0178223 8.99997 0.0178223 11.9475 0.394186 13.3609C0.495951 13.7438 0.696509 14.0933 0.975788 14.3744C1.25507 14.6555 1.60327 14.8582 1.98555 14.9625C3.39282 15.3409 9.01782 15.3409 9.01782 15.3409C9.01782 15.3409 14.6428 15.3409 16.0501 14.9625C16.4324 14.8582 16.7806 14.6555 17.0599 14.3744C17.3391 14.0933 17.5397 13.7438 17.6415 13.3609C18.0178 11.9475 18.0178 8.99997 18.0178 8.99997C18.0178 8.99997 18.0178 6.05247 17.6415 4.63906Z" fill="#101010"/>
<path d="M7.17694 11.6764V6.32349L11.8815 8.99996L7.17694 11.6764Z" fill="#FEFEFE"/>
</svg>

