<svg width="24" height="26" viewBox="0 0 24 26" fill="none" xmlns="http://www.w3.org/2000/svg">
<path d="M6.5 6.33333V17C6.5 17.7072 6.78973 18.3855 7.30546 18.8856C7.82118 19.3857 8.52065 19.6667 9.25 19.6667H17.5M6.5 6.33333V3.66667C6.5 2.95942 6.78973 2.28115 7.30546 1.78105C7.82118 1.28095 8.52065 1 9.25 1H15.5558C15.9204 1.00008 16.2701 1.1406 16.5279 1.39067L22.5971 7.276C22.855 7.52599 22.9999 7.86507 23 8.21867V17C23 17.7072 22.7103 18.3855 22.1945 18.8856C21.6788 19.3857 20.9793 19.6667 20.25 19.6667H17.5M6.5 6.33333H3.75C3.02065 6.33333 2.32118 6.61428 1.80546 7.11438C1.28973 7.61448 1 8.29276 1 9V22.3333C1 23.0406 1.28973 23.7189 1.80546 24.219C2.32118 24.719 3.02065 25 3.75 25H14.75C15.4793 25 16.1788 24.719 16.6945 24.219C17.2103 23.7189 17.5 23.0406 17.5 22.3333V19.6667" stroke="white" stroke-width="1.5" stroke-linecap="round" stroke-linejoin="round"/>
</svg>
