<svg width="40" height="40" viewBox="0 0 40 40" fill="none" xmlns="http://www.w3.org/2000/svg">
<rect width="40" height="40" rx="20" fill="#353535"/>
<path d="M16 14.8788V12.9394C16 12.425 16.2107 11.9317 16.5858 11.568C16.9609 11.2043 17.4696 11 18 11H22.586C22.8512 11.0001 23.1055 11.1023 23.293 11.2841L27.707 15.5644C27.8946 15.7462 27.9999 15.9928 28 16.2499V22.6364C28 23.1507 27.7893 23.644 27.4142 24.0077C27.0391 24.3714 26.5304 24.5758 26 24.5758H24V26.5152C24 27.0295 23.7893 27.5228 23.4142 27.8865C23.0391 28.2502 22.5304 28.4545 22 28.4545H14C13.4696 28.4545 12.9609 28.2502 12.5858 27.8865C12.2107 27.5228 12 27.0295 12 26.5152V16.8182C12 16.3038 12.2107 15.8105 12.5858 15.4468C12.9609 15.0831 13.4696 14.8788 14 14.8788H16Z" fill="#353535"/>
<path d="M16 14.8788V22.6364C16 23.1507 16.2107 23.644 16.5858 24.0077C16.9609 24.3714 17.4696 24.5758 18 24.5758H24M16 14.8788V12.9394C16 12.425 16.2107 11.9317 16.5858 11.568C16.9609 11.2043 17.4696 11 18 11H22.586C22.8512 11.0001 23.1055 11.1023 23.293 11.2841L27.707 15.5644C27.8946 15.7462 27.9999 15.9928 28 16.2499V22.6364C28 23.1507 27.7893 23.644 27.4142 24.0077C27.0391 24.3714 26.5304 24.5758 26 24.5758H24M16 14.8788H14C13.4696 14.8788 12.9609 15.0831 12.5858 15.4468C12.2107 15.8105 12 16.3038 12 16.8182V26.5152C12 27.0295 12.2107 27.5228 12.5858 27.8865C12.9609 28.2502 13.4696 28.4545 14 28.4545H22C22.5304 28.4545 23.0391 28.2502 23.4142 27.8865C23.7893 27.5228 24 27.0295 24 26.5152V24.5758" stroke="white" stroke-width="1.5" stroke-linecap="round" stroke-linejoin="round"/>
</svg>
