<svg width="32" height="32" viewBox="0 0 32 32" fill="none" xmlns="http://www.w3.org/2000/svg">
<rect width="32" height="32" rx="16" fill="#353535"/>
<path d="M12.7996 11.903V10.3514C12.7996 9.93995 12.9682 9.54532 13.2682 9.25435C13.5683 8.96339 13.9753 8.79993 14.3996 8.79993H18.0684C18.2806 8.79997 18.484 8.88173 18.634 9.02722L22.1652 12.4514C22.3152 12.5969 22.3996 12.7942 22.3996 12.9999V18.109C22.3996 18.5205 22.231 18.9151 21.931 19.2061C21.6309 19.4971 21.224 19.6605 20.7996 19.6605H19.1996V21.212C19.1996 21.6235 19.031 22.0182 18.731 22.3091C18.4309 22.6001 18.024 22.7636 17.5996 22.7636H11.1996C10.7753 22.7636 10.3683 22.6001 10.0682 22.3091C9.76818 22.0182 9.59961 21.6235 9.59961 21.212V13.4545C9.59961 13.043 9.76818 12.6484 10.0682 12.3574C10.3683 12.0664 10.7753 11.903 11.1996 11.903H12.7996Z" fill="#353535"/>
<path d="M12.7996 11.903V18.109C12.7996 18.5205 12.9682 18.9151 13.2682 19.2061C13.5683 19.4971 13.9753 19.6605 14.3996 19.6605H19.1996M12.7996 11.903V10.3514C12.7996 9.93995 12.9682 9.54532 13.2682 9.25435C13.5683 8.96339 13.9753 8.79993 14.3996 8.79993H18.0684C18.2806 8.79997 18.484 8.88173 18.634 9.02722L22.1652 12.4514C22.3152 12.5969 22.3996 12.7942 22.3996 12.9999V18.109C22.3996 18.5205 22.231 18.9151 21.931 19.2061C21.6309 19.4971 21.224 19.6605 20.7996 19.6605H19.1996M12.7996 11.903H11.1996C10.7753 11.903 10.3683 12.0664 10.0682 12.3574C9.76818 12.6484 9.59961 13.043 9.59961 13.4545V21.212C9.59961 21.6235 9.76818 22.0182 10.0682 22.3091C10.3683 22.6001 10.7753 22.7636 11.1996 22.7636H17.5996C18.024 22.7636 18.4309 22.6001 18.731 22.3091C19.031 22.0182 19.1996 21.6235 19.1996 21.212V19.6605" stroke="white" stroke-linecap="round" stroke-linejoin="round"/>
</svg>
